<svg width="400" height="496" viewBox="0 0 400 496" fill="none" xmlns="http://www.w3.org/2000/svg">
<g clip-path="url(#clip0_1577_456)">
<g clip-path="url(#clip1_1577_456)">
<path fill-rule="evenodd" clip-rule="evenodd" d="M9.32222 928.771C-88.9191 856.176 -125.673 711.464 -73.9961 600.744C-10.9636 465.694 156.225 397.346 204.875 256.481C230.205 183.128 218.362 102.982 210.982 25.7481C203.599 -51.4899 202.491 -134.976 245.003 -199.912C282.713 -257.514 353.659 -291.562 422.179 -284.941C496.618 -277.745 559.168 -228.26 616.959 -180.822C698.743 -113.685 781.985 -44.9162 838.261 44.6869C894.534 134.285 920.15 249.983 878.254 347.176C839.914 436.124 754.016 493.859 671.191 544.099C427.224 692.077 171.358 819.276 -84.149 946.281" fill="url(#paint0_linear_1577_456)"/>
<path opacity="0.5" d="M329.903 301.39V315.378H361.838C366.723 315.378 370.39 316.462 372.838 318.63C373.536 319.249 374.127 319.932 374.624 320.669C377.356 319.086 379.994 317.34 382.537 315.453C382.501 315.432 382.466 315.399 382.418 315.367H382.643C384.831 313.74 386.972 312.027 389.042 310.227V301.379H329.903V301.39Z" fill="white"/>
<path d="M389.042 315.378V310.239C386.972 312.05 384.831 313.763 382.643 315.378H389.042Z" fill="white"/>
<path d="M365.741 464.362C373.157 462.486 376.859 457.39 376.859 449.073C376.859 443.727 374.884 439.672 370.945 436.929L378.042 425.652C386.475 430.998 390.698 438.881 390.698 449.29C390.698 458.257 387.741 465.446 381.827 470.868C375.913 476.289 368.461 479 359.472 479C350.483 479 343.126 476.322 337.177 470.976C331.227 465.63 328.247 458.756 328.247 450.374C328.247 442.426 331.239 435.866 337.236 430.694C343.232 425.522 350.637 422.941 359.472 422.941C361.447 422.941 363.529 423.126 365.741 423.483V464.362ZM353.913 464.579V436.929C349.892 437.72 346.899 439.369 344.924 441.862C342.949 444.356 341.967 447.197 341.967 450.374C341.967 454.137 343.008 457.238 345.101 459.699C347.195 462.161 350.128 463.787 353.913 464.579Z" fill="white"/>
<path d="M336.881 375.232C331.121 379.352 328.247 385.208 328.247 392.798C328.247 400.388 331.263 406.33 337.295 411.502C343.327 416.674 350.719 419.255 359.472 419.255C368.225 419.255 375.617 416.674 381.649 411.502C387.681 406.33 390.698 400.095 390.698 392.798C390.698 385.5 387.823 379.352 382.063 375.232H412.697V361.244H329.902V375.232H336.881ZM371.477 379.461C374.588 382.28 376.149 385.858 376.149 390.195C376.149 394.533 374.588 398.133 371.477 400.984C368.367 403.836 364.357 405.267 359.472 405.267C354.587 405.267 350.578 403.836 347.467 400.984C344.356 398.133 342.795 394.533 342.795 390.195C342.795 385.858 344.356 382.28 347.467 379.461C350.578 376.642 354.587 375.232 359.472 375.232C364.357 375.232 368.367 376.642 371.477 379.461Z" fill="white"/>
<path d="M376.505 327.305C376.505 330.558 375.464 333.16 373.37 335.112C371.277 337.064 368.261 338.04 364.322 338.04H329.903V352.027H366.214C373.867 352.027 379.852 350.097 384.193 346.226C388.533 342.355 390.698 337.465 390.698 331.534C390.698 324.215 387.978 318.858 382.537 315.464C379.994 317.34 377.356 319.086 374.624 320.68C375.878 322.523 376.505 324.735 376.505 327.316V327.305Z" fill="white"/>
<path opacity="0.5" d="M322.806 284.367C322.806 281.982 321.884 279.943 320.027 278.241C318.17 276.538 315.982 275.693 313.462 275.693C310.943 275.693 308.731 276.538 306.839 278.241C304.946 279.943 304 281.982 304 284.367C304 286.753 304.946 288.683 306.839 290.385C308.731 292.087 310.943 292.933 313.462 292.933C315.982 292.933 318.17 292.087 320.027 290.385C321.884 288.683 322.806 286.677 322.806 284.367Z" fill="white"/>
<path opacity="0.5" d="M329.903 277.318V291.306H389.042V277.318H329.903Z" fill="white"/>
<path opacity="0.5" d="M334.752 222.398C330.411 226.269 328.247 231.159 328.247 237.091C328.247 244.464 331.002 249.853 336.526 253.247H329.902V267.234H389.042V253.247H357.107C352.222 253.247 348.555 252.162 346.107 249.994C343.658 247.825 342.44 244.93 342.44 241.319C342.44 238.066 343.481 235.464 345.574 233.512C347.668 231.561 350.684 230.585 354.623 230.585H389.042V216.597H352.73C345.078 216.597 339.093 218.527 334.752 222.398Z" fill="white"/>
<path opacity="0.5" d="M328.247 181.574C328.247 189.598 331.263 196.375 337.295 201.905C343.327 207.435 350.719 210.2 359.472 210.2C368.225 210.2 375.617 207.435 381.649 201.905C387.681 196.375 390.698 189.598 390.698 181.574C390.698 173.551 387.681 166.752 381.649 161.189C375.617 155.627 368.225 152.84 359.472 152.84C350.719 152.84 343.327 155.627 337.295 161.189C331.263 166.752 328.247 173.551 328.247 181.574ZM371.182 171.057C374.257 173.876 375.794 177.378 375.794 181.574C375.794 185.771 374.257 189.251 371.182 192.038C368.106 194.825 364.203 196.213 359.472 196.213C354.741 196.213 350.838 194.825 347.763 192.038C344.687 189.251 343.15 185.771 343.15 181.574C343.15 177.378 344.687 173.876 347.763 171.057C350.838 168.237 354.741 166.828 359.472 166.828C364.203 166.828 368.106 168.237 371.182 171.057Z" fill="white"/>
<path d="M383.235 103.406C383.341 103.309 383.447 103.2 383.554 103.092L370.721 111.517C375.381 109.75 379.663 107.277 383.235 103.406Z" fill="white"/>
<path opacity="0.5" d="M370.721 111.517L358.811 119.335L353.488 115.844C347.586 117.026 341.731 118.294 336.456 120.734L346.557 127.381L329.892 138.322V154.478L358.846 135.47L389.031 155.345V139.189L371.112 127.424L389.031 115.66V99.5033L383.543 103.103C383.436 103.212 383.33 103.32 383.223 103.418C379.651 107.289 375.37 109.761 370.709 111.528L370.721 111.517Z" fill="white"/>
<path d="M389.041 95.2642V90.2221C388.592 91.9137 388.202 93.6269 387.729 95.2642H389.041Z" fill="white"/>
<g opacity="0.75">
<path d="M329.903 100.36V116.408L336.455 120.723C341.731 118.294 347.585 117.015 353.488 115.833L329.903 100.349V100.36Z" fill="white"/>
<path d="M322.806 88.3236C322.806 85.9381 321.884 83.8996 320.027 82.1973C318.17 80.4949 315.982 79.6492 313.462 79.6492C310.943 79.6492 308.731 80.4949 306.839 82.1973C304.946 83.8996 304 85.9381 304 88.3236C304 90.7091 304.946 92.6392 306.839 94.3415C308.731 96.0439 310.943 96.8896 313.462 96.8896C315.982 96.8896 318.17 96.0439 320.027 94.3415C321.884 92.6392 322.806 90.6332 322.806 88.3236Z" fill="white"/>
<path d="M329.903 81.2766V95.2642H387.729C388.202 93.616 388.593 91.9137 389.042 90.2221V81.2766H329.903Z" fill="white"/>
<path d="M329.902 29.9878V16.0002L389.042 16.0002V29.9878L382.063 29.9878C387.823 34.1841 390.698 40.0719 390.698 47.6621C390.698 55.2522 387.681 61.0858 381.649 66.2579C375.617 71.4301 368.225 74.0107 359.472 74.0107C350.719 74.0107 343.327 71.4301 337.295 66.2579C331.263 61.0858 328.247 54.8944 328.247 47.6621C328.247 40.0719 331.121 34.1841 336.881 29.9878H329.902ZM371.477 55.7944C374.588 52.9752 376.149 49.3969 376.149 45.0597C376.149 40.7225 374.588 37.1226 371.477 34.2709C368.367 31.4191 364.357 29.9878 359.472 29.9878C354.587 29.9878 350.578 31.4191 347.467 34.2709C344.356 37.1226 342.795 40.7225 342.795 45.0597C342.795 49.3969 344.356 52.9752 347.467 55.7944C350.578 58.6136 354.587 60.0232 359.472 60.0232C364.357 60.0232 368.367 58.6136 371.477 55.7944Z" fill="white"/>
</g>
</g>
</g>
<defs>
<linearGradient id="paint0_linear_1577_456" x1="-1.19759" y1="-42.2116" x2="499.752" y2="669.086" gradientUnits="userSpaceOnUse">
<stop stop-color="#FFB245"/>
<stop offset="1" stop-color="#FB9A2B"/>
</linearGradient>
<clipPath id="clip0_1577_456">
<rect width="400" height="496" fill="white"/>
</clipPath>
<clipPath id="clip1_1577_456">
<rect width="1274" height="870" fill="white" transform="translate(-614 -228)"/>
</clipPath>
</defs>
</svg>
