<svg width="290" height="316" viewBox="0 0 290 316" fill="none" xmlns="http://www.w3.org/2000/svg">
<g clip-path="url(#clip0_1577_457)">
<path d="M263.377 187.007L262.575 186.826C261.718 185.099 260.162 182.588 257.872 181.266C255.826 180.085 252.497 180.085 250.452 181.266C250.002 181.525 249.657 181.831 249.392 182.158L248.845 181.664V183.544C248.845 184.416 249.414 185.226 250.45 185.824C254.042 187.898 262.742 188.922 263.111 188.965C263.12 188.965 263.13 188.965 263.139 188.965C263.211 188.965 263.279 188.932 263.324 188.876C263.354 188.838 263.343 188.791 263.348 188.744L263.376 188.78V187.004L263.377 187.007Z" fill="#032D3D"/>
<path fill-rule="evenodd" clip-rule="evenodd" d="M219.952 179.202L218.076 179.734L211.751 176.082C211.678 176.039 211.587 176.039 211.514 176.082L200.414 182.49L198.837 181.868L198.825 183.545C198.825 183.63 198.87 183.708 198.944 183.751L207.025 188.416C207.062 188.437 207.102 188.449 207.144 188.449C207.186 188.449 207.226 188.438 207.262 188.416L219.833 181.158C219.906 181.117 219.952 181.038 219.952 180.953V179.201V179.202Z" fill="#032D3D"/>
<path fill-rule="evenodd" clip-rule="evenodd" d="M117.185 271.494L110.502 267.636C110.429 267.593 110.338 267.593 110.265 267.636L99.1579 274.05L97.5776 273.348V275.099C97.5776 275.184 97.6224 275.262 97.6969 275.304L105.777 279.969C105.813 279.99 105.855 280.002 105.897 280.002C105.938 280.002 105.979 279.991 106.016 279.969L118.585 272.711C118.658 272.669 118.704 272.59 118.704 272.507V270.755L117.188 271.494H117.185Z" fill="#032D3D"/>
<path fill-rule="evenodd" clip-rule="evenodd" d="M96.9021 244.279L96.9707 245.219L96.2417 244.798L96.9021 244.279Z" fill="#032D3D"/>
<path fill-rule="evenodd" clip-rule="evenodd" d="M93.5401 253.757L90.5957 252.358V253.144L93.5416 254.85L103.635 249.09V248.167L93.5401 253.757Z" fill="#032D3D"/>
<path fill-rule="evenodd" clip-rule="evenodd" d="M88.1343 249.995L87.2562 250.475L80.7158 246.612V247.447L87.2562 251.277L88.1343 250.77L90.6568 252.226L91.2516 251.796L88.1343 249.995Z" fill="#032D3D"/>
<path d="M64.6282 223.536C64.5879 223.536 64.5462 223.526 64.5089 223.505C64.4359 223.463 64.3896 223.384 64.3896 223.299V218.741C64.3896 218.61 64.4955 218.504 64.6267 218.504C64.7579 218.504 64.8637 218.61 64.8637 218.741V222.888L91.3859 207.576C91.4992 207.509 91.6438 207.549 91.7094 207.663C91.775 207.776 91.7362 207.922 91.6229 207.986L64.7445 223.505C64.7072 223.526 64.6669 223.536 64.6252 223.536" fill="#032D3D"/>
<path fill-rule="evenodd" clip-rule="evenodd" d="M182.522 35L141.219 58.8471V132.588L182.522 108.742V35Z" fill="#0B4460"/>
<path fill-rule="evenodd" clip-rule="evenodd" d="M133.043 77.6743L97.9131 97.9582V171.699L133.043 151.415V77.6743Z" fill="#0B4460"/>
<path d="M263.366 186.899C263.291 186.684 261.498 181.607 257.872 179.514C255.826 178.333 252.497 178.333 250.452 179.514C249.416 180.112 248.846 180.921 248.846 181.794C248.846 182.666 249.416 183.475 250.452 184.073C254.045 186.147 262.744 187.171 263.112 187.213C263.123 187.213 263.131 187.213 263.14 187.213C263.212 187.213 263.281 187.18 263.327 187.125C263.377 187.061 263.392 186.976 263.367 186.899" fill="#0B4460"/>
<path d="M118.581 270.549L110.5 265.884C110.427 265.841 110.336 265.841 110.263 265.884L97.694 273.142C97.6209 273.184 97.5747 273.263 97.5747 273.348C97.5747 273.432 97.6194 273.51 97.694 273.553L105.774 278.218C105.812 278.239 105.852 278.251 105.894 278.251C105.935 278.251 105.976 278.241 106.013 278.218L118.582 270.961C118.655 270.919 118.701 270.84 118.701 270.755C118.701 270.67 118.657 270.591 118.582 270.549" fill="#0B4460"/>
<path d="M107.256 257.264C107.216 257.264 107.174 257.253 107.137 257.232L102.401 254.496C102.287 254.431 102.249 254.286 102.314 254.173C102.38 254.06 102.524 254.019 102.638 254.086L107.256 256.752L113.452 253.174C113.525 253.131 113.616 253.131 113.689 253.174L115.149 254.016L122.578 249.727L119.845 248.065C119.773 248.021 119.73 247.944 119.73 247.859C119.73 247.775 119.776 247.698 119.849 247.656L131.608 240.867C131.721 240.799 131.867 240.84 131.931 240.953C131.997 241.066 131.958 241.212 131.845 241.277L120.434 247.866L123.167 249.529C123.238 249.572 123.281 249.65 123.28 249.735C123.28 249.818 123.234 249.896 123.161 249.937L115.267 254.495C115.194 254.538 115.103 254.538 115.03 254.495L113.57 253.651L107.374 257.229C107.337 257.25 107.297 257.261 107.255 257.261" fill="#3D7088"/>
<path d="M126.985 247.689C126.903 247.689 126.822 247.646 126.779 247.57C126.713 247.457 126.752 247.31 126.867 247.245L128.903 246.076L127.736 245.328C127.666 245.283 127.624 245.205 127.626 245.122C127.627 245.04 127.672 244.964 127.745 244.922L133.19 241.779C133.303 241.712 133.449 241.752 133.513 241.866C133.579 241.979 133.54 242.125 133.427 242.189L128.32 245.138L129.489 245.887C129.559 245.931 129.601 246.01 129.598 246.092C129.597 246.174 129.552 246.252 129.479 246.292L127.104 247.656C127.067 247.677 127.025 247.688 126.986 247.688" fill="#3D7088"/>
<path d="M132.517 245.414C132.435 245.414 132.354 245.371 132.311 245.295C132.246 245.181 132.284 245.035 132.399 244.97L135.557 243.146C135.67 243.079 135.816 243.12 135.88 243.233C135.946 243.346 135.907 243.492 135.794 243.556L132.636 245.38C132.599 245.402 132.557 245.411 132.517 245.411" fill="#3D7088"/>
<path d="M130.145 250.429C130.063 250.429 129.982 250.386 129.939 250.31C129.873 250.197 129.912 250.051 130.027 249.986L138.714 244.971C138.828 244.904 138.972 244.944 139.038 245.058C139.103 245.171 139.065 245.315 138.951 245.381L130.264 250.396C130.227 250.419 130.185 250.428 130.145 250.428" fill="#3D7088"/>
<path d="M118.308 266.379C118.226 266.379 118.145 266.336 118.102 266.26C118.037 266.146 118.075 266 118.19 265.935L123.36 262.95L120.559 261.332C120.486 261.29 120.44 261.211 120.44 261.126C120.44 261.041 120.485 260.964 120.559 260.921L126.518 257.48L123.717 255.862C123.644 255.82 123.597 255.741 123.597 255.656C123.597 255.571 123.642 255.492 123.717 255.45L140.293 245.879C140.405 245.812 140.553 245.852 140.617 245.965C140.683 246.079 140.644 246.225 140.53 246.289L124.309 255.655L127.11 257.272C127.183 257.314 127.229 257.393 127.229 257.478C127.229 257.563 127.183 257.641 127.11 257.684L121.151 261.125L123.952 262.742C124.025 262.784 124.072 262.863 124.072 262.948C124.072 263.033 124.025 263.111 123.952 263.154L118.426 266.345C118.388 266.367 118.347 266.376 118.306 266.376" fill="#3D7088"/>
<path d="M131.727 254.985C131.645 254.985 131.564 254.942 131.521 254.866C131.456 254.753 131.494 254.607 131.609 254.541L135.199 252.467L133.977 251.761C133.903 251.719 133.857 251.64 133.857 251.555C133.857 251.47 133.902 251.392 133.977 251.349L141.871 246.791C141.982 246.724 142.128 246.765 142.194 246.878C142.26 246.991 142.221 247.137 142.108 247.201L134.57 251.553L135.792 252.26C135.865 252.302 135.912 252.381 135.912 252.466C135.912 252.551 135.867 252.628 135.792 252.672L131.846 254.951C131.809 254.973 131.767 254.982 131.727 254.982" fill="#3D7088"/>
<path d="M139.622 250.428C139.54 250.428 139.46 250.385 139.417 250.309C139.351 250.195 139.39 250.049 139.505 249.984L143.452 247.705C143.566 247.638 143.71 247.679 143.776 247.792C143.841 247.905 143.803 248.051 143.689 248.115L139.742 250.395C139.704 250.417 139.663 250.426 139.622 250.426" fill="#3D7088"/>
<path d="M138.832 252.706C138.75 252.706 138.67 252.663 138.627 252.587C138.561 252.474 138.6 252.327 138.715 252.263L145.03 248.618C145.143 248.551 145.289 248.591 145.353 248.704C145.419 248.818 145.38 248.964 145.267 249.028L138.952 252.675C138.914 252.697 138.873 252.706 138.832 252.706Z" fill="#3D7088"/>
<path d="M130.938 258.176C130.856 258.176 130.776 258.133 130.733 258.057C130.667 257.943 130.706 257.797 130.821 257.733L136.347 254.543C136.419 254.501 136.508 254.499 136.58 254.54L137.27 254.92L146.609 249.527C146.722 249.46 146.866 249.5 146.934 249.614C146.999 249.727 146.96 249.873 146.847 249.937L137.392 255.395C137.321 255.437 137.231 255.439 137.158 255.398L136.468 255.018L131.058 258.142C131.02 258.164 130.979 258.173 130.938 258.173" fill="#3D7088"/>
<path d="M140.411 257.264C140.329 257.264 140.248 257.221 140.205 257.144C140.14 257.031 140.178 256.885 140.293 256.819L143.883 254.746L142.661 254.039C142.588 253.997 142.541 253.918 142.541 253.833C142.541 253.748 142.586 253.671 142.661 253.627L148.186 250.437C148.299 250.37 148.445 250.41 148.511 250.523C148.576 250.637 148.538 250.781 148.423 250.847L143.254 253.832L144.476 254.538C144.55 254.58 144.596 254.659 144.596 254.744C144.596 254.829 144.551 254.908 144.476 254.95L140.53 257.229C140.493 257.252 140.451 257.261 140.411 257.261" fill="#3D7088"/>
<path d="M207.387 216.533L151.275 248.931L149.101 249.339L147.024 248.995L133.544 241.212L131.408 238.484V241.117C131.408 241.54 131.634 241.932 132.001 242.144L147.908 251.328C148.642 251.752 149.545 251.752 150.279 251.328L208.803 217.538C209.17 217.326 209.397 216.934 209.397 216.511V213.654L207.387 216.535V216.533Z" fill="#032D3D"/>
<path d="M155.436 206.419L138.682 216.093L138.042 216.14L137.49 216.144L131.727 212.816L131.098 211.865V213.729C131.098 214.067 131.278 214.38 131.572 214.552L136.854 217.602C137.589 218.026 138.494 218.026 139.227 217.602L155.562 208.172C155.856 208.002 156.037 207.689 156.037 207.349V205.447L155.434 206.422L155.436 206.419Z" fill="#032D3D"/>
<path d="M192.512 203.482C192.43 203.482 192.349 203.439 192.306 203.363C192.24 203.249 192.279 203.103 192.394 203.039L195.551 201.216C195.665 201.149 195.811 201.189 195.875 201.302C195.94 201.415 195.902 201.562 195.788 201.627L192.631 203.451C192.594 203.473 192.552 203.482 192.512 203.482Z" fill="#3D7088"/>
<path d="M194.09 204.395C194.008 204.395 193.928 204.351 193.884 204.275C193.819 204.162 193.858 204.016 193.972 203.95L200.72 200.053L198.707 198.892C198.634 198.85 198.588 198.771 198.588 198.686C198.588 198.601 198.633 198.523 198.707 198.48L217.303 187.744L215.285 186.586C215.172 186.52 215.132 186.375 215.198 186.262C215.263 186.149 215.408 186.109 215.521 186.174L217.896 187.538C217.969 187.58 218.015 187.659 218.015 187.744C218.015 187.829 217.971 187.908 217.896 187.95L199.299 198.687L201.312 199.85C201.385 199.892 201.431 199.971 201.431 200.056C201.431 200.141 201.386 200.22 201.312 200.262L194.208 204.365C194.171 204.387 194.129 204.396 194.089 204.396" fill="#3D7088"/>
<path d="M195.669 205.306C195.587 205.306 195.507 205.262 195.464 205.186C195.398 205.073 195.437 204.927 195.551 204.863L200.257 202.146C200.328 202.105 200.418 202.103 200.491 202.143L201.983 202.972L210.612 197.99C210.725 197.923 210.87 197.963 210.935 198.076C211.001 198.189 210.962 198.336 210.849 198.4L202.104 203.449C202.032 203.491 201.943 203.493 201.87 203.452L200.377 202.623L195.789 205.273C195.751 205.295 195.709 205.304 195.669 205.304" fill="#3D7088"/>
<path fill-rule="evenodd" clip-rule="evenodd" d="M64.6285 217.829C65.0639 217.577 65.4187 217.781 65.4187 218.285C65.4187 218.789 65.0653 219.402 64.6285 219.652C64.1932 219.904 63.8384 219.7 63.8384 219.196C63.8384 218.692 64.1917 218.081 64.6285 217.829Z" fill="#FDA234"/>
<path d="M70.2729 201.672C70.1998 201.629 70.1089 201.629 70.0359 201.672L68.2394 202.71C68.1663 202.751 68.1201 202.831 68.1201 202.915V213.283C68.1201 213.368 68.1663 213.447 68.2394 213.489C68.2767 213.51 68.3169 213.52 68.3587 213.52C68.4004 213.52 68.4406 213.51 68.4779 213.489L70.2744 212.453C70.3474 212.411 70.3937 212.332 70.3937 212.247V201.879C70.3937 201.794 70.3489 201.715 70.2744 201.674" fill="#0B4460"/>
<path d="M66.6825 206.337C66.6095 206.294 66.5185 206.294 66.4455 206.337L64.6505 207.375C64.5775 207.417 64.5312 207.496 64.5312 207.581V215.356C64.5312 215.441 64.576 215.518 64.6505 215.561C64.6878 215.582 64.728 215.593 64.7698 215.593C64.8115 215.593 64.8518 215.582 64.8891 215.561L66.684 214.524C66.7571 214.482 66.8033 214.403 66.8033 214.318V206.543C66.8033 206.458 66.7586 206.379 66.684 206.337" fill="#0B4460"/>
<path d="M63.0913 210.485C63.0182 210.441 62.9273 210.441 62.8542 210.485L61.0577 211.522C60.9847 211.564 60.9385 211.643 60.9385 211.728V217.431C60.9385 217.516 60.9847 217.595 61.0577 217.636C61.095 217.657 61.1353 217.668 61.177 217.668C61.2188 217.668 61.259 217.657 61.2963 217.636L63.0927 216.6C63.1658 216.559 63.212 216.48 63.212 216.395V210.693C63.212 210.608 63.1673 210.529 63.0927 210.488" fill="#0B4460"/>
<path d="M59.4999 214.633C59.4269 214.589 59.3359 214.589 59.2629 214.633L57.4679 215.67C57.3948 215.712 57.3486 215.791 57.3486 215.876V219.505C57.3486 219.59 57.3934 219.669 57.4679 219.711C57.5052 219.731 57.5454 219.743 57.5872 219.743C57.6289 219.743 57.6692 219.733 57.7064 219.711L59.5014 218.674C59.5745 218.633 59.6207 218.554 59.6207 218.469V214.841C59.6207 214.756 59.576 214.677 59.5014 214.636" fill="#FDA234"/>
<path fill-rule="evenodd" clip-rule="evenodd" d="M130.938 133.967L105.677 148.551V150.374L130.938 135.79V133.967Z" fill="#D4F5FF"/>
<path fill-rule="evenodd" clip-rule="evenodd" d="M119.886 133.054L105.677 141.259V143.082L119.886 134.878V133.054Z" fill="#FDA234"/>
<path fill-rule="evenodd" clip-rule="evenodd" d="M119.886 103.885L105.677 112.089V113.913L119.886 105.708V103.885Z" fill="#FDA234"/>
<path fill-rule="evenodd" clip-rule="evenodd" d="M124.623 123.028L105.677 133.967V135.79L124.623 124.851V123.028Z" fill="#D4F5FF"/>
<path fill-rule="evenodd" clip-rule="evenodd" d="M130.938 112.089L105.677 126.673V128.496L130.938 113.912V112.089Z" fill="#D4F5FF"/>
<path fill-rule="evenodd" clip-rule="evenodd" d="M130.938 90.2114L105.677 104.797V106.619L130.938 92.0348V90.2114Z" fill="#FDA234"/>
<path fill-rule="evenodd" clip-rule="evenodd" d="M116.729 113L105.677 119.381V121.204L116.729 114.823V113Z" fill="#D4F5FF"/>
<path fill-rule="evenodd" clip-rule="evenodd" d="M116.729 91.1226L105.677 97.5037V99.327L116.729 92.9459V91.1226Z" fill="#D4F5FF"/>
<path fill-rule="evenodd" clip-rule="evenodd" d="M149.884 76.5381L144.359 79.7286V80.6396L149.884 77.4505V76.5381Z" fill="#709DB0"/>
<path fill-rule="evenodd" clip-rule="evenodd" d="M149.884 58.3076L144.359 61.4982V62.4076L149.884 59.2201V58.3076Z" fill="#709DB0"/>
<path fill-rule="evenodd" clip-rule="evenodd" d="M149.884 102.061L144.359 105.252V106.164L149.884 102.973V102.061Z" fill="#709DB0"/>
<path fill-rule="evenodd" clip-rule="evenodd" d="M167.251 68.3354L161.724 71.523V72.4355L167.251 69.2449V68.3354Z" fill="#709DB0"/>
<path fill-rule="evenodd" clip-rule="evenodd" d="M167.251 50.103L161.724 53.2921V54.2045L167.251 51.014V50.103Z" fill="#709DB0"/>
<path fill-rule="evenodd" clip-rule="evenodd" d="M167.251 106.619L161.724 109.81V110.722L167.251 107.532V106.619Z" fill="#D4F5FF"/>
<path fill-rule="evenodd" clip-rule="evenodd" d="M167.251 81.0962L161.724 84.2867V85.1977L167.251 82.0086V81.0962Z" fill="#D4F5FF"/>
<path fill-rule="evenodd" clip-rule="evenodd" d="M167.251 62.8652L161.724 66.0558V66.9652L167.251 63.7777V62.8652Z" fill="#D4F5FF"/>
<path fill-rule="evenodd" clip-rule="evenodd" d="M167.251 119.381L161.724 122.572V123.483L167.251 120.294V119.381Z" fill="#709DB0"/>
<path fill-rule="evenodd" clip-rule="evenodd" d="M167.251 93.8584L161.724 97.0489V97.9599L167.251 94.7693V93.8584Z" fill="#FDA234"/>
<path fill-rule="evenodd" clip-rule="evenodd" d="M177.512 67.8774L171.987 71.068V71.9804L177.512 68.7899V67.8774Z" fill="#709DB0"/>
<path fill-rule="evenodd" clip-rule="evenodd" d="M177.512 49.6465L171.987 52.837V53.7495L177.512 50.5589V49.6465Z" fill="#709DB0"/>
<path fill-rule="evenodd" clip-rule="evenodd" d="M177.512 106.164L171.987 109.355V110.266L177.512 107.075V106.164Z" fill="#709DB0"/>
<path fill-rule="evenodd" clip-rule="evenodd" d="M177.512 80.6396L171.987 83.8302V84.7426L177.512 81.5506V80.6396Z" fill="#709DB0"/>
<path fill-rule="evenodd" clip-rule="evenodd" d="M177.512 118.925L171.987 122.115V123.028L177.512 119.837V118.925Z" fill="#709DB0"/>
<path fill-rule="evenodd" clip-rule="evenodd" d="M177.512 93.4019L171.987 96.5924V97.5034L177.512 94.3128V93.4019Z" fill="#709DB0"/>
<path fill-rule="evenodd" clip-rule="evenodd" d="M179.881 64.687L174.354 67.8776V68.79L179.881 65.5995V64.687Z" fill="#709DB0"/>
<path fill-rule="evenodd" clip-rule="evenodd" d="M179.881 102.974L174.354 106.164V107.075L179.881 103.885V102.974Z" fill="#709DB0"/>
<path fill-rule="evenodd" clip-rule="evenodd" d="M179.881 115.736L174.354 118.925V119.837L179.881 116.647V115.736Z" fill="#709DB0"/>
<path fill-rule="evenodd" clip-rule="evenodd" d="M172.776 48.7344L167.25 51.9249V52.8374L172.776 49.6468V48.7344Z" fill="#D4F5FF"/>
<path fill-rule="evenodd" clip-rule="evenodd" d="M172.776 105.252L167.25 108.443V109.355L172.776 106.164V105.252Z" fill="#709DB0"/>
<path fill-rule="evenodd" clip-rule="evenodd" d="M172.776 118.014L167.25 121.205V122.116L172.776 118.925V118.014Z" fill="#709DB0"/>
<path fill-rule="evenodd" clip-rule="evenodd" d="M172.776 92.4912L167.25 95.6818V96.5927L172.776 93.4022V92.4912Z" fill="#709DB0"/>
<path fill-rule="evenodd" clip-rule="evenodd" d="M167.251 77.4507L161.724 80.6397V81.5507L167.251 78.3601V77.4507Z" fill="#709DB0"/>
<path fill-rule="evenodd" clip-rule="evenodd" d="M167.251 59.2197L161.724 62.4073V63.3197L167.251 60.1292V59.2197Z" fill="#709DB0"/>
<path fill-rule="evenodd" clip-rule="evenodd" d="M167.251 115.736L161.724 118.925V119.837L167.251 116.647V115.736Z" fill="#709DB0"/>
<path fill-rule="evenodd" clip-rule="evenodd" d="M167.251 90.2114L161.724 93.402V94.3129L167.251 91.1224V90.2114Z" fill="#709DB0"/>
<path fill-rule="evenodd" clip-rule="evenodd" d="M158.567 55.1167L144.359 63.3197V64.2321L158.567 56.0276V55.1167Z" fill="#709DB0"/>
<path fill-rule="evenodd" clip-rule="evenodd" d="M158.567 111.633L144.359 119.837V120.748L158.567 112.545V111.633Z" fill="#D4F5FF"/>
<path fill-rule="evenodd" clip-rule="evenodd" d="M158.567 86.1099L144.359 94.3129V95.2253L158.567 87.0208V86.1099Z" fill="#FDA234"/>
<path fill-rule="evenodd" clip-rule="evenodd" d="M158.567 67.8774L144.359 76.0819V76.9929L158.567 68.7899V67.8774Z" fill="#709DB0"/>
<path fill-rule="evenodd" clip-rule="evenodd" d="M158.567 98.8706L144.359 107.075V107.988L158.567 99.783V98.8706Z" fill="#FDA234"/>
<path fill-rule="evenodd" clip-rule="evenodd" d="M173.036 72.2847L158.827 80.4892V81.4001L173.036 73.1971V72.2847Z" fill="#FDA234"/>
<path fill-rule="evenodd" clip-rule="evenodd" d="M173.036 54.0537L158.827 62.2582V63.1691L173.036 54.9661V54.0537Z" fill="#FDA234"/>
<path fill-rule="evenodd" clip-rule="evenodd" d="M173.036 110.571L158.827 118.774V119.687L173.036 111.482V110.571Z" fill="#709DB0"/>
<path fill-rule="evenodd" clip-rule="evenodd" d="M173.036 85.0469L158.827 93.2514V94.1623L173.036 85.9593V85.0469Z" fill="#D4F5FF"/>
<path fill-rule="evenodd" clip-rule="evenodd" d="M173.036 97.8091L158.827 106.014V106.925L173.036 98.72V97.8091Z" fill="#709DB0"/>
<path fill-rule="evenodd" clip-rule="evenodd" d="M165.672 72.8931L151.462 81.0961V82.0085L165.672 73.8025V72.8931Z" fill="#FDA234"/>
<path fill-rule="evenodd" clip-rule="evenodd" d="M165.672 54.6606L151.462 62.8651V63.7776L165.672 55.5716V54.6606Z" fill="#709DB0"/>
<path fill-rule="evenodd" clip-rule="evenodd" d="M165.672 111.177L151.462 119.381V120.294L165.672 112.089V111.177Z" fill="#709DB0"/>
<path fill-rule="evenodd" clip-rule="evenodd" d="M165.672 85.6538L151.462 93.8583V94.7692L165.672 86.5648V85.6538Z" fill="#FDA234"/>
<path fill-rule="evenodd" clip-rule="evenodd" d="M165.672 67.4229L151.462 75.6258V76.5383L165.672 68.3353V67.4229Z" fill="#FDA234"/>
<path fill-rule="evenodd" clip-rule="evenodd" d="M165.672 98.416L151.462 106.619V107.531L165.672 99.327V98.416Z" fill="#D4F5FF"/>
<path fill-rule="evenodd" clip-rule="evenodd" d="M152.251 78.8179L144.359 83.3741V84.2865L152.251 79.7288V78.8179Z" fill="#FDA234"/>
<path fill-rule="evenodd" clip-rule="evenodd" d="M152.251 60.5854L144.359 65.1432V66.0556L152.251 61.4979V60.5854Z" fill="#D4F5FF"/>
<path fill-rule="evenodd" clip-rule="evenodd" d="M152.251 117.103L144.359 121.661V122.572L152.251 118.014V117.103Z" fill="#709DB0"/>
<path fill-rule="evenodd" clip-rule="evenodd" d="M152.251 91.5786L144.359 96.1363V97.0488L152.251 92.4911V91.5786Z" fill="#709DB0"/>
<path fill-rule="evenodd" clip-rule="evenodd" d="M152.251 73.3477L144.359 77.9054V78.8178L152.251 74.2601V73.3477Z" fill="#D4F5FF"/>
<path fill-rule="evenodd" clip-rule="evenodd" d="M152.251 104.341L144.359 108.899V109.809L152.251 105.252V104.341Z" fill="#709DB0"/>
<path fill-rule="evenodd" clip-rule="evenodd" d="M148.305 82.9194L144.359 85.1975V86.11L148.305 83.8304V82.9194Z" fill="#709DB0"/>
<path fill-rule="evenodd" clip-rule="evenodd" d="M148.305 64.687L144.359 66.9651V67.8776L148.305 65.5995V64.687Z" fill="#709DB0"/>
<path fill-rule="evenodd" clip-rule="evenodd" d="M148.305 121.205L144.359 123.483V124.395L148.305 122.116V121.205Z" fill="#D4F5FF"/>
<path fill-rule="evenodd" clip-rule="evenodd" d="M148.305 95.6816L144.359 97.9598V98.8707L148.305 96.5926V95.6816Z" fill="#709DB0"/>
<path fill-rule="evenodd" clip-rule="evenodd" d="M149.884 83.8306L144.359 87.0211V87.9336L149.884 84.743V83.8306Z" fill="#709DB0"/>
<path fill-rule="evenodd" clip-rule="evenodd" d="M149.884 65.5996L144.359 68.7902V69.7011L149.884 66.5106V65.5996Z" fill="#709DB0"/>
<path fill-rule="evenodd" clip-rule="evenodd" d="M149.884 96.5928L144.359 99.7833V100.694L149.884 97.5037V96.5928Z" fill="#D4F5FF"/>
<path fill-rule="evenodd" clip-rule="evenodd" d="M149.884 109.354L144.359 112.545V113.456L149.884 110.265V109.354Z" fill="#D4F5FF"/>
<path fill-rule="evenodd" clip-rule="evenodd" d="M157.255 79.9497L151.729 83.1388V84.0512L157.255 80.8607V79.9497Z" fill="#FDA234"/>
<path fill-rule="evenodd" clip-rule="evenodd" d="M157.255 61.7173L151.729 64.9093V65.8188L157.255 62.6297V61.7173Z" fill="#D4F5FF"/>
<path fill-rule="evenodd" clip-rule="evenodd" d="M157.778 117.582L152.251 120.772V121.683L157.778 118.492V117.582Z" fill="#FDA234"/>
<path fill-rule="evenodd" clip-rule="evenodd" d="M152.251 122.572L146.726 125.762V126.673L152.251 123.483V122.572Z" fill="#709DB0"/>
<path fill-rule="evenodd" clip-rule="evenodd" d="M157.255 92.71L151.729 95.9005V96.8115L157.255 93.6209V92.71Z" fill="#709DB0"/>
<path fill-rule="evenodd" clip-rule="evenodd" d="M157.255 105.472L151.729 108.663V109.574L157.255 106.383V105.472Z" fill="#709DB0"/>
<path fill-rule="evenodd" clip-rule="evenodd" d="M155.409 82.4634L144.359 88.8445V89.7554L155.409 83.3743V82.4634Z" fill="#709DB0"/>
<path fill-rule="evenodd" clip-rule="evenodd" d="M155.409 64.2324L144.359 70.6135V71.523L155.409 65.1434V64.2324Z" fill="#709DB0"/>
<path fill-rule="evenodd" clip-rule="evenodd" d="M155.409 95.2256L144.359 101.607V102.518L155.409 96.1365V95.2256Z" fill="#FDA234"/>
<path fill-rule="evenodd" clip-rule="evenodd" d="M155.409 107.988L144.359 114.367V115.28L155.409 108.899V107.988Z" fill="#FDA234"/>
<path fill-rule="evenodd" clip-rule="evenodd" d="M153.83 85.1973L144.359 90.6674V91.5784L153.83 86.1097V85.1973Z" fill="#D4F5FF"/>
<path fill-rule="evenodd" clip-rule="evenodd" d="M153.83 66.9653L144.359 72.4355V73.3479L153.83 67.8778V66.9653Z" fill="#FDA234"/>
<path fill-rule="evenodd" clip-rule="evenodd" d="M153.83 110.722L144.359 116.19V117.103L153.83 111.633V110.722Z" fill="#709DB0"/>
<path fill-rule="evenodd" clip-rule="evenodd" d="M165.933 49.0415L156.988 54.2045V55.117L165.933 49.9539V49.0415Z" fill="#FDA234"/>
<path fill-rule="evenodd" clip-rule="evenodd" d="M165.933 105.558L156.988 110.722V111.633L165.933 106.469V105.558Z" fill="#D4F5FF"/>
<path fill-rule="evenodd" clip-rule="evenodd" d="M165.933 80.0347L156.988 85.1977V86.1101L165.933 80.9456V80.0347Z" fill="#709DB0"/>
<path fill-rule="evenodd" clip-rule="evenodd" d="M165.933 118.32L156.988 123.483V124.395L165.933 119.231V118.32Z" fill="#709DB0"/>
<path fill-rule="evenodd" clip-rule="evenodd" d="M177.509 71.5273L168.564 76.6904V77.6028L177.509 72.4368V71.5273Z" fill="#709DB0"/>
<path fill-rule="evenodd" clip-rule="evenodd" d="M177.509 53.2964L168.564 58.4594V59.3719L177.509 54.2058V53.2964Z" fill="#FDA234"/>
<path fill-rule="evenodd" clip-rule="evenodd" d="M177.509 109.812L168.564 114.977V115.888L177.509 110.723V109.812Z" fill="#709DB0"/>
<path fill-rule="evenodd" clip-rule="evenodd" d="M177.509 84.2896L168.564 89.4526V90.365L177.509 85.2005V84.2896Z" fill="#709DB0"/>
<path fill-rule="evenodd" clip-rule="evenodd" d="M177.509 97.0503L168.564 102.215V103.126L177.509 97.9627V97.0503Z" fill="#FDA234"/>
<path fill-rule="evenodd" clip-rule="evenodd" d="M162.775 72.7422L153.83 77.9052V78.8177L162.775 73.6516V72.7422Z" fill="#709DB0"/>
<path fill-rule="evenodd" clip-rule="evenodd" d="M162.775 54.5117L153.83 59.6747V60.5857L162.775 55.4212V54.5117Z" fill="#FDA234"/>
<path fill-rule="evenodd" clip-rule="evenodd" d="M162.775 111.027L153.83 116.19V117.103L162.775 111.938V111.027Z" fill="#FDA234"/>
<path fill-rule="evenodd" clip-rule="evenodd" d="M162.775 67.2725L153.83 72.4355V73.3479L162.775 68.1849V67.2725Z" fill="#D4F5FF"/>
<path fill-rule="evenodd" clip-rule="evenodd" d="M162.775 98.2651L153.83 103.428V104.341L162.775 99.1761V98.2651Z" fill="#D4F5FF"/>
<path fill-rule="evenodd" clip-rule="evenodd" d="M169.879 72.2847L160.936 77.4507V78.3601L169.879 73.1971V72.2847Z" fill="#709DB0"/>
<path fill-rule="evenodd" clip-rule="evenodd" d="M169.879 54.0537L160.936 59.2197V60.1292L169.879 54.9661V54.0537Z" fill="#D4F5FF"/>
<path fill-rule="evenodd" clip-rule="evenodd" d="M169.879 110.571L160.936 115.736V116.647L169.879 111.482V110.571Z" fill="#D4F5FF"/>
<path fill-rule="evenodd" clip-rule="evenodd" d="M169.879 85.0469L160.936 90.2114V91.1223L169.879 85.9593V85.0469Z" fill="#D4F5FF"/>
<path fill-rule="evenodd" clip-rule="evenodd" d="M169.879 97.8091L160.936 102.974V103.885L169.879 98.72V97.8091Z" fill="#FDA234"/>
<path fill-rule="evenodd" clip-rule="evenodd" d="M155.409 55.1167L152.251 56.9401V57.8495L155.409 56.0276V55.1167Z" fill="#D4F5FF"/>
<path fill-rule="evenodd" clip-rule="evenodd" d="M155.409 111.633L152.251 113.456V114.367L155.409 112.545V111.633Z" fill="#709DB0"/>
<path fill-rule="evenodd" clip-rule="evenodd" d="M155.409 86.1099L152.251 87.9332V88.8442L155.409 87.0208V86.1099Z" fill="#709DB0"/>
<path fill-rule="evenodd" clip-rule="evenodd" d="M155.409 67.8774L152.251 69.7008V70.6133L155.409 68.7899V67.8774Z" fill="#709DB0"/>
<path fill-rule="evenodd" clip-rule="evenodd" d="M155.409 98.8706L152.251 100.694V101.606L155.409 99.783V98.8706Z" fill="#709DB0"/>
<path fill-rule="evenodd" clip-rule="evenodd" d="M159.357 82.0083L156.199 83.8302V84.7426L159.357 82.9193V82.0083Z" fill="#D4F5FF"/>
<path fill-rule="evenodd" clip-rule="evenodd" d="M159.357 63.7773L156.199 65.5992V66.5102L159.357 64.6868V63.7773Z" fill="#709DB0"/>
<path fill-rule="evenodd" clip-rule="evenodd" d="M159.357 120.293L156.199 122.115V123.028L159.357 121.204V120.293Z" fill="#709DB0"/>
<path fill-rule="evenodd" clip-rule="evenodd" d="M159.357 94.769L156.199 96.5924V97.5034L159.357 95.6815V94.769Z" fill="#709DB0"/>
<path fill-rule="evenodd" clip-rule="evenodd" d="M159.357 107.531L156.199 109.355V110.266L159.357 108.442V107.531Z" fill="#D4F5FF"/>
<path fill-rule="evenodd" clip-rule="evenodd" d="M171.987 69.2446L168.83 71.068V71.9805L171.987 70.1571V69.2446Z" fill="#D4F5FF"/>
<path fill-rule="evenodd" clip-rule="evenodd" d="M171.987 51.0137L168.83 52.8371V53.7495L171.987 51.9246V51.0137Z" fill="#709DB0"/>
<path fill-rule="evenodd" clip-rule="evenodd" d="M171.987 107.531L168.83 109.355V110.266L171.987 108.442V107.531Z" fill="#D4F5FF"/>
<path fill-rule="evenodd" clip-rule="evenodd" d="M147.516 123.506L144.359 125.33V126.241L147.516 124.417V123.506Z" fill="#709DB0"/>
<path fill-rule="evenodd" clip-rule="evenodd" d="M171.987 82.0083L168.83 83.8302V84.7426L171.987 82.9193V82.0083Z" fill="#D4F5FF"/>
<path fill-rule="evenodd" clip-rule="evenodd" d="M171.987 120.293L168.83 122.115V123.028L171.987 121.204V120.293Z" fill="#709DB0"/>
<path fill-rule="evenodd" clip-rule="evenodd" d="M171.987 94.769L168.83 96.5924V97.5034L171.987 95.6815V94.769Z" fill="#709DB0"/>
<path fill-rule="evenodd" clip-rule="evenodd" d="M173.566 64.687L170.408 66.5104V67.4228L173.566 65.5995V64.687Z" fill="#709DB0"/>
<path fill-rule="evenodd" clip-rule="evenodd" d="M173.566 46.4561L170.408 48.2794V49.1919L173.566 47.367V46.4561Z" fill="#709DB0"/>
<path fill-rule="evenodd" clip-rule="evenodd" d="M173.566 77.4507L170.408 79.2726V80.1835L173.566 78.3601V77.4507Z" fill="#709DB0"/>
<path fill-rule="evenodd" clip-rule="evenodd" d="M173.566 59.2197L170.408 61.0416V61.9526L173.566 60.1292V59.2197Z" fill="#709DB0"/>
<path fill-rule="evenodd" clip-rule="evenodd" d="M173.566 115.736L170.408 117.558V118.47L173.566 116.647V115.736Z" fill="#709DB0"/>
<path fill-rule="evenodd" clip-rule="evenodd" d="M171.197 64.2324L168.04 66.0558V66.9653L171.197 65.1434V64.2324Z" fill="#709DB0"/>
<path fill-rule="evenodd" clip-rule="evenodd" d="M171.197 46.0015L168.04 47.8248V48.7343L171.197 46.9124V46.0015Z" fill="#709DB0"/>
<path fill-rule="evenodd" clip-rule="evenodd" d="M171.197 102.518L168.04 104.341V105.252L171.197 103.429V102.518Z" fill="#D4F5FF"/>
<path fill-rule="evenodd" clip-rule="evenodd" d="M171.197 76.9932L168.04 78.818V79.729L171.197 77.9056V76.9932Z" fill="#D4F5FF"/>
<path fill-rule="evenodd" clip-rule="evenodd" d="M171.197 58.7622L168.04 60.5856V61.498L171.197 59.6746V58.7622Z" fill="#709DB0"/>
<path fill-rule="evenodd" clip-rule="evenodd" d="M171.197 115.28L168.04 117.103V118.014L171.197 116.191V115.28Z" fill="#709DB0"/>
<path fill-rule="evenodd" clip-rule="evenodd" d="M171.197 89.7554L168.04 91.5788V92.4912L171.197 90.6678V89.7554Z" fill="#FDA234"/>
<path fill-rule="evenodd" clip-rule="evenodd" d="M104.889 147.184L100.152 149.918V155.388L104.889 152.654V147.184Z" fill="#709DB0"/>
<path fill-rule="evenodd" clip-rule="evenodd" d="M104.889 139.892L100.152 142.626V148.096L104.889 145.36V139.892Z" fill="#FDA234"/>
<path fill-rule="evenodd" clip-rule="evenodd" d="M104.889 110.722L100.152 113.456V118.925L104.889 116.19V110.722Z" fill="#FDA234"/>
<path fill-rule="evenodd" clip-rule="evenodd" d="M104.889 132.6L100.152 135.334V140.803L104.889 138.068V132.6Z" fill="#709DB0"/>
<path fill-rule="evenodd" clip-rule="evenodd" d="M104.889 125.306L100.152 128.042V133.511L104.889 130.776V125.306Z" fill="#709DB0"/>
<path fill-rule="evenodd" clip-rule="evenodd" d="M104.889 103.428L100.152 106.164V111.633L104.889 108.898V103.428Z" fill="#FDA234"/>
<path fill-rule="evenodd" clip-rule="evenodd" d="M104.889 118.014L100.152 120.748V126.219L104.889 123.483V118.014Z" fill="#709DB0"/>
<path fill-rule="evenodd" clip-rule="evenodd" d="M104.889 96.1362L100.152 98.8706V104.341L104.889 101.606V96.1362Z" fill="#709DB0"/>
<path fill-rule="evenodd" clip-rule="evenodd" d="M81.2065 138.068L37 163.593V200.054L81.2065 174.53V138.068Z" fill="#709DB0"/>
<path fill-rule="evenodd" clip-rule="evenodd" d="M64.6285 159.49L81.2067 174.53L55.9458 189.116L64.6285 159.49Z" fill="#3D7088"/>
<path d="M95.4156 159.033L190.979 103.858L193.789 103.721L190.631 101.897L190.53 101.839C189.797 101.416 188.895 101.416 188.161 101.839L91.857 157.443C91.1279 157.863 90.6792 158.641 90.6792 159.482V212.35C90.6792 213.198 91.1309 213.982 91.8659 214.406L93.8368 215.543L95.0846 216.262V215.715L93.8368 213.744V161.862L95.4156 159.032V159.033Z" fill="#032D3D"/>
<path fill-rule="evenodd" clip-rule="evenodd" d="M148.62 201.24L131.573 211.083C130.941 211.448 130.941 212.362 131.573 212.727L137.568 216.188C137.862 216.358 138.224 216.358 138.518 216.188L155.564 206.346C156.196 205.981 156.196 205.067 155.564 204.702L149.569 201.24C149.276 201.07 148.913 201.07 148.62 201.24Z" fill="#0B4460"/>
<path fill-rule="evenodd" clip-rule="evenodd" d="M138.042 192.762L136.463 191.85V211.904L138.042 212.816V192.762Z" fill="#032D3D"/>
<path fill-rule="evenodd" clip-rule="evenodd" d="M191.319 103.662L95.0236 159.261C94.2886 159.685 93.8369 160.469 93.8369 161.317V214.175C93.8369 216.003 95.8153 217.145 97.3971 216.231L193.692 160.632C194.427 160.208 194.879 159.424 194.879 158.576V105.718C194.879 103.891 192.901 102.75 191.319 103.662Z" fill="#709DB0"/>
<path fill-rule="evenodd" clip-rule="evenodd" d="M150.672 185.469L138.042 192.762V212.817L150.672 205.523V185.469Z" fill="#3D7088"/>
<path fill-rule="evenodd" clip-rule="evenodd" d="M191.164 105.574L96.1267 160.445C95.6854 160.7 95.4141 161.17 95.4141 161.678V213.082C95.4141 214.178 96.6008 214.864 97.5504 214.315L192.587 159.444C193.027 159.189 193.3 158.719 193.3 158.211V106.807C193.3 105.711 192.113 105.025 191.164 105.574Z" fill="#0B4460"/>
<path fill-rule="evenodd" clip-rule="evenodd" d="M123.834 149.918L122.254 150.83V194.584L123.834 193.673V149.918Z" fill="#709DB0"/>
<path fill-rule="evenodd" clip-rule="evenodd" d="M114.36 159.033L98.5732 168.15V169.972L114.36 160.857V159.033Z" fill="#FDA234"/>
<path fill-rule="evenodd" clip-rule="evenodd" d="M142.778 142.626L126.992 151.741V153.565L142.778 144.449V142.626Z" fill="#D4F5FF"/>
<path fill-rule="evenodd" clip-rule="evenodd" d="M161.724 137.157L126.992 157.211V159.033L161.724 138.979V137.157Z" fill="#709DB0"/>
<path fill-rule="evenodd" clip-rule="evenodd" d="M153.83 147.184L126.992 162.68V164.504L153.83 149.007V147.184Z" fill="#FDA234"/>
<path fill-rule="evenodd" clip-rule="evenodd" d="M179.091 138.068L126.992 168.15V169.972L179.091 139.892V138.068Z" fill="#D4F5FF"/>
<path fill-rule="evenodd" clip-rule="evenodd" d="M172.776 147.184L126.992 173.619V175.442L172.776 149.007V147.184Z" fill="#D4F5FF"/>
<path fill-rule="evenodd" clip-rule="evenodd" d="M169.618 154.476L126.992 179.088V180.911L169.618 156.299V154.476Z" fill="#FDA234"/>
<path fill-rule="evenodd" clip-rule="evenodd" d="M150.672 170.885L126.992 184.558V186.381L150.672 172.708V170.885Z" fill="#709DB0"/>
<path fill-rule="evenodd" clip-rule="evenodd" d="M138.042 183.647L126.992 190.027V191.85L138.042 185.469V183.647Z" fill="#FDA234"/>
<path fill-rule="evenodd" clip-rule="evenodd" d="M103.31 170.885L98.5732 173.619V175.442L103.31 172.708V170.885Z" fill="#D4F5FF"/>
<path fill-rule="evenodd" clip-rule="evenodd" d="M111.204 166.327L106.467 169.061V170.885L111.204 168.151V166.327Z" fill="#D4F5FF"/>
<path fill-rule="evenodd" clip-rule="evenodd" d="M117.517 162.595L114.36 164.419V166.242L117.517 164.419V162.595Z" fill="#D4F5FF"/>
<path fill-rule="evenodd" clip-rule="evenodd" d="M112.782 170.885L98.5732 179.088V180.911L112.782 172.708V170.885Z" fill="#FDA234"/>
<path fill-rule="evenodd" clip-rule="evenodd" d="M104.888 180.911L98.5732 184.558V186.381L104.888 182.735V180.911Z" fill="#709DB0"/>
<path fill-rule="evenodd" clip-rule="evenodd" d="M119.098 172.708L111.204 177.266V179.088L119.098 174.53V172.708Z" fill="#709DB0"/>
<path fill-rule="evenodd" clip-rule="evenodd" d="M109.625 183.562L98.5732 189.943V191.765L109.625 185.385V183.562Z" fill="#D4F5FF"/>
<path fill-rule="evenodd" clip-rule="evenodd" d="M115.94 185.469L98.5732 195.497V197.32L115.94 187.292V185.469Z" fill="#FDA234"/>
<path fill-rule="evenodd" clip-rule="evenodd" d="M120.675 182.734L119.098 183.647V185.469L120.675 184.558V182.734Z" fill="#FDA234"/>
<path fill-rule="evenodd" clip-rule="evenodd" d="M104.888 197.32L98.5732 200.965V202.788L104.888 199.142V197.32Z" fill="#709DB0"/>
<path fill-rule="evenodd" clip-rule="evenodd" d="M114.36 191.85L108.046 195.496V197.32L114.36 193.673V191.85Z" fill="#D4F5FF"/>
<path d="M197.248 206.216C197.166 206.216 197.085 206.173 197.042 206.097C196.977 205.984 197.015 205.838 197.13 205.773L200.288 203.952C200.401 203.884 200.547 203.925 200.611 204.038C200.677 204.151 200.638 204.297 200.525 204.363L197.367 206.186C197.33 206.209 197.288 206.218 197.248 206.218" fill="#3D7088"/>
<path d="M198.827 207.129C198.745 207.129 198.664 207.086 198.621 207.01C198.556 206.896 198.594 206.75 198.709 206.686L204.234 203.495C204.348 203.428 204.492 203.469 204.558 203.582C204.623 203.695 204.585 203.841 204.471 203.905L198.946 207.096C198.909 207.118 198.867 207.127 198.827 207.127" fill="#3D7088"/>
<path d="M200.406 208.04C200.324 208.04 200.243 207.996 200.2 207.92C200.134 207.807 200.173 207.661 200.288 207.597L209.761 202.128C209.834 202.085 209.925 202.085 209.998 202.128L212.247 203.427L217.298 200.511L216.085 199.811C216.012 199.77 215.966 199.691 215.966 199.606C215.966 199.521 216.012 199.443 216.085 199.4L222.482 195.707C222.595 195.64 222.741 195.68 222.807 195.793C222.873 195.907 222.835 196.053 222.721 196.117L216.68 199.606L217.892 200.305C217.965 200.347 218.011 200.426 218.011 200.511C218.011 200.596 217.965 200.673 217.892 200.716L212.365 203.907C212.292 203.95 212.201 203.95 212.128 203.907L209.878 202.608L200.525 208.008C200.488 208.031 200.446 208.04 200.406 208.04Z" fill="#3D7088"/>
<path d="M201.984 208.952C201.902 208.952 201.822 208.909 201.778 208.833C201.713 208.719 201.752 208.573 201.866 208.508L208.97 204.406C209.084 204.339 209.228 204.379 209.294 204.493C209.359 204.606 209.321 204.752 209.207 204.816L202.103 208.918C202.066 208.94 202.024 208.949 201.984 208.949" fill="#3D7088"/>
<path d="M203.563 209.863C203.481 209.863 203.401 209.82 203.358 209.744C203.292 209.63 203.331 209.484 203.446 209.42L208.972 206.23C209.045 206.186 209.136 206.186 209.209 206.23L210.669 207.072L215.287 204.406C215.401 204.339 215.547 204.379 215.611 204.493C215.676 204.606 215.638 204.752 215.524 204.818L210.788 207.552C210.715 207.595 210.624 207.595 210.551 207.552L209.091 206.708L203.684 209.83C203.647 209.852 203.605 209.861 203.565 209.861" fill="#3D7088"/>
<path d="M205.142 210.774C205.06 210.774 204.979 210.731 204.936 210.655C204.871 210.542 204.909 210.396 205.024 210.331L207.392 208.964C207.505 208.897 207.651 208.937 207.715 209.051C207.781 209.164 207.742 209.31 207.629 209.376L205.261 210.743C205.224 210.765 205.182 210.774 205.142 210.774Z" fill="#3D7088"/>
<path d="M206.721 211.687C206.639 211.687 206.558 211.643 206.515 211.567C206.45 211.454 206.488 211.308 206.603 211.244L220.022 203.495C220.095 203.452 220.186 203.452 220.262 203.495L221.68 204.326L236.569 195.729C236.642 195.686 236.733 195.686 236.806 195.729L240.666 197.957L244.493 195.747C244.566 195.704 244.657 195.704 244.73 195.747L245.401 196.135L251.598 192.558C251.671 192.515 251.762 192.515 251.835 192.558L258.822 196.591L267.324 191.681L265.313 190.52C265.198 190.454 265.161 190.31 265.226 190.197C265.292 190.083 265.436 190.044 265.551 190.11L267.919 191.477C267.992 191.519 268.038 191.598 268.038 191.683C268.038 191.768 267.992 191.847 267.919 191.889L258.942 197.073C258.868 197.116 258.778 197.116 258.705 197.073L251.719 193.04L245.522 196.616C245.449 196.66 245.358 196.66 245.285 196.616L244.614 196.229L240.787 198.44C240.714 198.483 240.623 198.483 240.55 198.44L236.69 196.211L221.799 204.809C221.726 204.852 221.635 204.852 221.562 204.809L220.145 203.979L206.845 211.657C206.807 211.679 206.766 211.688 206.725 211.688" fill="#3D7088"/>
<path d="M208.3 212.598C208.218 212.598 208.137 212.554 208.094 212.478C208.028 212.365 208.067 212.219 208.182 212.155L215.286 208.053C215.359 208.01 215.45 208.01 215.523 208.053L219.35 210.263L237.386 199.849C237.501 199.783 237.645 199.822 237.711 199.935C237.778 200.049 237.739 200.195 237.625 200.259L219.469 210.741C219.396 210.785 219.305 210.785 219.232 210.741L215.405 208.53L208.419 212.563C208.382 212.586 208.34 212.595 208.3 212.595" fill="#3D7088"/>
<path fill-rule="evenodd" clip-rule="evenodd" d="M190.298 202.699L132.842 235.872C130.943 236.968 130.943 239.71 132.842 240.805L147.67 249.366C148.551 249.875 149.638 249.875 150.519 249.366L207.975 216.193C209.874 215.098 209.874 212.356 207.975 211.26L193.147 202.699C192.266 202.191 191.179 202.191 190.298 202.699Z" fill="#709DB0"/>
<path fill-rule="evenodd" clip-rule="evenodd" d="M190.666 204.462L135.418 236.36C133.836 237.274 133.836 239.558 135.418 240.472L147.906 247.682C148.641 248.105 149.546 248.105 150.279 247.682L205.525 215.784C207.107 214.87 207.107 212.586 205.525 211.672L193.038 204.462C192.303 204.038 191.398 204.038 190.665 204.462" fill="#0B4460"/>
<path fill-rule="evenodd" clip-rule="evenodd" d="M137.49 236.71L135.912 237.621L137.49 238.533L139.069 237.621L137.49 236.71Z" fill="#FDA234"/>
<path fill-rule="evenodd" clip-rule="evenodd" d="M140.648 234.887L139.069 235.798L140.648 236.71L142.227 235.798L140.648 234.887Z" fill="#D4F5FF"/>
<path fill-rule="evenodd" clip-rule="evenodd" d="M142.227 237.621L139.069 239.444L140.648 240.355L143.806 238.534L142.227 237.621Z" fill="#FDA234"/>
<path fill-rule="evenodd" clip-rule="evenodd" d="M146.175 238.988L142.227 241.267L143.806 242.178L147.754 239.9L146.175 238.988Z" fill="#FDA234"/>
<path fill-rule="evenodd" clip-rule="evenodd" d="M150.121 240.355L145.384 243.091L146.963 244.002L151.699 241.267L150.121 240.355Z" fill="#FDA234"/>
<path fill-rule="evenodd" clip-rule="evenodd" d="M150.121 244.002L148.542 244.913L150.121 245.825L151.7 244.913L150.121 244.002Z" fill="#D4F5FF"/>
<path fill-rule="evenodd" clip-rule="evenodd" d="M153.279 242.179L151.7 243.091L153.279 244.002L154.857 243.091L153.279 242.179Z" fill="#D4F5FF"/>
<path fill-rule="evenodd" clip-rule="evenodd" d="M143.806 233.063L142.227 233.975L143.806 234.886L145.385 233.975L143.806 233.063Z" fill="#D4F5FF"/>
<path fill-rule="evenodd" clip-rule="evenodd" d="M146.963 234.887L145.384 235.798L146.963 236.71L148.542 235.798L146.963 234.887Z" fill="#D4F5FF"/>
<path fill-rule="evenodd" clip-rule="evenodd" d="M150.121 236.71L148.542 237.621L150.121 238.533L151.7 237.621L150.121 236.71Z" fill="#D4F5FF"/>
<path fill-rule="evenodd" clip-rule="evenodd" d="M153.279 238.533L151.7 239.444L153.279 240.355L154.857 239.444L153.279 238.533Z" fill="#D4F5FF"/>
<path fill-rule="evenodd" clip-rule="evenodd" d="M156.436 240.355L154.857 241.267L156.436 242.178L158.015 241.267L156.436 240.355Z" fill="#D4F5FF"/>
<path fill-rule="evenodd" clip-rule="evenodd" d="M146.963 231.24L145.384 232.152L146.963 233.063L148.542 232.152L146.963 231.24Z" fill="#D4F5FF"/>
<path fill-rule="evenodd" clip-rule="evenodd" d="M150.121 233.063L148.542 233.975L150.121 234.886L151.7 233.975L150.121 233.063Z" fill="#D4F5FF"/>
<path fill-rule="evenodd" clip-rule="evenodd" d="M153.279 234.887L151.7 235.798L153.279 236.71L154.857 235.798L153.279 234.887Z" fill="#D4F5FF"/>
<path fill-rule="evenodd" clip-rule="evenodd" d="M156.436 236.71L154.857 237.621L156.436 238.533L158.015 237.621L156.436 236.71Z" fill="#D4F5FF"/>
<path fill-rule="evenodd" clip-rule="evenodd" d="M184.854 223.948L158.015 239.444L159.593 240.355L186.433 224.859L184.854 223.948Z" fill="#FDA234"/>
<path fill-rule="evenodd" clip-rule="evenodd" d="M150.121 229.417L148.542 230.329L150.121 231.24L151.7 230.329L150.121 229.417Z" fill="#D4F5FF"/>
<path fill-rule="evenodd" clip-rule="evenodd" d="M153.279 231.24L151.7 232.152L153.279 233.063L154.857 232.152L153.279 231.24Z" fill="#D4F5FF"/>
<path fill-rule="evenodd" clip-rule="evenodd" d="M156.436 233.063L154.857 233.975L156.436 234.886L158.015 233.975L156.436 233.063Z" fill="#D4F5FF"/>
<path fill-rule="evenodd" clip-rule="evenodd" d="M159.593 234.887L158.015 235.798L159.593 236.71L161.172 235.798L159.593 234.887Z" fill="#D4F5FF"/>
<path fill-rule="evenodd" clip-rule="evenodd" d="M153.279 227.594L151.7 228.505L153.279 229.416L154.857 228.505L153.279 227.594Z" fill="#D4F5FF"/>
<path fill-rule="evenodd" clip-rule="evenodd" d="M156.436 229.417L154.857 230.329L156.436 231.24L158.015 230.329L156.436 229.417Z" fill="#D4F5FF"/>
<path fill-rule="evenodd" clip-rule="evenodd" d="M159.593 231.24L158.015 232.152L159.593 233.063L161.172 232.152L159.593 231.24Z" fill="#D4F5FF"/>
<path fill-rule="evenodd" clip-rule="evenodd" d="M162.751 233.063L161.172 233.975L162.751 234.886L164.33 233.975L162.751 233.063Z" fill="#D4F5FF"/>
<path fill-rule="evenodd" clip-rule="evenodd" d="M156.436 225.771L154.857 226.682L156.436 227.594L158.015 226.682L156.436 225.771Z" fill="#D4F5FF"/>
<path fill-rule="evenodd" clip-rule="evenodd" d="M159.593 227.594L158.015 228.505L159.593 229.416L161.172 228.505L159.593 227.594Z" fill="#D4F5FF"/>
<path fill-rule="evenodd" clip-rule="evenodd" d="M162.751 229.417L161.172 230.329L162.751 231.24L164.33 230.329L162.751 229.417Z" fill="#D4F5FF"/>
<path fill-rule="evenodd" clip-rule="evenodd" d="M165.909 231.24L164.33 232.152L165.909 233.063L167.488 232.152L165.909 231.24Z" fill="#D4F5FF"/>
<path fill-rule="evenodd" clip-rule="evenodd" d="M159.593 223.948L158.015 224.859L159.593 225.771L161.172 224.859L159.593 223.948Z" fill="#D4F5FF"/>
<path fill-rule="evenodd" clip-rule="evenodd" d="M162.751 225.771L161.172 226.682L162.751 227.594L164.33 226.682L162.751 225.771Z" fill="#D4F5FF"/>
<path fill-rule="evenodd" clip-rule="evenodd" d="M165.909 227.594L164.33 228.505L165.909 229.416L167.488 228.505L165.909 227.594Z" fill="#D4F5FF"/>
<path fill-rule="evenodd" clip-rule="evenodd" d="M169.067 229.417L167.488 230.329L169.067 231.24L170.645 230.329L169.067 229.417Z" fill="#D4F5FF"/>
<path fill-rule="evenodd" clip-rule="evenodd" d="M162.751 222.125L161.172 223.037L162.751 223.948L164.33 223.037L162.751 222.125Z" fill="#D4F5FF"/>
<path fill-rule="evenodd" clip-rule="evenodd" d="M165.909 223.948L164.33 224.859L165.909 225.771L167.488 224.859L165.909 223.948Z" fill="#D4F5FF"/>
<path fill-rule="evenodd" clip-rule="evenodd" d="M169.067 225.771L167.488 226.682L169.067 227.594L170.645 226.682L169.067 225.771Z" fill="#D4F5FF"/>
<path fill-rule="evenodd" clip-rule="evenodd" d="M172.224 227.594L170.646 228.505L172.224 229.416L173.803 228.505L172.224 227.594Z" fill="#D4F5FF"/>
<path fill-rule="evenodd" clip-rule="evenodd" d="M165.909 220.301L164.33 221.213L165.909 222.124L167.488 221.213L165.909 220.301Z" fill="#D4F5FF"/>
<path fill-rule="evenodd" clip-rule="evenodd" d="M169.067 222.125L167.488 223.037L169.067 223.948L170.645 223.037L169.067 222.125Z" fill="#D4F5FF"/>
<path fill-rule="evenodd" clip-rule="evenodd" d="M172.224 223.948L170.646 224.859L172.224 225.771L173.803 224.859L172.224 223.948Z" fill="#D4F5FF"/>
<path fill-rule="evenodd" clip-rule="evenodd" d="M175.382 225.771L173.803 226.682L175.382 227.594L176.96 226.682L175.382 225.771Z" fill="#D4F5FF"/>
<path fill-rule="evenodd" clip-rule="evenodd" d="M169.067 218.478L167.488 219.39L169.067 220.301L170.645 219.39L169.067 218.478Z" fill="#D4F5FF"/>
<path fill-rule="evenodd" clip-rule="evenodd" d="M172.224 220.301L170.646 221.213L172.224 222.124L173.803 221.213L172.224 220.301Z" fill="#D4F5FF"/>
<path fill-rule="evenodd" clip-rule="evenodd" d="M175.382 222.125L173.803 223.037L175.382 223.948L176.96 223.037L175.382 222.125Z" fill="#D4F5FF"/>
<path fill-rule="evenodd" clip-rule="evenodd" d="M178.539 223.948L176.96 224.859L178.539 225.771L180.118 224.859L178.539 223.948Z" fill="#D4F5FF"/>
<path fill-rule="evenodd" clip-rule="evenodd" d="M172.224 216.656L170.646 217.567L172.224 218.478L173.803 217.567L172.224 216.656Z" fill="#D4F5FF"/>
<path fill-rule="evenodd" clip-rule="evenodd" d="M175.382 218.478L173.803 219.39L175.382 220.301L176.96 219.39L175.382 218.478Z" fill="#D4F5FF"/>
<path fill-rule="evenodd" clip-rule="evenodd" d="M178.539 220.301L176.96 221.213L178.539 222.124L180.118 221.213L178.539 220.301Z" fill="#D4F5FF"/>
<path fill-rule="evenodd" clip-rule="evenodd" d="M181.697 222.125L180.118 223.037L181.697 223.948L183.276 223.037L181.697 222.125Z" fill="#D4F5FF"/>
<path fill-rule="evenodd" clip-rule="evenodd" d="M175.382 214.832L173.803 215.743L175.382 216.655L176.96 215.743L175.382 214.832Z" fill="#D4F5FF"/>
<path fill-rule="evenodd" clip-rule="evenodd" d="M178.539 216.656L176.96 217.567L178.539 218.478L180.118 217.567L178.539 216.656Z" fill="#D4F5FF"/>
<path fill-rule="evenodd" clip-rule="evenodd" d="M181.697 218.478L180.118 219.39L181.697 220.301L183.276 219.39L181.697 218.478Z" fill="#D4F5FF"/>
<path fill-rule="evenodd" clip-rule="evenodd" d="M184.855 220.301L183.276 221.213L184.855 222.124L186.433 221.213L184.855 220.301Z" fill="#D4F5FF"/>
<path fill-rule="evenodd" clip-rule="evenodd" d="M188.012 222.125L186.434 223.037L188.012 223.948L189.591 223.037L188.012 222.125Z" fill="#D4F5FF"/>
<path fill-rule="evenodd" clip-rule="evenodd" d="M178.539 213.009L176.96 213.92L178.539 214.832L180.118 213.92L178.539 213.009Z" fill="#D4F5FF"/>
<path fill-rule="evenodd" clip-rule="evenodd" d="M181.697 214.832L180.118 215.743L181.697 216.655L183.276 215.743L181.697 214.832Z" fill="#D4F5FF"/>
<path fill-rule="evenodd" clip-rule="evenodd" d="M184.855 216.656L183.276 217.567L184.855 218.478L186.433 217.567L184.855 216.656Z" fill="#D4F5FF"/>
<path fill-rule="evenodd" clip-rule="evenodd" d="M188.012 218.478L186.434 219.39L188.012 220.301L189.591 219.39L188.012 218.478Z" fill="#D4F5FF"/>
<path fill-rule="evenodd" clip-rule="evenodd" d="M191.17 220.301L189.591 221.213L191.17 222.124L192.748 221.213L191.17 220.301Z" fill="#D4F5FF"/>
<path fill-rule="evenodd" clip-rule="evenodd" d="M181.697 211.186L180.118 212.098L181.697 213.009L183.276 212.098L181.697 211.186Z" fill="#D4F5FF"/>
<path fill-rule="evenodd" clip-rule="evenodd" d="M184.855 213.009L183.276 213.92L184.855 214.832L186.433 213.92L184.855 213.009Z" fill="#D4F5FF"/>
<path fill-rule="evenodd" clip-rule="evenodd" d="M188.012 214.832L186.434 215.743L188.012 216.655L189.591 215.743L188.012 214.832Z" fill="#D4F5FF"/>
<path fill-rule="evenodd" clip-rule="evenodd" d="M191.17 216.656L189.591 217.567L191.17 218.478L192.748 217.567L191.17 216.656Z" fill="#D4F5FF"/>
<path fill-rule="evenodd" clip-rule="evenodd" d="M194.327 218.478L192.749 219.39L194.327 220.301L195.906 219.39L194.327 218.478Z" fill="#D4F5FF"/>
<path fill-rule="evenodd" clip-rule="evenodd" d="M184.855 209.362L183.276 210.275L184.855 211.186L186.433 210.275L184.855 209.362Z" fill="#D4F5FF"/>
<path fill-rule="evenodd" clip-rule="evenodd" d="M188.012 211.186L186.434 212.098L188.012 213.009L189.591 212.098L188.012 211.186Z" fill="#D4F5FF"/>
<path fill-rule="evenodd" clip-rule="evenodd" d="M191.17 213.009L189.591 213.92L191.17 214.832L192.748 213.92L191.17 213.009Z" fill="#D4F5FF"/>
<path fill-rule="evenodd" clip-rule="evenodd" d="M194.327 214.832L192.749 215.743L194.327 216.655L195.906 215.743L194.327 214.832Z" fill="#D4F5FF"/>
<path fill-rule="evenodd" clip-rule="evenodd" d="M197.485 216.656L195.906 217.567L197.485 218.478L199.064 217.567L197.485 216.656Z" fill="#D4F5FF"/>
<path fill-rule="evenodd" clip-rule="evenodd" d="M188.012 207.54L186.434 208.451L188.012 209.362L189.591 208.451L188.012 207.54Z" fill="#D4F5FF"/>
<path fill-rule="evenodd" clip-rule="evenodd" d="M194.327 207.54L189.591 210.274L191.17 211.185L195.906 208.451L194.327 207.54Z" fill="#FDA234"/>
<path fill-rule="evenodd" clip-rule="evenodd" d="M194.327 211.186L192.749 212.098L194.327 213.009L195.906 212.098L194.327 211.186Z" fill="#D4F5FF"/>
<path fill-rule="evenodd" clip-rule="evenodd" d="M200.643 211.186L195.906 213.92L197.485 214.832L202.221 212.098L200.643 211.186Z" fill="#FDA234"/>
<path fill-rule="evenodd" clip-rule="evenodd" d="M200.643 214.832L199.064 215.743L200.643 216.655L202.222 215.743L200.643 214.832Z" fill="#D4F5FF"/>
<path fill-rule="evenodd" clip-rule="evenodd" d="M191.17 205.717L189.591 206.628L191.17 207.54L192.748 206.628L191.17 205.717Z" fill="#D4F5FF"/>
<path fill-rule="evenodd" clip-rule="evenodd" d="M197.485 209.362L195.906 210.275L197.485 211.186L199.064 210.275L197.485 209.362Z" fill="#D4F5FF"/>
<path fill-rule="evenodd" clip-rule="evenodd" d="M203.8 213.009L202.222 213.92L203.8 214.832L205.379 213.92L203.8 213.009Z" fill="#D4F5FF"/>
<path fill-rule="evenodd" clip-rule="evenodd" d="M251.716 90.6675L182.249 130.776V177.266L251.716 137.157V90.6675Z" fill="#3D7088"/>
<path fill-rule="evenodd" clip-rule="evenodd" d="M194.879 129.864L184.618 135.79V137.612L194.879 131.687V129.864Z" fill="#D4F5FF"/>
<path fill-rule="evenodd" clip-rule="evenodd" d="M220.14 115.28L200.406 126.673V128.497L220.14 117.103V115.28Z" fill="#FDA234"/>
<path fill-rule="evenodd" clip-rule="evenodd" d="M194.879 134.421L184.618 140.348V142.17L194.879 136.245V134.421Z" fill="#0B4460"/>
<path fill-rule="evenodd" clip-rule="evenodd" d="M243.032 106.619L200.406 131.231V133.054L243.032 108.443V106.619Z" fill="#D4F5FF"/>
<path fill-rule="evenodd" clip-rule="evenodd" d="M194.879 138.979L184.618 144.905V146.727L194.879 140.802V138.979Z" fill="#FDA234"/>
<path fill-rule="evenodd" clip-rule="evenodd" d="M232.771 117.103L200.406 135.79V137.612L232.771 118.925V117.103Z" fill="#FDA234"/>
<path fill-rule="evenodd" clip-rule="evenodd" d="M194.879 143.539L184.618 149.463V151.287L194.879 145.36V143.539Z" fill="#D4F5FF"/>
<path fill-rule="evenodd" clip-rule="evenodd" d="M240.665 117.103L200.406 140.348V142.17L240.665 118.925V117.103Z" fill="#0B4460"/>
<path fill-rule="evenodd" clip-rule="evenodd" d="M194.879 148.096L184.618 154.021V155.844L194.879 149.918V148.096Z" fill="#0B4460"/>
<path fill-rule="evenodd" clip-rule="evenodd" d="M249.349 116.647L200.406 144.906V146.728L249.349 118.47V116.647Z" fill="#FDA234"/>
<path fill-rule="evenodd" clip-rule="evenodd" d="M194.879 152.654L184.618 158.579V160.402L194.879 154.476V152.654Z" fill="#FDA234"/>
<path fill-rule="evenodd" clip-rule="evenodd" d="M228.824 133.054L200.406 149.463V151.287L228.824 134.878V133.054Z" fill="#FDA234"/>
<path fill-rule="evenodd" clip-rule="evenodd" d="M194.879 157.211L184.618 163.136V164.96L194.879 159.033V157.211Z" fill="#FDA234"/>
<path fill-rule="evenodd" clip-rule="evenodd" d="M240.665 130.776L200.406 154.021V155.845L240.665 132.6V130.776Z" fill="#D4F5FF"/>
<path fill-rule="evenodd" clip-rule="evenodd" d="M194.879 161.769L184.618 167.694V169.517L194.879 163.592V161.769Z" fill="#D4F5FF"/>
<path fill-rule="evenodd" clip-rule="evenodd" d="M221.719 146.272L200.406 158.578V160.402L221.719 148.096V146.272Z" fill="#0B4460"/>
<path fill-rule="evenodd" clip-rule="evenodd" d="M37 200.055L48.0516 176.354L65.4185 183.647L37 200.055Z" fill="#FDA234"/>
<path fill-rule="evenodd" clip-rule="evenodd" d="M47.2616 161.313C48.7867 160.433 50.0241 161.148 50.0241 162.908C50.0241 164.669 48.7867 166.813 47.2616 167.694C45.7364 168.575 44.499 167.86 44.499 166.099C44.499 164.338 45.7364 162.194 47.2616 161.313Z" fill="#D4F5FF"/>
<path d="M219.833 178.997L211.752 174.332C211.679 174.289 211.588 174.289 211.515 174.332L198.946 181.589C198.873 181.631 198.827 181.71 198.827 181.795C198.827 181.88 198.871 181.958 198.946 182.001L207.026 186.666C207.064 186.687 207.104 186.699 207.146 186.699C207.187 186.699 207.228 186.688 207.265 186.666L219.836 179.408C219.909 179.367 219.955 179.288 219.955 179.203C219.955 179.118 219.909 179.04 219.836 178.997" fill="#0B4460"/>
<path d="M211.787 174.356C211.711 174.29 211.6 174.281 211.514 174.33L198.945 181.588C198.846 181.645 198.801 181.762 198.839 181.87C198.872 181.968 198.962 182.032 199.064 182.032C199.074 182.032 199.083 182.032 199.094 182.031L209.418 180.735C209.506 180.723 209.579 180.665 209.61 180.583L211.855 174.622C211.891 174.528 211.863 174.423 211.787 174.358" fill="#FDA234"/>
<path d="M256.077 180.55C255.023 179.94 253.304 179.94 252.25 180.55C251.694 180.871 251.388 181.312 251.388 181.792C251.388 182.272 251.695 182.713 252.25 183.034C252.776 183.34 253.471 183.492 254.164 183.492C254.857 183.492 255.551 183.34 256.077 183.034C256.633 182.713 256.939 182.272 256.939 181.792C256.939 181.312 256.631 180.871 256.077 180.55Z" fill="#FDA234"/>
<path d="M109.154 271.326C108.848 271.15 108.496 271.002 108.109 270.892C107.983 270.855 107.852 270.929 107.815 271.054C107.8 271.104 106.855 272.284 106.487 272.787C106.531 272.24 106.599 271.133 106.622 271.135C106.757 271.15 106.864 271.04 106.87 270.908C106.876 270.777 106.774 270.667 106.643 270.661C105.491 270.604 104.353 270.85 103.527 271.327C102.733 271.786 102.294 272.411 102.294 273.088C102.294 273.765 102.733 274.39 103.527 274.849C104.303 275.296 105.321 275.521 106.341 275.52C107.359 275.52 108.377 275.296 109.152 274.849C109.947 274.39 110.385 273.765 110.385 273.088C110.385 272.411 109.947 271.786 109.152 271.327" fill="#FDA234"/>
<path d="M109.257 269.89C109.226 269.808 109.151 269.75 109.063 269.74L106.819 269.48C106.694 269.467 106.573 269.556 106.557 269.685L106.108 273.054C106.093 273.158 106.15 273.26 106.245 273.302C106.277 273.316 106.31 273.322 106.342 273.322C106.409 273.322 106.477 273.294 106.521 273.24L109.215 270.13C109.272 270.063 109.288 269.971 109.257 269.889" fill="#032D3D"/>
<path d="M101.073 272.883C100.75 272.695 100.261 272.695 99.9389 272.883C99.7451 272.994 99.6348 273.164 99.6348 273.348C99.6348 273.531 99.7451 273.701 99.9389 273.813C100.1 273.907 100.303 273.953 100.507 273.953C100.711 273.953 100.912 273.907 101.075 273.813C101.269 273.701 101.379 273.531 101.379 273.348C101.379 273.164 101.269 272.994 101.075 272.884" fill="#709DB0"/>
<path d="M106.46 275.991C106.135 275.803 105.648 275.803 105.324 275.991C105.13 276.103 105.02 276.273 105.02 276.456C105.02 276.64 105.132 276.809 105.324 276.92C105.487 277.014 105.689 277.06 105.892 277.06C106.095 277.06 106.298 277.012 106.46 276.92C106.654 276.808 106.764 276.638 106.764 276.456C106.764 276.274 106.652 276.103 106.46 275.991Z" fill="#709DB0"/>
<path d="M110.95 267.179C110.627 266.992 110.138 266.992 109.816 267.179C109.622 267.291 109.512 267.461 109.512 267.645C109.512 267.828 109.624 267.998 109.816 268.11C109.978 268.202 110.181 268.25 110.384 268.25C110.587 268.25 110.789 268.202 110.952 268.11C111.146 267.998 111.256 267.828 111.256 267.645C111.256 267.461 111.144 267.291 110.952 267.181" fill="#709DB0"/>
<path d="M116.337 270.288C116.013 270.102 115.526 270.102 115.202 270.288C115.008 270.4 114.898 270.57 114.898 270.753C114.898 270.937 115.008 271.107 115.202 271.219C115.365 271.312 115.567 271.359 115.77 271.359C115.973 271.359 116.176 271.311 116.338 271.219C116.532 271.107 116.642 270.937 116.642 270.753C116.642 270.57 116.532 270.4 116.338 270.288" fill="#709DB0"/>
<path d="M113.972 271.509C113.932 271.509 113.892 271.499 113.853 271.478L109.813 269.146C109.7 269.08 109.659 268.936 109.726 268.821C109.792 268.708 109.937 268.669 110.051 268.735L114.092 271.066C114.205 271.132 114.245 271.277 114.18 271.391C114.135 271.467 114.056 271.511 113.974 271.511" fill="#D4F5FF"/>
<path d="M113.075 272.547C113.035 272.547 112.993 272.537 112.956 272.516L111.161 271.48C111.047 271.414 111.007 271.269 111.074 271.156C111.14 271.043 111.284 271.003 111.398 271.07L113.193 272.106C113.306 272.171 113.345 272.316 113.281 272.429C113.236 272.505 113.157 272.549 113.075 272.549" fill="#D4F5FF"/>
<path d="M99.4232 248.716C99.3621 248.698 99.295 248.706 99.2384 248.738L94.7494 251.331C94.6883 251.367 94.6466 251.426 94.6346 251.497C94.6227 251.567 94.6436 251.638 94.6898 251.692L95.7185 252.876L96.1374 252.634L101.181 249.722L101.753 249.393L99.4247 248.718L99.4232 248.716Z" fill="#FDA234"/>
<path d="M103.517 247.962L98.1305 244.852C98.0574 244.809 97.9665 244.809 97.8934 244.852L97.1137 245.302L96.2416 244.798L96.7827 244.485C96.8558 244.443 96.902 244.364 96.902 244.279C96.902 244.194 96.8573 244.115 96.7827 244.074L94.0888 242.517C94.056 242.498 94.0187 242.487 93.9799 242.486L88.1433 242.226C88.0971 242.22 88.0523 242.235 88.0136 242.258L80.8307 246.405C80.7576 246.447 80.7114 246.526 80.7114 246.611C80.7114 246.696 80.7561 246.775 80.8307 246.817L87.1161 250.446C87.1891 250.489 87.2801 250.489 87.3531 250.446L88.1329 249.996L91.2502 251.795L90.709 252.108C90.636 252.15 90.5898 252.229 90.5898 252.314C90.5898 252.399 90.6345 252.476 90.709 252.52L93.4015 254.075C93.4388 254.096 93.479 254.106 93.5208 254.106C93.5625 254.106 93.6028 254.096 93.64 254.075L95.7168 252.876L94.6881 251.692C94.6419 251.639 94.621 251.568 94.6329 251.497C94.6449 251.427 94.6866 251.366 94.7477 251.331L99.2367 248.739C99.2918 248.706 99.3589 248.698 99.4215 248.716L101.75 249.392L103.515 248.372C103.588 248.33 103.635 248.251 103.635 248.168C103.635 248.084 103.59 248.004 103.515 247.962" fill="#0B4460"/>
<path d="M86.9938 247.509C86.949 247.585 86.87 247.628 86.788 247.628C86.7478 247.628 86.7075 247.617 86.6702 247.597L84.425 246.301C84.3117 246.235 84.273 246.091 84.3386 245.977C84.4042 245.864 84.5488 245.824 84.6621 245.891L86.9073 247.187C87.0206 247.252 87.0594 247.397 86.9938 247.51" fill="#D4F5FF"/>
<path d="M88.7906 246.471C88.7459 246.547 88.6669 246.59 88.5849 246.59C88.5446 246.59 88.5044 246.58 88.4671 246.559L86.2219 245.263C86.1086 245.198 86.0698 245.053 86.1354 244.94C86.201 244.827 86.3456 244.786 86.4589 244.853L88.7042 246.149C88.8175 246.215 88.8562 246.359 88.7906 246.473" fill="#D4F5FF"/>
<path d="M90.5856 245.435C90.5408 245.511 90.4618 245.554 90.3798 245.554C90.3396 245.554 90.2993 245.544 90.262 245.523L88.0168 244.227C87.9035 244.162 87.8648 244.017 87.9304 243.904C87.996 243.79 88.1421 243.75 88.2539 243.817L90.4991 245.113C90.6124 245.178 90.6511 245.323 90.5856 245.436" fill="#D4F5FF"/>
<path fill-rule="evenodd" clip-rule="evenodd" d="M126.194 247.012C126.629 246.76 127.338 246.76 127.773 247.012C128.208 247.264 128.208 247.673 127.773 247.923C127.338 248.175 126.629 248.175 126.194 247.923C125.759 247.671 125.759 247.263 126.194 247.012Z" fill="#FDA234"/>
<path fill-rule="evenodd" clip-rule="evenodd" d="M131.736 244.725C132.171 244.473 132.879 244.473 133.314 244.725C133.75 244.977 133.75 245.386 133.314 245.636C132.879 245.888 132.171 245.888 131.736 245.636C131.3 245.384 131.3 244.976 131.736 244.725Z" fill="#FDA234"/>
<path fill-rule="evenodd" clip-rule="evenodd" d="M129.502 249.651C129.938 249.399 130.646 249.399 131.081 249.651C131.516 249.903 131.516 250.311 131.081 250.562C130.646 250.814 129.938 250.814 129.502 250.562C129.067 250.31 129.067 249.901 129.502 249.651Z" fill="#FDA234"/>
<path fill-rule="evenodd" clip-rule="evenodd" d="M131.333 254.064C131.769 253.812 132.477 253.812 132.912 254.064C133.347 254.316 133.347 254.724 132.912 254.975C132.477 255.227 131.769 255.227 131.333 254.975C130.898 254.723 130.898 254.314 131.333 254.064Z" fill="#FDA234"/>
<path fill-rule="evenodd" clip-rule="evenodd" d="M130.455 257.305C130.89 257.053 131.598 257.053 132.034 257.305C132.469 257.557 132.469 257.966 132.034 258.216C131.598 258.468 130.89 258.468 130.455 258.216C130.02 257.964 130.02 257.556 130.455 257.305Z" fill="#FDA234"/>
<path fill-rule="evenodd" clip-rule="evenodd" d="M138.832 249.734C139.268 249.482 139.976 249.482 140.411 249.734C140.846 249.986 140.846 250.395 140.411 250.645C139.976 250.897 139.268 250.897 138.832 250.645C138.397 250.393 138.397 249.985 138.832 249.734Z" fill="#FDA234"/>
<path fill-rule="evenodd" clip-rule="evenodd" d="M137.805 252.075C138.24 251.823 138.948 251.823 139.384 252.075C139.819 252.327 139.819 252.736 139.384 252.986C138.948 253.238 138.24 253.238 137.805 252.986C137.37 252.734 137.37 252.326 137.805 252.075Z" fill="#FDA234"/>
<path fill-rule="evenodd" clip-rule="evenodd" d="M139.949 256.382C140.384 256.13 141.093 256.13 141.528 256.382C141.963 256.634 141.963 257.043 141.528 257.293C141.093 257.545 140.384 257.545 139.949 257.293C139.514 257.041 139.514 256.633 139.949 256.382Z" fill="#FDA234"/>
<path fill-rule="evenodd" clip-rule="evenodd" d="M101.731 253.836C102.166 253.584 102.874 253.584 103.31 253.836C103.745 254.088 103.745 254.496 103.31 254.747C102.874 254.999 102.166 254.999 101.731 254.747C101.295 254.495 101.295 254.086 101.731 253.836Z" fill="#FDA234"/>
<path fill-rule="evenodd" clip-rule="evenodd" d="M117.517 265.687C117.953 265.435 118.661 265.435 119.096 265.687C119.532 265.939 119.532 266.347 119.096 266.598C118.661 266.85 117.953 266.85 117.517 266.598C117.082 266.346 117.082 265.937 117.517 265.687Z" fill="#FDA234"/>
<path fill-rule="evenodd" clip-rule="evenodd" d="M196.458 201.878C196.023 202.13 195.315 202.13 194.879 201.878C194.444 201.626 194.444 201.217 194.879 200.967C195.315 200.715 196.023 200.715 196.458 200.967C196.893 201.219 196.893 201.627 196.458 201.878Z" fill="#FDA234"/>
<path fill-rule="evenodd" clip-rule="evenodd" d="M211.457 198.687C211.022 198.939 210.314 198.939 209.878 198.687C209.443 198.435 209.443 198.027 209.878 197.776C210.314 197.524 211.022 197.524 211.457 197.776C211.892 198.028 211.892 198.437 211.457 198.687Z" fill="#FDA234"/>
<path fill-rule="evenodd" clip-rule="evenodd" d="M223.439 196.369C223.002 196.621 222.296 196.621 221.859 196.369C221.423 196.117 221.423 195.708 221.859 195.458C222.296 195.206 223.002 195.206 223.439 195.458C223.874 195.71 223.874 196.118 223.439 196.369Z" fill="#FDA234"/>
<path fill-rule="evenodd" clip-rule="evenodd" d="M200.957 204.749C200.522 205.001 199.814 205.001 199.378 204.749C198.943 204.497 198.943 204.089 199.378 203.838C199.814 203.586 200.522 203.586 200.957 203.838C201.392 204.09 201.392 204.499 200.957 204.749Z" fill="#FDA234"/>
<path fill-rule="evenodd" clip-rule="evenodd" d="M205.142 204.156C204.707 204.408 203.999 204.408 203.563 204.156C203.128 203.904 203.128 203.495 203.563 203.245C203.999 202.993 204.707 202.993 205.142 203.245C205.577 203.497 205.577 203.905 205.142 204.156Z" fill="#FDA234"/>
<path fill-rule="evenodd" clip-rule="evenodd" d="M209.877 205.068C209.442 205.32 208.734 205.32 208.298 205.068C207.863 204.816 207.863 204.408 208.298 204.157C208.734 203.905 209.442 203.905 209.877 204.157C210.312 204.409 210.312 204.818 209.877 205.068Z" fill="#FDA234"/>
<path fill-rule="evenodd" clip-rule="evenodd" d="M216.193 205.068C215.758 205.32 215.05 205.32 214.615 205.068C214.179 204.816 214.179 204.408 214.615 204.157C215.05 203.905 215.758 203.905 216.193 204.157C216.629 204.409 216.629 204.818 216.193 205.068Z" fill="#FDA234"/>
<path fill-rule="evenodd" clip-rule="evenodd" d="M208.389 209.58C207.954 209.832 207.246 209.832 206.81 209.58C206.375 209.328 206.375 208.919 206.81 208.669C207.246 208.417 207.954 208.417 208.389 208.669C208.825 208.921 208.825 209.329 208.389 209.58Z" fill="#FDA234"/>
<path fill-rule="evenodd" clip-rule="evenodd" d="M216.193 186.836C215.758 187.088 215.05 187.088 214.615 186.836C214.179 186.584 214.179 186.175 214.615 185.925C215.05 185.673 215.758 185.673 216.193 185.925C216.629 186.177 216.629 186.585 216.193 186.836Z" fill="#FDA234"/>
<path fill-rule="evenodd" clip-rule="evenodd" d="M238.297 200.511C237.86 200.763 237.154 200.763 236.718 200.511C236.281 200.259 236.281 199.85 236.718 199.6C237.154 199.348 237.86 199.348 238.297 199.6C238.732 199.852 238.732 200.26 238.297 200.511Z" fill="#FDA234"/>
<path fill-rule="evenodd" clip-rule="evenodd" d="M266.22 190.769C265.785 191.021 265.077 191.021 264.642 190.769C264.205 190.517 264.205 190.108 264.642 189.858C265.077 189.606 265.785 189.606 266.22 189.858C266.656 190.11 266.656 190.518 266.22 190.769Z" fill="#FDA234"/>
</g>
<defs>
<clipPath id="clip0_1577_457">
<rect width="231.036" height="245" fill="white" transform="translate(37 35)"/>
</clipPath>
</defs>
</svg>
