<svg width="373" height="133" viewBox="0 0 373 133" fill="none" xmlns="http://www.w3.org/2000/svg">
<path d="M305.762 72.9728C309.977 72.9728 309.587 74.3716 309.509 76.6253C309.353 80.2778 309.353 84.3189 309.197 87.272C309.197 88.904 309.119 99.8615 308.963 104.835C308.885 107.866 308.963 111.285 308.963 115.404C308.963 117.969 309.041 121.233 309.041 123.875C309.119 125.351 309.197 125.662 307.714 126.206C305.762 126.906 302.796 127.372 300.22 127.217C298.893 127.294 298.581 126.517 298.346 125.196C297.644 121.621 297.644 117.969 297.488 114.316C297.098 108.099 297.254 101.882 297.098 95.5873C297.019 93.6445 297.098 90.0697 297.176 88.5931C297.254 85.1737 297.878 77.0139 298.659 75.3042C299.595 73.3613 300.298 73.2836 305.762 72.9728Z" fill="url(#paint0_linear_1821_259)"/>
<path d="M293.609 89.137C293.999 92.1678 293.999 98.3072 293.765 101.804C293.531 106.778 293.531 115.715 293.531 119.134C293.531 120.222 293.375 123.486 293.218 125.041C292.984 126.284 292.906 127.294 291.891 127.76C290.33 128.46 285.569 127.994 284.32 127.683C283.227 127.372 282.524 126.983 282.368 125.429C282.29 124.652 282.212 123.875 282.134 123.175C282.056 122.165 281.9 122.01 281.119 122.554C279.87 123.331 278.543 123.719 277.216 123.953C274.484 124.574 272.142 123.797 270.113 121.388C268.942 120.145 267.068 116.337 267.225 110.586C267.537 106.623 268.161 104.058 271.362 101.183C273.391 99.4729 276.748 98.4626 279.558 99.0843C280.573 99.2398 281.588 99.6283 281.9 98.5403C282.368 96.2089 282.446 93.6444 282.524 90.8467C282.758 86.4171 281.744 82.5314 280.963 81.4434C280.417 80.744 279.792 80.5886 279.09 81.0549C278.153 81.6766 277.607 83.3086 277.607 85.1737C277.528 87.2719 277.685 89.2148 277.919 91.3907C278.075 93.1004 277.997 94.6547 276.592 95.1987C274.796 95.8204 272.611 96.2089 270.581 95.9758C268.63 95.9758 268.396 95.1987 267.849 93.8775C267.537 93.1004 266.756 88.6708 266.834 85.0182C266.834 81.6766 267.693 78.8012 269.566 76.7029C271.44 74.527 273.313 73.2058 277.45 73.0504C284.866 72.8173 287.91 75.6927 289.472 77.5578C292.048 80.744 292.984 84.7074 293.609 89.137ZM281.822 111.907C281.9 111.596 281.9 110.741 281.822 110.042C281.666 108.254 280.807 107.166 279.012 107.555C277.45 107.944 276.28 108.954 276.28 110.974C276.28 111.363 276.28 111.752 276.358 112.14C276.592 113.694 277.372 114.394 278.699 114.472C280.573 114.549 281.666 114.005 281.822 111.907Z" fill="url(#paint1_linear_1821_259)"/>
<path d="M262.836 88.2823C262.914 89.6034 262.992 92.0902 262.992 92.8673C262.992 97.1416 263.07 99.3952 262.914 103.592C262.836 107.633 262.758 112.14 262.602 116.181C262.446 119.212 262.446 121.854 262.212 124.885C262.134 126.129 261.899 126.595 260.338 127.061C258.543 127.45 257.138 127.605 255.03 127.45C253.313 127.527 253.235 126.362 252.923 125.196C252.61 123.875 252.22 121.388 252.064 119.989C251.596 113.617 251.205 108.876 251.283 102.426C251.283 101.416 251.361 99.3175 251.283 97.9964C251.205 94.6547 251.596 91.3131 251.986 87.9714C252.298 85.4846 252.454 85.0183 254.093 84.7075C255.03 84.552 256.747 84.552 257.684 84.4743C258.699 84.3966 260.182 84.4743 261.431 84.552C262.524 84.6297 262.758 85.4069 262.836 88.2823ZM255.186 82.1429C254.171 81.6766 253.235 81.0549 252.688 79.967C251.439 77.6356 251.674 76.0813 253.547 74.3716C256.201 71.8848 260.807 72.4288 262.836 75.4596C263.304 76.2367 263.695 77.0916 263.617 77.9464C263.617 79.8892 262.602 81.1326 261.119 81.9098C259.245 82.92 257.216 83.2309 255.186 82.1429Z" fill="url(#paint2_linear_1821_259)"/>
<path d="M246.478 106.312C247.649 106.545 247.962 106.7 248.04 108.177C248.196 111.907 248.118 115.56 246.791 119.057C246.01 121.077 244.527 123.253 242.81 124.497C240.234 126.362 237.892 127.294 234.613 127.294C233.989 127.217 232.974 126.983 232.35 126.828C228.134 125.507 226.105 123.098 224.075 119.29C221.968 115.404 221.265 110.275 220.797 105.923C220.25 101.183 220.641 95.5873 220.797 94.1107C221.187 89.6811 222.124 84.552 224.231 80.6663C226.261 76.8584 228.603 74.2939 232.818 73.0504C233.442 72.895 233.989 72.7396 234.613 72.7396C237.892 72.6619 240.234 73.6722 242.81 75.5373C244.527 76.703 246.01 78.9566 246.791 80.9772C248.118 84.4743 248.196 88.1268 248.04 91.857C247.962 93.3336 247.649 93.4113 246.478 93.6444C244.137 94.033 242.966 94.1107 240.546 93.9553C238.048 93.8776 237.736 93.8776 237.58 92.3233C237.424 91.0022 237.424 89.6811 237.189 87.9714C237.033 86.4171 236.799 85.096 236.018 84.0857C235.004 82.8423 233.833 82.9977 233.13 84.2411C232.662 85.0183 232.35 86.184 232.194 87.3497C231.257 95.3541 230.788 102.037 232.115 112.218C232.35 113.617 232.662 114.938 233.13 115.793C233.833 116.958 235.004 117.192 236.018 115.87C236.799 114.938 237.033 113.617 237.189 111.985C237.424 110.275 237.424 109.032 237.58 107.633C237.736 106.079 238.048 106.156 240.546 106.001C242.966 105.923 244.137 105.923 246.478 106.312Z" fill="url(#paint3_linear_1821_259)"/>
<path d="M217.043 89.4479C217.199 90.6136 217.59 94.9655 217.043 98.6181C216.575 102.037 215.872 106.079 213.843 109.109C211.735 112.062 209.784 113.928 205.49 114.938C204.242 115.249 202.212 115.404 200.104 114.938C195.889 114.005 193.86 112.062 191.83 109.109C189.722 106.079 189.02 102.037 188.552 98.6181C188.005 94.9655 188.395 90.6136 188.552 89.4479C188.942 85.9508 189.879 81.9874 191.986 78.9566C194.016 76.0035 196.358 73.983 200.573 73.0504C200.885 72.9727 202.836 72.5064 205.022 73.0504C209.237 73.983 211.579 76.0035 213.687 78.9566C215.794 81.9874 216.653 85.9508 217.043 89.4479ZM205.803 103.125C207.052 95.5095 206.661 90.4582 205.725 84.4742C205.49 83.6194 205.256 82.7646 204.788 82.2206C203.773 80.9772 202.134 80.744 200.885 82.2206C200.339 82.7646 200.104 83.6194 199.948 84.4742C199.012 90.4582 198.543 95.5095 199.87 103.125C200.104 104.136 200.417 105.146 200.885 105.768C201.744 106.778 203.773 107.011 204.788 105.768C205.256 105.146 205.569 104.136 205.803 103.125ZM211.501 116.958C215.17 116.803 215.17 116.414 215.716 121.854C216.185 126.906 215.716 127.139 212.204 127.294C206.037 127.605 195.811 127.294 191.674 127.139C190.581 127.139 189.801 126.362 189.801 125.429V119.678C189.801 116.881 190.269 116.648 194.718 117.036C199.012 117.502 206.583 117.114 211.501 116.958Z" fill="url(#paint4_linear_1821_259)"/>
<path d="M184.772 110.586C185.475 114.005 184.772 118.746 183.289 121C182.587 122.165 181.338 123.72 180.011 124.73C176.888 127.061 174.781 127.683 170.8 127.838C166.272 127.683 163.384 126.051 162.525 125.352C160.184 123.642 158.779 121.699 157.92 118.357C157.374 115.404 157.452 113.384 157.764 110.975C158.154 108.177 157.998 107.711 160.34 107.167C162.057 106.7 166.35 107.011 167.755 107.788C168.77 108.177 168.692 108.876 168.536 110.275C168.302 112.762 168.458 114.627 168.77 116.803C168.926 117.58 169.239 118.668 169.863 119.212C170.644 119.989 171.736 119.756 172.283 118.824C173.844 116.337 173.766 113.772 172.829 111.13C172.205 109.498 171.346 107.866 170.019 106.623C168.692 105.146 166.35 102.815 165.257 101.882C163.54 100.406 162.369 99.1622 161.198 97.5302C159.247 95.0434 157.764 92.3234 157.295 89.2149C156.671 84.9407 157.686 81.599 160.184 78.0242C161.823 75.8483 164.633 73.5946 171.502 73.2837C175.561 73.2837 179.074 74.6048 181.65 77.8688C182.509 78.9568 183.133 80.511 183.601 83.0756C183.836 84.5521 183.914 86.8835 183.523 89.4481C183.133 91.3909 182.743 91.5463 180.557 91.8572C178.918 92.0903 176.888 91.8572 175.249 91.624C173.376 91.3132 173.298 90.6138 173.22 88.1269C173.22 86.4173 173.376 85.0184 172.985 83.3864C172.673 81.599 171.346 80.8219 170.409 80.7442C169.082 80.7442 168.458 81.3659 168.068 82.5316C167.521 84.319 167.365 86.4173 168.848 89.0595C169.629 90.6915 171.19 92.2457 172.673 93.3337C175.327 95.5097 177.201 97.4525 179.386 100.017C182.196 103.359 183.992 106.234 184.772 110.586Z" fill="url(#paint5_linear_1821_259)"/>
<path d="M357.991 27.7438C357.055 27.7438 357.055 28.0547 356.898 29.3758C356.43 33.8832 356.43 38.3128 356.977 42.5093C357.133 43.675 357.445 44.763 357.913 45.6178C358.616 46.7835 359.787 47.0167 360.801 45.6956C361.582 44.6853 361.816 43.3642 361.972 41.8099C362.207 40.1002 362.207 38.8568 362.363 37.458C362.519 35.9037 362.753 35.9037 365.329 35.826C367.749 35.7483 368.842 35.7483 371.261 36.1368C372.432 36.37 372.745 36.5254 372.823 38.002C372.979 41.6545 372.823 45.3847 371.496 48.8818C370.793 50.9023 369.31 53.0783 367.593 54.3217C365.017 56.1091 362.675 57.1194 359.396 57.0417C358.772 57.0417 358.225 56.964 357.601 56.7308C353.386 55.4874 350.966 52.1458 348.936 48.2601C346.829 44.4521 345.97 40.1002 345.58 35.7483C345.346 33.5723 345.268 31.0855 345.19 28.9095C345.033 25.1793 345.268 21.5268 346.048 17.4857C346.673 14.9211 346.829 13.7554 347.687 11.8126C348.936 8.93723 350.576 6.83898 353.152 5.36243C355.571 4.0413 357.289 3.49731 361.348 3.34188C365.095 3.34188 366.89 4.19673 368.92 6.13956C369.856 6.9944 370.637 8.1601 371.183 9.48122C372.042 11.4241 372.666 13.5223 372.823 15.6983C372.901 17.408 373.057 22.9256 372.979 25.257C372.979 27.8215 372.823 28.0547 370.403 28.0547C366.89 27.977 363.455 28.0547 359.631 27.8215C359.162 27.7438 358.538 27.6661 357.991 27.7438ZM357.835 15.6206C357.523 16.9417 357.367 18.1851 357.289 19.5062C357.289 20.3611 357.523 20.4388 358.069 20.5942C359.084 20.7496 360.099 20.9051 361.114 20.8273C361.582 20.8273 362.128 20.9051 362.597 20.8273C364.08 20.9051 364.002 20.6719 363.924 19.2731C363.924 17.4857 363.768 16.5531 363.69 15.232C363.534 13.8332 362.909 12.6675 361.894 11.7349C361.192 11.1132 360.411 11.3463 359.787 11.8903C358.694 12.9783 358.147 14.0663 357.835 15.6206Z" fill="url(#paint6_linear_1821_259)"/>
<path d="M341.307 4.11896C342.088 4.81837 342.322 8.16004 342.4 10.6469C342.478 14.7657 342.166 18.2628 341.776 22.8478C341.385 26.0341 340.527 32.4065 340.449 32.9505C339.824 36.9916 338.341 44.9961 336.389 50.436C336.077 51.3686 334.672 54.7102 333.735 55.4874C331.159 57.8188 323.822 57.3525 322.183 56.0314C321.168 55.2542 319.841 53.2337 318.67 50.0474C316.328 43.3641 314.923 37.0693 314.299 33.0283C314.221 32.4065 313.284 26.1118 312.894 22.9255C312.503 18.3405 312.113 14.8434 312.191 10.7246C312.191 8.23776 312.425 5.51779 313.284 4.50752C314.064 3.65268 314.845 3.26411 318.28 3.26411C320.309 3.26411 321.246 3.26411 322.339 3.34182C323.119 3.41954 323.822 3.34182 323.978 4.11896C324.212 4.9738 324.056 6.99434 324.056 10.6469C324.056 12.8228 324.212 15.0765 324.29 17.5633C324.29 19.9724 324.915 26.1895 324.993 27.1221C325.461 30.5414 325.773 34.5825 326.398 38.235L326.944 41.1104C327.256 42.2761 327.803 41.8098 327.881 41.3436C328.662 37.6133 329.442 30.0752 329.676 27.1221C329.754 26.2672 330.301 19.9724 330.379 17.5633C330.379 15.1542 330.535 12.9005 330.535 10.6469C330.457 7.9269 330.457 6.52807 330.457 5.36237C330.535 3.41954 331.003 3.49725 332.174 3.34182C333.267 3.26411 334.984 3.26411 336.389 3.34182C338.653 3.26411 340.449 3.26411 341.307 4.11896Z" fill="url(#paint7_linear_1821_259)"/>
<path d="M273.617 21.2158C275.803 23.7027 276.427 26.8112 276.817 29.4534C277.13 31.6294 277.13 35.9813 276.973 38.3905C276.739 42.1984 276.739 49.1926 276.739 50.5137C276.739 51.2908 276.661 53.6222 276.505 54.7102V54.9434C276.349 55.7205 276.193 56.4976 275.256 56.8862C274.788 57.1193 273.929 57.197 272.992 57.197C271.509 57.197 269.87 56.9639 269.246 56.8085C268.309 56.5753 267.684 56.1868 267.528 55.0211V54.8657C267.45 54.3994 267.372 53.8554 267.372 53.3891C267.294 53.3114 267.294 53.156 267.294 53.0783C267.294 53.156 267.216 53.156 267.138 53.2337C266.123 53.7777 264.952 54.0885 264.016 54.244C261.752 54.7102 258.708 54.3217 256.99 52.6897C255.585 51.4463 254.024 49.1926 254.18 44.9961C254.336 41.6544 255.273 39.6339 257.303 37.8465C259.332 36.2145 263.625 35.7482 265.811 36.1368L266.123 36.2145C266.435 36.2922 266.826 36.3699 266.982 36.2922C267.06 36.2145 267.138 36.1368 267.138 36.0591C267.528 34.5825 267.606 33.0282 267.684 31.3963V30.6969C267.841 27.7438 267.06 25.0238 266.514 24.3244C266.357 24.0912 266.201 24.0135 266.123 24.0135C265.967 24.0135 265.811 24.0135 265.655 24.0912C265.03 24.4798 264.64 25.4901 264.64 26.7335C264.562 28.21 264.718 29.5312 264.874 31.0854C264.952 31.9403 265.108 33.5722 263.625 34.0385C262.064 34.5825 260.347 34.8156 258.864 34.6602C257.146 34.6602 256.834 33.9608 256.522 33.106L256.444 32.9505C256.21 32.3288 255.585 29.2203 255.663 26.6558C255.663 24.169 256.444 22.0707 257.849 20.5941C259.254 19.0399 260.815 18.1073 264.172 17.9519C270.573 17.7188 272.836 20.361 273.617 21.2158ZM267.06 45.6955C267.138 45.4624 267.216 44.8407 267.138 44.2967C266.982 43.5972 266.67 43.131 266.123 42.8978C265.889 42.7424 265.577 42.7424 265.265 42.7424C265.03 42.7424 264.796 42.7424 264.562 42.7424C262.923 43.0533 262.064 43.7527 262.064 44.9961C262.064 45.3069 262.064 45.6178 262.142 45.8509C262.298 46.8612 262.923 47.2498 264.25 47.3275C265.967 47.4052 266.904 47.0943 267.06 45.6955ZM306.48 31.6294C306.558 32.4843 306.636 34.1162 306.636 34.6602C306.636 37.4579 306.792 38.9345 306.636 41.7321C306.48 44.4521 306.48 47.4052 306.246 50.0474C306.09 52.068 306.168 53.7777 305.934 55.7982C305.855 56.6531 305.621 56.9639 303.982 57.2748C302.265 57.5079 300.782 57.5856 298.752 57.5079C296.957 57.5079 296.879 56.8085 296.566 56.0314C296.254 55.1765 295.864 53.4668 295.786 52.612C295.317 48.3377 294.927 45.2292 294.927 40.955C294.927 40.2556 295.005 38.8567 295.005 38.0019C294.927 35.8259 295.317 33.5722 295.708 31.3963C295.942 29.6866 296.098 29.3757 297.815 29.2203C298.674 29.1426 300.469 29.1426 301.328 29.0649C302.343 29.0649 303.904 29.0649 305.075 29.1426C306.246 29.1426 306.402 29.6866 306.48 31.6294ZM297.269 18.9622C299.923 16.4753 304.528 17.0193 306.558 20.1279C307.026 20.8273 307.417 21.6821 307.261 22.537C307.339 24.4798 306.246 25.7232 304.841 26.5003C302.889 27.5106 300.86 27.8215 298.83 26.7335C297.815 26.2672 296.879 25.6455 296.332 24.5575C295.083 22.2261 295.317 20.6719 297.269 18.9622ZM304.06 3.73038C308.041 4.19666 309.29 3.41953 308.9 9.24802C308.431 15.4651 307.573 15.2319 303.982 15.0765C301.64 14.9211 298.908 14.8434 294.927 14.8434C293.756 14.8434 292.976 14.6879 292.429 15.2319C291.883 15.6982 291.961 16.3976 291.883 17.5633C291.805 19.1176 291.727 30.1529 291.571 35.0488C291.493 38.0796 291.571 41.5767 291.571 45.6178C291.571 48.26 291.649 51.524 291.727 54.1662C291.727 55.6428 291.805 55.9536 290.322 56.4199C288.448 57.197 285.404 57.6633 282.906 57.5079C281.501 57.5079 281.189 56.8085 280.955 55.4874C280.33 51.9126 280.252 48.1823 280.096 44.5298C279.706 38.3127 279.862 32.0957 279.706 25.8786C279.706 23.8581 279.706 20.2833 279.784 18.8845C279.784 17.3302 279.94 16.0868 279.315 15.6205C278.691 15.1542 277.91 14.9211 275.725 14.8434C271.822 14.7657 264.094 14.5325 258.708 15.6982C255.819 16.3199 254.883 15.6982 254.336 10.2583C253.79 4.4298 254.18 4.19666 257.693 3.88581C265.733 3.10868 284.233 3.18639 284.233 3.18639V3.26411C285.404 3.18639 286.731 3.18639 288.37 3.18639C289.073 3.18639 289.697 3.18639 290.4 3.18639C290.4 3.18639 291.493 3.18639 293.21 3.26411C293.6 3.26411 293.99 3.26411 294.381 3.26411C299.377 3.26411 301.25 3.34182 304.06 3.73038Z" fill="url(#paint8_linear_1821_259)"/>
<path d="M236.023 27.7438C235.087 27.7438 235.087 28.0547 234.931 29.3758C234.462 33.8832 234.462 38.3128 235.009 42.5093C235.165 43.675 235.477 44.763 235.945 45.6178C236.648 46.7835 237.819 47.0167 238.833 45.6956C239.614 44.6853 239.848 43.3642 240.004 41.8099C240.239 40.1002 240.239 38.8568 240.395 37.458C240.551 35.9037 240.785 35.9037 243.361 35.826C245.781 35.7483 246.874 35.7483 249.293 36.1368C250.464 36.37 250.777 36.5254 250.855 38.002C251.011 41.6545 250.855 45.3847 249.528 48.8818C248.825 50.9023 247.342 53.0783 245.625 54.3217C243.049 56.1091 240.707 57.1194 237.428 57.0417C236.804 57.0417 236.258 56.964 235.633 56.7308C231.418 55.4874 228.998 52.1458 226.968 48.2601C224.861 44.4521 224.002 40.1002 223.612 35.7483C223.378 33.5723 223.3 31.0855 223.222 28.9095C223.065 25.1793 223.3 21.5268 224.08 17.4857C224.705 14.9211 224.861 13.7554 225.719 11.8126C226.968 8.93723 228.608 6.83898 231.184 5.36243C233.604 4.0413 235.321 3.49731 239.38 3.34188C243.127 3.34188 244.922 4.19673 246.952 6.13956C247.888 6.9944 248.669 8.1601 249.215 9.48122C250.074 11.4241 250.699 13.5223 250.855 15.6983C250.933 17.408 251.089 22.9256 251.011 25.257C251.011 27.8215 250.855 28.0547 248.435 28.0547C244.922 27.977 241.488 28.0547 237.663 27.8215C237.194 27.7438 236.57 27.6661 236.023 27.7438ZM235.867 15.6206C235.555 16.9417 235.399 18.1851 235.321 19.5062C235.321 20.3611 235.555 20.4388 236.101 20.5942C237.116 20.7496 238.131 20.9051 239.146 20.8273C239.614 20.8273 240.161 20.9051 240.629 20.8273C242.112 20.9051 242.034 20.6719 241.956 19.2731C241.956 17.4857 241.8 16.5531 241.722 15.232C241.566 13.8332 240.941 12.6675 239.926 11.7349C239.224 11.1132 238.443 11.3463 237.819 11.8903C236.726 12.9783 236.179 14.0663 235.867 15.6206Z" fill="url(#paint9_linear_1821_259)"/>
<path d="M219.775 39.8669C220.868 40.4886 220.946 40.7218 220.712 42.82C220.478 45.6177 220.009 48.8039 218.682 51.2907C217.277 54.0107 215.638 56.109 213.374 56.9638C212.282 57.3524 209.784 57.5855 208.144 56.5752C205.256 54.9433 203.773 52.301 202.524 48.6485C201.197 44.7628 201.041 41.1103 200.729 36.9138C200.651 35.8258 200.729 35.1264 200.026 35.0487C199.48 35.0487 199.402 35.4373 199.168 37.0692C198.933 39.4783 198.933 40.7995 198.933 42.8977C198.933 45.4623 198.933 49.5033 199.011 52.3787C199.09 56.7307 198.621 56.8861 197.372 57.197C196.123 57.5078 194.25 57.5855 193.235 57.5078C190.113 57.5078 189.02 57.1192 188.708 56.653C188.317 56.0313 188.317 54.0884 188.317 53.0782C188.239 48.8816 188.395 45.3845 188.317 41.8097C188.317 39.6338 188.395 37.4578 188.317 35.3595C188.161 30.4636 188.395 25.6454 188.395 20.8272C188.395 16.4753 188.552 14.6878 188.708 10.3359C188.786 9.63649 189.098 6.29483 189.176 5.28455C189.332 3.57487 189.332 3.1863 191.049 3.1863C193.157 3.1863 196.514 3.1863 198.933 3.41944C201.822 3.65258 204.866 4.04115 207.52 5.05142C210.096 5.98397 211.111 6.52797 213.374 8.23766C215.716 10.1028 217.199 12.1233 218.292 14.921C219.151 17.2524 219.775 21.9929 218.682 24.8683C217.434 28.2877 216.028 29.5311 212.594 31.6293C210.486 32.9504 208.613 32.8727 208.847 34.6601C209.237 37.5355 209.55 40.5663 210.096 43.4417C210.174 43.7526 210.408 45.0737 210.877 45.8508C211.501 46.9388 212.204 44.6851 212.438 43.5971C212.594 42.7423 212.672 41.4989 212.828 40.7995C213.218 38.7012 213.14 38.3904 215.248 38.6235C217.824 38.9344 219.385 39.7115 219.775 39.8669ZM206.817 23.4694C208.144 22.77 209.55 20.9049 208.457 18.4958C207.676 17.0192 205.412 15.6204 204.71 15.2318C202.993 14.377 201.587 13.9107 200.651 13.7553C199.168 13.5999 199.168 13.9884 199.09 14.7656C198.855 18.0295 198.933 20.7495 199.09 23.0032C199.168 23.9357 199.09 24.5574 200.417 24.5574C202.914 24.5574 204.554 24.7128 206.817 23.4694Z" fill="url(#paint10_linear_1821_259)"/>
<path d="M180.401 47.0943C183.992 47.0166 183.992 46.628 184.538 51.9902C185.007 57.1193 184.538 57.3524 181.026 57.5079C174.859 57.8187 164.633 57.5079 160.496 57.3524C159.403 57.2747 158.622 56.4976 158.622 55.565V49.892C158.622 47.0943 159.091 46.8612 163.54 47.2497C167.912 47.6383 175.405 47.2497 180.401 47.0943ZM183.211 30.6191C184.538 31.0854 185.085 31.474 184.772 33.1059C184.46 35.0488 183.836 37.5356 182.665 39.2453C180.557 42.2761 178.606 44.0635 174.312 45.0738C173.063 45.3846 171.034 45.54 168.926 45.0738C164.711 44.2189 162.682 42.2761 160.652 39.2453C158.544 36.2922 157.842 32.2511 157.374 28.8317C156.827 25.1015 157.217 20.7495 157.374 19.5838C157.764 16.1645 158.701 12.2011 160.808 9.17028C162.838 6.21718 165.179 4.19664 169.395 3.18636C169.707 3.18636 171.658 2.72009 173.844 3.18636C178.059 4.11892 180.401 6.21718 182.509 9.17028C183.758 11.0354 184.382 13.2891 184.85 15.6982C185.241 17.8742 185.163 18.8067 184.07 19.1176C182.743 19.4284 179.23 19.817 176.966 19.5838C175.405 19.4284 175.171 19.273 175.015 18.1073L174.937 17.5633C174.781 16.3976 174.703 15.8536 174.547 14.6879C174.312 13.8331 174.078 12.9782 173.61 12.3565C172.595 11.1908 170.956 10.9577 169.707 12.3565C169.161 12.9782 168.926 13.8331 168.77 14.6879C167.833 20.6718 167.365 25.6455 168.692 33.2614C168.926 34.2716 169.239 35.3596 169.707 35.9036C170.566 36.9916 172.595 37.147 173.61 35.9036C174.078 35.3596 174.39 34.2716 174.625 33.2614C174.937 31.0077 175.015 30.386 176.186 30.1528C177.279 29.9197 181.728 30.0751 183.211 30.6191Z" fill="url(#paint11_linear_1821_259)"/>
<path d="M100.409 60.8193C98.1121 60.8193 98.1121 61.5817 97.7292 64.8218C96.5806 75.8763 96.5806 86.7402 97.9207 97.0323C98.3036 99.8913 99.0694 102.56 100.218 104.656C101.941 107.515 104.813 108.087 107.301 104.847C109.216 102.369 109.79 99.1289 110.173 95.317C110.747 91.1239 110.747 88.0744 111.13 84.6437C111.513 80.8318 112.088 80.8318 118.405 80.6412C124.34 80.4506 127.02 80.4506 132.955 81.4036C135.827 81.9754 136.592 82.3565 136.784 85.9778C137.167 94.9358 136.784 104.084 133.529 112.661C131.806 117.617 128.169 122.953 123.957 126.003C117.639 130.386 111.896 132.864 103.855 132.674C102.324 132.674 100.984 132.483 99.4522 131.911C89.1143 128.862 83.1795 120.666 78.2019 111.136C73.033 101.797 70.9271 91.1239 69.9699 80.4506C69.3955 75.1139 69.2041 69.0149 69.0126 63.6782C68.6297 54.5297 69.2041 45.5717 71.1185 35.6608C72.6501 29.3712 73.033 26.5122 75.1388 21.7474C78.2019 14.6954 82.2223 9.54931 88.5399 5.92801C94.4747 2.68789 98.6865 1.35372 108.642 0.972538C117.831 0.972538 122.234 3.06908 127.212 7.83395C129.509 9.93049 131.423 12.7894 132.764 16.0295C134.869 20.7944 136.401 25.9405 136.784 31.2771C136.975 35.4702 137.358 49.0024 137.167 54.7203C137.167 61.0099 136.784 61.5817 130.849 61.5817C122.234 61.3911 113.811 61.5817 104.43 61.0099C103.281 60.8193 101.75 60.6287 100.409 60.8193ZM100.027 31.0865C99.2608 34.3266 98.8779 37.3762 98.6865 40.6163C98.6865 42.7128 99.2608 42.9034 100.601 43.2846C103.09 43.6658 105.578 44.047 108.067 43.8564C109.216 43.8564 110.556 44.047 111.705 43.8564C115.342 44.047 115.151 43.4752 114.959 40.0445C114.959 35.6608 114.576 33.3737 114.385 30.1335C114.002 26.7028 112.47 23.8439 109.982 21.5568C108.259 20.032 106.344 20.6038 104.813 21.938C102.132 24.6063 100.792 27.2746 100.027 31.0865Z" fill="url(#paint12_linear_1821_259)"/>
<path d="M43.3142 78.7354C41.5912 79.6884 39.1025 80.6413 40.8255 81.5943C47.3346 84.6438 51.7378 89.5993 54.418 95.6983C58.0554 103.894 57.4811 111.899 52.1207 119.523C48.8661 123.906 44.4629 127.909 36.0394 130.768C27.4244 133.436 20.1495 133.055 11.5345 132.864C5.4083 132.293 4.25963 131.911 3.11097 127.718C1.9623 123.335 2.15375 121.238 1.77086 117.426C0.813637 105.99 0.622193 92.6488 0.239305 82.3567C-0.143583 73.5893 0.0478611 65.2031 0.0478611 54.911C0.0478611 42.1412 0.0478611 37.3763 0.813637 28.0372C1.57941 17.3638 2.34519 10.693 3.11097 5.54696C3.87674 0.972688 4.45108 -0.170878 10.003 0.0197143C15.1719 0.210307 22.6383 -0.170878 27.6158 1.35387C33.1677 3.06923 36.4222 4.2128 41.3998 7.6435C47.9089 12.0272 51.3549 16.9827 55.5667 23.2723C58.4383 27.656 61.1185 35.2798 61.6929 40.4258C62.2672 46.5249 62.4586 51.4803 60.9271 57.5794C59.2041 64.4408 53.4608 73.5893 43.3142 78.7354ZM33.742 104.275C34.5078 100.273 32.5934 95.6983 29.5303 93.4112C27.9987 92.2676 26.4672 91.3146 24.3613 90.7429C23.9784 90.5523 23.404 90.9335 23.404 91.3146C23.2126 92.4582 23.0212 93.7924 23.0212 94.1736C22.6383 99.3196 23.0212 106.753 23.7869 109.993C24.3613 111.899 24.9356 112.089 26.4672 111.899C29.9131 111.136 32.4019 109.231 33.742 104.275ZM34.3164 55.4828C36.6137 50.3367 36.4222 43.0941 35.6565 39.2822C35.465 37.1857 34.6992 33.9456 32.9763 31.6585C30.8704 28.7995 29.3388 27.4654 26.85 26.3218C25.7014 25.9406 24.7442 26.1312 24.7442 27.4654C24.5527 29.3713 23.9784 34.3268 23.9784 36.9951C23.404 44.0471 23.404 48.4308 22.8297 55.864C22.8297 57.3888 22.6383 58.9135 22.8297 60.4383C23.0212 61.5818 23.404 61.7724 24.9356 61.7724C28.7645 61.3912 32.5934 59.4853 34.3164 55.4828Z" fill="url(#paint13_linear_1821_259)"/>
<defs>
<linearGradient id="paint0_linear_1821_259" x1="108.202" y1="18.0833" x2="330.481" y2="159.95" gradientUnits="userSpaceOnUse">
<stop stop-color="#FF2A78"/>
<stop offset="0.41" stop-color="#FF7643"/>
<stop offset="1" stop-color="#C8B524"/>
</linearGradient>
<linearGradient id="paint1_linear_1821_259" x1="108.202" y1="18.0833" x2="330.481" y2="159.95" gradientUnits="userSpaceOnUse">
<stop stop-color="#FF2A78"/>
<stop offset="0.41" stop-color="#FF7643"/>
<stop offset="1" stop-color="#C8B524"/>
</linearGradient>
<linearGradient id="paint2_linear_1821_259" x1="108.202" y1="18.0833" x2="330.481" y2="159.95" gradientUnits="userSpaceOnUse">
<stop stop-color="#FF2A78"/>
<stop offset="0.41" stop-color="#FF7643"/>
<stop offset="1" stop-color="#C8B524"/>
</linearGradient>
<linearGradient id="paint3_linear_1821_259" x1="108.202" y1="18.0833" x2="330.481" y2="159.95" gradientUnits="userSpaceOnUse">
<stop stop-color="#FF2A78"/>
<stop offset="0.41" stop-color="#FF7643"/>
<stop offset="1" stop-color="#C8B524"/>
</linearGradient>
<linearGradient id="paint4_linear_1821_259" x1="108.202" y1="18.0833" x2="330.481" y2="159.95" gradientUnits="userSpaceOnUse">
<stop stop-color="#FF2A78"/>
<stop offset="0.41" stop-color="#FF7643"/>
<stop offset="1" stop-color="#C8B524"/>
</linearGradient>
<linearGradient id="paint5_linear_1821_259" x1="108.202" y1="18.0833" x2="330.481" y2="159.95" gradientUnits="userSpaceOnUse">
<stop stop-color="#FF2A78"/>
<stop offset="0.41" stop-color="#FF7643"/>
<stop offset="1" stop-color="#C8B524"/>
</linearGradient>
<linearGradient id="paint6_linear_1821_259" x1="108.202" y1="18.0833" x2="330.481" y2="159.95" gradientUnits="userSpaceOnUse">
<stop stop-color="#FF2A78"/>
<stop offset="0.41" stop-color="#FF7643"/>
<stop offset="1" stop-color="#C8B524"/>
</linearGradient>
<linearGradient id="paint7_linear_1821_259" x1="108.202" y1="18.0833" x2="330.481" y2="159.95" gradientUnits="userSpaceOnUse">
<stop stop-color="#FF2A78"/>
<stop offset="0.41" stop-color="#FF7643"/>
<stop offset="1" stop-color="#C8B524"/>
</linearGradient>
<linearGradient id="paint8_linear_1821_259" x1="108.202" y1="18.0833" x2="330.481" y2="159.95" gradientUnits="userSpaceOnUse">
<stop stop-color="#FF2A78"/>
<stop offset="0.41" stop-color="#FF7643"/>
<stop offset="1" stop-color="#C8B524"/>
</linearGradient>
<linearGradient id="paint9_linear_1821_259" x1="108.202" y1="18.0833" x2="330.481" y2="159.95" gradientUnits="userSpaceOnUse">
<stop stop-color="#FF2A78"/>
<stop offset="0.41" stop-color="#FF7643"/>
<stop offset="1" stop-color="#C8B524"/>
</linearGradient>
<linearGradient id="paint10_linear_1821_259" x1="108.202" y1="18.0833" x2="330.481" y2="159.95" gradientUnits="userSpaceOnUse">
<stop stop-color="#FF2A78"/>
<stop offset="0.41" stop-color="#FF7643"/>
<stop offset="1" stop-color="#C8B524"/>
</linearGradient>
<linearGradient id="paint11_linear_1821_259" x1="108.202" y1="18.0833" x2="330.481" y2="159.95" gradientUnits="userSpaceOnUse">
<stop stop-color="#FF2A78"/>
<stop offset="0.41" stop-color="#FF7643"/>
<stop offset="1" stop-color="#C8B524"/>
</linearGradient>
<linearGradient id="paint12_linear_1821_259" x1="108.202" y1="18.0833" x2="330.481" y2="159.95" gradientUnits="userSpaceOnUse">
<stop stop-color="#FF2A78"/>
<stop offset="0.41" stop-color="#FF7643"/>
<stop offset="1" stop-color="#C8B524"/>
</linearGradient>
<linearGradient id="paint13_linear_1821_259" x1="108.202" y1="18.0833" x2="330.481" y2="159.95" gradientUnits="userSpaceOnUse">
<stop stop-color="#FF2A78"/>
<stop offset="0.41" stop-color="#FF7643"/>
<stop offset="1" stop-color="#C8B524"/>
</linearGradient>
</defs>
</svg>
