<svg width="92" height="33" viewBox="0 0 92 33" fill="none" xmlns="http://www.w3.org/2000/svg">
<path d="M75.4159 18.106C76.4555 18.106 76.3593 18.4531 76.34 19.0123C76.3015 19.9186 76.3015 20.9212 76.263 21.654C76.263 22.0589 76.2437 24.7777 76.2052 26.0117C76.186 26.7637 76.2052 27.6122 76.2052 28.6341C76.2052 29.2704 76.2245 30.0803 76.2245 30.7359C76.2437 31.1022 76.263 31.1794 75.8972 31.3143C75.4159 31.4879 74.6842 31.6036 74.0489 31.565C73.7216 31.5843 73.6446 31.3915 73.5868 31.0637C73.4135 30.1767 73.4135 29.2704 73.375 28.3642C73.2787 26.8216 73.3173 25.279 73.2787 23.7172C73.2595 23.2351 73.2787 22.3481 73.298 21.9818C73.3172 21.1333 73.4713 19.1087 73.6638 18.6845C73.8949 18.2024 74.0681 18.1832 75.4159 18.106Z" fill="url(#paint0_linear_2015_161)"/>
<path d="M72.4182 22.1167C72.5145 22.8687 72.5145 24.392 72.4567 25.2597C72.399 26.4938 72.399 28.7112 72.399 29.5596C72.399 29.8296 72.3605 30.6394 72.322 31.0251C72.2642 31.3336 72.245 31.5843 71.9947 31.7C71.6096 31.8735 70.4352 31.7578 70.1271 31.6807C69.8576 31.6036 69.6843 31.5071 69.6458 31.1215C69.6265 30.9287 69.6073 30.7359 69.588 30.5623C69.5687 30.3117 69.5302 30.2731 69.3377 30.4081C69.0297 30.6009 68.7023 30.6973 68.375 30.7551C67.7012 30.9094 67.1236 30.7166 66.623 30.1188C66.3342 29.8103 65.8721 28.8655 65.9106 27.4386C65.9876 26.4552 66.1417 25.8189 66.931 25.1055C67.4316 24.6812 68.2595 24.4306 68.9526 24.5848C69.2029 24.6234 69.4532 24.7198 69.5302 24.4499C69.6458 23.8714 69.665 23.2351 69.6843 22.5409C69.742 21.4418 69.4917 20.4777 69.2992 20.2078C69.1644 20.0342 69.0104 19.9957 68.8371 20.1114C68.6061 20.2656 68.4713 20.6705 68.4713 21.1333C68.4521 21.6539 68.4906 22.136 68.5483 22.6759C68.5868 23.1001 68.5676 23.4857 68.221 23.6207C67.7782 23.775 67.2391 23.8714 66.7385 23.8135C66.2572 23.8135 66.1994 23.6207 66.0647 23.2929C65.9876 23.1001 65.7951 22.001 65.8144 21.0948C65.8144 20.2656 66.0261 19.5522 66.4882 19.0316C66.9503 18.4917 67.4124 18.1639 68.4328 18.1253C70.2619 18.0674 71.0127 18.7809 71.3978 19.2437C72.0332 20.0342 72.2642 21.0176 72.4182 22.1167ZM69.511 27.7664C69.5302 27.6893 69.5302 27.4772 69.511 27.3036C69.4725 26.8601 69.2607 26.5902 68.8179 26.6866C68.4328 26.783 68.144 27.0337 68.144 27.535C68.144 27.6314 68.144 27.7278 68.1633 27.8242C68.221 28.2099 68.4135 28.3834 68.7409 28.4027C69.2029 28.422 69.4725 28.287 69.511 27.7664Z" fill="url(#paint1_linear_2015_161)"/>
<path d="M64.8282 21.9046C64.8475 22.2324 64.8667 22.8495 64.8667 23.0423C64.8667 24.1028 64.886 24.662 64.8475 25.7032C64.8282 26.7059 64.809 27.8243 64.7704 28.8269C64.7319 29.5789 64.7319 30.2345 64.6742 30.9865C64.6549 31.2951 64.5972 31.4108 64.2121 31.5264C63.7693 31.6229 63.4227 31.6614 62.9029 31.6229C62.4793 31.6421 62.4601 31.3529 62.383 31.0637C62.306 30.7359 62.2098 30.1188 62.1713 29.7718C62.0557 28.1906 61.9595 27.0144 61.9787 25.414C61.9787 25.1633 61.998 24.6427 61.9787 24.3149C61.9595 23.4858 62.0557 22.6566 62.152 21.8275C62.229 21.2105 62.2675 21.0948 62.6718 21.0176C62.9029 20.9791 63.3264 20.9791 63.5575 20.9598C63.8078 20.9405 64.1736 20.9598 64.4816 20.9791C64.7512 20.9984 64.8089 21.1912 64.8282 21.9046ZM62.9414 20.3813C62.6911 20.2656 62.4601 20.1114 62.3253 19.8414C62.0172 19.263 62.075 18.8773 62.5371 18.4531C63.1917 17.8361 64.3276 17.9711 64.8282 18.7231C64.9437 18.9159 65.04 19.128 65.0207 19.3401C65.0207 19.8221 64.7704 20.1307 64.4046 20.3235C63.9426 20.5741 63.442 20.6513 62.9414 20.3813Z" fill="url(#paint2_linear_2015_161)"/>
<path d="M60.7936 26.3781C61.0824 26.4359 61.1594 26.4745 61.1787 26.8409C61.2172 27.7664 61.1979 28.6727 60.8706 29.5404C60.6781 30.0417 60.3123 30.5816 59.8887 30.8901C59.2533 31.3529 58.6757 31.5843 57.8671 31.5843C57.7131 31.565 57.4628 31.5072 57.3088 31.4686C56.2691 31.1408 55.7685 30.543 55.2679 29.5982C54.7481 28.6341 54.5748 27.3615 54.4593 26.2817C54.3245 25.1055 54.4208 23.7171 54.4593 23.3508C54.5555 22.2517 54.7866 20.9791 55.3064 20.015C55.807 19.0701 56.3846 18.4338 57.4243 18.1253C57.5783 18.0867 57.7131 18.0482 57.8671 18.0482C58.6757 18.0289 59.2533 18.2796 59.8887 18.7423C60.3123 19.0316 60.6781 19.5907 60.8706 20.0921C61.1979 20.9598 61.2172 21.866 61.1787 22.7916C61.1594 23.158 61.0824 23.1772 60.7936 23.2351C60.216 23.3315 59.9272 23.3508 59.3304 23.3122C58.7142 23.2929 58.6372 23.2929 58.5987 22.9073C58.5602 22.5795 58.5602 22.2517 58.5025 21.8275C58.464 21.4418 58.4062 21.114 58.2137 20.8634C57.9634 20.5549 57.6746 20.5934 57.5013 20.9019C57.3858 21.0948 57.3088 21.384 57.2703 21.6732C57.0392 23.6593 56.9237 25.3176 57.251 27.8435C57.3088 28.1906 57.3858 28.5184 57.5013 28.7305C57.6746 29.0198 57.9634 29.0776 58.2137 28.7498C58.4062 28.5184 58.464 28.1906 58.5025 27.7857C58.5602 27.3615 58.5602 27.053 58.5987 26.7059C58.6372 26.3202 58.7142 26.3395 59.3304 26.301C59.9272 26.2817 60.216 26.2817 60.7936 26.3781Z" fill="url(#paint3_linear_2015_161)"/>
<path d="M53.5335 22.1938C53.572 22.4831 53.6682 23.5629 53.5335 24.4691C53.4179 25.3176 53.2447 26.3202 52.7441 27.0722C52.2242 27.805 51.7429 28.2677 50.684 28.5184C50.3759 28.5955 49.8753 28.6341 49.3555 28.5184C48.3158 28.287 47.8152 27.805 47.3147 27.0722C46.7948 26.3202 46.6215 25.3176 46.506 24.4691C46.3712 23.5629 46.4675 22.4831 46.506 22.1938C46.6023 21.3261 46.8333 20.3427 47.3532 19.5907C47.8537 18.858 48.4313 18.3567 49.471 18.1253C49.548 18.106 50.0294 17.9903 50.5685 18.1253C51.6081 18.3567 52.1857 18.858 52.7056 19.5907C53.2254 20.3427 53.4372 21.3261 53.5335 22.1938ZM50.761 25.5875C51.069 23.6979 50.9728 22.4445 50.7417 20.9598C50.684 20.7477 50.6262 20.5356 50.5107 20.4006C50.2604 20.0921 49.8561 20.0342 49.548 20.4006C49.4133 20.5356 49.3555 20.7477 49.317 20.9598C49.086 22.4445 48.9704 23.6979 49.2977 25.5875C49.3555 25.8382 49.4325 26.0888 49.548 26.2431C49.7598 26.4938 50.2604 26.5516 50.5107 26.2431C50.6262 26.0888 50.7032 25.8382 50.761 25.5875ZM52.1665 29.0197C53.0714 28.9812 53.0714 28.8848 53.2062 30.2345C53.3217 31.4879 53.2062 31.5457 52.3398 31.5843C50.8187 31.6614 48.2966 31.5843 47.2761 31.5457C47.0066 31.5457 46.8141 31.3529 46.8141 31.1215V29.6946C46.8141 29.0005 46.9296 28.9426 48.027 29.039C49.086 29.1547 50.9535 29.0583 52.1665 29.0197Z" fill="url(#paint4_linear_2015_161)"/>
<path d="M45.5739 27.4386C45.7472 28.2871 45.5739 29.4633 45.2081 30.0225C45.0348 30.3117 44.7267 30.6973 44.3994 30.948C43.6293 31.5265 43.1095 31.6807 42.1275 31.7193C41.0109 31.6807 40.2985 31.2758 40.0867 31.1023C39.5091 30.6781 39.1625 30.196 38.9508 29.3669C38.816 28.6341 38.8352 28.1328 38.9122 27.5351C39.0085 26.8409 38.97 26.7252 39.5476 26.5902C39.9712 26.4745 41.0301 26.5517 41.3767 26.7445C41.627 26.8409 41.6077 27.0144 41.5692 27.3615C41.5114 27.9785 41.5499 28.4413 41.627 28.9812C41.6655 29.174 41.7425 29.444 41.8965 29.579C42.089 29.7718 42.3586 29.7139 42.4934 29.4826C42.8784 28.8655 42.8592 28.2292 42.6281 27.5736C42.4741 27.1687 42.2623 26.7638 41.935 26.4553C41.6077 26.0889 41.0301 25.5104 40.7606 25.279C40.337 24.9127 40.0482 24.6042 39.7594 24.1992C39.2781 23.5822 38.9122 22.9073 38.7967 22.136C38.6427 21.0755 38.893 20.2464 39.5091 19.3594C39.9134 18.8195 40.6065 18.2603 42.3008 18.1832C43.302 18.1832 44.1684 18.511 44.8038 19.3208C45.0155 19.5908 45.1696 19.9764 45.2851 20.6127C45.3428 20.9791 45.3621 21.5576 45.2658 22.1939C45.1696 22.6759 45.0733 22.7145 44.5342 22.7916C44.1299 22.8495 43.6293 22.7916 43.225 22.7338C42.7629 22.6567 42.7437 22.4831 42.7244 21.8661C42.7244 21.4419 42.7629 21.0948 42.6666 20.6899C42.5896 20.2464 42.2623 20.0536 42.0313 20.0343C41.704 20.0343 41.5499 20.1885 41.4537 20.4778C41.3189 20.9213 41.2804 21.4419 41.6462 22.0975C41.8387 22.5024 42.2238 22.888 42.5896 23.158C43.2442 23.6979 43.7063 24.1799 44.2454 24.8163C44.9385 25.6454 45.3813 26.3588 45.5739 27.4386Z" fill="url(#paint5_linear_2015_161)"/>
<path d="M88.2981 6.8838C88.0671 6.8838 88.0671 6.96093 88.0286 7.28873C87.9131 8.4071 87.9131 9.50619 88.0478 10.5474C88.0863 10.8367 88.1633 11.1066 88.2789 11.3187C88.4521 11.6079 88.7409 11.6658 88.9912 11.338C89.1838 11.0873 89.2415 10.7595 89.28 10.3739C89.3378 9.94968 89.3378 9.64116 89.3763 9.29408C89.4148 8.90844 89.4726 8.90844 90.1079 8.88916C90.7048 8.86987 90.9743 8.86987 91.5712 8.96629C91.86 9.02413 91.937 9.06269 91.9562 9.42906C91.9947 10.3353 91.9562 11.2609 91.6289 12.1286C91.4557 12.6299 91.0899 13.1698 90.6663 13.4783C90.0309 13.9218 89.4533 14.1725 88.6447 14.1532C88.4907 14.1532 88.3559 14.1339 88.2019 14.0761C87.1622 13.7676 86.5653 12.9384 86.0647 11.9743C85.5449 11.0295 85.3331 9.94968 85.2369 8.86987C85.1791 8.32997 85.1598 7.71294 85.1406 7.17304C85.1021 6.24749 85.1598 5.34123 85.3524 4.33855C85.5064 3.70224 85.5449 3.41301 85.7567 2.93095C86.0647 2.21751 86.4691 1.69689 87.1044 1.33053C87.7013 1.00273 88.1249 0.867753 89.126 0.829189C90.0502 0.829189 90.493 1.04129 90.9936 1.52335C91.2246 1.73545 91.4172 2.02469 91.5519 2.35248C91.7637 2.83454 91.9177 3.35516 91.9562 3.89506C91.9755 4.31927 92.014 5.68831 91.9948 6.26677C91.9948 6.90309 91.9562 6.96093 91.3594 6.96093C90.493 6.94165 89.6459 6.96093 88.7024 6.90309C88.5869 6.8838 88.4329 6.86452 88.2981 6.8838ZM88.2596 3.87578C88.1826 4.20358 88.1441 4.51209 88.1248 4.83989C88.1248 5.05199 88.1826 5.07128 88.3174 5.10984C88.5677 5.14841 88.818 5.18697 89.0683 5.16769C89.1838 5.16769 89.3185 5.18697 89.4341 5.16769C89.7999 5.18697 89.7806 5.12912 89.7614 4.78204C89.7614 4.33855 89.7229 4.10717 89.7036 3.77937C89.6651 3.43229 89.5111 3.14306 89.2608 2.91167C89.0875 2.75741 88.895 2.81526 88.7409 2.95023C88.4714 3.22018 88.3366 3.49013 88.2596 3.87578Z" fill="url(#paint6_linear_2015_161)"/>
<path d="M84.183 1.022C84.3755 1.19554 84.4333 2.02467 84.4526 2.6417C84.4718 3.66366 84.3948 4.53136 84.2985 5.66901C84.2023 6.45958 83.9905 8.04072 83.9712 8.1757C83.8172 9.17837 83.4514 11.1644 82.97 12.5142C82.893 12.7456 82.5465 13.5747 82.3154 13.7675C81.6801 14.346 79.8703 14.2303 79.466 13.9025C79.2157 13.7097 78.8883 13.2084 78.5996 12.4178C78.022 10.7595 77.6754 9.19766 77.5214 8.19498C77.5021 8.04072 77.2711 6.47886 77.1748 5.68829C77.0785 4.55064 76.9823 3.68294 77.0015 2.66098C77.0015 2.04395 77.0593 1.36908 77.2711 1.11841C77.4636 0.906304 77.6561 0.809893 78.5033 0.809893C79.0039 0.809893 79.2349 0.809893 79.5045 0.829175C79.697 0.848456 79.8703 0.829175 79.9088 1.022C79.9665 1.2341 79.928 1.73544 79.928 2.6417C79.928 3.1816 79.9665 3.74079 79.9858 4.35782C79.9858 4.95557 80.1398 6.49815 80.1591 6.72953C80.2746 7.57795 80.3516 8.58063 80.5056 9.48689L80.6404 10.2003C80.7174 10.4896 80.8522 10.3739 80.8714 10.2582C81.064 9.33263 81.2565 7.46226 81.3143 6.72953C81.3335 6.51743 81.4683 4.95557 81.4875 4.35782C81.4875 3.76007 81.5261 3.20089 81.5261 2.6417C81.5068 1.96683 81.5068 1.61975 81.5068 1.33051C81.526 0.848457 81.6416 0.867738 81.9304 0.829175C82.1999 0.809893 82.6235 0.809893 82.97 0.829175C83.5284 0.809893 83.9712 0.809893 84.183 1.022Z" fill="url(#paint7_linear_2015_161)"/>
<path d="M67.4873 5.26408C68.0264 5.88111 68.1804 6.6524 68.2767 7.308C68.3537 7.8479 68.3537 8.9277 68.3152 9.52545C68.2574 10.4703 68.2574 12.2057 68.2574 12.5335C68.2574 12.7263 68.2382 13.3048 68.1997 13.5747V13.6326C68.1611 13.8254 68.1226 14.0182 67.8916 14.1146C67.7761 14.1725 67.5643 14.1917 67.3333 14.1917C66.9674 14.1917 66.5631 14.1339 66.4091 14.0953C66.1781 14.0375 66.024 13.9411 65.9855 13.6518V13.6133C65.9663 13.4976 65.947 13.3626 65.947 13.2469C65.9278 13.2276 65.9278 13.1891 65.9278 13.1698C65.9278 13.1891 65.9085 13.1891 65.8893 13.2084C65.639 13.3433 65.3502 13.4205 65.1191 13.459C64.5608 13.5747 63.8099 13.4783 63.3863 13.0734C63.0398 12.7649 62.6547 12.2057 62.6932 11.1644C62.7317 10.3353 62.9628 9.83397 63.4633 9.39048C63.9639 8.98555 65.0229 8.86986 65.562 8.96627L65.639 8.98555C65.716 9.00483 65.8122 9.02411 65.8508 9.00483C65.87 8.98555 65.8893 8.96627 65.8893 8.94698C65.9855 8.58062 66.0048 8.19498 66.024 7.79005V7.61651C66.0625 6.88379 65.87 6.20891 65.7352 6.03537C65.6967 5.97753 65.6582 5.95824 65.639 5.95824C65.6005 5.95824 65.562 5.95824 65.5234 5.97752C65.3694 6.07394 65.2732 6.3246 65.2732 6.63312C65.2539 6.99948 65.2924 7.32728 65.3309 7.71292C65.3502 7.92503 65.3887 8.32995 65.0229 8.44565C64.6378 8.58062 64.2142 8.63847 63.8484 8.59991C63.4248 8.59991 63.3478 8.42637 63.2708 8.21426L63.2516 8.1757C63.1938 8.02144 63.0398 7.25015 63.059 6.61384C63.059 5.99681 63.2516 5.47619 63.5981 5.10983C63.9447 4.72418 64.3297 4.49279 65.1576 4.45423C66.7364 4.39638 67.2947 5.05198 67.4873 5.26408ZM65.87 11.338C65.8893 11.2801 65.9085 11.1259 65.8893 10.9909C65.8508 10.8174 65.7737 10.7017 65.639 10.6438C65.5812 10.6053 65.5042 10.6053 65.4272 10.6053C65.3694 10.6053 65.3117 10.6053 65.2539 10.6053C64.8496 10.6824 64.6378 10.8559 64.6378 11.1644C64.6378 11.2416 64.6378 11.3187 64.6571 11.3765C64.6956 11.6272 64.8496 11.7236 65.1769 11.7429C65.6005 11.7622 65.8315 11.6851 65.87 11.338ZM75.5929 7.8479C75.6122 8.06 75.6314 8.46493 75.6314 8.59991C75.6314 9.29407 75.6699 9.66043 75.6314 10.3546C75.5929 11.0295 75.5929 11.7622 75.5352 12.4178C75.4966 12.9191 75.5159 13.3433 75.4581 13.8447C75.4389 14.0568 75.3811 14.1339 74.9768 14.211C74.5532 14.2689 74.1874 14.2882 73.6868 14.2689C73.244 14.2689 73.2248 14.0953 73.1477 13.9025C73.0707 13.6904 72.9745 13.2662 72.9552 13.0541C72.8397 11.9936 72.7434 11.2223 72.7434 10.1618C72.7434 9.98822 72.7627 9.64115 72.7627 9.42904C72.7434 8.88914 72.8397 8.32995 72.936 7.79005C72.9937 7.36584 73.0322 7.28872 73.4558 7.25015C73.6676 7.23087 74.1104 7.23087 74.3222 7.21159C74.5725 7.21159 74.9576 7.21159 75.2464 7.23087C75.5352 7.23087 75.5737 7.36584 75.5929 7.8479ZM73.321 4.7049C73.9756 4.08787 75.1116 4.22284 75.6122 4.99413C75.7277 5.16767 75.824 5.37978 75.7854 5.59188C75.8047 6.07394 75.5352 6.38245 75.1886 6.57527C74.7073 6.82594 74.2067 6.90307 73.7061 6.63312C73.4558 6.51743 73.2248 6.36317 73.09 6.09322C72.7819 5.51475 72.8397 5.12911 73.321 4.7049ZM74.9961 0.925584C75.978 1.04128 76.286 0.848455 76.1898 2.29462C76.0742 3.8372 75.8625 3.77935 74.9768 3.74079C74.3992 3.70222 73.7253 3.68294 72.7434 3.68294C72.4546 3.68294 72.2621 3.64438 72.1273 3.77935C71.9925 3.89504 72.0118 4.06859 71.9925 4.35782C71.9733 4.74346 71.954 7.48154 71.9155 8.69632C71.8963 9.44832 71.9155 10.316 71.9155 11.3187C71.9155 11.9743 71.9348 12.7841 71.954 13.4397C71.954 13.8061 71.9733 13.8832 71.6075 13.9989C71.1454 14.1917 70.3945 14.3074 69.7784 14.2689C69.4319 14.2689 69.3549 14.0953 69.2971 13.7675C69.1431 12.8806 69.1238 11.955 69.0853 11.0487C68.989 9.50617 69.0275 7.96359 68.989 6.42102C68.989 5.91968 68.989 5.0327 69.0083 4.68562C69.0083 4.29997 69.0468 3.99146 68.8928 3.87576C68.7387 3.76007 68.5462 3.70222 68.0071 3.68294C67.0445 3.66366 65.1384 3.60581 63.8099 3.89505C63.0975 4.0493 62.8665 3.89505 62.7317 2.54529C62.597 1.09912 62.6932 1.04128 63.5596 0.964148C65.5427 0.771326 70.1057 0.790608 70.1057 0.790608V0.809891C70.3945 0.790608 70.7218 0.790608 71.1262 0.790608C71.2994 0.790608 71.4535 0.790608 71.6267 0.790608C71.6267 0.790608 71.8963 0.790608 72.3199 0.809891C72.4161 0.809891 72.5124 0.809891 72.6087 0.809891C73.8409 0.809891 74.3029 0.829173 74.9961 0.925584Z" fill="url(#paint8_linear_2015_161)"/>
<path d="M58.2149 6.8838C57.9838 6.8838 57.9838 6.96093 57.9453 7.28873C57.8298 8.4071 57.8298 9.50619 57.9646 10.5474C58.0031 10.8367 58.0801 11.1066 58.1956 11.3187C58.3689 11.6079 58.6577 11.6658 58.908 11.338C59.1005 11.0873 59.1583 10.7595 59.1968 10.3739C59.2546 9.94968 59.2546 9.64116 59.2931 9.29408C59.3316 8.90844 59.3893 8.90844 60.0247 8.88916C60.6215 8.86987 60.8911 8.86987 61.4879 8.96629C61.7767 9.02413 61.8537 9.06269 61.873 9.42906C61.9115 10.3353 61.873 11.2609 61.5457 12.1286C61.3724 12.6299 61.0066 13.1698 60.583 13.4783C59.9477 13.9218 59.3701 14.1725 58.5614 14.1532C58.4074 14.1532 58.2726 14.1339 58.1186 14.0761C57.0789 13.7676 56.4821 12.9384 55.9815 11.9743C55.4617 11.0295 55.2499 9.94968 55.1536 8.86987C55.0958 8.32997 55.0766 7.71294 55.0573 7.17304C55.0188 6.24749 55.0766 5.34123 55.2691 4.33855C55.4232 3.70224 55.4617 3.41301 55.6734 2.93095C55.9815 2.21751 56.3858 1.69689 57.0212 1.33053C57.618 1.00273 58.0416 0.867753 59.0428 0.829189C59.9669 0.829189 60.4097 1.04129 60.9103 1.52335C61.1414 1.73545 61.3339 2.02469 61.4687 2.35248C61.6805 2.83454 61.8345 3.35516 61.873 3.89506C61.8923 4.31927 61.9308 5.68831 61.9115 6.26677C61.9115 6.90309 61.873 6.96093 61.2761 6.96093C60.4097 6.94165 59.5626 6.96093 58.6192 6.90309C58.5037 6.8838 58.3496 6.86452 58.2149 6.8838ZM58.1764 3.87578C58.0994 4.20358 58.0608 4.51209 58.0416 4.83989C58.0416 5.05199 58.0994 5.07128 58.2341 5.10984C58.4844 5.14841 58.7347 5.18697 58.985 5.16769C59.1005 5.16769 59.2353 5.18697 59.3508 5.16769C59.7166 5.18697 59.6974 5.12912 59.6781 4.78204C59.6781 4.33855 59.6396 4.10717 59.6204 3.77937C59.5819 3.43229 59.4278 3.14306 59.1775 2.91167C59.0043 2.75741 58.8117 2.81526 58.6577 2.95023C58.3882 3.22018 58.2534 3.49013 58.1764 3.87578Z" fill="url(#paint9_linear_2015_161)"/>
<path d="M54.2073 9.89179C54.4769 10.046 54.4961 10.1039 54.4383 10.6245C54.3806 11.3187 54.2651 12.1092 53.9378 12.7263C53.5912 13.4012 53.1869 13.9218 52.6285 14.1339C52.359 14.2303 51.7429 14.2881 51.3386 14.0375C50.6262 13.6325 50.2604 12.9769 49.9523 12.0707C49.625 11.1066 49.5865 10.2003 49.5095 9.15907C49.4903 8.88912 49.5095 8.71558 49.3362 8.69629C49.2015 8.69629 49.1822 8.7927 49.1245 9.19763C49.0667 9.79538 49.0667 10.1232 49.0667 10.6438C49.0667 11.2801 49.0667 12.2828 49.0859 12.9962C49.1052 14.076 48.9897 14.1146 48.6816 14.1917C48.3736 14.2689 47.9115 14.2881 47.6612 14.2689C46.8911 14.2689 46.6215 14.1724 46.5445 14.0567C46.4482 13.9025 46.4482 13.4204 46.4482 13.1698C46.429 12.1285 46.4675 11.2608 46.4482 10.3738C46.4482 9.83394 46.4675 9.29404 46.4482 8.77342C46.4097 7.55864 46.4675 6.36315 46.4675 5.16765C46.4675 4.08785 46.506 3.64435 46.5445 2.56455C46.5638 2.39101 46.6408 1.56187 46.66 1.31121C46.6985 0.886997 46.6985 0.790585 47.1221 0.790585C47.642 0.790585 48.4698 0.790585 49.0667 0.848432C49.7791 0.906279 50.5299 1.00269 51.1846 1.25336C51.8199 1.48474 52.0702 1.61972 52.6285 2.04393C53.2061 2.5067 53.572 3.00804 53.8415 3.7022C54.0533 4.28067 54.2073 5.45688 53.9378 6.17032C53.6297 7.01874 53.2832 7.32726 52.436 7.84788C51.9162 8.17567 51.4541 8.15639 51.5119 8.59988C51.6081 9.31332 51.6851 10.0653 51.8199 10.7788C51.8392 10.8559 51.8969 11.1837 52.0124 11.3765C52.1665 11.6465 52.3397 11.0873 52.3975 10.8173C52.436 10.6052 52.4553 10.2967 52.4938 10.1232C52.59 9.60256 52.5708 9.52543 53.0906 9.58327C53.726 9.6604 54.111 9.85323 54.2073 9.89179ZM51.0113 5.82324C51.3386 5.6497 51.6851 5.18693 51.4156 4.58918C51.2231 4.22282 50.6647 3.87574 50.4914 3.77933C50.0679 3.56722 49.7213 3.45153 49.4903 3.41297C49.1245 3.3744 49.1245 3.47081 49.1052 3.66364C49.0474 4.47349 49.0667 5.14837 49.1052 5.70755C49.1245 5.93894 49.1052 6.09319 49.4325 6.09319C50.0486 6.09319 50.4529 6.13176 51.0113 5.82324Z" fill="url(#paint10_linear_2015_161)"/>
<path d="M44.4957 11.6851C45.3814 11.6658 45.3814 11.5694 45.5161 12.8998C45.6316 14.1725 45.5161 14.2303 44.6497 14.2689C43.1287 14.346 40.6065 14.2689 39.5861 14.2303C39.3166 14.211 39.124 14.0182 39.124 13.7868V12.3792C39.124 11.6851 39.2396 11.6272 40.337 11.7236C41.4152 11.82 43.2635 11.7236 44.4957 11.6851ZM45.1888 7.59722C45.5161 7.71292 45.6509 7.80933 45.5739 8.21425C45.4969 8.69631 45.3428 9.31334 45.054 9.73755C44.5342 10.4896 44.0529 10.933 42.9939 11.1837C42.6859 11.2608 42.1853 11.2994 41.6655 11.1837C40.6258 10.9716 40.1252 10.4896 39.6246 9.73755C39.1048 9.00483 38.9315 8.00215 38.816 7.15373C38.6812 6.22819 38.7775 5.14838 38.816 4.85915C38.9123 4.01073 39.1433 3.02734 39.6631 2.27533C40.1637 1.54261 40.7413 1.04127 41.781 0.790601C41.858 0.790601 42.3393 0.674909 42.8784 0.790601C43.9181 1.02199 44.4957 1.54261 45.0155 2.27533C45.3236 2.73811 45.4776 3.29729 45.5931 3.89504C45.6894 4.43494 45.6702 4.66633 45.4006 4.74346C45.0733 4.82059 44.2069 4.917 43.6486 4.85915C43.2635 4.82058 43.2057 4.78202 43.1672 4.49279L43.148 4.35781C43.1095 4.06858 43.0902 3.9336 43.0517 3.64437C42.9939 3.43226 42.9362 3.22016 42.8207 3.0659C42.5704 2.77667 42.1661 2.71882 41.858 3.0659C41.7232 3.22016 41.6655 3.43226 41.627 3.64437C41.3959 5.1291 41.2804 6.36316 41.6077 8.25282C41.6655 8.50349 41.7425 8.77344 41.858 8.90841C42.0698 9.17837 42.5704 9.21693 42.8207 8.90841C42.9362 8.77344 43.0132 8.50349 43.071 8.25282C43.148 7.69363 43.1672 7.53938 43.456 7.48153C43.7256 7.42368 44.823 7.46225 45.1888 7.59722Z" fill="url(#paint11_linear_2015_161)"/>
<path d="M24.7659 15.0905C24.1992 15.0905 24.1992 15.2797 24.1048 16.0836C23.8215 18.8265 23.8215 21.522 24.152 24.0757C24.2465 24.7851 24.4353 25.4471 24.7187 25.9673C25.1436 26.6767 25.8519 26.8185 26.4658 26.0146C26.938 25.3998 27.0796 24.5959 27.1741 23.6501C27.3157 22.6097 27.3157 21.853 27.4102 21.0018C27.5046 20.056 27.6463 20.056 29.2045 20.0087C30.6683 19.9614 31.3294 19.9614 32.7932 20.1979C33.5015 20.3397 33.6904 20.4343 33.7376 21.3328C33.832 23.5555 33.7376 25.8254 32.9348 27.9535C32.5099 29.1831 31.6127 30.5072 30.5739 31.2638C29.0156 32.3515 27.599 32.9663 25.6158 32.919C25.2381 32.919 24.9075 32.8717 24.5298 32.7298C21.9799 31.9732 20.5161 29.9397 19.2884 27.5752C18.0135 25.258 17.4941 22.6097 17.258 19.9614C17.1163 18.6373 17.0691 17.124 17.0219 15.7999C16.9274 13.5299 17.0691 11.3073 17.5413 8.84817C17.9191 7.28758 18.0135 6.57823 18.5329 5.39597C19.2884 3.64622 20.28 2.36938 21.8383 1.47086C23.3021 0.666921 24.3409 0.335886 26.7963 0.241306C29.0628 0.241306 30.1489 0.7615 31.3766 1.94376C31.9432 2.46396 32.4154 3.17331 32.746 3.97725C33.2654 5.15951 33.6431 6.43635 33.7376 7.76049C33.7848 8.80088 33.8792 12.1585 33.832 13.5772C33.832 15.1378 33.7376 15.2797 32.2738 15.2797C30.1489 15.2324 28.0712 15.2797 25.7575 15.1378C25.4742 15.0905 25.0964 15.0432 24.7659 15.0905ZM24.6714 7.7132C24.4826 8.51714 24.3881 9.27378 24.3409 10.0777C24.3409 10.5979 24.4826 10.6452 24.8131 10.7398C25.4269 10.8344 26.0408 10.9289 26.6547 10.8817C26.938 10.8817 27.2685 10.9289 27.5518 10.8817C28.449 10.9289 28.4018 10.7871 28.3546 9.93585C28.3546 8.84817 28.2601 8.28068 28.2129 7.47674C28.1185 6.62552 27.7407 5.91616 27.1268 5.34867C26.7019 4.97035 26.2297 5.11222 25.8519 5.44326C25.1908 6.10532 24.8603 6.76739 24.6714 7.7132Z" fill="url(#paint12_linear_2015_161)"/>
<path d="M10.6834 19.5358C10.2584 19.7723 9.64458 20.0088 10.0696 20.2452C11.675 21.0018 12.7611 22.2314 13.4221 23.7447C14.3193 25.7782 14.1776 27.7644 12.8555 29.656C12.0528 30.7437 10.9667 31.7368 8.88906 32.4461C6.76419 33.1082 4.96985 33.0136 2.84497 32.9663C1.33395 32.8245 1.05063 32.7299 0.767316 31.6895C0.483999 30.6018 0.531219 30.0816 0.43678 29.1358C0.200683 26.2984 0.153463 22.988 0.0590243 20.4344C-0.0354146 18.259 0.0118049 16.1782 0.0118049 13.6245C0.0118049 10.4561 0.0118049 9.27382 0.200683 6.95659C0.389561 4.30832 0.578438 2.65316 0.767316 1.37631C0.956194 0.241344 1.09785 -0.0423983 2.46722 0.00489153C3.74214 0.0521814 5.5837 -0.0423983 6.81141 0.335923C8.18077 0.761537 8.9835 1.04528 10.2112 1.89651C11.8167 2.98419 12.6666 4.21374 13.7054 5.77433C14.4137 6.86201 15.0748 8.75362 15.2165 10.0305C15.3581 11.5438 15.4053 12.7733 15.0276 14.2866C14.6026 15.9891 13.186 18.259 10.6834 19.5358ZM8.32243 25.8728C8.51131 24.8797 8.03911 23.7447 7.2836 23.1772C6.90585 22.8935 6.52809 22.657 6.00868 22.5151C5.91424 22.4679 5.77258 22.5624 5.77258 22.657C5.72536 22.9408 5.67814 23.2718 5.67814 23.3664C5.5837 24.6432 5.67814 26.4875 5.86702 27.2915C6.00868 27.7644 6.15034 27.8117 6.52809 27.7644C7.37804 27.5752 7.99189 27.1023 8.32243 25.8728ZM8.46409 13.7664C9.03072 12.4896 8.9835 10.6925 8.79463 9.74672C8.74741 9.22653 8.55853 8.42259 8.13355 7.85511C7.61414 7.14575 7.23638 6.81472 6.62253 6.53097C6.33921 6.43639 6.10312 6.48368 6.10312 6.81472C6.0559 7.28762 5.91424 8.51717 5.91424 9.17924C5.77258 10.929 5.77258 12.0167 5.63092 13.861C5.63092 14.2393 5.5837 14.6176 5.63092 14.996C5.67814 15.2797 5.77258 15.327 6.15034 15.327C7.09472 15.2324 8.03911 14.7595 8.46409 13.7664Z" fill="url(#paint13_linear_2015_161)"/>
<defs>
<linearGradient id="paint0_linear_2015_161" x1="26.6879" y1="4.48685" x2="81.701" y2="39.3901" gradientUnits="userSpaceOnUse">
<stop stop-color="#FF2A78"/>
<stop offset="0.41" stop-color="#FF7643"/>
<stop offset="1" stop-color="#C8B524"/>
</linearGradient>
<linearGradient id="paint1_linear_2015_161" x1="26.6879" y1="4.48685" x2="81.701" y2="39.3901" gradientUnits="userSpaceOnUse">
<stop stop-color="#FF2A78"/>
<stop offset="0.41" stop-color="#FF7643"/>
<stop offset="1" stop-color="#C8B524"/>
</linearGradient>
<linearGradient id="paint2_linear_2015_161" x1="26.6879" y1="4.48685" x2="81.701" y2="39.3901" gradientUnits="userSpaceOnUse">
<stop stop-color="#FF2A78"/>
<stop offset="0.41" stop-color="#FF7643"/>
<stop offset="1" stop-color="#C8B524"/>
</linearGradient>
<linearGradient id="paint3_linear_2015_161" x1="26.6879" y1="4.48685" x2="81.701" y2="39.3901" gradientUnits="userSpaceOnUse">
<stop stop-color="#FF2A78"/>
<stop offset="0.41" stop-color="#FF7643"/>
<stop offset="1" stop-color="#C8B524"/>
</linearGradient>
<linearGradient id="paint4_linear_2015_161" x1="26.6879" y1="4.48685" x2="81.701" y2="39.3901" gradientUnits="userSpaceOnUse">
<stop stop-color="#FF2A78"/>
<stop offset="0.41" stop-color="#FF7643"/>
<stop offset="1" stop-color="#C8B524"/>
</linearGradient>
<linearGradient id="paint5_linear_2015_161" x1="26.6879" y1="4.48685" x2="81.701" y2="39.3901" gradientUnits="userSpaceOnUse">
<stop stop-color="#FF2A78"/>
<stop offset="0.41" stop-color="#FF7643"/>
<stop offset="1" stop-color="#C8B524"/>
</linearGradient>
<linearGradient id="paint6_linear_2015_161" x1="26.6879" y1="4.48685" x2="81.701" y2="39.3901" gradientUnits="userSpaceOnUse">
<stop stop-color="#FF2A78"/>
<stop offset="0.41" stop-color="#FF7643"/>
<stop offset="1" stop-color="#C8B524"/>
</linearGradient>
<linearGradient id="paint7_linear_2015_161" x1="26.6879" y1="4.48685" x2="81.701" y2="39.3901" gradientUnits="userSpaceOnUse">
<stop stop-color="#FF2A78"/>
<stop offset="0.41" stop-color="#FF7643"/>
<stop offset="1" stop-color="#C8B524"/>
</linearGradient>
<linearGradient id="paint8_linear_2015_161" x1="26.6879" y1="4.48685" x2="81.701" y2="39.3901" gradientUnits="userSpaceOnUse">
<stop stop-color="#FF2A78"/>
<stop offset="0.41" stop-color="#FF7643"/>
<stop offset="1" stop-color="#C8B524"/>
</linearGradient>
<linearGradient id="paint9_linear_2015_161" x1="26.6879" y1="4.48685" x2="81.701" y2="39.3901" gradientUnits="userSpaceOnUse">
<stop stop-color="#FF2A78"/>
<stop offset="0.41" stop-color="#FF7643"/>
<stop offset="1" stop-color="#C8B524"/>
</linearGradient>
<linearGradient id="paint10_linear_2015_161" x1="26.6879" y1="4.48685" x2="81.701" y2="39.3901" gradientUnits="userSpaceOnUse">
<stop stop-color="#FF2A78"/>
<stop offset="0.41" stop-color="#FF7643"/>
<stop offset="1" stop-color="#C8B524"/>
</linearGradient>
<linearGradient id="paint11_linear_2015_161" x1="26.6879" y1="4.48685" x2="81.701" y2="39.3901" gradientUnits="userSpaceOnUse">
<stop stop-color="#FF2A78"/>
<stop offset="0.41" stop-color="#FF7643"/>
<stop offset="1" stop-color="#C8B524"/>
</linearGradient>
<linearGradient id="paint12_linear_2015_161" x1="26.6879" y1="4.48685" x2="81.701" y2="39.3901" gradientUnits="userSpaceOnUse">
<stop stop-color="#FF2A78"/>
<stop offset="0.41" stop-color="#FF7643"/>
<stop offset="1" stop-color="#C8B524"/>
</linearGradient>
<linearGradient id="paint13_linear_2015_161" x1="26.6879" y1="4.48685" x2="81.701" y2="39.3901" gradientUnits="userSpaceOnUse">
<stop stop-color="#FF2A78"/>
<stop offset="0.41" stop-color="#FF7643"/>
<stop offset="1" stop-color="#C8B524"/>
</linearGradient>
</defs>
</svg>
