<svg width="10" height="9" viewBox="0 0 10 9" fill="none" xmlns="http://www.w3.org/2000/svg">
<path d="M0.782715 9L1.41736 6.68941C0.876837 5.75592 0.69394 4.65926 0.902463 3.602C1.11099 2.54474 1.69685 1.59831 2.55181 0.937531C3.40677 0.276751 4.47307 -0.0537305 5.55376 0.00712696C6.63446 0.0679844 7.65653 0.516071 8.43117 1.26862C9.2058 2.02117 9.68068 3.02733 9.76807 4.10125C9.85547 5.17518 9.54949 6.2443 8.90664 7.11115C8.26379 7.978 7.3275 8.58399 6.27074 8.8172C5.21397 9.05041 4.10813 8.89508 3.15747 8.3799L0.782715 9ZM3.26669 7.5727C3.82922 7.93567 4.47966 8.14097 5.14953 8.16699C5.8194 8.19301 6.48394 8.03879 7.07318 7.72057C7.66242 7.40234 8.15457 6.93188 8.49783 6.3587C8.8411 5.78552 9.02278 5.13083 9.02375 4.46354C9.0227 3.88288 8.88461 3.3106 8.62059 2.79283C8.35658 2.27505 7.97404 1.82627 7.5038 1.48267C7.03357 1.13906 6.48878 0.91025 5.9134 0.814678C5.33802 0.719106 4.74814 0.759448 4.19129 0.932451C3.63445 1.10545 3.12624 1.40628 2.70763 1.81067C2.28902 2.21506 1.97174 2.7117 1.78134 3.26056C1.59095 3.80941 1.53278 4.39511 1.61153 4.97045C1.69027 5.54579 1.90372 6.09466 2.23468 6.57281L1.85803 7.94124L3.26669 7.5727ZM7.5567 5.52417C7.52845 5.47768 7.45312 5.44919 7.34201 5.39408C7.2309 5.33896 6.67912 5.06865 6.57743 5.03153C6.47573 4.99441 6.40041 4.9753 6.32508 5.08777C6.24975 5.20025 6.03506 5.45031 5.97103 5.52454C5.907 5.59878 5.8392 5.60815 5.72809 5.55229C5.39787 5.42174 5.09319 5.23457 4.8279 4.99929C4.58298 4.774 4.37293 4.51387 4.20456 4.22734C4.14053 4.11599 4.19891 4.05563 4.25352 4.00014C4.30437 3.95028 4.3665 3.87005 4.42111 3.80482C4.46837 3.74927 4.50652 3.68663 4.53412 3.61923C4.54914 3.5885 4.55614 3.5545 4.55449 3.52037C4.55285 3.48624 4.5426 3.45306 4.5247 3.4239C4.49645 3.36766 4.27424 2.81992 4.18008 2.59684C4.08968 2.37977 3.99739 2.40938 3.92771 2.40563L3.71304 2.40188C3.65645 2.40338 3.60078 2.41655 3.54956 2.44056C3.49835 2.46456 3.45268 2.49888 3.41547 2.54135C3.28909 2.66083 3.18901 2.80514 3.12158 2.96513C3.05416 3.12511 3.02086 3.29729 3.02377 3.47076C3.02377 4.01926 3.42488 4.54902 3.48138 4.62325C3.53788 4.69749 4.27046 5.82297 5.39287 6.30549C5.60132 6.39498 5.81443 6.47333 6.03129 6.54019C6.25943 6.60918 6.50057 6.62433 6.73561 6.58443C6.9503 6.55256 7.39851 6.31487 7.49079 6.05468C7.56478 5.88817 7.58771 5.70361 7.5567 5.52417Z" fill="white"/>
</svg>
