<svg width="10" height="9" viewBox="0 0 10 9" fill="none" xmlns="http://www.w3.org/2000/svg">
<mask id="mask0_2015_62" style="mask-type:luminance" maskUnits="userSpaceOnUse" x="0" y="0" width="10" height="9">
<path d="M9.1365 0.00195312H0.217285V8.92117H9.1365V0.00195312Z" fill="white"/>
</mask>
<g mask="url(#mask0_2015_62)">
<path d="M4.67676 0.00195433C3.58745 0.00115432 2.53551 0.399079 1.71945 1.12064C0.903387 1.8422 0.379641 2.83749 0.247042 3.9187C0.114442 4.99992 0.382159 6.09227 0.999675 6.98964C1.61719 7.88702 2.5418 8.52735 3.59902 8.7898V5.82435H2.67997V4.46156H3.59902V3.87438C3.59902 2.35644 4.28654 1.65294 5.77624 1.65294C6.10233 1.65788 6.42713 1.69522 6.74583 1.76443V2.99974C6.64066 2.98859 6.45782 2.9832 6.23056 2.9832C5.49937 2.9832 5.21674 3.26026 5.21674 3.9803V4.46156H6.67336L6.42344 5.82435H5.2173V8.88846C6.34511 8.75112 7.37798 8.18851 8.10505 7.31548C8.83212 6.44245 9.19857 5.32484 9.12959 4.1908C9.06061 3.05675 8.5614 1.99179 7.73387 1.21333C6.90634 0.434859 5.8129 0.0015851 4.67676 0.00195433Z" fill="white"/>
</g>
</svg>
