<svg width="10" height="9" viewBox="0 0 10 9" fill="none" xmlns="http://www.w3.org/2000/svg">
<mask id="mask0_2015_55" style="mask-type:luminance" maskUnits="userSpaceOnUse" x="0" y="0" width="10" height="9">
<path d="M9.41922 0.00195312H0.5V8.92117H9.41922V0.00195312Z" fill="white"/>
</mask>
<g mask="url(#mask0_2015_55)">
<path d="M4.95961 0.805052C6.15125 0.805052 6.29229 0.810258 6.76092 0.83107C7.04354 0.83397 7.32351 0.8859 7.58836 0.984552C7.78048 1.05836 7.95496 1.17169 8.1005 1.31721C8.24605 1.46272 8.35942 1.63718 8.43327 1.82928C8.53162 2.09421 8.58349 2.37414 8.58657 2.65672C8.60738 3.12721 8.61258 3.26824 8.61258 4.45803C8.61258 5.64781 8.60738 5.79071 8.58657 6.25934C8.58371 6.54194 8.53184 6.82191 8.43327 7.08678C8.35939 7.27889 8.24602 7.45336 8.10048 7.5989C7.95493 7.74444 7.78047 7.85781 7.58836 7.93169C7.32343 8.03004 7.0435 8.08191 6.76092 8.08499C6.29061 8.10599 6.14939 8.11119 4.95961 8.11119C3.76982 8.11119 3.62693 8.10599 3.1583 8.08499C2.8757 8.08211 2.59573 8.03024 2.33085 7.93169C2.13875 7.85781 1.96428 7.74444 1.81874 7.5989C1.6732 7.45336 1.55983 7.27889 1.48594 7.08678C1.38759 6.82185 1.33573 6.54192 1.33264 6.25934C1.31183 5.78904 1.30663 5.64781 1.30663 4.45803C1.30663 3.26824 1.31183 3.12535 1.33264 2.65672C1.33553 2.37412 1.3874 2.09416 1.48594 1.82928C1.5598 1.63718 1.67317 1.46272 1.81871 1.31721C1.96426 1.17169 2.13873 1.05836 2.33085 0.984552C2.59577 0.886103 2.8757 0.834179 3.1583 0.83107C3.62693 0.810258 3.76815 0.805052 4.95961 0.805052ZM4.95961 0.00195312C3.74882 0.00195312 3.59739 0.00715437 3.12169 0.0281517C2.752 0.0353252 2.38623 0.105392 2.04005 0.235341C1.74371 0.350394 1.47453 0.525794 1.24959 0.750415C1.02465 0.975037 0.848863 1.24397 0.733388 1.54015C0.603627 1.88644 0.533567 2.25224 0.526199 2.62197C0.505201 3.09934 0.5 3.25078 0.5 4.46156C0.5 5.67234 0.505201 5.82378 0.526199 6.29948C0.533394 6.66923 0.60346 7.03506 0.733388 7.38131C0.848152 7.67757 1.02347 7.94663 1.24815 8.17128C1.47283 8.39592 1.74191 8.5712 2.0382 8.68593C2.38447 8.81576 2.75028 8.88587 3.12002 8.89329C3.59553 8.9141 3.74715 8.9195 4.95793 8.9195C6.16872 8.9195 6.32016 8.9141 6.79567 8.89329C7.16543 8.88605 7.53126 8.81593 7.87749 8.68593C8.17348 8.57149 8.44229 8.39648 8.6667 8.17211C8.89111 7.94773 9.06615 7.67894 9.18063 7.38297C9.31038 7.03668 9.38044 6.67089 9.38781 6.30115C9.40881 5.82565 9.41401 5.67402 9.41401 4.46323C9.41401 3.25245 9.40881 3.10101 9.38781 2.6255C9.38062 2.25575 9.31056 1.88992 9.18063 1.54368C9.07306 1.24402 8.89847 0.972901 8.67019 0.750982C8.44772 0.52425 8.17838 0.348892 7.88102 0.237196C7.53474 0.107364 7.16894 0.0372452 6.79919 0.0298245C6.32183 0.00715487 6.17039 0.00195312 4.95961 0.00195312Z" fill="white"/>
<path d="M4.95921 2.1709C4.50614 2.1709 4.06325 2.30525 3.68654 2.55696C3.30983 2.80867 3.01621 3.16644 2.84283 3.58502C2.66945 4.0036 2.62408 4.46419 2.71247 4.90855C2.80086 5.35291 3.01903 5.76109 3.3394 6.08146C3.65977 6.40183 4.06795 6.62 4.51231 6.70839C4.95667 6.79678 5.41726 6.75141 5.83584 6.57803C6.25442 6.40465 6.61219 6.11103 6.8639 5.73432C7.11561 5.35761 7.24996 4.91472 7.24996 4.46165C7.24982 3.85415 7.00842 3.27157 6.57885 2.84201C6.14929 2.41244 5.56671 2.17105 4.95921 2.1709ZM4.95921 5.94819C4.6652 5.94819 4.3778 5.861 4.13334 5.69766C3.88888 5.53432 3.69835 5.30215 3.58583 5.03052C3.47332 4.75889 3.44388 4.46 3.50124 4.17164C3.5586 3.88328 3.70017 3.61841 3.90807 3.41051C4.11597 3.20261 4.38084 3.06104 4.6692 3.00368C4.95756 2.94632 5.25645 2.97576 5.52808 3.08827C5.79971 3.20079 6.03188 3.39132 6.19522 3.63578C6.35856 3.88024 6.44575 4.16764 6.44575 4.46165C6.44575 4.8559 6.28913 5.23401 6.01035 5.51279C5.73157 5.79157 5.35346 5.94819 4.95921 5.94819Z" fill="white"/>
<path d="M7.87572 2.08019C7.87572 2.18596 7.84436 2.28936 7.78559 2.3773C7.72683 2.46524 7.64331 2.53379 7.54559 2.57427C7.44787 2.61474 7.34034 2.62533 7.2366 2.6047C7.13287 2.58407 7.03758 2.53313 6.96279 2.45834C6.888 2.38355 6.83706 2.28826 6.81643 2.18452C6.79579 2.08079 6.80639 1.97326 6.84686 1.87554C6.88734 1.77782 6.95588 1.6943 7.04383 1.63553C7.13177 1.57677 7.23517 1.54541 7.34094 1.54541C7.48276 1.54546 7.61875 1.60182 7.71903 1.7021C7.81931 1.80238 7.87567 1.93837 7.87572 2.08019Z" fill="white"/>
</g>
</svg>
