<svg width="58" height="81" viewBox="0 0 58 81" fill="none" xmlns="http://www.w3.org/2000/svg">
<path d="M0 0H7.52285L8.05905 50.9048L0.714932 58.1465L0 0Z" fill="white"/>
<path d="M42.0312 54.6782L41.0271 47.8442H32.8636C32.7752 46.4244 32.7291 45.0045 32.7291 43.5907C32.7291 30.7461 35.2896 17.4756 41.6255 6.77173H37.7818C31.3594 16.4474 27.4213 30.0612 27.4213 43.5907C27.4213 45.0889 27.4715 46.587 27.5659 48.0812C25.4954 48.2217 23.3847 48.4045 22.1416 48.5591C19.6936 48.8644 17.348 49.2741 15.5104 49.6817C13.6729 50.0894 8.57398 51.3144 8.57398 51.3144L1.12744 58.4557C1.12744 58.4557 1.12744 58.5581 1.43269 58.6606C1.78213 58.777 3.88073 60.1908 6.02352 60.4961C8.16631 60.8013 8.6764 60.2912 10.4095 59.7812C12.1446 59.2711 19.9988 57.1283 22.4469 56.5178C23.9832 56.1342 26.3609 55.7104 28.3993 55.3972C29.9416 64.7555 33.2391 73.5697 37.7818 80.4118H42.7481C38.2597 72.8287 35.1048 63.9583 33.6448 54.863C36.8941 54.7425 42.0332 54.6822 42.0332 54.6822L42.0312 54.6782Z" fill="white"/>
<mask id="mask0_2015_135" style="mask-type:luminance" maskUnits="userSpaceOnUse" x="0" y="11" width="8" height="16">
<path d="M0.149902 11.6348L0.336668 26.8492L7.80932 26.7327L7.64665 11.3215L0.149902 11.6348Z" fill="white"/>
</mask>
<g mask="url(#mask0_2015_135)">
<path d="M-1.49805 18.5775C1.72116 17.7983 4.74556 16.2259 7.23578 14.0329C8.07321 13.2999 8.85241 12.4946 9.56533 11.6331C8.90864 12.5388 8.17965 13.3963 7.38238 14.1895C4.97852 16.5934 1.98022 18.3908 -1.26911 19.4009L-1.49805 18.5775Z" fill="#1178EF"/>
<path d="M-1.81836 20.5894C1.40085 19.8102 4.42525 18.2377 6.91546 16.0447C7.7529 15.3117 8.5321 14.5064 9.24502 13.6449C8.58833 14.5506 7.85934 15.4081 7.06207 16.2014C4.65821 18.6052 1.65991 20.4026 -1.58942 21.4128L-1.81836 20.5894Z" fill="url(#paint0_linear_2015_135)"/>
<path d="M-1.04785 22.216C2.17135 21.4368 5.19576 19.8643 7.68597 17.6713C8.5234 16.9383 9.3026 16.133 10.0155 15.2715C9.35883 16.1772 8.62984 17.0347 7.83257 17.828C5.42871 20.2318 2.43041 22.0292 -0.818913 23.0393L-1.04785 22.216Z" fill="url(#paint1_linear_2015_135)"/>
<path d="M-0.623047 24.2678C2.59616 23.4887 5.62056 21.9162 8.11078 19.7232C8.94821 18.9902 9.72741 18.1849 10.4403 17.3234C9.78364 18.2291 9.05465 19.0866 8.25738 19.8798C5.85352 22.2837 2.85522 24.0811 -0.394108 25.0912L-0.623047 24.2678Z" fill="url(#paint2_linear_2015_135)"/>
</g>
<path d="M49.5391 7.83826L54.1759 11.1927H57.851V11.6321H54.1759L49.5391 14.9984V14.4641L53.7544 11.4124L49.5391 8.3548V7.83826Z" fill="white"/>
<path d="M49.4775 18.8425C49.4775 17.4414 50.1247 16.1768 51.1696 15.5237L51.419 15.8918C50.4809 16.4914 49.8991 17.6017 49.8991 18.8425C49.8991 20.9324 51.4249 22.5948 53.6988 22.5948C55.9727 22.5948 57.4986 20.9324 57.4986 18.8425C57.4986 17.6017 56.9227 16.4974 55.9846 15.8918L56.2458 15.5296C57.2789 16.2064 57.9201 17.4473 57.9201 18.8425C57.9201 21.2114 56.2043 23.0579 53.6988 23.0579C51.1934 23.0579 49.4775 21.2114 49.4775 18.8425Z" fill="white"/>
<path d="M49.5391 24.9026H57.851V25.3004L50.3049 31.1128L57.851 31.1188V31.5581H49.5391V31.1603L57.0851 25.3479H49.5391V24.9026Z" fill="white"/>
<path d="M57.4354 33.654H57.851V39.217H49.5391V33.6777H49.9547V38.7777H53.4576V33.8083H53.8732V38.7777H57.4354V33.654Z" fill="white"/>
<path d="M49.4775 44.9868C49.4775 43.6866 50.0297 42.5288 50.9321 41.7689L51.2409 42.0954C50.4097 42.7782 49.8991 43.8231 49.8991 44.9868C49.8991 47.0767 51.4249 48.7391 53.6988 48.7391C55.9727 48.7391 57.4986 47.0767 57.4986 45.0046C57.4986 42.9326 56.1034 41.5848 53.9601 41.5195V44.6187H53.5445V41.0446H53.681C56.1508 41.0446 57.9201 42.5941 57.9201 45.0046C57.9201 47.2548 56.2815 49.2021 53.6988 49.2021C51.1934 49.2021 49.4775 47.3498 49.4775 44.9868Z" fill="white"/>
<path d="M49.5391 53.363L57.851 49.777V50.252L55.2802 51.3563V55.916L57.851 57.0203V57.4834L49.5391 53.8974V53.363ZM49.9903 53.6362L54.8587 55.7379V51.5404L49.9903 53.6362Z" fill="white"/>
<path d="M52.6208 61.6024H54.8354V60.4446H56.3315V61.6024H57.8514V63.2054H56.3315V66.8923H55.1678L49.5454 63.9772V62.1961L54.8354 64.9746V63.2054H52.6208V61.6024Z" fill="white"/>
<path d="M49.4097 67.8692H57.8522V69.4723H51.6658L52.4732 71.4612H50.8583L49.4097 67.8692Z" fill="white"/>
<path d="M55.6948 72.5493C55.6948 71.9378 56.2232 71.4034 56.8407 71.4034C57.4641 71.4034 57.9984 71.9378 57.9984 72.5493C57.9984 73.1668 57.4641 73.707 56.8407 73.707C56.2232 73.707 55.6948 73.1668 55.6948 72.5493Z" fill="white"/>
<path d="M49.3911 77.6101C49.3911 75.8586 50.3411 74.6653 51.7778 74.6653C52.6565 74.6653 53.3037 75.1343 53.6658 75.9061C54.0102 75.0334 54.6751 74.4812 55.5716 74.4812C57.2103 74.4812 57.9999 75.9714 57.9999 77.5448C57.9999 78.7915 57.5546 79.8187 56.7947 80.448L55.7438 79.4921C56.2485 79.0112 56.5394 78.3166 56.5394 77.6041C56.5394 76.7967 56.1891 76.1495 55.4588 76.1495C54.7464 76.1495 54.3723 76.8798 54.3723 77.7763V78.744H52.9474V77.7704C52.9474 76.9629 52.5912 76.3158 51.8906 76.3158C51.2197 76.3158 50.8516 76.9214 50.8516 77.6932C50.8516 78.465 51.2494 79.035 51.6947 79.3734L50.6795 80.3827C49.9433 79.8365 49.3911 78.934 49.3911 77.6101Z" fill="white"/>
<defs>
<linearGradient id="paint0_linear_2015_135" x1="-1.69586" y1="18.4988" x2="9.20084" y2="16.587" gradientUnits="userSpaceOnUse">
<stop stop-color="#FFDE6C"/>
<stop offset="0.51" stop-color="#FF2079"/>
<stop offset="1" stop-color="#5A4FD9"/>
</linearGradient>
<linearGradient id="paint1_linear_2015_135" x1="-1.04785" y1="19.1574" x2="10.0155" y2="19.1574" gradientUnits="userSpaceOnUse">
<stop stop-color="#FF0000"/>
<stop offset="1" stop-color="#6B1D28"/>
</linearGradient>
<linearGradient id="paint2_linear_2015_135" x1="-0.623047" y1="21.2073" x2="7.05043" y2="21.2073" gradientUnits="userSpaceOnUse">
<stop stop-color="#A7E2E8"/>
<stop offset="1" stop-color="#D73D59"/>
</linearGradient>
</defs>
</svg>
