<svg width="163" height="227" viewBox="0 0 163 227" fill="none" xmlns="http://www.w3.org/2000/svg">
<path d="M0 0H21.1418L22.6487 143.06L2.00921 163.412L0 0Z" fill="white"/>
<path d="M118.123 153.665L115.301 134.459H92.3585C92.1102 130.469 91.9804 126.478 91.9804 122.505C91.9804 86.4071 99.1763 49.1126 116.983 19.0309H106.18C88.1313 46.223 77.0637 84.4825 77.0637 122.505C77.0637 126.715 77.2048 130.926 77.4701 135.125C71.6513 135.52 65.7196 136.033 62.2261 136.468C55.3462 137.326 48.7542 138.477 43.5901 139.623C38.426 140.769 24.0963 144.211 24.0963 144.211L3.16895 164.281C3.16895 164.281 3.16895 164.569 4.02681 164.856C5.00884 165.184 10.9066 169.157 16.9286 170.015C22.9506 170.873 24.3841 169.439 29.2548 168.006C34.131 166.572 56.2041 160.55 63.0839 158.834C67.4015 157.756 74.0838 156.566 79.8123 155.685C84.1467 181.985 93.4139 206.756 106.18 225.985H120.137C107.523 204.674 98.657 179.745 94.554 154.184C103.686 153.845 118.128 153.676 118.128 153.676L118.123 153.665Z" fill="white"/>
<mask id="mask0_1821_172" style="mask-type:luminance" maskUnits="userSpaceOnUse" x="0" y="31" width="22" height="45">
<path d="M0.422119 32.6979L0.946996 75.4557L21.9477 75.1283L21.4906 31.8175L0.422119 32.6979Z" fill="white"/>
</mask>
<g mask="url(#mask0_1821_172)">
<path d="M-4.20923 52.2094C4.83784 50.0196 13.3375 45.6005 20.3358 39.4374C22.6893 37.3774 24.8791 35.1143 26.8827 32.6931C25.0371 35.2384 22.9884 37.6483 20.7478 39.8777C13.9922 46.6333 5.5659 51.6846 -3.56583 54.5234L-4.20923 52.2094Z" fill="#1178EF"/>
<path d="M-5.10962 57.8632C3.93745 55.6734 12.4371 51.2543 19.4354 45.0912C21.7889 43.0312 23.9787 40.768 25.9823 38.3468C24.1368 40.8922 22.088 43.3021 19.8474 45.5314C13.0918 52.2871 4.66551 57.3383 -4.46622 60.1772L-5.10962 57.8632Z" fill="url(#paint0_linear_1821_172)"/>
<path d="M-2.94507 62.4348C6.102 60.2449 14.6016 55.8258 21.6 49.6628C23.9535 47.6028 26.1433 45.3396 28.1468 42.9184C26.3013 45.4637 24.2526 47.8737 22.012 50.103C15.2563 56.8586 6.83006 61.9099 -2.30167 64.7487L-2.94507 62.4348Z" fill="url(#paint1_linear_1821_172)"/>
<path d="M-1.75024 68.2012C7.29683 66.0114 15.7965 61.5922 22.7948 55.4292C25.1483 53.3692 27.3381 51.106 29.3417 48.6848C27.4961 51.2302 25.4474 53.6401 23.2068 55.8694C16.4511 62.6251 8.02488 67.6763 -1.10685 70.5151L-1.75024 68.2012Z" fill="url(#paint2_linear_1821_172)"/>
</g>
<path d="M139.222 22.028L152.253 31.4552H162.581V32.6899H152.253L139.222 42.1505V40.6488L151.068 32.0725L139.222 23.4796V22.028Z" fill="white"/>
<path d="M139.049 52.9538C139.049 49.0161 140.867 45.4621 143.804 43.6267L144.505 44.6612C141.868 46.3464 140.233 49.4666 140.233 52.9538C140.233 58.8271 144.521 63.499 150.912 63.499C157.302 63.499 161.59 58.8271 161.59 52.9538C161.59 49.4666 159.972 46.3631 157.336 44.6612L158.07 43.6434C160.973 45.5456 162.775 49.0328 162.775 52.9538C162.775 59.6113 157.953 64.8004 150.912 64.8004C143.871 64.8004 139.049 59.6113 139.049 52.9538Z" fill="white"/>
<path d="M139.222 69.9844H162.581V71.1023L141.374 87.4373L162.581 87.4539V88.6887H139.222V87.5707L160.429 71.2358H139.222V69.9844Z" fill="white"/>
<path d="M161.413 94.5788H162.581V110.213H139.222V94.6455H140.39V108.978H150.234V95.0126H151.402V108.978H161.413V94.5788Z" fill="white"/>
<path d="M139.049 126.428C139.049 122.774 140.6 119.52 143.136 117.384L144.004 118.302C141.668 120.221 140.233 123.157 140.233 126.428C140.233 132.301 144.521 136.973 150.912 136.973C157.302 136.973 161.59 132.301 161.59 126.478C161.59 120.655 157.669 116.867 151.646 116.684V125.393H150.478V115.349H150.862C157.803 115.349 162.775 119.704 162.775 126.478C162.775 132.802 158.17 138.274 150.912 138.274C143.871 138.274 139.049 133.069 139.049 126.428Z" fill="white"/>
<path d="M139.222 149.968L162.581 139.89V141.225L155.356 144.329V157.143L162.581 160.246V161.548L139.222 151.47V149.968ZM140.49 150.736L154.172 156.642V144.846L140.49 150.736Z" fill="white"/>
<path d="M147.882 173.123H154.106V169.87H158.31V173.123H162.582V177.628H158.31V187.99H155.04L139.239 179.798V174.792L154.106 182.601V177.628H147.882V173.123Z" fill="white"/>
<path d="M138.858 190.736H162.585V195.241H145.199L147.468 200.83H142.929L138.858 190.736Z" fill="white"/>
<path d="M156.521 203.888C156.521 202.17 158.006 200.668 159.741 200.668C161.493 200.668 162.995 202.17 162.995 203.888C162.995 205.624 161.493 207.142 159.741 207.142C158.006 207.142 156.521 205.624 156.521 203.888Z" fill="white"/>
<path d="M138.806 218.111C138.806 213.189 141.476 209.835 145.514 209.835C147.983 209.835 149.802 211.153 150.82 213.322C151.787 210.869 153.656 209.318 156.176 209.318C160.781 209.318 163 213.506 163 217.927C163 221.431 161.748 224.318 159.613 226.086L156.659 223.4C158.078 222.048 158.895 220.096 158.895 218.094C158.895 215.825 157.911 214.006 155.859 214.006C153.856 214.006 152.805 216.058 152.805 218.578V221.298H148.801V218.561C148.801 216.292 147.8 214.473 145.831 214.473C143.945 214.473 142.911 216.175 142.911 218.344C142.911 220.513 144.029 222.115 145.28 223.066L142.427 225.903C140.358 224.368 138.806 221.832 138.806 218.111Z" fill="white"/>
<defs>
<linearGradient id="paint0_linear_1821_172" x1="-4.76534" y1="51.988" x2="25.8581" y2="46.615" gradientUnits="userSpaceOnUse">
<stop stop-color="#FFDE6C"/>
<stop offset="0.51" stop-color="#FF2079"/>
<stop offset="1" stop-color="#5A4FD9"/>
</linearGradient>
<linearGradient id="paint1_linear_1821_172" x1="-2.94507" y1="53.8392" x2="28.1468" y2="53.8392" gradientUnits="userSpaceOnUse">
<stop stop-color="#FF0000"/>
<stop offset="1" stop-color="#6B1D28"/>
</linearGradient>
<linearGradient id="paint2_linear_1821_172" x1="-1.75024" y1="59.6" x2="19.8149" y2="59.6" gradientUnits="userSpaceOnUse">
<stop stop-color="#A7E2E8"/>
<stop offset="1" stop-color="#D73D59"/>
</linearGradient>
</defs>
</svg>
