<svg width="165" height="160" viewBox="0 0 165 160" fill="none" xmlns="http://www.w3.org/2000/svg">
<path d="M120.738 73.1661C117.976 73.1661 117.976 74.0832 117.515 77.9811C116.134 91.2798 116.134 104.349 117.746 116.731C118.206 120.17 119.127 123.38 120.508 125.902C122.58 129.341 126.033 130.029 129.026 126.131C131.328 123.151 132.018 119.253 132.479 114.667C133.169 109.623 133.169 105.954 133.63 101.827C134.09 97.2412 134.781 97.2412 142.377 97.012C149.514 96.7827 152.736 96.7827 159.873 97.9291C163.326 98.617 164.247 99.0755 164.477 103.432C164.937 114.208 164.477 125.214 160.563 135.532C158.492 141.494 154.118 147.914 149.053 151.582C141.457 156.856 134.55 159.837 124.882 159.607C123.04 159.607 121.429 159.378 119.587 158.69C107.156 155.022 100.02 145.162 94.0346 133.698C87.8191 122.463 85.2868 109.623 84.1358 96.7827C83.4452 90.3626 83.215 83.0254 82.9848 76.6054C82.5244 65.5996 83.215 54.8231 85.517 42.9002C87.3587 35.3337 87.8191 31.8944 90.3513 26.1623C94.0346 17.6786 98.8688 11.4879 106.466 7.13144C113.602 3.23355 118.666 1.62854 130.637 1.16997C141.687 1.16997 146.981 3.69212 152.967 9.42431C155.729 11.9465 158.031 15.3858 159.643 19.2836C162.175 25.0158 164.016 31.2066 164.477 37.6266C164.707 42.6709 165.167 58.9503 164.937 65.8289C164.937 73.3954 164.477 74.0833 157.341 74.0833C146.981 73.854 136.852 74.0832 125.572 73.3954C124.191 73.1661 122.35 72.9368 120.738 73.1661ZM120.278 37.3973C119.357 41.2952 118.897 44.9638 118.666 48.8617C118.666 51.3838 119.357 51.6131 120.968 52.0717C123.961 52.5303 126.954 52.9888 129.946 52.7595C131.328 52.7595 132.939 52.9888 134.32 52.7595C138.694 52.9888 138.464 52.301 138.234 48.1738C138.234 42.9002 137.773 40.1488 137.543 36.2509C137.083 32.1237 135.241 28.6844 132.248 25.933C130.177 24.0987 127.874 24.7865 126.033 26.3915C122.81 29.6016 121.199 32.8116 120.278 37.3973Z" fill="url(#paint0_linear_2004_216)"/>
<path d="M52.0836 94.7193C50.0117 95.8657 47.0191 97.0121 49.0909 98.1586C56.9178 101.827 62.2125 107.789 65.4354 115.126C69.8092 124.985 69.1186 134.615 62.6729 143.787C58.7595 149.06 53.4648 153.875 43.3358 157.315C32.9767 160.525 24.2289 160.066 13.8698 159.837C6.50325 159.149 5.12203 158.69 3.74081 153.646C2.35959 148.372 2.58979 145.85 2.12938 141.265C0.978365 127.507 0.748162 111.457 0.287754 99.0757C-0.172653 88.5285 0.057551 78.4399 0.057551 66.0584C0.057551 50.6961 0.057551 44.964 0.978365 33.7289C1.89918 20.8888 2.81999 12.8638 3.74081 6.67304C4.66162 1.17015 5.35223 -0.205568 12.0281 0.0237165C18.2436 0.253001 27.2216 -0.205568 33.2069 1.62872C39.8828 3.6923 43.7962 5.06803 49.7815 9.19519C57.6084 14.4688 61.7521 20.4303 66.8166 27.9967C70.2696 33.2703 73.4925 42.4418 74.1831 48.6326C74.8737 55.9697 75.1039 61.9312 73.2623 69.2684C71.1905 77.5227 64.2843 88.5285 52.0836 94.7193ZM40.5734 125.444C41.4942 120.629 39.1922 115.126 35.5089 112.374C33.6673 110.999 31.8256 109.852 29.2934 109.164C28.833 108.935 28.1424 109.394 28.1424 109.852C27.9122 111.228 27.682 112.833 27.682 113.292C27.2216 119.482 27.682 128.424 28.6028 132.322C29.2934 134.615 29.984 134.844 31.8256 134.615C35.9693 133.698 38.962 131.405 40.5734 125.444ZM41.264 66.7462C44.0264 60.5555 43.7962 51.8426 42.8754 47.2568C42.6452 44.7347 41.7244 40.8368 39.6526 38.0854C37.1203 34.6461 35.2787 33.041 32.286 31.6653C30.9048 31.2067 29.7538 31.436 29.7538 33.041C29.5236 35.3339 28.833 41.2954 28.833 44.5054C28.1424 52.989 28.1424 58.2626 27.4518 67.2048C27.4518 69.0391 27.2216 70.8734 27.4518 72.7077C27.682 74.0834 28.1424 74.3127 29.984 74.3127C34.5881 73.8541 39.1922 71.5613 41.264 66.7462Z" fill="url(#paint1_linear_2004_216)"/>
<defs>
<linearGradient id="paint0_linear_2004_216" x1="130.109" y1="21.7544" x2="397.46" y2="192.311" gradientUnits="userSpaceOnUse">
<stop stop-color="#FF2A78"/>
<stop offset="0.41" stop-color="#FF7643"/>
<stop offset="1" stop-color="#C8B524"/>
</linearGradient>
<linearGradient id="paint1_linear_2004_216" x1="130.109" y1="21.7544" x2="397.46" y2="192.311" gradientUnits="userSpaceOnUse">
<stop stop-color="#FF2A78"/>
<stop offset="0.41" stop-color="#FF7643"/>
<stop offset="1" stop-color="#C8B524"/>
</linearGradient>
</defs>
</svg>
