<svg width="2460" height="2460" viewBox="0 0 2460 2460" fill="none" xmlns="http://www.w3.org/2000/svg">
<path d="M2040.41 772.312C1982.25 621.455 1866.06 520.723 1726.72 440.808C1423.92 267.141 1210.18 244.873 1005.34 405.182C800.499 565.49 622.38 872.744 493.245 939.543C364.11 1006.34 261.69 1090.95 270.595 1344.76C279.5 1598.59 462.072 1554.06 484.34 1758.89C506.603 1963.73 649.101 2128.49 885.108 2173.02C1121.12 2217.55 1196.82 2048.33 1406.11 2012.71C1615.4 1977.08 1646.57 2092.86 1918.2 2057.24C2189.83 2021.61 2274.44 1562.96 2221 1309.12C2193.61 1179 2151.06 1048.04 2098.15 926.308C2076.54 876.592 2060.18 823.574 2040.41 772.312Z" fill="#92E3A9"/>
<path opacity="0.7" d="M2040.41 772.312C1982.25 621.455 1866.06 520.723 1726.72 440.808C1423.92 267.141 1210.18 244.873 1005.34 405.182C800.499 565.49 622.38 872.744 493.245 939.543C364.11 1006.34 261.69 1090.95 270.595 1344.76C279.5 1598.59 462.072 1554.06 484.34 1758.89C506.603 1963.73 649.101 2128.49 885.108 2173.02C1121.12 2217.55 1196.82 2048.33 1406.11 2012.71C1615.4 1977.08 1646.57 2092.86 1918.2 2057.24C2189.83 2021.61 2274.44 1562.96 2221 1309.12C2193.61 1179 2151.06 1048.04 2098.15 926.308C2076.54 876.592 2060.18 823.574 2040.41 772.312Z" fill="white"/>
<path d="M944.871 1186.96C944.871 1186.96 855.066 1213.74 806.083 1170.89C757.099 1128.03 885 1079.82 928.542 1095.89C972.084 1111.96 942.146 1165.53 876.837 1141.43C811.524 1117.32 770.708 1077.14 879.558 1063.75C988.408 1050.36 925.821 1098.57 887.721 1036.96C849.62 975.361 955.754 892.326 1010.18 908.394C1064.6 924.463 969.358 980.713 936.704 948.571C904.05 916.429 765.262 846.786 991.129 836.075C1217 825.36 1148.96 892.326 1102.7 892.326C1056.44 892.326 944.866 779.83 1015.62 769.114C1086.38 758.398 1178.9 822.683 1176.18 860.183C1173.45 897.684 1056.44 803.933 1116.31 742.33C1176.18 680.726 1249.65 742.33 1260.54 811.972C1271.42 881.615 1189.78 895.007 1214.28 820.007C1238.77 745.006 1276.86 688.761 1312.24 758.403C1347.62 828.046 1353.06 919.115 1334.01 908.399C1314.96 897.684 1290.47 694.119 1385.72 769.114C1480.96 844.115 1472.8 903.041 1453.75 921.792C1434.7 940.542 1331.29 715.545 1472.8 814.649C1614.31 913.752 1467.36 988.753 1500.01 1050.36C1532.67 1111.96 1630.64 1063.75 1606.14 940.537C1581.65 817.325 1521.79 854.825 1486.41 924.468C1451.03 994.111 1565.32 1176.25 1606.14 1101.25C1616.02 1083.1 1621.12 1061.96 1622.67 1041.34C1627.52 976.763 1597.58 917.211 1570.77 969.998C1535.39 1039.64 1595.26 1095.89 1663.29 1074.46C1731.33 1053.03 1693.03 979.011 1657.85 1010.17C1622.68 1041.34 1614.31 1055.71 1644.24 1098.57C1674.18 1141.43 1695.95 1264.64 1606.15 1229.81C1516.34 1194.99 1614.31 1109.28 1701.4 1136.06C1788.48 1162.85 1758.54 1203.02 1734.05 1243.21C1709.56 1283.38 1641.52 1288.74 1660.57 1326.24C1679.62 1363.74 1725.89 1417.31 1750.38 1339.63C1774.87 1261.96 1687.79 1237.85 1622.48 1269.99" stroke="#263238" stroke-miterlimit="10" stroke-linecap="round" stroke-linejoin="round"/>
<path d="M958.48 1227.14C958.48 1227.14 841.463 1194.99 822.412 1119.99C803.362 1044.99 874.117 1069.1 871.396 1117.32C868.675 1165.53 852.346 1237.85 803.362 1224.46C754.379 1211.07 770.708 1012.86 844.183 991.429C917.659 970.003 1007.46 1039.64 963.922 1061.07C920.38 1082.5 882.284 996.787 928.547 929.826C974.81 862.865 1061.89 895.007 1059.17 927.149C1056.45 959.292 942.151 836.08 944.871 798.58C947.592 761.08 988.413 694.119 1026.51 739.653C1064.61 785.188 1157.13 948.576 1102.7 892.326C1048.28 836.075 1037.39 790.541 1089.1 761.08C1140.81 731.614 1176.18 726.261 1176.18 793.222C1176.18 860.183 1157.4 918.982 1168.15 810.57C1178.9 702.153 1260.54 648.584 1290.48 734.295C1320.41 820.007 1325.85 911.076 1301.36 841.438C1276.87 771.795 1437.42 731.619 1423.82 758.403C1410.21 785.188 1325.85 809.296 1353.06 830.722C1380.28 852.149 1502.74 801.261 1551.72 844.115C1600.7 886.968 1513.62 878.933 1486.41 924.468C1459.19 970.003 1633.36 900.36 1644.24 948.576C1655.12 996.787 1508.18 1010.18 1500.01 1050.36C1491.85 1090.54 1796.63 1170.9 1693.22 1195C1589.81 1219.11 1548.99 1197.68 1546.27 1205.71" stroke="#263238" stroke-miterlimit="10" stroke-linecap="round" stroke-linejoin="round"/>
<path d="M931.263 1157.49C931.263 1157.49 822.408 1229.81 833.296 1251.24C844.179 1272.67 961.196 1216.43 942.146 1253.92C923.095 1291.42 846.899 1315.52 882.279 1326.24C917.654 1336.96 972.084 1320.88 985.688 1296.77" stroke="#263238" stroke-miterlimit="10" stroke-linecap="round" stroke-linejoin="round"/>
<path d="M1007.46 1347.67C1007.46 1347.67 939.425 1320.89 901.329 1269.99C863.234 1219.1 914.938 1101.25 953.034 1090.53" stroke="#263238" stroke-miterlimit="10" stroke-linecap="round" stroke-linejoin="round"/>
<path d="M1619.1 1189.36C1619.1 1189.36 1722.06 1220.56 1778.22 1170.64C1834.38 1120.72 1687.74 1064.56 1637.82 1083.28C1587.9 1102 1622.22 1164.4 1697.1 1136.32C1771.98 1108.24 1818.78 1061.44 1693.98 1045.83C1569.18 1030.23 1640.94 1086.39 1684.62 1014.63C1728.3 942.869 1606.62 846.146 1544.22 864.867C1481.82 883.588 1591.02 949.107 1628.46 911.666C1665.9 874.225 1825.02 793.104 1566.06 780.622C1307.1 768.14 1385.1 846.142 1438.14 846.142C1491.18 846.142 1619.1 715.097 1537.98 702.62C1456.86 690.138 1350.77 765.021 1353.89 808.7C1357.01 852.38 1491.17 743.181 1422.53 671.418C1353.89 599.654 1269.65 671.418 1257.17 752.539C1244.69 833.66 1338.29 849.261 1310.22 761.901C1282.14 674.537 1238.45 609.017 1197.89 690.138C1157.33 771.259 1151.09 877.344 1172.93 864.862C1194.77 852.38 1222.86 615.256 1113.65 702.615C1004.45 789.98 1013.81 858.619 1035.65 880.459C1057.49 902.298 1176.05 640.215 1013.81 755.653C851.568 871.096 1020.05 958.46 982.608 1030.22C945.166 1101.98 832.843 1045.82 860.926 902.294C889.01 758.772 957.649 802.452 998.209 883.573C1038.77 964.694 907.725 1176.86 860.926 1089.5C849.6 1068.35 843.755 1043.74 841.979 1019.72C836.415 944.497 870.742 875.125 901.487 936.615C942.047 1017.74 873.403 1083.26 795.402 1058.3C717.4 1033.34 761.311 947.11 801.64 983.414C841.974 1019.72 851.564 1036.46 817.242 1086.38C782.92 1136.29 757.96 1279.82 860.921 1239.26C963.882 1198.7 851.563 1098.86 751.717 1130.06C726.758 1137.85 710.182 1146.63 699.796 1156.14" stroke="#263238" stroke-miterlimit="10" stroke-linecap="round" stroke-linejoin="round"/>
<path d="M1603.5 1236.16C1603.5 1236.16 1737.66 1198.72 1759.5 1111.36C1781.34 1023.99 1700.22 1052.08 1703.34 1108.24C1706.46 1164.4 1725.18 1248.64 1781.34 1233.05C1837.5 1217.44 1818.78 986.559 1734.54 961.6C1650.3 936.64 1547.33 1017.76 1597.25 1042.72C1647.18 1067.68 1690.86 967.838 1637.81 889.836C1584.77 811.835 1484.93 849.276 1488.05 886.717C1491.17 924.158 1622.21 780.632 1619.09 736.952C1615.97 693.273 1569.17 615.271 1525.49 668.308C1481.81 721.351 1375.73 911.676 1438.13 846.152C1500.53 780.632 1513.01 727.59 1453.73 693.268C1394.45 658.946 1353.89 652.707 1353.89 730.709C1353.89 808.711 1375.42 877.202 1363.09 750.915C1350.77 624.629 1257.16 562.223 1222.84 662.065C1188.52 761.907 1182.28 867.992 1210.36 786.871C1238.44 705.75 1054.36 658.946 1069.96 690.148C1085.56 721.351 1182.28 749.429 1151.08 774.389C1119.88 799.348 979.474 740.067 923.312 789.99C867.15 839.913 966.992 830.55 998.194 883.593C1029.4 936.635 829.709 855.514 817.232 911.671C804.75 967.833 973.235 983.434 982.598 1030.23C991.956 1077.04 642.508 1170.64 761.075 1198.72C879.637 1226.8 926.441 1201.84 929.56 1211.2" stroke="#263238" stroke-miterlimit="10" stroke-linecap="round" stroke-linejoin="round"/>
<path d="M1634.7 1155.04C1634.7 1155.04 1759.5 1239.28 1747.02 1264.24C1734.54 1289.2 1600.38 1223.68 1622.22 1267.36C1644.06 1311.04 1731.42 1339.13 1690.86 1351.6C1650.3 1364.08 1587.9 1345.36 1572.3 1317.28" stroke="#263238" stroke-miterlimit="10" stroke-linecap="round" stroke-linejoin="round"/>
<path d="M1547.34 1376.56C1547.34 1376.56 1625.34 1345.36 1669.02 1286.08C1712.7 1226.8 1653.42 1089.51 1609.74 1077.03" stroke="#263238" stroke-miterlimit="10" stroke-linecap="round" stroke-linejoin="round"/>
<path d="M1273.28 265.109C1273.28 265.109 1208.04 251.614 1196.8 307.854C1185.55 364.095 1203.55 429.334 1273.28 427.085C1343.02 424.837 1388.01 442.834 1417.26 413.59C1446.5 384.345 1464.5 305.611 1417.26 276.361C1370.01 247.117 1311.52 262.866 1298.02 262.866C1284.53 262.861 1273.28 265.109 1273.28 265.109Z" stroke="#263238" stroke-miterlimit="10" stroke-linecap="round" stroke-linejoin="round"/>
<path d="M1253.17 334.427L1299.51 348.061" stroke="#263238" stroke-miterlimit="10" stroke-linecap="round" stroke-linejoin="round"/>
<path d="M1274.07 303.529L1309.51 338.063" stroke="#263238" stroke-miterlimit="10" stroke-linecap="round" stroke-linejoin="round"/>
<path d="M1344.96 352.607L1384.94 350.786" stroke="#263238" stroke-miterlimit="10" stroke-linecap="round" stroke-linejoin="round"/>
<path d="M1337.68 341.699L1379.49 308.076" stroke="#263238" stroke-miterlimit="10" stroke-linecap="round" stroke-linejoin="round"/>
<path d="M1275.89 390.771C1275.89 390.771 1294.06 370.776 1315.87 372.597C1337.68 374.412 1351.32 398.043 1351.32 398.043" stroke="#263238" stroke-miterlimit="10" stroke-linecap="round" stroke-linejoin="round"/>
<path d="M1425.84 313.527C1425.84 313.527 1424.93 323.524 1415.84 328.065C1406.75 332.612 1406.75 332.612 1406.75 332.612" stroke="#263238" stroke-miterlimit="10" stroke-linecap="round" stroke-linejoin="round"/>
<path d="M1408.57 343.519C1408.57 343.519 1414.02 338.068 1420.38 341.704C1426.75 345.34 1424.93 351.701 1424.93 351.701" stroke="#263238" stroke-miterlimit="10" stroke-linecap="round" stroke-linejoin="round"/>
<path d="M1437.65 347.15C1437.65 347.15 1435.83 340.789 1438.56 337.153" stroke="#263238" stroke-miterlimit="10" stroke-linecap="round" stroke-linejoin="round"/>
<path d="M1626.89 437.388C1626.89 437.388 1604.76 388.685 1567.12 384.257C1529.49 379.829 1502.93 415.248 1502.93 441.811C1502.93 468.374 1569.34 603.408 1569.34 603.408V559.133L1587.04 561.347L1595.9 519.286H1620.25L1606.97 459.518L1626.89 468.374V437.388H1626.89Z" stroke="#263238" stroke-miterlimit="10" stroke-linecap="round" stroke-linejoin="round"/>
<path d="M1649.03 439.602V483.877L1633.53 494.947L1640.18 521.51L1611.4 543.645L1606.97 574.636L1589.26 581.278L1582.62 629.981C1582.62 629.981 1613.61 603.418 1653.45 585.706C1693.3 567.994 1755.28 532.575 1739.79 488.305C1724.3 444.03 1677.81 426.323 1649.03 439.602Z" stroke="#263238" stroke-miterlimit="10" stroke-linecap="round" stroke-linejoin="round"/>
<path d="M1566.4 636.421C1566.4 636.421 1560.44 645.376 1564.91 646.119C1569.39 646.867 1579.09 649.105 1579.84 646.119C1580.58 643.132 1581.33 639.403 1579.09 636.421C1576.85 633.435 1573.12 629.706 1573.12 629.706L1566.4 636.421Z" stroke="#263238" stroke-miterlimit="10" stroke-linecap="round" stroke-linejoin="round"/>
<path d="M1555.2 612.348C1555.2 612.348 1556.57 605.76 1553.8 606.375C1551.03 606.99 1544.88 607.959 1545.14 609.868C1545.41 611.772 1545.84 614.109 1547.84 615.32C1549.84 616.525 1552.87 617.819 1552.87 617.819L1555.2 612.348Z" stroke="#263238" stroke-miterlimit="10" stroke-linecap="round" stroke-linejoin="round"/>
<path d="M1552.28 638.901C1552.28 638.901 1553.65 632.313 1550.88 632.928C1548.11 633.543 1541.96 634.512 1542.23 636.421C1542.49 638.325 1542.93 640.663 1544.93 641.873C1546.93 643.078 1549.96 644.372 1549.96 644.372L1552.28 638.901Z" stroke="#263238" stroke-miterlimit="10" stroke-linecap="round" stroke-linejoin="round"/>
<path d="M926.879 596.767C926.879 596.767 905.875 612.521 819.234 644.023C732.593 675.531 706.34 701.784 703.713 722.788C701.085 743.791 698.463 759.545 690.586 785.798C682.709 812.051 653.829 817.306 674.832 840.932C695.836 864.562 724.716 890.815 756.224 890.815C787.731 890.815 832.361 896.065 837.61 864.562C842.86 833.055 834.983 788.425 848.115 772.672C861.241 756.918 866.491 770.044 895.371 749.041C924.252 728.037 955.754 714.911 955.754 714.911L982.007 688.658L1024.01 701.784L1005.64 654.528C1005.64 654.528 1010.89 654.528 1018.76 636.151C1026.64 617.775 1031.89 604.644 1013.52 591.517C995.139 578.391 995.139 573.141 979.385 570.514C963.636 567.886 926.879 596.767 926.879 596.767Z" stroke="#263238" stroke-miterlimit="10" stroke-linecap="round" stroke-linejoin="round"/>
<path d="M926.879 636.146C921.629 644.023 892.749 662.4 892.749 662.4C892.749 662.4 869.118 686.03 855.991 693.907C842.865 701.784 806.108 709.661 787.731 735.914C769.355 762.167 753.601 806.802 753.601 806.802" stroke="#263238" stroke-miterlimit="10" stroke-linecap="round" stroke-linejoin="round"/>
<path d="M785.104 827.805C785.104 827.805 800.858 783.171 808.735 770.044C816.612 756.918 855.991 735.914 855.991 735.914L884.872 709.661L942.633 659.777" stroke="#263238" stroke-miterlimit="10" stroke-linecap="round" stroke-linejoin="round"/>
<path d="M932.935 296.445C932.935 296.445 935.435 303.667 880.468 315.712C825.507 327.751 758.049 320.528 748.057 344.607C738.064 368.69 758.049 395.179 710.581 414.441C663.113 433.708 630.636 440.93 625.637 460.197C620.638 479.464 653.12 501.136 663.113 527.626C673.105 554.115 663.113 595.054 700.588 611.91C738.064 628.766 758.049 587.827 793.025 575.788C828.002 563.748 837.994 573.382 880.468 551.704C922.938 530.032 937.929 510.765 955.42 493.909C972.91 477.053 985.402 474.642 997.889 477.053C1010.38 479.464 1047.86 469.831 1047.86 469.831L1088.38 501.786C1092.67 505.171 1098.98 501.373 1097.68 496.177C1094.55 483.73 1092.14 468.094 1097.82 462.608C1107.82 452.975 1125.31 448.158 1130.3 436.119C1135.3 424.079 1117.81 404.813 1102.8 363.819C1090.61 330.531 1092.5 273.896 1047.39 260.785C1012.67 250.689 955.021 270.251 932.935 296.445Z" stroke="#263238" stroke-miterlimit="10" stroke-linecap="round" stroke-linejoin="round"/>
<path d="M725.675 478.352C725.675 478.352 754.315 473.919 768.632 453.959C782.949 433.998 775.791 416.257 794.885 407.386C813.98 398.515 847.391 402.948 864.095 396.296C880.798 389.645 911.824 378.555 911.824 378.555L945.235 351.943L961.939 347.51" stroke="#263238" stroke-miterlimit="10" stroke-linecap="round" stroke-linejoin="round"/>
<path d="M737.606 516.054C737.606 516.054 785.335 491.661 794.885 473.919C804.43 456.178 828.297 436.217 852.164 433.998C876.031 431.779 921.373 418.476 930.923 407.386C940.468 396.296 954.79 385.207 966.721 385.207" stroke="#263238" stroke-miterlimit="10" stroke-linecap="round" stroke-linejoin="round"/>
<path d="M749.542 551.537C749.542 551.537 809.207 522.706 816.366 509.402C823.524 496.098 840.233 460.61 876.031 456.177C911.829 451.744 945.24 449.526 966.721 436.217C988.202 422.908 1009.68 414.038 1009.68 414.038" stroke="#263238" stroke-miterlimit="10" stroke-linecap="round" stroke-linejoin="round"/>
<path d="M470.047 638.774L522.558 665.027L540.934 628.27L593.446 680.781L601.322 644.023L656.456 733.287L598.695 701.784L585.569 730.665L540.934 693.907L525.185 714.911L451.671 675.531L470.047 638.774Z" stroke="#263238" stroke-miterlimit="10" stroke-linecap="round" stroke-linejoin="round"/>
<path d="M1178.92 126.808L1157.92 176.692L1134.29 163.565L1129.04 216.072L1100.16 210.822L1126.41 279.082L1147.42 244.952L1171.05 247.579L1186.8 200.323L1207.8 208.2L1239.31 150.439L1178.92 126.808Z" stroke="#263238" stroke-miterlimit="10" stroke-linecap="round" stroke-linejoin="round"/>
<path d="M1669.34 744.357C1669.34 744.357 1677.39 694.729 1711.58 691.186C1745.78 687.639 1786.01 731.953 1775.96 756.765C1765.9 781.581 1737.74 802.845 1737.74 802.845L1729.69 836.523H1695.5C1695.5 836.523 1693.48 797.532 1705.55 790.442C1717.62 783.352 1745.78 774.492 1739.75 747.904C1733.71 721.316 1717.62 712.455 1705.55 726.635C1693.48 740.814 1697.51 760.312 1679.4 762.083C1661.29 763.855 1669.34 744.357 1669.34 744.357Z" stroke="#263238" stroke-miterlimit="10" stroke-linecap="round" stroke-linejoin="round"/>
<path d="M1717.62 850.702C1717.62 850.702 1689.46 847.155 1689.46 863.111C1689.46 879.066 1697.5 903.878 1703.54 903.878C1709.58 903.878 1727.68 905.649 1731.7 891.469C1735.73 877.29 1733.71 873.748 1733.71 864.882C1733.71 856.021 1717.62 850.702 1717.62 850.702Z" stroke="#263238" stroke-miterlimit="10" stroke-linecap="round" stroke-linejoin="round"/>
<path d="M471.09 402.53C471.09 402.53 479.134 352.902 513.333 349.359C547.532 345.812 587.763 390.127 577.706 414.938C567.65 439.75 539.483 461.019 539.483 461.019L531.439 494.696H497.24C497.24 494.696 495.228 455.705 507.296 448.616C519.365 441.526 547.527 432.665 541.495 406.077C535.458 379.49 519.365 370.629 507.296 384.808C495.228 398.987 499.252 418.485 481.146 420.257C463.046 422.028 471.09 402.53 471.09 402.53Z" stroke="#263238" stroke-miterlimit="10" stroke-linecap="round" stroke-linejoin="round"/>
<path d="M519.37 508.876C519.37 508.876 491.208 505.333 491.208 521.284C491.208 537.235 499.257 562.051 505.289 562.051C511.326 562.051 529.426 563.822 533.451 549.643C537.476 535.463 535.463 531.921 535.463 523.055C535.463 514.194 519.37 508.876 519.37 508.876Z" stroke="#263238" stroke-miterlimit="10" stroke-linecap="round" stroke-linejoin="round"/>
<path d="M610.37 953.796C610.37 953.796 618.415 904.168 652.613 900.626C686.812 897.084 727.043 941.393 716.987 966.205C706.93 991.016 678.768 1012.29 678.768 1012.29L670.724 1045.96H636.525C636.525 1045.96 634.513 1006.97 646.582 999.882C658.65 992.792 686.812 983.931 680.78 957.344C674.744 930.756 658.65 921.895 646.582 936.075C634.513 950.254 638.537 969.752 620.432 971.523C602.321 973.294 610.37 953.796 610.37 953.796Z" stroke="#263238" stroke-miterlimit="10" stroke-linecap="round" stroke-linejoin="round"/>
<path d="M658.645 1060.14C658.645 1060.14 630.483 1056.59 630.483 1072.55C630.483 1088.51 638.527 1113.32 644.564 1113.32C650.601 1113.32 668.707 1115.09 672.726 1100.91C676.751 1086.73 674.739 1083.18 674.739 1074.32C674.739 1065.46 658.645 1060.14 658.645 1060.14Z" stroke="#263238" stroke-miterlimit="10" stroke-linecap="round" stroke-linejoin="round"/>
<path d="M1520.29 186.916C1520.29 186.916 1525.4 155.438 1547.09 153.194C1568.78 150.946 1594.3 179.049 1587.92 194.788C1581.53 210.527 1563.67 224.013 1563.67 224.013L1558.57 245.37H1536.88C1536.88 245.37 1535.61 220.637 1543.26 216.141C1550.92 211.644 1568.78 206.025 1564.95 189.159C1561.12 172.298 1550.91 166.675 1543.26 175.669C1535.61 184.662 1538.16 197.026 1526.68 198.153C1515.19 199.28 1520.29 186.916 1520.29 186.916Z" stroke="#263238" stroke-miterlimit="10" stroke-linecap="round" stroke-linejoin="round"/>
<path d="M1550.91 254.364C1550.91 254.364 1533.05 252.115 1533.05 262.231C1533.05 272.346 1538.15 288.086 1541.98 288.086C1545.81 288.086 1557.29 289.212 1559.84 280.218C1562.4 271.225 1561.12 268.976 1561.12 263.358C1561.12 257.734 1550.91 254.364 1550.91 254.364Z" stroke="#263238" stroke-miterlimit="10" stroke-linecap="round" stroke-linejoin="round"/>
<path d="M1153.55 484.684C1153.55 484.684 1158.66 453.211 1180.35 450.962C1202.04 448.714 1227.55 476.817 1221.17 492.556C1214.79 508.295 1196.93 521.786 1196.93 521.786L1191.83 543.143H1170.14C1170.14 543.143 1168.86 518.41 1176.52 513.914C1184.18 509.417 1202.04 503.798 1198.21 486.932C1194.38 470.071 1184.18 464.448 1176.52 473.442C1168.86 482.435 1171.42 494.799 1159.93 495.926C1148.45 497.048 1153.55 484.684 1153.55 484.684Z" stroke="#263238" stroke-miterlimit="10" stroke-linecap="round" stroke-linejoin="round"/>
<path d="M1184.18 552.132C1184.18 552.132 1166.31 549.883 1166.31 559.999C1166.31 570.114 1171.41 585.854 1175.24 585.854C1179.07 585.854 1190.55 586.98 1193.1 577.986C1195.66 568.993 1194.38 566.744 1194.38 561.126C1194.38 555.507 1184.18 552.132 1184.18 552.132Z" stroke="#263238" stroke-miterlimit="10" stroke-linecap="round" stroke-linejoin="round"/>
<path d="M1753.55 298.309C1753.55 298.309 1758.65 266.831 1780.35 264.588C1802.04 262.339 1827.55 290.442 1821.17 306.181C1814.79 321.92 1796.93 335.411 1796.93 335.411L1791.83 356.769H1770.14C1770.14 356.769 1768.87 332.036 1776.52 327.539C1784.18 323.042 1802.04 317.424 1798.22 300.558C1794.39 283.697 1784.18 278.073 1776.52 287.067C1768.87 296.061 1771.42 308.425 1759.94 309.552C1748.45 310.678 1753.55 298.309 1753.55 298.309Z" stroke="#263238" stroke-miterlimit="10" stroke-linecap="round" stroke-linejoin="round"/>
<path d="M1784.17 365.758C1784.17 365.758 1766.31 363.509 1766.31 373.625C1766.31 383.74 1771.41 399.48 1775.24 399.48C1779.07 399.48 1790.55 400.606 1793.1 391.612C1795.66 382.619 1794.38 380.37 1794.38 374.752C1794.38 369.133 1784.17 365.758 1784.17 365.758Z" stroke="#263238" stroke-miterlimit="10" stroke-linecap="round" stroke-linejoin="round"/>
<path d="M1714.05 395.514C1837.78 497.545 1794.18 657.002 1651.51 680.781C1493.98 707.034 1507.33 555.877 1349.58 549.505C1191.83 543.139 1262.94 594.14 1352.21 620.393C1441.47 646.646 1412.59 704.407 1273.44 644.023C1134.3 583.64 1084.41 546.883 1000.4 552.133C916.385 557.382 651.211 659.777 656.461 733.287C661.711 806.802 624.953 875.062 666.96 911.819C708.967 948.576 837.615 1022.09 869.123 917.069C892.542 839.008 953.673 781.257 993.22 754.595" stroke="#263238" stroke-linecap="round" stroke-linejoin="round"/>
<path d="M1024.02 738.542L990.593 779.51L991.228 756.391L971.469 744.382L1024.02 738.542Z" fill="#263238"/>
<path d="M921.762 248.066C950.037 235.914 974.908 226.123 992.516 221.321C1079.16 197.69 1123.79 284.332 1160.54 363.096C1197.3 441.86 1289.19 517.997 1373.21 473.363C1457.22 428.729 1493.98 268.578 1669.88 365.718C1675.43 368.779 1680.76 371.937 1685.88 375.175" stroke="#263238" stroke-linecap="round" stroke-linejoin="round"/>
<path d="M1714.05 395.514L1662.48 383.864L1683.46 374.127L1685.39 351.082L1714.05 395.514Z" fill="#263238"/>
<path d="M950.51 208.2C950.51 208.2 685.336 294.841 664.333 342.097C649.14 376.282 782.324 310.177 889.964 262.044" stroke="#263238" stroke-linecap="round" stroke-linejoin="round"/>
<path d="M921.762 248.066L885.29 286.354L887.701 263.353L868.916 249.862L921.762 248.066Z" fill="#263238"/>
<path d="M390.54 710.005C435.459 730.802 525.185 724.755 588.196 762.167C672.21 812.051 561.943 875.061 585.569 927.573C609.199 980.084 753.596 1008.96 824.484 990.583C895.371 972.207 940.005 917.068 976.763 838.304C1013.52 759.54 1076.53 691.28 1105.41 683.403C1134.29 675.526 1438.84 746.413 1488.73 764.794C1538.61 783.171 1546.49 812.051 1604.25 848.808C1662.01 885.566 1654.13 827.805 1641.01 793.675C1627.88 759.545 1567.49 762.167 1514.99 712.288C1462.47 662.404 1412.59 609.893 1428.34 651.905C1444.1 693.912 1472.98 735.919 1399.46 714.915C1325.95 693.912 1208.78 639.566 1195.65 639.566C1195.65 639.566 1107.09 593.273 1076.9 611.389C1046.71 629.504 1078.91 633.529 1175.53 663.723C1204.5 672.781 1224.79 679.118 1238.99 683.555" stroke="#263238" stroke-linecap="round" stroke-linejoin="round"/>
<path d="M1272.14 693.907L1219.45 698.394L1236.5 682.768L1231.38 660.22L1272.14 693.907Z" fill="#263238"/>
<path d="M884.385 123.959C724.977 171.556 637.13 239.161 653.829 237.075C674.832 234.448 787.726 200.318 887.494 163.561C987.262 126.803 1076.53 150.434 982.012 168.81C887.499 187.186 680.087 265.951 638.075 292.209C596.063 318.467 645.952 357.846 648.574 386.727C651.201 415.607 609.194 428.734 588.191 457.614C567.187 486.495 617.071 599.389 590.818 609.893C564.988 620.225 376.503 620.392 347.928 670.404" stroke="#263238" stroke-linecap="round" stroke-linejoin="round"/>
<path d="M362.609 701.991L330.299 660.131L352.671 666.001L368.852 649.479L362.609 701.991Z" fill="#263238"/>
<path d="M1371.9 227.968C1339.6 222.753 1303.9 211.083 1270.81 195.068C1189.42 155.689 1423.09 174.065 1441.47 160.938C1459.84 147.812 1265.56 53.2935 1021.39 92.6781C984.517 98.6264 949.919 106.129 917.821 114.577" stroke="#263238" stroke-linecap="round" stroke-linejoin="round"/>
<path d="M884.385 123.959L926.598 92.1172L920.483 114.424L936.822 130.788L884.385 123.959Z" fill="#263238"/>
<path d="M1722.39 239.702C1722.39 239.702 1714.52 187.191 1622.63 150.439C1530.74 113.682 1496.61 158.316 1472.97 202.95C1462.56 222.625 1437.86 231.078 1406.51 231.004" stroke="#263238" stroke-linecap="round" stroke-linejoin="round"/>
<path d="M1371.9 227.968L1422.18 211.58L1409.14 230.684L1419.27 251.471L1371.9 227.968Z" fill="#263238"/>
<path d="M1903.15 616.397C1893.03 666.089 1872.84 695.413 1851.04 707.039C1811.66 728.042 1790.66 746.418 1809.03 767.422C1827.41 788.425 1856.29 770.049 1858.92 806.806C1861.55 843.564 1843.16 914.451 1764.4 945.954C1700.74 971.42 1654.23 966.008 1619.33 935.277" stroke="#263238" stroke-linecap="round" stroke-linejoin="round"/>
<path d="M1596.37 909.197L1644.16 931.844L1621.55 936.759L1614.63 958.825L1596.37 909.197Z" fill="#263238"/>
<path d="M1656.76 263.333C1656.76 263.333 1714.52 310.59 1698.76 271.21C1683.01 231.826 1651.51 202.95 1622.63 234.453C1593.75 265.956 1627.88 307.968 1672.51 315.84C1717.14 323.716 1793.28 315.84 1837.92 454.987C1882.55 594.134 1782.78 604.639 1774.9 641.396C1767.03 678.153 1869.42 659.772 1874.67 570.509C1879.92 481.245 1819.54 402.481 1822.17 363.096C1824.79 323.716 1882.55 302.713 1903.55 454.987C1910.47 505.107 1911.41 547.267 1908.15 582.021" stroke="#263238" stroke-linecap="round" stroke-linejoin="round"/>
<path d="M1903.15 616.397L1889.97 565.185L1908.22 579.404L1929.6 570.612L1903.15 616.397Z" fill="#263238"/>
<path d="M217.257 1571.62C217.257 1571.62 342.757 1545.2 352.666 1522.08C362.575 1498.96 346.058 1429.61 392.296 1416.4C438.534 1403.19 521.097 1432.91 540.915 1426.31C560.732 1419.71 597.057 1340.44 616.875 1330.53C625.184 1326.37 648.599 1325.7 672.982 1326.33" stroke="#263238" stroke-width="2" stroke-linecap="round" stroke-linejoin="round"/>
<path d="M742.369 1330.53L642.557 1365.49L667.797 1326.72L646.636 1285.6L742.369 1330.53Z" fill="#263238"/>
<path d="M352.661 1829.22C352.661 1829.22 448.433 1819.31 461.649 1792.89C474.859 1766.47 448.438 1726.84 484.768 1683.9C521.097 1640.97 557.426 1690.51 593.755 1674C630.085 1657.48 656.505 1621.15 666.414 1614.55C676.323 1607.94 689.533 1617.85 702.743 1607.94C712.17 1600.87 733.37 1575.3 748.342 1556.43" stroke="#263238" stroke-width="2" stroke-linecap="round" stroke-linejoin="round"/>
<path d="M801.817 1512.17L753.719 1606.36L745.223 1560.88L701.528 1545.73L801.817 1512.17Z" fill="#263238"/>
<path d="M2126.15 1657.48C2126.15 1657.48 2030.38 1654.18 2003.96 1637.67C1977.54 1621.16 1967.63 1578.22 1944.51 1568.32C1921.39 1558.41 1838.83 1545.2 1838.83 1545.2C1838.83 1545.2 1819.01 1541.9 1789.29 1512.17C1763.69 1486.58 1777.28 1490.37 1766.79 1485.59" stroke="#263238" stroke-width="2" stroke-linecap="round" stroke-linejoin="round"/>
<path d="M1700.12 1465.93L1805.8 1461.95L1770.26 1491.55L1778.36 1537.09L1700.12 1465.93Z" fill="#263238"/>
<path d="M2218.63 1403.18C2218.63 1403.18 2169.09 1409.79 2139.37 1409.79C2109.65 1409.79 2030.38 1389.97 2030.38 1389.97L1970.93 1366.85C1970.93 1366.85 1908.18 1373.45 1888.37 1373.45C1876.74 1373.45 1854.88 1374.59 1838.81 1375.53" stroke="#263238" stroke-width="2" stroke-linecap="round" stroke-linejoin="round"/>
<path d="M1769.47 1380.06L1864.61 1333.87L1843.99 1375.28L1869.74 1413.7L1769.47 1380.06Z" fill="#263238"/>
<path d="M1924.7 2014.16C1924.7 2014.16 1878.46 1944.81 1852.04 1928.3C1825.62 1911.78 1772.78 1865.55 1772.78 1865.55L1759.57 1786.28L1737.37 1757.73" stroke="#263238" stroke-width="2" stroke-linecap="round" stroke-linejoin="round"/>
<path d="M1703.42 1697.11L1787.2 1761.66L1740.94 1761.68L1718.03 1801.86L1703.42 1697.11Z" fill="#263238"/>
<path d="M623.477 1954.72C623.477 1954.72 649.898 1898.58 663.108 1875.46C676.318 1852.34 679.619 1839.13 696.136 1806.11C704.308 1789.77 717.326 1775.04 728.401 1764.34" stroke="#263238" stroke-width="2" stroke-linecap="round" stroke-linejoin="round"/>
<path d="M772.091 1710.32L740.593 1811.28L724.544 1767.9L678.911 1760.34L772.091 1710.32Z" fill="#263238"/>
<path d="M886.717 2233.03C886.717 2233.03 877.738 2273.02 887.534 2281.18C897.329 2289.35 960.989 2316.28 1157.69 2326.07C1354.39 2335.87 1521.71 2285.27 1533.95 2272.2C1546.19 2259.15 1535.59 2199.56 1535.59 2199.56C1535.59 2199.56 1436.83 2257.51 1324.19 2270.57C1211.56 2283.63 1046.69 2268.12 983.031 2250.17C919.371 2232.21 890.801 2224.05 890.801 2224.05L886.717 2233.03Z" fill="#92E3A9" stroke="#263238" stroke-miterlimit="10" stroke-linecap="round" stroke-linejoin="round"/>
<path d="M1158.21 1405.17C1158.21 1405.17 1000.78 1408.22 988.551 1418.92C976.325 1429.62 924.355 2028.79 910.599 2086.87C896.842 2144.95 860.159 2218.31 873.915 2238.19C887.671 2258.06 1109.3 2299.33 1239.22 2299.33C1369.14 2299.33 1502.12 2247.36 1528.1 2218.32C1554.09 2189.28 1540.33 2151.07 1535.74 2132.73C1531.16 2114.38 1506.7 1989.05 1508.23 1984.46C1509.76 1979.88 1554.09 1828.56 1554.09 1828.56C1554.09 1828.56 1664.14 1580.94 1648.85 1554.96C1633.56 1528.98 1479.19 1444.91 1479.19 1444.91L1197.95 1400.59L1158.21 1405.17Z" fill="#92E3A9" stroke="#263238" stroke-miterlimit="10" stroke-linecap="round" stroke-linejoin="round"/>
<path d="M910.599 2086.87C910.599 2086.87 956.207 2077.81 994.204 2079.76C1032.21 2081.71 1059.49 2089.5 1059.49 2089.5C1059.49 2089.5 1016.62 2038.83 993.235 2034.94C969.85 2031.04 920.153 2048.58 920.153 2048.58L910.599 2086.87Z" fill="#263238" stroke="#263238" stroke-miterlimit="10" stroke-linecap="round" stroke-linejoin="round"/>
<path d="M1286.87 1492.03C1362.15 1492.03 1423.17 1448.25 1423.17 1394.24C1423.17 1340.24 1362.15 1296.45 1286.87 1296.45C1211.58 1296.45 1150.56 1340.24 1150.56 1394.24C1150.56 1448.25 1211.58 1492.03 1286.87 1492.03Z" fill="#263238" stroke="#263238" stroke-miterlimit="10" stroke-linecap="round" stroke-linejoin="round"/>
<path d="M1247.52 1738.5C1254.98 1733.18 1262.16 1728.76 1268.8 1725.61" stroke="#263238" stroke-miterlimit="10" stroke-linecap="round" stroke-linejoin="round"/>
<path d="M1128.83 1857.19C1128.83 1857.19 1182.49 1791.41 1231.29 1751.05" stroke="#263238" stroke-miterlimit="10" stroke-linecap="round" stroke-linejoin="round"/>
<path d="M1191.82 1743.81C1191.82 1743.81 1147.03 1801.2 1135.83 1822.19" stroke="#263238" stroke-miterlimit="10" stroke-linecap="round" stroke-linejoin="round"/>
<path d="M1204.67 1574.47C1207.48 1578.2 1210.21 1581.49 1212.81 1584.23" stroke="#263238" stroke-miterlimit="10" stroke-linecap="round" stroke-linejoin="round"/>
<path d="M1142.83 1461.05C1142.83 1461.05 1172.44 1527.17 1198.5 1565.78" stroke="#263238" stroke-miterlimit="10" stroke-linecap="round" stroke-linejoin="round"/>
<path d="M1127.43 1455.45C1127.43 1455.45 1154.03 1540.84 1165.22 1557.64" stroke="#263238" stroke-miterlimit="10" stroke-linecap="round" stroke-linejoin="round"/>
<path d="M1084.8 1722.26C1086.15 1730.54 1087.55 1737.6 1088.97 1742.92" stroke="#263238" stroke-miterlimit="10" stroke-linecap="round" stroke-linejoin="round"/>
<path d="M1068.2 1546.58C1068.2 1546.58 1074.55 1651.04 1083.19 1711.61" stroke="#263238" stroke-miterlimit="10" stroke-linecap="round" stroke-linejoin="round"/>
<path d="M981.363 2228.75C1005.28 2246.38 1050.18 2275.66 1099.36 2288.31" stroke="#263238" stroke-miterlimit="10" stroke-linecap="round" stroke-linejoin="round"/>
<path d="M963.277 2214.55C963.277 2214.55 967.198 2217.96 974.214 2223.37" stroke="#263238" stroke-miterlimit="10" stroke-linecap="round" stroke-linejoin="round"/>
<path d="M873.398 1981.56C873.398 1981.56 861.384 2015.36 856.877 2025.12C852.37 2034.88 855.376 2046.9 861.384 2052.16C867.391 2057.42 879.406 2070.18 891.42 2072.43C903.435 2074.69 907.189 2071.68 908.694 2066.42C910.195 2061.17 910.195 2061.17 910.195 2061.17C910.195 2061.17 934.224 2071.68 950.746 2070.18C967.267 2068.68 983.036 2058.17 983.036 2058.17L1007.82 2061.18L1033.35 1992.84C1033.35 1992.84 995.803 1980.82 981.535 1976.31C967.267 1971.81 907.189 1956.04 890.668 1959.79C874.151 1963.54 873.398 1981.56 873.398 1981.56Z" fill="white" stroke="#263238" stroke-miterlimit="10" stroke-linecap="round" stroke-linejoin="round"/>
<path d="M910.195 2061.17L881.659 2054.41" stroke="#263238" stroke-miterlimit="10" stroke-linecap="round" stroke-linejoin="round"/>
<path d="M1028.04 1994.37C1028.04 1994.37 998.647 2032.16 997.25 2050.36C995.847 2068.56 1011.25 2069.95 1023.85 2074.15C1036.45 2078.35 1093.13 1990.17 1088.98 1989.13C1084.82 1988.09 1043.99 1977.79 1028.04 1994.37Z" fill="#263238" stroke="#263238" stroke-miterlimit="10" stroke-linecap="round" stroke-linejoin="round"/>
<path d="M1481.57 1619.23C1481.57 1619.23 1373.79 1825 1354.19 1875.39C1334.59 1925.78 1330.39 1941.18 1330.39 1941.18L1323.39 1983.17C1323.39 1983.17 1088.23 1981.77 1071.43 1987.37C1054.64 1992.96 994.445 2050.36 1023.84 2074.15C1053.24 2097.94 1147.02 2118.94 1246.4 2145.54C1345.79 2172.14 1418.57 2180.53 1435.37 2151.14C1452.17 2121.74 1600.54 1840.39 1628.54 1745.21C1656.53 1650.03 1718.12 1584.24 1683.13 1529.64C1648.14 1475.05 1515.16 1470.85 1496.96 1473.65" fill="#92E3A9"/>
<path d="M1481.57 1619.23C1481.57 1619.23 1373.79 1825 1354.19 1875.39C1334.59 1925.78 1330.39 1941.18 1330.39 1941.18L1323.39 1983.17C1323.39 1983.17 1088.23 1981.77 1071.43 1987.37C1054.64 1992.96 994.445 2050.36 1023.84 2074.15C1053.24 2097.94 1147.02 2118.94 1246.4 2145.54C1345.79 2172.14 1418.57 2180.53 1435.37 2151.14C1452.17 2121.74 1600.54 1840.39 1628.54 1745.21C1656.53 1650.03 1718.12 1584.24 1683.13 1529.64C1648.14 1475.05 1515.16 1470.85 1496.96 1473.65" stroke="#263238" stroke-miterlimit="10" stroke-linecap="round" stroke-linejoin="round"/>
<path d="M1611.14 1718.62C1577.72 1745.88 1520.31 1789.85 1479.36 1806.65" stroke="#263238" stroke-miterlimit="10" stroke-linecap="round" stroke-linejoin="round"/>
<path d="M1640.19 1694.07C1640.19 1694.07 1633.66 1699.68 1622.97 1708.46" stroke="#263238" stroke-miterlimit="10" stroke-linecap="round" stroke-linejoin="round"/>
<path d="M1536.38 1789.11C1536.38 1789.11 1492.52 1811.04 1461.81 1822.74" stroke="#263238" stroke-miterlimit="10" stroke-linecap="round" stroke-linejoin="round"/>
<path d="M1319.27 2102.89C1322.34 2107.63 1325.57 2111.71 1328.95 2114.83" stroke="#263238" stroke-miterlimit="10" stroke-linecap="round" stroke-linejoin="round"/>
<path d="M1284.28 2003.67C1284.28 2003.67 1293.84 2050.37 1309.66 2084.96" stroke="#263238" stroke-miterlimit="10" stroke-linecap="round" stroke-linejoin="round"/>
<path d="M1249.99 2022.37C1249.99 2022.37 1251.03 2075.35 1256.23 2087.82" stroke="#263238" stroke-miterlimit="10" stroke-linecap="round" stroke-linejoin="round"/>
<path d="M1341.52 2010.55L1480.48 2067.93L1496.62 2045.51L1341.52 2010.55Z" fill="#263238" stroke="#263238" stroke-miterlimit="10" stroke-linecap="round" stroke-linejoin="round"/>
<path d="M1322.07 1914.37C1322.07 1914.37 1404.06 1904.12 1414.31 1893.87C1424.56 1883.62 1455.31 1855.67 1464.62 1853.81C1473.94 1851.94 1517.73 1862.19 1527.98 1862.19C1538.23 1862.19 1553.14 1843.55 1564.32 1844.49C1575.5 1845.42 1581.1 1859.4 1577.37 1870.58C1573.64 1881.76 1552.21 1893.87 1547.55 1894.8C1542.89 1895.73 1535.44 1898.53 1535.44 1898.53C1535.44 1898.53 1574.57 1905.98 1586.69 1910.64C1598.8 1915.3 1598.8 1926.48 1594.14 1937.66C1589.48 1948.84 1584.82 1955.37 1579.23 1959.09C1573.64 1962.82 1561.53 1978.66 1561.53 1978.66C1561.53 1978.66 1566.19 1994.5 1558.73 2004.75C1551.28 2015 1545.69 2020.59 1541.96 2023.39C1538.23 2026.18 1546.41 2027.74 1538.27 2037.46C1532.58 2044.25 1531.84 2046.97 1504.69 2051.34C1495.97 2052.74 1459.97 2045.75 1434.81 2037.36C1409.66 2028.98 1365.87 2018.73 1365.87 2018.73L1306.24 2004.75L1322.07 1914.37Z" fill="white" stroke="#263238" stroke-miterlimit="10" stroke-linecap="round" stroke-linejoin="round"/>
<path d="M1568.03 1935.6C1568.03 1935.6 1568.93 1956.3 1563.53 1963.5C1558.12 1970.7 1550.03 1975.2 1550.03 1975.2C1550.03 1975.2 1552.73 1986 1548.23 1995.9C1543.72 2005.8 1543.72 2005.8 1543.72 2005.8C1543.72 2005.8 1536.38 2014.62 1539.11 2020.5" stroke="#263238" stroke-miterlimit="10" stroke-linecap="round" stroke-linejoin="round"/>
<path d="M1265.21 1903.45L1323.29 1912.63L1306.48 2004.33L1271.32 1996.69L1265.21 1903.45Z" fill="#263238" stroke="#263238" stroke-miterlimit="10" stroke-linecap="round" stroke-linejoin="round"/>
<path d="M1061.92 1417.4C1061.92 1417.4 985.496 1380.71 936.581 1399.06C887.671 1417.4 884.611 1521.33 883.086 1535.09C881.556 1548.85 828.061 1895.81 821.945 1952.36C815.829 2008.92 1106.24 2036.43 1171.97 2034.9C1237.69 2033.37 1266.73 2013.51 1271.32 1996.69C1275.9 1979.88 1298.83 1909.57 1283.54 1900.39C1268.26 1891.22 994.662 1833.14 994.662 1833.14L979.375 1814.8C979.375 1814.8 1013 1613.04 1019.11 1580.94" fill="#92E3A9"/>
<path d="M1061.92 1417.4C1061.92 1417.4 985.496 1380.71 936.581 1399.06C887.671 1417.4 884.611 1521.33 883.086 1535.09C881.556 1548.85 828.061 1895.81 821.945 1952.36C815.829 2008.92 1106.24 2036.43 1171.97 2034.9C1237.69 2033.37 1266.73 2013.51 1271.32 1996.69C1275.9 1979.88 1298.83 1909.57 1283.54 1900.39C1268.26 1891.22 994.662 1833.14 994.662 1833.14L979.375 1814.8C979.375 1814.8 1013 1613.04 1019.11 1580.94" stroke="#263238" stroke-miterlimit="10" stroke-linecap="round" stroke-linejoin="round"/>
<path d="M902.702 1841.91C898.963 1843.36 895.45 1845.01 892.257 1846.9" stroke="#263238" stroke-miterlimit="10" stroke-linecap="round" stroke-linejoin="round"/>
<path d="M994.667 1833.14C994.667 1833.14 954.111 1829.54 920.06 1836.86" stroke="#263238" stroke-miterlimit="10" stroke-linecap="round" stroke-linejoin="round"/>
<path d="M883.086 1804.11C883.086 1804.11 933.526 1797.99 964.094 1811.75" stroke="#263238" stroke-miterlimit="10" stroke-linecap="round" stroke-linejoin="round"/>
<path d="M1189.72 1436.05C1189.72 1436.05 1252.53 1471.29 1300.02 1460.56C1347.51 1449.84 1342.92 1338 1342.92 1338L1304.62 1311.95L1189.72 1436.05Z" fill="white" stroke="#263238" stroke-miterlimit="10" stroke-linecap="round" stroke-linejoin="round"/>
<path d="M1303.64 1349.38L1253.85 1366.79L1189.72 1436.05C1189.72 1436.05 1206.37 1445.38 1229 1452.97L1303.64 1349.38Z" fill="#263238" stroke="#263238" stroke-miterlimit="10" stroke-linecap="round" stroke-linejoin="round"/>
<path d="M1101.13 956.276C1101.13 956.276 979.577 1064.32 978.352 1152.72C977.122 1241.11 1033.6 1335.65 1033.6 1335.65C1033.6 1335.65 972.212 1438.79 970.982 1454.75C969.752 1470.71 1007.81 1506.31 1011.5 1506.31C1015.18 1506.31 1052.01 1475.62 1052.01 1475.62L1031.14 1521.04L1093.76 1554.19C1093.76 1554.19 1123.16 1442.48 1139.19 1406.86C1139.19 1406.86 1071.66 1281.64 1066.75 1232.52C1061.84 1183.41 1064.29 1137.99 1077.8 1114.66C1091.31 1091.33 1156.38 1058.18 1160.06 1055.73C1163.74 1053.27 1247.22 1122.03 1260.73 1179.73C1274.24 1237.44 1319.93 1339.54 1319.93 1339.54C1319.93 1339.54 1298.79 1451.06 1288.97 1480.53C1279.15 1509.99 1245.99 1543.14 1245.99 1543.14C1245.99 1543.14 1295.11 1561.56 1314.75 1565.24C1334.39 1568.93 1339.3 1568.93 1339.3 1568.93C1339.3 1568.93 1368.77 1519.82 1371.22 1516.14C1373.68 1512.45 1373.68 1565.25 1373.68 1565.25C1373.68 1565.25 1425.25 1561.56 1479.27 1532.1C1533.29 1502.63 1565.21 1465.8 1565.21 1465.8C1565.21 1465.8 1598.36 1451.07 1614.32 1401.96C1630.28 1352.85 1595.91 1302.51 1555.39 1254.63C1514.87 1206.75 1500.14 1192.01 1486.64 1120.81C1473.13 1049.59 1448.58 974.701 1382.28 929.275C1315.98 883.849 1225.13 882.619 1180.93 907.174C1136.73 931.72 1101.13 956.276 1101.13 956.276Z" fill="#263238" stroke="#263238" stroke-miterlimit="10" stroke-linecap="round" stroke-linejoin="round"/>
<path d="M1160.6 1010.15C1160.6 1010.15 1067.15 1082.16 1053.36 1099.01C1039.58 1115.86 1050.3 1152.63 1047.24 1200.12C1044.17 1247.61 1068.68 1298.17 1082.47 1324.21C1096.26 1350.25 1133.03 1431.45 1160.61 1437.58C1188.18 1443.71 1189.71 1436.05 1189.71 1436.05C1189.71 1436.05 1290.83 1388.56 1319.94 1339.53C1319.94 1339.53 1301.55 1232.29 1292.36 1190.93C1283.17 1149.57 1278.57 1138.84 1278.57 1138.84C1278.57 1138.84 1228.01 1071.43 1205.04 1049.99C1182.05 1028.54 1160.6 1010.15 1160.6 1010.15Z" fill="white" stroke="#263238" stroke-miterlimit="10" stroke-linecap="round" stroke-linejoin="round"/>
<path d="M1089.44 1235.05C1089.44 1235.05 1099.6 1222.75 1110.71 1228.85" stroke="#263238" stroke-miterlimit="10" stroke-linecap="round" stroke-linejoin="round"/>
<path d="M1122.7 1240.95C1124.44 1248.72 1121.88 1255.9 1117 1257C1112.12 1258.09 1106.75 1252.67 1105.01 1244.9C1103.28 1237.13 1105.83 1229.95 1110.71 1228.85C1115.6 1227.76 1120.96 1233.18 1122.7 1240.95Z" fill="#263238"/>
<path d="M1223.51 1239.95C1225.25 1247.72 1222.69 1254.91 1217.81 1256C1212.92 1257.09 1207.56 1251.67 1205.82 1243.9C1204.08 1236.13 1206.63 1228.95 1211.52 1227.85C1216.41 1226.76 1221.77 1232.17 1223.51 1239.95Z" fill="#263238"/>
<path d="M1188.45 1229.89C1188.45 1229.89 1200.69 1222.21 1215.77 1229.89" stroke="#263238" stroke-miterlimit="10" stroke-linecap="round" stroke-linejoin="round"/>
<path d="M1160.6 1010.15C1160.6 1010.15 1197.32 1110.53 1278.57 1138.84C1278.57 1138.84 1196.58 1087.7 1183.58 1002.47" fill="#263238"/>
<path d="M1160.6 1010.15C1160.6 1010.15 1197.32 1110.53 1278.57 1138.84C1278.57 1138.84 1196.58 1087.7 1183.58 1002.47" stroke="#263238" stroke-miterlimit="10" stroke-linecap="round" stroke-linejoin="round"/>
<path d="M1161.65 1181.33C1161.65 1181.33 1155.07 1187.85 1167.86 1193.2C1180.64 1198.56 1223.17 1207.94 1232.13 1201.58C1241.08 1195.22 1185.18 1177.46 1161.65 1181.33Z" fill="#263238" stroke="#263238" stroke-miterlimit="10" stroke-linecap="round" stroke-linejoin="round"/>
<path d="M1105.05 1180.91C1105.05 1180.91 1069.12 1196.45 1060.69 1205.08C1052.26 1213.72 1100.06 1203.29 1108.5 1194.65C1116.93 1186.02 1105.05 1180.91 1105.05 1180.91Z" fill="#263238" stroke="#263238" stroke-miterlimit="10" stroke-linecap="round" stroke-linejoin="round"/>
<path d="M1117.68 1206.81C1117.68 1206.81 1130.14 1227.32 1132 1236.61C1133.85 1245.89 1134.78 1260.75 1134.78 1260.75" stroke="#263238" stroke-miterlimit="10" stroke-linecap="round" stroke-linejoin="round"/>
<path d="M1137.57 1317.39C1137.57 1317.39 1135.72 1330.39 1140.36 1335.03C1145 1339.68 1156.14 1347.1 1176.57 1336.89" stroke="#263238" stroke-miterlimit="10" stroke-linecap="round" stroke-linejoin="round"/>
<path d="M1155.22 1371.24C1155.22 1371.24 1161.72 1374.96 1174.71 1371.24" stroke="#263238" stroke-miterlimit="10" stroke-linecap="round" stroke-linejoin="round"/>
<path d="M1157.76 1187.3C1157.76 1187.3 1147.55 1169.66 1157.76 1154.81" stroke="#263238" stroke-miterlimit="10" stroke-linecap="round" stroke-linejoin="round"/>
</svg>
