<svg width="759" height="1045" viewBox="0 0 759 1045" fill="none" xmlns="http://www.w3.org/2000/svg">
<path d="M363.435 899.05V1044.85C179.177 1036.47 32.2788 884.078 32.2788 697.412V668.373H61.4194V697.412H90.5599V668.373H119.551V697.412H148.542V668.373H177.683V697.412C177.683 803.693 259.426 890.817 363.435 899.05ZM697.73 697.562H668.589V668.523H639.598V697.562H610.607V668.523H581.467V697.562C581.467 803.843 499.724 890.964 395.714 899.197V1045C579.972 1036.62 726.721 884.228 726.721 697.562V668.523H697.73V697.562ZM121.344 465.24C78.4555 465.24 42.5903 494.881 32.8767 534.849H209.812C200.099 494.881 164.233 465.24 121.344 465.24ZM726.123 534.849C716.41 494.881 680.544 465.24 637.655 465.24C594.767 465.24 558.901 494.881 549.188 534.849H726.123ZM104.906 561.944C54.0969 561.944 11.5068 597.122 0 644.424H209.812C198.305 597.122 155.715 561.944 104.906 561.944ZM549.188 644.424H759C747.493 597.122 704.903 561.944 654.094 561.944C603.285 561.944 560.695 597.122 549.188 644.424ZM379.575 867.314C285.877 867.314 209.962 791.269 209.962 697.412V438.298L185.753 414.196V389.948H209.962V292.049L234.171 146.399L258.38 292.049V389.948H306.798V291.899L282.589 267.797V243.549H306.798V145.65L331.007 0L355.216 145.65V243.549H403.634V145.65L427.843 0L452.052 145.65V243.549H476.262V267.797L452.052 291.899V389.948H500.471V292.049L524.68 146.399L548.889 292.049V389.948H573.098V414.196L548.889 438.298V699.51C547.694 792.319 472.227 867.164 379.425 867.164M471.629 644.72L425.751 724.357H517.507L471.629 644.72ZM452.202 543.978C470.434 552.66 486.722 564.337 500.62 578.708V438.448L476.411 414.346L452.202 438.448V543.978ZM379.724 644.424H471.48L425.602 564.937L379.724 644.424ZM355.216 390.098H403.634V292.049L379.425 267.947L355.216 292.049V390.098ZM355.216 529.458C363.136 528.261 371.206 527.664 379.425 527.664C387.644 527.664 395.714 528.261 403.634 529.458V438.448L379.425 414.346L355.216 438.448V529.458ZM287.67 644.424H379.425L333.548 564.937L287.67 644.424ZM258.38 578.708C272.278 564.487 288.716 552.66 306.798 543.978V438.448L282.589 414.346L258.38 438.448V578.708ZM333.249 724.357L287.371 644.72L241.493 724.357H333.249ZM379.276 804.144L333.398 724.657L287.52 804.144H379.276ZM425.303 724.357L379.425 644.72L333.548 724.357H425.303ZM471.48 804.144L425.602 724.657L379.724 804.144H471.48Z" fill="#00438C"/>
</svg>
