<svg width="66" height="62" viewBox="0 0 66 62" fill="none" xmlns="http://www.w3.org/2000/svg">
<path d="M63.7633 37.9411H63.3277C62.8743 37.9411 62.505 37.5734 62.505 37.1164V14.1707C62.505 13.8158 62.7317 13.5145 63.045 13.3996C63.1341 13.3664 63.2258 13.346 63.3251 13.346H64.5427C63.5213 12.1409 61.3715 10.3485 56.216 8.54342V9.43449C56.216 9.88896 55.8467 10.2592 55.3933 10.2592H49.3106C48.8572 10.2592 48.4879 9.88896 48.4879 9.43449V6.48553C46.6055 6.06936 44.2468 5.5434 42.2142 5.07361V9.43449C42.2142 9.88896 41.8474 10.2592 41.3915 10.2592H35.5839C35.1305 10.2592 34.7612 9.88896 34.7612 9.43449V2.8038C32.6419 2.06337 29.6898 1.1723 26.7885 0.748467V9.27874C26.7885 9.82003 26.3504 10.2592 25.8104 10.2592H19.8781C19.3381 10.2592 18.9 9.82003 18.9 9.27874V0.549316C11.9818 1.37911 0.766661 5.69659 0.0152463 24.8431C0.0152463 24.8431 -0.705604 35.6611 7.61091 43.9948C7.61091 43.9948 18.4797 56.6612 36.4296 60.7872C36.4296 60.7872 45.7751 63.1796 49.3565 61.2417C49.3565 61.2417 54.7488 59.7659 59.8126 52.2723C59.8126 52.2723 62.4897 47.2961 63.2309 45.5216C63.2309 45.5216 64.7235 41.7684 65.8137 37.9411H63.7633ZM34.0658 33.0057C34.0658 35.7351 31.8574 37.9488 29.1345 37.9488H15.6956C15.2422 37.9488 14.8729 37.5811 14.8729 37.1241V32.4568C14.8729 32.0023 15.2397 31.6321 15.6956 31.6321H25.5175C25.9709 31.6321 26.3402 31.2644 26.3402 30.8074V29.3521C26.3402 28.8976 25.9735 28.5274 25.5175 28.5274H15.6956C15.2422 28.5274 14.8729 28.1572 14.8729 27.7027V23.3137C14.8729 22.8593 15.2397 22.4891 15.6956 22.4891H23.2989C23.7523 22.4891 24.1217 22.1214 24.1217 21.6644V20.5129C24.1217 20.0584 23.7523 19.6882 23.2989 19.6882H15.7007C15.2473 19.6882 14.878 19.3205 14.878 18.8635V14.1681C14.878 13.7137 15.2448 13.3435 15.7007 13.3435H26.6688C29.3918 13.3435 31.6842 15.5571 31.6842 18.2865V21.1818C31.6842 21.9988 31.2818 22.7648 30.6068 23.2244L29.8757 23.7248V23.8882H29.9572C32.2166 23.8882 34.0658 25.7419 34.0658 28.0091V33.0006V33.0057ZM58.6027 42.7207C58.6027 43.1752 58.2334 43.5454 57.78 43.5454H51.1624C50.709 43.5454 50.3397 43.1777 50.3397 42.7207V37.9411H42.12C39.397 37.9411 37.1886 35.7275 37.1886 32.9981V14.1707C37.1886 13.7162 37.558 13.346 38.0114 13.346H44.5882C45.0416 13.346 45.4109 13.7162 45.4109 14.1707V29.661C45.4109 30.1155 45.7777 30.4857 46.2336 30.4857H50.3422V18.2507C50.3422 17.7963 50.709 17.426 51.165 17.426H57.7825C58.2359 17.426 58.6052 17.7963 58.6052 18.2507V42.7207H58.6027Z" fill="white"/>
</svg>
