<svg width="192" height="192" viewBox="0 0 192 192" fill="none" xmlns="http://www.w3.org/2000/svg">
<path d="M129.835 89.9349C127.391 89.9349 127.391 90.7489 126.983 94.2082C125.761 106.011 125.761 117.61 127.187 128.598C127.594 131.651 128.409 134.5 129.631 136.738C131.465 139.791 134.52 140.401 137.168 136.942C139.205 134.296 139.816 130.837 140.223 126.767C140.835 122.29 140.835 119.034 141.242 115.371C141.649 111.302 142.26 111.302 148.982 111.098C155.297 110.895 158.149 110.895 164.463 111.912C167.519 112.523 168.333 112.93 168.537 116.796C168.944 126.36 168.537 136.128 165.074 145.285C163.241 150.576 159.371 156.273 154.89 159.529C148.168 164.21 142.057 166.855 133.502 166.651C131.872 166.651 130.446 166.448 128.817 165.838C117.817 162.582 111.502 153.831 106.206 143.657C100.707 133.686 98.4659 122.29 97.4474 110.895C96.8364 105.197 96.6327 98.6851 96.429 92.9873C96.0216 83.2197 96.6327 73.6555 98.6696 63.0739C100.299 56.3587 100.707 53.3063 102.947 48.219C106.206 40.6898 110.484 35.1955 117.206 31.3292C123.52 27.8698 128.002 26.4453 138.594 26.0383C148.371 26.0383 153.056 28.2768 158.352 33.3641C160.797 35.6025 162.834 38.6549 164.26 42.1142C166.5 47.2015 168.13 52.6958 168.537 58.3936C168.741 62.8704 169.148 77.3184 168.944 83.4232C168.944 90.1384 168.537 90.7489 162.223 90.7489C153.056 90.5454 144.094 90.7489 134.113 90.1384C132.89 89.9349 131.261 89.7314 129.835 89.9349ZM129.428 58.1901C128.613 61.6495 128.205 64.9054 128.002 68.3647C128.002 70.6031 128.613 70.8066 130.039 71.2136C132.687 71.6206 135.335 72.0276 137.983 71.8241C139.205 71.8241 140.631 72.0276 141.853 71.8241C145.723 72.0276 145.52 71.4171 145.316 67.7543C145.316 63.0739 144.908 60.632 144.705 57.1727C144.297 53.5098 142.668 50.4574 140.02 48.0155C138.187 46.3876 136.15 46.998 134.52 48.4225C131.668 51.2714 130.242 54.1203 129.428 58.1901Z" fill="url(#paint0_linear_2035_79)"/>
<path d="M69.0861 109.063C67.2528 110.081 64.6048 111.098 66.438 112.116C73.3637 115.372 78.0486 120.662 80.9004 127.174C84.7706 135.924 84.1595 144.471 78.456 152.611C74.9932 157.291 70.3082 161.564 61.3456 164.617C52.1793 167.466 44.4389 167.059 35.2726 166.855C28.7544 166.245 27.5322 165.838 26.31 161.361C25.0879 156.681 25.2916 154.442 24.8842 150.372C23.8657 138.163 23.662 123.918 23.2546 112.93C22.8472 103.569 23.0509 94.6154 23.0509 83.6268C23.0509 69.9928 23.0509 64.9055 23.8657 54.9344C24.6805 43.5388 25.4953 36.4166 26.31 30.9223C27.1248 26.0385 27.7359 24.8176 33.6431 25.021C39.1428 25.2245 47.087 24.8176 52.383 26.4455C58.2902 28.2769 61.753 29.4979 67.0491 33.1607C73.9747 37.8411 77.6413 43.1319 82.1225 49.8471C85.178 54.5274 88.0297 62.6671 88.6408 68.1614C89.2519 74.6731 89.4556 79.9639 87.826 86.4757C85.9928 93.8014 79.8819 103.569 69.0861 109.063ZM58.9013 136.331C59.7161 132.058 57.6791 127.174 54.42 124.732C52.7904 123.511 51.1609 122.494 48.9202 121.883C48.5128 121.68 47.9017 122.087 47.9017 122.494C47.698 123.715 47.4944 125.139 47.4944 125.546C47.087 131.041 47.4944 138.977 48.3091 142.436C48.9202 144.471 49.5313 144.674 51.1609 144.471C54.8274 143.657 57.4754 141.622 58.9013 136.331ZM59.5124 84.2373C61.9567 78.743 61.753 71.0103 60.9382 66.9404C60.7345 64.702 59.9198 61.2427 58.0865 58.8008C55.8459 55.7484 54.2163 54.3239 51.5683 53.103C50.3461 52.696 49.3276 52.8995 49.3276 54.3239C49.1239 56.3588 48.5128 61.6497 48.5128 64.4985C47.9017 72.0278 47.9017 76.7081 47.2907 84.6443C47.2907 86.2722 47.087 87.9001 47.2907 89.5281C47.4944 90.749 47.9017 90.9525 49.5313 90.9525C53.6052 90.5455 57.6791 88.5106 59.5124 84.2373Z" fill="url(#paint1_linear_2035_79)"/>
<defs>
<linearGradient id="paint0_linear_2035_79" x1="138.126" y1="44.307" x2="375.101" y2="195.033" gradientUnits="userSpaceOnUse">
<stop stop-color="#FF2A78"/>
<stop offset="0.41" stop-color="#FF7643"/>
<stop offset="1" stop-color="#C8B524"/>
</linearGradient>
<linearGradient id="paint1_linear_2035_79" x1="138.126" y1="44.307" x2="375.101" y2="195.033" gradientUnits="userSpaceOnUse">
<stop stop-color="#FF2A78"/>
<stop offset="0.41" stop-color="#FF7643"/>
<stop offset="1" stop-color="#C8B524"/>
</linearGradient>
</defs>
</svg>
