<svg width="122" height="23" viewBox="0 0 122 23" fill="none" xmlns="http://www.w3.org/2000/svg">
<path d="M93.1021 19.762V21.8489H92.724V19.762H91.8369V19.4312H93.9929V19.762H93.1021Z" fill="white"/>
<path d="M89.8598 21.8489H89.5325L88.1001 20.0601V21.8489H87.7256V19.4312H88.0564L89.4853 21.2163V19.4312H89.8598V21.8489Z" fill="white"/>
<path d="M83.8321 21.2599L83.5558 21.8489H83.1377L84.2466 19.4312H84.6429L85.7518 21.8489H85.3373L85.0683 21.2599H83.8321ZM84.4466 19.8602L83.9848 20.9327H84.9192L84.4466 19.8602Z" fill="white"/>
<path d="M81.4327 21.8488H80.9528L80.1493 20.7581H79.7348L79.7312 21.8525H79.3604V19.4347H80.5492C80.7165 19.4347 80.8619 19.4626 80.9855 19.5183C81.1091 19.5741 81.2037 19.6516 81.2691 19.751C81.3346 19.8504 81.3673 19.9643 81.3673 20.0928C81.3673 20.2164 81.3358 20.3279 81.2727 20.4272C81.2097 20.5266 81.1188 20.6054 81.0001 20.6636C80.8837 20.7217 80.7468 20.7533 80.5892 20.7581L81.4327 21.8488ZM79.7348 20.4272H80.5492C80.6874 20.4272 80.794 20.3969 80.8692 20.3364C80.9443 20.2758 80.9819 20.1933 80.9819 20.0891C80.9819 19.9849 80.9443 19.9049 80.8692 19.8492C80.794 19.791 80.6874 19.7619 80.5492 19.7619H79.7348V20.4272Z" fill="white"/>
<path d="M76.0638 21.8925C75.6663 21.8925 75.3839 21.7932 75.2167 21.5944C75.0494 21.3957 74.9658 21.1157 74.9658 20.7546V19.4312H75.3548V20.7546C75.3548 21.043 75.4094 21.249 75.5185 21.3726C75.6275 21.4962 75.8093 21.5581 76.0638 21.5581C76.3135 21.5581 76.4928 21.4962 76.6019 21.3726C76.7134 21.249 76.7691 21.043 76.7691 20.7546V19.4312H77.1582V20.7546C77.1582 21.1109 77.0745 21.3896 76.9073 21.5908C76.7425 21.792 76.4613 21.8925 76.0638 21.8925Z" fill="white"/>
<path d="M71.2354 21.2599L70.9591 21.8489H70.541L71.6499 19.4312H72.0462L73.1551 21.8489H72.7406L72.4716 21.2599H71.2354ZM71.8499 19.8602L71.3881 20.9327H72.3225L71.8499 19.8602Z" fill="white"/>
<path d="M68.2281 19.762V21.8489H67.85V19.762H66.9629V19.4312H69.1189V19.762H68.2281Z" fill="white"/>
<path d="M64.1057 21.8926C63.8973 21.8926 63.69 21.8599 63.484 21.7944C63.2804 21.729 63.1168 21.6551 62.9932 21.5726L63.2077 21.3072C63.3289 21.3897 63.467 21.4527 63.6221 21.4963C63.7797 21.5375 63.9421 21.5581 64.1093 21.5581C64.2984 21.5581 64.4511 21.5254 64.5674 21.4599C64.6862 21.3945 64.7456 21.3012 64.7456 21.18C64.7456 21.1 64.7177 21.037 64.662 20.9909C64.6086 20.9425 64.5408 20.9085 64.4584 20.8891C64.3784 20.8673 64.2729 20.8455 64.1421 20.8237L64.073 20.8128C63.8136 20.7716 63.6112 20.7219 63.4658 20.6637C63.3228 20.6031 63.2222 20.5316 63.164 20.4492C63.1083 20.3668 63.0804 20.2638 63.0804 20.1402C63.0804 19.8735 63.1859 19.6821 63.3967 19.5657C63.6076 19.447 63.8585 19.3876 64.1493 19.3876C64.3117 19.3876 64.4778 19.413 64.6474 19.4639C64.8195 19.5148 64.9783 19.5815 65.1237 19.6639L64.8983 19.922C64.7723 19.8542 64.6474 19.8045 64.5238 19.773C64.4026 19.739 64.2754 19.7221 64.1421 19.7221C63.9239 19.7221 63.7567 19.7572 63.6403 19.8275C63.524 19.8954 63.4658 19.9923 63.4658 20.1184C63.4658 20.1862 63.4864 20.2432 63.5276 20.2892C63.5688 20.3329 63.6379 20.3704 63.7349 20.4019C63.8318 20.431 63.9675 20.4577 64.1421 20.4819C64.3263 20.511 64.4838 20.5437 64.6147 20.5801C64.748 20.6165 64.868 20.6831 64.9746 20.7801C65.0813 20.8746 65.1346 21.0055 65.1346 21.1727C65.1346 21.3157 65.0922 21.4418 65.0074 21.5508C64.925 21.6575 64.8062 21.7411 64.6511 21.8017C64.4959 21.8623 64.3142 21.8926 64.1057 21.8926Z" fill="white"/>
<path d="M61.1047 21.8489H59.2178V19.4312H61.072V19.762H59.5923V20.4637H60.8684V20.7909H59.5923V21.5181H61.1047V21.8489Z" fill="white"/>
<path d="M57.2472 21.8488H56.7673L55.9638 20.7581H55.5493L55.5456 21.8525H55.1748V19.4347H56.3637C56.5309 19.4347 56.6764 19.4626 56.8 19.5183C56.9236 19.5741 57.0181 19.6516 57.0836 19.751C57.149 19.8504 57.1817 19.9643 57.1817 20.0928C57.1817 20.2164 57.1502 20.3279 57.0872 20.4272C57.0242 20.5266 56.9333 20.6054 56.8145 20.6636C56.6982 20.7217 56.5612 20.7533 56.4037 20.7581L57.2472 21.8488ZM55.5493 20.4272H56.3637C56.5018 20.4272 56.6085 20.3969 56.6836 20.3364C56.7588 20.2758 56.7963 20.1933 56.7963 20.0891C56.7963 19.9849 56.7588 19.9049 56.6836 19.8492C56.6085 19.791 56.5018 19.7619 56.3637 19.7619H55.5493V20.4272Z" fill="white"/>
<path d="M49.7971 21.5111L49.6517 21.6601C49.5814 21.7328 49.493 21.7898 49.3863 21.831C49.2821 21.8722 49.1645 21.8928 49.0336 21.8928C48.8858 21.8928 48.7525 21.8661 48.6337 21.8128C48.5149 21.7571 48.4216 21.6795 48.3538 21.5801C48.2859 21.4808 48.252 21.3668 48.252 21.2384C48.252 21.1293 48.2762 21.0287 48.3247 20.9366C48.3731 20.8421 48.4434 20.7609 48.5355 20.693L48.7319 20.5549L48.5755 20.4131C48.5125 20.3573 48.4652 20.2943 48.4337 20.224C48.4047 20.1513 48.3901 20.0774 48.3901 20.0022C48.3901 19.8907 48.4204 19.7914 48.481 19.7041C48.5416 19.6144 48.624 19.5441 48.7282 19.4932C48.8349 19.4423 48.9537 19.4169 49.0845 19.4169C49.2106 19.4169 49.3245 19.4411 49.4263 19.4896C49.5305 19.5381 49.6117 19.6059 49.6699 19.6932C49.7305 19.778 49.7608 19.8762 49.7608 19.9877C49.7608 20.0798 49.7402 20.1658 49.699 20.2458C49.6578 20.3258 49.5996 20.3912 49.5245 20.4421L49.31 20.5948L49.7753 21.0166L50.2334 20.5403L50.4007 20.8857L50.0407 21.2529L50.7061 21.8492H50.1753L49.7971 21.5111ZM49.0882 19.7477C48.9936 19.7477 48.9173 19.7707 48.8591 19.8168C48.8034 19.8629 48.7755 19.9247 48.7755 20.0022C48.7755 20.0822 48.8009 20.144 48.8518 20.1876L49.0409 20.3585L49.2845 20.184C49.3451 20.1404 49.3754 20.0774 49.3754 19.995C49.3754 19.9198 49.3487 19.8604 49.2954 19.8168C49.2445 19.7707 49.1754 19.7477 49.0882 19.7477ZM48.9973 20.7948L48.7755 20.9584C48.6834 21.0239 48.6373 21.1172 48.6373 21.2384C48.6373 21.3353 48.6725 21.4141 48.7428 21.4747C48.8131 21.5329 48.9088 21.562 49.03 21.562C49.1027 21.562 49.1669 21.551 49.2227 21.5292C49.2809 21.5074 49.3293 21.4771 49.3681 21.4383L49.5281 21.2711L48.9973 20.7948Z" fill="white"/>
<path d="M43.8713 21.8489H41.9844V19.4312H43.8386V19.762H42.3589V20.4637H43.635V20.7909H42.3589V21.5181H43.8713V21.8489Z" fill="white"/>
<path d="M38.084 21.8489V19.4312H39.9382V19.762H38.4585V20.4637H39.7346V20.7909H38.4585V21.8489H38.084Z" fill="white"/>
<path d="M34.1895 21.2599L33.9132 21.8489H33.4951L34.604 19.4312H35.0003L36.1092 21.8489H35.6947L35.4257 21.2599H34.1895ZM34.804 19.8602L34.3422 20.9327H35.2766L34.804 19.8602Z" fill="white"/>
<path d="M31.665 21.1073L31.585 21.2709C31.4444 21.4793 31.2784 21.6332 31.0869 21.7326C30.8954 21.8296 30.6676 21.8829 30.4034 21.8926H30.3416C30.0847 21.8902 29.8544 21.8356 29.6508 21.729C29.4472 21.6199 29.2872 21.4708 29.1709 21.2818C29.057 21.0927 29 20.8782 29 20.6383C29 20.3959 29.0594 20.1802 29.1782 19.9911C29.2969 19.7996 29.4605 19.6518 29.669 19.5475C29.8774 19.4409 30.1125 19.3876 30.3743 19.3876C30.6676 19.3876 30.9282 19.4579 31.156 19.5984C31.3838 19.739 31.5523 19.9305 31.6614 20.1729L31.2432 20.1765C31.1608 20.0335 31.0433 19.922 30.8906 19.842C30.7379 19.7621 30.5658 19.7221 30.3743 19.7221C30.1828 19.7221 30.0119 19.7608 29.8617 19.8384C29.7114 19.916 29.5938 20.025 29.509 20.1656C29.4266 20.3038 29.3854 20.4613 29.3854 20.6383C29.3854 20.8079 29.4254 20.9655 29.5054 21.1109H29.509C29.589 21.2442 29.7017 21.3509 29.8471 21.4309C29.9926 21.5084 30.155 21.5508 30.3343 21.5581H30.3961C30.5731 21.5533 30.7391 21.5121 30.8942 21.4345C31.0518 21.3569 31.1681 21.2466 31.2432 21.1036L31.665 21.1073Z" fill="white"/>
<path d="M93.9993 16.5738H89.0026V15.4911C88.6139 15.8937 88.1351 16.2129 87.566 16.4488C87.0108 16.6709 86.4348 16.782 85.838 16.782C84.908 16.782 84.1099 16.5252 83.4437 16.0116C82.7913 15.4842 82.2986 14.8041 81.9655 13.9713C81.6324 13.1385 81.4658 12.271 81.4658 11.3688C81.4658 10.4666 81.6324 9.59915 81.9655 8.76636C82.2986 7.93357 82.7913 7.26039 83.4437 6.74684C84.1099 6.21941 84.908 5.95569 85.838 5.95569C86.4348 5.95569 87.0108 6.07367 87.566 6.30962C88.1351 6.5317 88.6139 6.844 89.0026 7.24651V6.16389H93.9993V16.5738ZM86.6708 11.3688C86.6708 12.7429 86.8234 13.7562 87.1288 14.4085C87.448 15.047 87.8505 15.3662 88.3363 15.3662C88.6001 15.3662 88.8221 15.2552 89.0026 15.0331V7.70455C88.8221 7.48247 88.6001 7.37143 88.3363 7.37143C87.8505 7.37143 87.448 7.69761 87.1288 8.34996C86.8234 8.98843 86.6708 9.99472 86.6708 11.3688Z" fill="white"/>
<path d="M73.3532 9.3702C73.7557 9.66167 74.179 9.80741 74.6232 9.80741C75.0118 9.80741 75.2964 9.66167 75.4768 9.3702C75.6572 9.06484 75.7613 8.68314 75.7891 8.22511C75.8307 7.75319 75.8516 7.06614 75.8516 6.16395H80.8483C80.8483 6.8857 80.7303 7.60746 80.4944 8.32921C80.2584 9.05096 79.8281 9.66861 79.2035 10.1822C78.5928 10.6957 77.76 10.9525 76.7052 10.9525C75.7752 10.9525 74.9216 10.7304 74.1443 10.2863C74.6579 10.7027 75.3519 11.0219 76.2263 11.244C77.1146 11.4661 78.2458 11.5771 79.6199 11.5771H80.8483V16.5738H79.6199C78.232 16.5738 77.0105 15.9839 75.9557 14.8042C74.9008 13.6105 74.0333 12.1392 73.3532 10.3904V16.5738H68.3564V2H73.3532V9.3702Z" fill="white"/>
<path d="M67.7277 12.9719C67.3251 14.1655 66.527 15.1024 65.3334 15.7825C64.1536 16.4488 62.7726 16.7819 61.1902 16.7819C59.9272 16.7819 58.7821 16.5668 57.755 16.1365C56.7279 15.7062 55.9159 15.0816 55.3191 14.2627C54.7222 13.4438 54.4238 12.4791 54.4238 11.3688C54.4238 10.3555 54.6875 9.45334 55.215 8.66219C55.7563 7.87104 56.478 7.26033 57.3802 6.83005C58.2824 6.3859 59.2679 6.16382 60.3366 6.16382H67.1863V10.3278C66.6311 10.3278 66.1315 10.2376 65.6873 10.0571C65.2432 9.87667 64.8545 9.6546 64.5214 9.39088C64.2022 9.12716 63.8274 8.78711 63.3971 8.37071C62.8697 7.84328 62.4117 7.45464 62.023 7.20481C61.6483 6.94109 61.2041 6.80923 60.6906 6.80923H60.3366C60.0313 6.90639 59.7814 7.16317 59.5871 7.57956C59.3928 7.99596 59.2957 8.50257 59.2957 9.0994C59.2957 9.64072 59.372 10.1682 59.5247 10.6817C59.9688 12.2501 60.6212 13.3397 61.4817 13.9504C62.3562 14.5472 63.2098 14.8457 64.0426 14.8457C64.6671 14.8457 65.2709 14.7069 65.8539 14.4293C66.4507 14.1517 67.0059 13.6242 67.5195 12.847L67.7277 12.9719Z" fill="white"/>
<path d="M54.4222 12.972C53.9226 14.1517 53.1106 15.0817 51.9863 15.7618C50.8759 16.4419 49.5712 16.782 48.0722 16.782C46.8508 16.782 45.7404 16.5668 44.741 16.1366C43.7417 15.7063 42.9505 15.0817 42.3676 14.2628C41.7846 13.4439 41.4932 12.4792 41.4932 11.3688C41.4932 10.3695 41.7638 9.48118 42.3051 8.70391C42.8464 7.91276 43.5543 7.28817 44.4288 6.83013C45.3032 6.35822 46.2401 6.07368 47.2394 5.97652C47.5725 5.93488 47.9404 5.91406 48.3429 5.91406C49.2451 5.91406 50.1195 6.0251 50.9662 6.24718C51.8267 6.46926 52.5346 6.83013 53.0898 7.32981C53.645 7.8156 53.9226 8.43325 53.9226 9.18277C53.9226 10.3209 53.2841 11.1051 52.0071 11.5354C50.7441 11.9518 49.2242 12.2086 47.4476 12.3057C47.8918 13.194 48.44 13.8395 49.0924 14.242C49.7447 14.6445 50.3901 14.8457 51.0286 14.8457C51.6254 14.8457 52.1737 14.7139 52.6734 14.4502C53.1731 14.1726 53.6935 13.6382 54.2349 12.847L54.4222 12.972ZM46.8438 10.6818C46.9688 11.1815 47.1145 11.6117 47.2811 11.9726C47.8918 11.8338 48.447 11.5007 48.9466 10.9733C49.4463 10.4458 49.6962 9.78654 49.6962 8.99539C49.6962 8.71779 49.6684 8.46101 49.6129 8.22506C49.5157 7.72538 49.3145 7.32981 49.0091 7.03833C48.7176 6.73297 48.3845 6.58029 48.0097 6.58029C47.8432 6.58029 47.7183 6.59417 47.635 6.62193C47.2741 6.71909 47.0035 6.94811 46.823 7.30899C46.6426 7.65598 46.5524 8.10708 46.5524 8.66227C46.5524 9.2591 46.6495 9.93228 46.8438 10.6818Z" fill="white"/>
<path d="M35.6142 2C36.6968 2 37.6823 2.22208 38.5706 2.66623C39.4728 3.09651 40.1807 3.7211 40.6942 4.54001C41.2217 5.34504 41.4854 6.28193 41.4854 7.35068C41.4854 8.29451 41.2633 9.15506 40.8191 9.93233C40.375 10.6957 39.7573 11.2995 38.9662 11.7436C38.175 12.1878 37.2937 12.4099 36.3221 12.4099C35.0035 12.4099 33.8306 11.9727 32.8035 11.0982C31.7903 10.2238 30.902 9.12036 30.1386 7.78789C30.3884 8.59292 30.7007 9.3702 31.0755 10.1197C31.4641 10.8553 31.9569 11.7228 32.5537 12.7222C33.0672 13.5827 33.442 14.249 33.678 14.7209C33.9139 15.1928 34.0319 15.6022 34.0319 15.9492V16.5738H29.0352V2H35.6142ZM29.6806 5.49772C30.1664 6.76079 30.791 7.88505 31.5543 8.87052C32.3177 9.85599 33.1228 10.3487 33.9694 10.3487C34.6079 10.3487 35.1492 10.0781 35.5934 9.53675C36.0514 8.98156 36.2804 8.19735 36.2804 7.18412C36.2804 5.71286 35.982 4.58859 35.3852 3.81132C34.8022 3.02017 33.9209 2.62459 32.7411 2.62459H29.6597V4.89395L29.6806 5.49772Z" fill="white"/>
<ellipse cx="62.224" cy="16.1864" rx="4.38842" ry="0.964505" transform="rotate(-10.8658 62.224 16.1864)" fill="white"/>
</svg>
