<svg width="244" height="46" viewBox="0 0 244 46" fill="none" xmlns="http://www.w3.org/2000/svg">
<g clip-path="url(#clip0_2011_2682)">
<path d="M89.2068 17.1692H73.7886V21.7057H84.7617C84.2267 28.0668 78.9342 30.7786 73.9396 30.7786C67.5493 30.7786 61.9721 25.7509 61.9721 18.7026C61.9721 11.6542 67.2885 6.54971 73.9541 6.54971C79.0971 6.54971 82.1267 9.82825 82.1267 9.82825L85.3032 6.53911C85.3032 6.53911 81.2263 2 73.7913 2C64.3238 2 57 9.98979 57 18.6205C57 27.2511 63.8894 35.3243 74.0323 35.3243C82.9529 35.3243 89.4835 29.2135 89.4835 20.1763C89.4835 18.2696 89.2068 17.1679 89.2068 17.1679V17.1692Z" fill="#4285F4"/>
<path d="M102.259 13.8841C95.9861 13.8841 91.4907 18.7874 91.4907 24.5063C91.4907 30.2252 95.8511 35.3046 102.331 35.3046C108.199 35.3046 113.005 30.8197 113.005 24.6308C113.005 17.5374 107.413 13.8828 102.257 13.8828L102.259 13.8841ZM102.321 18.0909C105.405 18.0909 108.328 20.5842 108.328 24.603C108.328 28.6217 105.418 31.1005 102.306 31.1005C98.8873 31.1005 96.1914 28.3622 96.1914 24.5712C96.1914 20.7802 98.8542 18.0909 102.321 18.0909Z" fill="#EA4335"/>
<path d="M125.544 13.8841C119.271 13.8841 114.776 18.7874 114.776 24.5063C114.776 30.2252 119.136 35.3046 125.617 35.3046C131.484 35.3046 136.29 30.8197 136.29 24.6308C136.29 17.5374 130.699 13.8828 125.542 13.8828L125.544 13.8841ZM125.606 18.0909C128.69 18.0909 131.613 20.5842 131.613 24.603C131.613 28.6217 128.703 31.1005 125.591 31.1005C122.172 31.1005 119.477 28.3622 119.477 24.5712C119.477 20.7802 122.139 18.0909 125.606 18.0909Z" fill="#FBBC05"/>
<path d="M148.513 13.8945C142.756 13.8945 138.23 18.9368 138.23 24.5961C138.23 31.0433 143.476 35.3176 148.414 35.3176C151.466 35.3176 153.089 34.106 154.288 32.7157V34.8277C154.288 38.5233 152.045 40.7359 148.657 40.7359C145.27 40.7359 143.745 38.3035 143.174 36.9224L139.058 38.6438C140.518 41.7317 143.458 44.952 148.691 44.952C154.415 44.952 158.778 41.3464 158.778 33.7856V14.2746H154.288V16.3534C152.907 14.8651 151.018 13.8959 148.513 13.8959V13.8945ZM148.929 18.0933C151.752 18.0933 154.65 20.5033 154.65 24.62C154.65 28.7367 151.759 31.1095 148.867 31.1095C145.797 31.1095 142.941 28.6175 142.941 24.6597C142.941 20.7019 145.907 18.0933 148.929 18.0933Z" fill="#4285F4"/>
<path d="M178.348 13.8694C172.918 13.8694 168.358 18.19 168.358 24.5657C168.358 31.3121 173.44 35.3136 178.87 35.3136C183.401 35.3136 186.183 32.8349 187.842 30.613L184.14 28.1488C183.179 29.6398 181.573 31.0976 178.893 31.0976C175.882 31.0976 174.497 29.4491 173.64 27.8522L188.001 21.8936L187.256 20.1471C185.868 16.7269 182.632 13.8707 178.35 13.8707L178.348 13.8694ZM178.535 17.9887C180.492 17.9887 181.9 19.0295 182.498 20.2768L172.908 24.285C172.494 21.1812 175.434 17.9887 178.535 17.9887Z" fill="#EA4335"/>
<path d="M166.174 3.1084H161.775V34.6783H166.174V3.1084Z" fill="#34A853"/>
</g>
<defs>
<clipPath id="clip0_2011_2682">
<rect width="131" height="42.9521" fill="white" transform="translate(57 2)"/>
</clipPath>
</defs>
</svg>
