<svg width="244" height="46" viewBox="0 0 244 46" fill="none" xmlns="http://www.w3.org/2000/svg">
<g clip-path="url(#clip0_2011_2691)">
<path d="M76.6678 3H75.3092C75.2481 3.02559 75.1881 3.05454 75.1281 3.08343C75.051 3.12061 74.9739 3.15771 74.8952 3.18737C74.1199 3.45545 73.4509 3.96665 72.9868 4.64558C72.5228 5.32451 72.2883 6.1352 72.3179 6.95811C72.3643 7.71088 72.6361 8.43205 73.0976 9.02701C73.5592 9.62198 74.1891 10.063 74.9046 10.2921C75.6203 10.5213 76.388 10.528 77.1075 10.3113C77.8269 10.0945 78.4643 9.66455 78.9361 9.07769C79.4277 8.49048 79.7176 7.75974 79.7628 6.99396C79.8079 6.22818 79.6059 5.46819 79.1869 4.82682C78.5938 3.93293 77.6993 3.28418 76.6678 3Z" fill="white"/>
<path d="M106.989 3H105.63C105.583 3.01883 105.535 3.03816 105.487 3.05755C105.371 3.10439 105.254 3.15188 105.135 3.19322C104.371 3.45902 103.711 3.96084 103.249 4.62669C102.787 5.29254 102.547 6.08821 102.563 6.89955C102.6 7.68805 102.883 8.44485 103.373 9.06204C103.863 9.67922 104.535 10.1253 105.292 10.3366C106.082 10.5643 106.926 10.519 107.687 10.2079C108.448 9.89684 109.083 9.33797 109.49 8.62099C109.929 7.94699 110.115 7.13884 110.015 6.34015C109.916 5.54148 109.538 4.80404 108.948 4.25887C108.344 3.76694 107.687 3.34467 106.989 3Z" fill="white"/>
<path d="M143.228 13.1003C144.515 14.3363 145.308 16.0023 145.456 17.7844C145.593 18.8662 145.663 19.9554 145.666 21.0457V34.3663H139.438C139.403 34.097 139.403 33.851 139.403 33.6051V22.2695C139.393 21.2681 139.315 20.2684 139.17 19.2775C138.919 17.562 137.98 16.6427 136.529 16.5783C135.805 16.5463 135.096 16.7857 134.539 17.2501C133.981 17.7143 133.616 18.3703 133.514 19.0902C133.253 20.473 133.109 21.8754 133.082 23.2824C133.055 25.6009 133.064 27.922 133.073 30.2439L133.073 30.2501C133.078 31.4093 133.082 32.5687 133.082 33.7281C133.082 33.8271 133.074 33.9248 133.066 34.0257C133.057 34.1337 133.047 34.2454 133.047 34.3663H126.837C126.803 34.1029 126.803 33.8628 126.803 33.6227C126.803 32.4063 126.806 31.1907 126.81 29.9754C126.818 27.5461 126.826 25.1186 126.803 22.6912C126.779 21.5159 126.69 20.343 126.534 19.178C126.477 18.4908 126.171 17.8486 125.673 17.3735C125.175 16.8984 124.521 16.6237 123.835 16.6017C123.135 16.5641 122.446 16.7852 121.898 17.2233C121.35 17.6614 120.981 18.286 120.861 18.9789C120.62 20.157 120.484 21.3542 120.453 22.5564C120.433 25.0156 120.44 27.4748 120.446 29.934C120.449 31.1635 120.453 32.3931 120.453 33.6227V34.3956H114.249V12.345H120.441V14.1542L120.569 14.2655C122.068 12.1986 124.12 11.4667 126.552 11.6131C127.709 11.6568 128.837 11.9898 129.834 12.5817C130.831 13.1737 131.665 14.006 132.26 15.0033C132.336 14.908 132.406 14.8187 132.472 14.7339L132.48 14.7239L132.481 14.7229C132.648 14.5099 132.794 14.3248 132.943 14.1425C133.542 13.395 134.293 12.7844 135.145 12.3512C135.998 11.9181 136.933 11.6724 137.887 11.6306C139.835 11.4901 141.701 11.7185 143.228 13.1003Z" fill="white"/>
<path d="M201.374 5.64648H194.646C194.489 5.67158 194.341 5.7281 194.208 5.81264C194.074 5.89717 193.96 6.00797 193.871 6.13832C192.828 7.69695 191.801 9.26478 190.775 10.8329L190.774 10.8342L190.772 10.8372L190.769 10.8422L190.766 10.846L190.765 10.8493C190.375 11.4434 189.986 12.0381 189.596 12.6317L186.051 18.0419C185.829 17.7434 185.654 17.515 185.468 17.2749C185.174 16.8624 184.88 16.4503 184.585 16.0381C183.809 14.9529 183.033 13.867 182.272 12.7723C182.175 12.6102 182.034 12.4787 181.866 12.3928C181.699 12.3069 181.509 12.27 181.322 12.2863H175.065C174.873 12.2863 174.68 12.2863 174.366 12.3331L174.902 13.0592C177.082 15.9868 179.258 18.8851 181.462 21.7717C181.548 21.8538 181.618 21.9526 181.665 22.0624C181.712 22.1722 181.735 22.2904 181.735 22.4099C181.735 22.5294 181.712 22.6476 181.665 22.7574C181.618 22.8671 181.548 22.9661 181.462 23.0481C176.751 29.481 172.054 35.9217 167.374 42.3703C167.307 42.4668 167.243 42.5669 167.171 42.6812C167.111 42.7749 167.045 42.8782 166.966 42.9968H173.601C173.798 43.0122 173.995 42.9715 174.169 42.8792C174.343 42.787 174.488 42.6471 174.587 42.4756C178.012 37.4011 181.448 32.3442 184.896 27.3049C184.981 27.1779 185.072 27.0534 185.172 26.9161L185.259 26.795C185.289 26.7537 185.32 26.711 185.351 26.6666C185.538 26.9009 185.678 27.0765 185.812 27.2522C186.188 27.7654 186.563 28.2792 186.94 28.7934L186.956 28.8162C188.183 30.4938 189.412 32.1734 190.658 33.8392C190.822 34.0942 191.079 34.2748 191.374 34.3428C192.948 34.3699 194.522 34.3611 196.143 34.3521H196.146C196.974 34.3475 197.815 34.3428 198.675 34.3428C198.552 34.1737 198.459 34.0425 198.379 33.9292C198.315 33.8385 198.26 33.7592 198.202 33.6811C197.703 33.0365 197.205 32.3917 196.707 31.7469C194.425 28.7955 192.142 25.8436 189.841 22.9076C189.759 22.8339 189.693 22.7438 189.648 22.6429C189.602 22.5419 189.58 22.4326 189.58 22.3221C189.58 22.2115 189.602 22.1022 189.648 22.0012C189.693 21.9004 189.759 21.8102 189.841 21.7365C193.681 16.6621 197.511 11.5485 201.328 6.39595C201.439 6.25091 201.542 6.09999 201.662 5.92245C201.713 5.84915 201.766 5.77131 201.823 5.68747C201.751 5.68014 201.689 5.67339 201.636 5.66757C201.521 5.65478 201.447 5.64648 201.374 5.64648Z" fill="white"/>
<path fill-rule="evenodd" clip-rule="evenodd" d="M171.025 33.652C171.025 34.2902 170.843 34.4424 170.226 34.4424C169.117 34.4174 168.022 34.4221 166.925 34.4269C166.485 34.4288 166.043 34.4308 165.601 34.4308C165.489 34.4308 165.376 34.4217 165.257 34.4121C165.123 34.4013 164.981 34.3897 164.82 34.3897V32.522H164.64C161.869 36.1288 155.642 35.7071 152.476 32.7796C147.298 27.949 147.327 18.5808 152.575 13.8146C155.631 11.0275 161.449 10.5767 164.517 14.0371C164.542 14.0624 164.57 14.0842 164.62 14.1219C164.662 14.1541 164.72 14.1983 164.802 14.2655V12.3391H170.995C171.025 12.5791 171.025 12.8015 171.025 13.024V33.652ZM159.382 29.4897C160.53 29.6885 161.71 29.4548 162.697 28.8331C163.506 28.2994 164.177 27.5816 164.657 26.7382C165.137 25.8948 165.414 24.9496 165.461 23.9793C165.461 21.684 164.977 20.2729 163.946 18.9437C163.493 18.3733 162.917 17.914 162.262 17.6008C161.606 17.2877 160.888 17.129 160.162 17.1369C159.436 17.1449 158.721 17.3191 158.072 17.6464C157.423 17.9737 156.857 18.4455 156.418 19.0257C155.445 20.2742 154.922 21.8161 154.933 23.401C154.943 24.9858 155.487 26.5205 156.476 27.7558C157.199 28.6735 158.233 29.2909 159.382 29.4897Z" fill="white"/>
<path d="M66.3646 12.2863V3.29272H60.1022V12.3097H43C43 12.8247 43.004 13.3316 43.0079 13.8331C43.0156 14.8198 43.0232 15.7851 43 16.748C43 17.4213 43.1458 17.638 43.8572 17.638C47.2856 17.6146 50.7141 17.6223 54.1426 17.6301C55.8568 17.6341 57.5715 17.638 59.2859 17.638H60.1139V33.4939C60.1139 34.4306 60.1139 34.4307 61.0818 34.4307H66.3938V17.6204H69.6825C69.8807 17.6204 70.2655 17.3978 70.2655 17.269C70.2989 15.9344 70.2972 14.6037 70.2955 13.2322L70.2954 13.2278C70.2951 12.922 70.2947 12.6142 70.2947 12.3039L66.3646 12.2863Z" fill="white"/>
<path d="M93.7187 11.5208C95.2885 11.5319 96.8367 11.8892 98.2539 12.5674C98.4744 12.6472 98.6608 12.8007 98.7819 13.0022C98.9029 13.2038 98.9512 13.441 98.9186 13.674V18.9437L98.3355 18.487C97.158 17.4234 95.6215 16.8498 94.0381 16.8827C93.0924 16.9179 92.1752 17.2178 91.3901 17.7485C90.6051 18.2793 89.9833 19.0198 89.5949 19.8864C89.0621 20.8668 88.758 21.956 88.7055 23.0717C88.6529 24.1874 88.8534 25.3005 89.2917 26.3271C90.8194 30.0159 95.2859 30.982 98.3413 28.3354L98.9245 27.8144C98.9245 28.4987 98.9292 29.1627 98.9338 29.8132V29.815C98.9427 31.0781 98.9514 32.2905 98.9245 33.4997C98.8953 33.7105 98.5746 33.9798 98.3413 34.0852C93.8107 36.117 87.9972 35.309 84.5802 30.5721C80.7027 25.2028 81.7114 15.8053 89.1693 12.503C90.5958 11.845 92.1488 11.5096 93.7187 11.5208Z" fill="white"/>
<path d="M103.234 34.384H109.386V12.3508H103.234V34.384Z" fill="white"/>
<path d="M72.8955 33.8569V12.6319C72.9041 12.5391 72.9197 12.4471 72.9422 12.3567H79.088V34.3781C78.9396 34.4081 78.7897 34.4296 78.639 34.4425H73.4786C73.0937 34.4425 72.8955 34.337 72.8955 33.8569Z" fill="white"/>
<path fill-rule="evenodd" clip-rule="evenodd" d="M198.419 20.3956C198.566 20.5532 198.678 20.7411 198.745 20.9461C198.82 21.2433 198.775 21.5583 198.623 21.8232C198.468 22.0882 198.218 22.2819 197.923 22.363C198.191 22.9076 198.441 23.4229 198.692 23.9439C198.185 24.1313 197.887 23.9908 197.719 23.5458C197.685 23.4633 197.639 23.381 197.591 23.2966C197.53 23.1891 197.466 23.0784 197.427 22.9603C197.252 22.445 196.944 22.3104 196.36 22.5036V23.9908C196.29 23.9988 196.221 24.0131 196.154 24.0268C195.88 24.0836 195.66 24.1291 195.66 23.657V19.9917C196.405 19.9344 197.152 19.9482 197.893 20.0326C198.093 20.1141 198.272 20.2378 198.419 20.3956ZM196.366 21.7072C196.77 21.7492 197.175 21.7492 197.579 21.7072C197.777 21.6663 198.086 21.3559 198.033 21.2448C198.004 21.1135 197.943 20.9915 197.855 20.8895C197.767 20.7873 197.657 20.7083 197.532 20.6592C197.146 20.6042 196.754 20.5943 196.366 20.6299V21.7072Z" fill="white"/>
<path fill-rule="evenodd" clip-rule="evenodd" d="M197.118 18.2996C196.378 18.2905 195.652 18.5015 195.031 18.9061C194.411 19.3105 193.922 19.8904 193.63 20.5728C193.337 21.255 193.251 22.0091 193.384 22.7402C193.517 23.4711 193.862 24.1463 194.377 24.6807C194.891 25.2149 195.551 25.5845 196.274 25.7427C196.997 25.9009 197.751 25.8408 198.439 25.5698C199.128 25.2989 199.722 24.8292 200.146 24.22C200.57 23.6108 200.805 22.8894 200.821 22.1464C200.842 21.6462 200.764 21.1467 200.587 20.6783C200.411 20.2101 200.14 19.7828 199.794 19.4228C199.447 19.0628 199.032 18.7775 198.571 18.5843C198.111 18.3911 197.617 18.2943 197.118 18.2996ZM197.106 25.2497C196.482 25.2485 195.872 25.0628 195.352 24.7155C194.83 24.3661 194.421 23.8688 194.179 23.2865C193.938 22.7042 193.873 22.063 193.994 21.4439C194.115 20.8249 194.415 20.2557 194.859 19.8084C195.302 19.361 195.867 19.0556 196.482 18.9307C197.099 18.8058 197.738 18.867 198.319 19.1065C198.9 19.3461 199.398 19.7532 199.748 20.2767C200.099 20.7999 200.288 21.4159 200.29 22.0469C200.297 22.4692 200.218 22.8885 200.06 23.28C199.902 23.6714 199.667 24.027 199.37 24.3257C199.072 24.6243 198.719 24.8601 198.328 25.0188C197.939 25.1775 197.521 25.256 197.1 25.2497H197.106Z" fill="white"/>
</g>
<defs>
<clipPath id="clip0_2011_2691">
<rect width="158.824" height="40" fill="white" transform="translate(43 3)"/>
</clipPath>
</defs>
</svg>
