<svg width="244" height="46" viewBox="0 0 244 46" fill="none" xmlns="http://www.w3.org/2000/svg">
<path d="M97.79 6.32324H104.64L116.395 27.5747L128.149 6.32324H134.844V41.1975H129.239V14.4969L118.964 32.946H113.67L103.395 14.4969V41.1975H97.79V6.32324Z" fill="white"/>
<path d="M157.186 21.1139C156.018 19.9462 154.461 19.3235 152.515 19.3235C150.647 19.3235 149.09 19.9462 147.844 21.1918C146.599 22.4373 145.82 24.072 145.431 26.1738H159.132C158.976 23.9942 158.353 22.3594 157.186 21.1139ZM153.06 41.8205C150.413 41.8205 148.156 41.2756 146.209 40.1079C144.263 38.9403 142.706 37.3834 141.617 35.2816C140.527 33.2576 139.982 30.9223 139.982 28.2756C139.982 25.6289 140.527 23.2157 141.617 21.1918C142.706 19.1678 144.186 17.5331 146.132 16.3654C148.078 15.1977 150.257 14.6528 152.748 14.6528C155.239 14.6528 157.341 15.2756 159.132 16.4433C160.922 17.6109 162.323 19.2457 163.257 21.3474C164.192 23.4492 164.736 25.9403 164.736 28.7427V30.2995H145.587C145.898 32.4013 146.832 34.1139 148.156 35.3594C149.557 36.6049 151.269 37.2277 153.371 37.2277C155.084 37.2277 156.485 36.9942 157.73 36.4492C158.976 35.9822 160.066 35.2037 161.156 34.1918L164.114 37.8504C161 40.4971 157.341 41.8205 153.06 41.8205Z" fill="white"/>
<path d="M171.431 19.7904H166.216V15.1976H171.431V7.56885H176.88V15.1976H184.743V19.7904H176.88V31.4671C176.88 33.4132 177.192 34.8144 177.892 35.5928C178.593 36.4491 179.683 36.8383 181.318 36.8383C182.018 36.8383 182.641 36.8383 183.108 36.7605C183.575 36.6826 184.12 36.6048 184.743 36.5269V41.1197C184.042 41.3533 183.342 41.4311 182.641 41.5868C181.863 41.7425 181.006 41.7425 180.228 41.7425C174.389 41.7425 171.431 38.5509 171.431 32.0898V19.7904Z" fill="white"/>
<path d="M207.629 24.3055C207.084 22.8264 206.15 21.6587 204.905 20.8025C203.659 19.9462 202.18 19.557 200.545 19.4791C198.21 19.4791 196.342 20.2576 195.018 21.8144C193.617 23.3713 192.917 25.4731 192.917 28.1198C192.917 30.7665 193.617 32.9462 194.94 34.5031C196.264 36.0599 198.054 36.8384 200.312 36.8384C202.024 36.8384 203.503 36.3713 204.827 35.515C206.15 34.6587 207.084 33.4911 207.629 32.012V24.3055ZM213 41.1977H207.629V37.539C206.695 38.8623 205.449 39.9522 204.048 40.6528C202.569 41.3534 200.934 41.7426 199.066 41.7426C196.809 41.7426 194.707 41.1198 192.994 39.9522C191.204 38.7845 189.803 37.1498 188.791 35.1258C187.779 33.1019 187.234 30.7665 187.234 28.1198C187.234 25.4731 187.779 23.1378 188.791 21.036C189.803 19.012 191.282 17.3773 193.072 16.2096C194.863 15.042 196.964 14.4971 199.378 14.4971C201.168 14.4971 202.725 14.8084 204.126 15.509C205.527 16.2096 206.695 17.2216 207.629 18.4671V15.1198H213V41.1977Z" fill="white"/>
<path d="M86.1916 26.8743C86.1916 28.1976 86.1916 29.5988 86.1916 30.9222C86.1916 31 86.1916 31 86.1916 31.0778C86.1916 31.3892 86.1916 31.6228 86.1138 31.9341C86.0359 32.7126 85.8802 33.491 85.7246 34.1916C85.4132 35.3593 85.024 36.4491 84.479 37.4611C84.012 38.3174 83.3892 39.0958 82.6886 39.7186C82.2994 40.1078 81.8323 40.4192 81.3653 40.7305C80.4311 41.2754 79.4192 41.6647 78.3293 41.8204C78.1737 41.8204 78.0958 41.8204 77.9401 41.8982C77.1617 41.8982 76.3054 41.8982 75.527 41.8982C75.4491 41.8982 75.4491 41.8982 75.3713 41.8982C75.0599 41.8204 74.6707 41.8204 74.3593 41.7425C73.5808 41.5868 72.8802 41.3533 72.2575 40.9641C71.4012 40.497 70.7006 39.9521 70 39.3293C69.4551 38.7844 68.9102 38.2395 68.3653 37.6168C67.5868 36.6826 66.8862 35.6707 66.1856 34.7365C65.1737 33.1796 64.1617 31.6228 63.2275 29.988C62.1377 28.1198 61.0479 26.2515 59.9581 24.4611C59.6467 23.9162 59.2575 23.3713 58.9461 22.8263C58.9461 22.8263 58.9461 22.7485 58.8683 22.7485C58.7904 22.6707 58.7904 22.6707 58.7126 22.7485C58.7126 22.7485 58.7126 22.8263 58.6347 22.8263C58.5569 22.982 58.4012 23.2156 58.3234 23.3713C57.8563 24.1497 57.3892 25.006 56.9222 25.7844C56.1437 27.1078 55.4431 28.4311 54.6647 29.6766C53.9641 30.9222 53.2635 32.0898 52.485 33.2575C51.7844 34.4251 51.006 35.515 50.1497 36.6048C49.4491 37.4611 48.7485 38.3174 47.9701 39.018C47.4252 39.5629 46.8024 40.0299 46.1796 40.4192C45.0898 41.1198 43.9222 41.5868 42.6766 41.7425C42.5988 41.7425 42.4431 41.7425 42.3653 41.8204C41.509 41.8204 40.7305 41.8204 39.8743 41.8204C39.7964 41.8204 39.7964 41.8204 39.7186 41.8204C39.2515 41.7425 38.7066 41.6647 38.2395 41.509C36.3713 40.9641 34.8922 39.9521 33.7246 38.4731C33.1018 37.6946 32.5569 36.7605 32.1677 35.8263C31.7006 34.6587 31.3892 33.4132 31.2335 32.1677C31.1557 31.7006 31.0778 31.2335 31.0778 30.6886C31.0778 30.2216 31 29.7545 31 29.3653C31 28.976 31 28.509 31 28.1198C31 27.8084 31 27.497 31 27.2635C31 26.7964 31.0778 26.3293 31.0778 25.8623C31.1557 25.2395 31.2335 24.6168 31.3114 23.994C31.5449 22.6707 31.7784 21.3473 32.1677 20.1018C32.6347 18.4671 33.1796 16.8323 33.9581 15.3533C34.5808 14.0299 35.2814 12.7844 36.0599 11.6168C36.8383 10.5269 37.6168 9.59281 38.5509 8.65868C39.2515 8.03593 39.9521 7.41317 40.7305 6.94611C41.6647 6.32335 42.6766 5.85629 43.7665 5.54491C44.6228 5.31137 45.5569 5.07784 46.491 5.07784C46.5689 5.07784 46.6467 5.07784 46.7246 5.07784C46.8802 5.07784 46.9581 5.07784 47.1138 5.07784C47.1916 5.07784 47.2695 5.07784 47.3473 5.07784C47.8144 5.07784 48.2814 5.15569 48.6707 5.23353C50.1497 5.46706 51.5509 5.93413 52.7964 6.71257C53.9641 7.41317 54.976 8.19161 55.988 9.12575C56.6108 9.67066 57.1557 10.2934 57.7006 10.8383C58.2455 11.4611 58.7126 12.006 59.1796 12.6287C59.3353 12.7844 59.3353 12.7844 59.4132 12.6287C59.6467 12.3174 59.9581 11.9281 60.1916 11.6168C60.7365 10.9162 61.2814 10.2934 61.9042 9.59281C62.4491 9.0479 62.994 8.50299 63.5389 7.95808C64.1617 7.41317 64.8623 6.86826 65.6407 6.40119C66.4192 5.93413 67.2755 5.54491 68.1317 5.31137C68.7545 5.15568 69.2994 5 69.9222 5C70.3892 5 70.8563 5 71.4012 5C71.7904 5 72.1796 5.07784 72.6467 5.15569C73.8922 5.38922 75.0599 5.93413 76.2275 6.55689C77.2395 7.17964 78.1737 7.95808 79.0299 8.73652C79.2635 8.97006 79.5749 9.28143 79.8084 9.59281C80.3533 10.2156 80.8204 10.8383 81.2874 11.5389C82.2216 12.9401 83 14.3413 83.6228 15.8982C84.012 16.7545 84.3234 17.6108 84.5569 18.5449C84.8683 19.479 85.1018 20.491 85.3353 21.4251C85.491 22.2036 85.6467 22.9042 85.7246 23.6826C85.8024 24.2275 85.8802 24.6946 85.8802 25.2395C85.9581 25.6287 85.9581 26.018 85.9581 26.4072C86.1916 26.7186 86.1916 26.7964 86.1916 26.8743ZM80.9761 28.8982C80.9761 28.7425 80.9761 28.6647 80.9761 28.5868C80.9761 28.0419 80.976 27.497 80.8982 26.9521C80.8982 26.485 80.8204 26.018 80.7425 25.5509C80.6647 24.8503 80.5868 24.0719 80.4311 23.3713C80.1198 21.5808 79.6527 19.7904 78.9521 18.1557C78.485 16.988 77.9401 15.8204 77.2395 14.7305C76.6946 13.7964 75.994 13.018 75.2156 12.2395C74.6707 11.6946 74.1258 11.2275 73.4252 10.9162C72.4132 10.2934 71.2455 9.98203 70.0779 9.98203C69.7665 9.98203 69.4551 10.0599 69.1437 10.0599C68.521 10.2156 67.8982 10.4491 67.3533 10.7605C66.7305 11.1497 66.1856 11.5389 65.7186 12.006C65.018 12.7066 64.3174 13.485 63.6946 14.2635C63.1497 14.9641 62.6826 15.6647 62.2156 16.4431C62.0599 16.6766 62.0599 16.5988 62.2156 16.8323C63.2275 18.3892 64.2395 19.9461 65.1737 21.503C66.1078 23.0599 66.9641 24.5389 67.8982 26.0958C68.3653 26.8743 68.8323 27.6527 69.3773 28.4311C70.1557 29.5988 70.8563 30.7665 71.7126 31.9341C72.2575 32.7126 72.8802 33.491 73.503 34.2695C73.8144 34.6587 74.2036 34.9701 74.6707 35.2814C75.1377 35.5928 75.6048 35.7485 76.0719 35.8263C76.5389 35.9042 76.9281 35.9042 77.3952 35.8263C78.3293 35.7485 79.1078 35.2814 79.6527 34.5808C79.9641 34.1138 80.1976 33.6467 80.4311 33.1018C80.7425 32.1677 80.8982 31.2335 80.8982 30.2994C80.8982 30.1437 80.8982 30.0659 80.8982 29.9102C80.976 29.6766 80.9761 29.2874 80.9761 28.8982ZM36.994 29.2096C36.994 29.4431 36.994 29.6766 36.994 29.9102C36.994 30.4551 37.0719 31 37.1497 31.5449C37.2275 32.1677 37.3832 32.7904 37.6946 33.4132C37.9281 33.9581 38.2395 34.503 38.7066 34.9701C39.018 35.2814 39.4072 35.515 39.7964 35.6707C40.2635 35.8263 40.6527 35.9042 41.1198 35.982C41.3533 35.982 41.5868 35.982 41.8204 35.982C42.3653 35.9042 42.8323 35.7485 43.2994 35.515C43.8443 35.2036 44.2335 34.8922 44.7006 34.503C45.1677 34.1138 45.5569 33.6467 45.8683 33.1796C46.6467 32.2455 47.2695 31.3114 47.9701 30.3772C48.8264 29.1317 49.6826 27.8084 50.4611 26.5629C51.006 25.7066 51.6287 24.7725 52.1737 23.9162C52.7964 22.9042 53.497 21.8922 54.1198 20.8802C54.5868 20.1018 55.1317 19.3234 55.5988 18.6228C55.7545 18.3892 55.7545 18.3892 55.5988 18.2335C54.8982 17.2216 54.1198 16.2096 53.3413 15.3533C52.7186 14.6527 52.0958 14.0299 51.4731 13.4072C51.006 13.018 50.5389 12.6287 49.994 12.3174C49.4491 12.006 48.8263 11.7725 48.1257 11.6168C47.6587 11.5389 47.1916 11.4611 46.7246 11.4611C46.3353 11.4611 45.9461 11.5389 45.5569 11.6168C44.8563 11.8503 44.2335 12.1617 43.6108 12.5509C43.0659 12.9401 42.5988 13.3293 42.2096 13.7964C41.8204 14.1856 41.509 14.6527 41.1198 15.1198C40.4192 16.0539 39.8743 17.0659 39.4072 18.1557C38.7844 19.5569 38.3174 20.9581 37.9281 22.3593C37.6946 23.3713 37.4611 24.4611 37.3054 25.4731C37.2275 25.9401 37.1497 26.485 37.1497 26.9521C37.1497 27.3413 37.0719 27.7305 37.0719 28.1976C36.994 28.4311 36.994 28.8204 36.994 29.2096Z" fill="url(#paint0_linear_2011_2705)"/>
<defs>
<linearGradient id="paint0_linear_2011_2705" x1="48.2867" y1="35.0553" x2="74.5363" y2="11.9555" gradientUnits="userSpaceOnUse">
<stop stop-color="#0082FB"/>
<stop offset="0.1846" stop-color="#007CF5"/>
<stop offset="0.4402" stop-color="#006AE5"/>
<stop offset="0.5056" stop-color="#0064E0"/>
<stop offset="0.703" stop-color="#006EE9"/>
<stop offset="0.9525" stop-color="#0082FB"/>
</linearGradient>
</defs>
</svg>
