<svg width="512" height="512" viewBox="0 0 512 512" fill="none" xmlns="http://www.w3.org/2000/svg">
<path d="M335.916 241.563C330.107 241.563 330.107 243.501 329.138 251.735C326.234 279.829 326.234 307.438 329.622 333.593C330.591 340.859 332.527 347.64 335.432 352.968C339.789 360.234 347.051 361.687 353.345 353.453C358.186 347.156 359.638 338.922 360.606 329.234C362.059 318.578 362.059 310.828 363.027 302.11C363.995 292.422 365.448 292.422 381.424 291.938C396.432 291.453 403.209 291.453 418.217 293.875C425.479 295.328 427.416 296.297 427.9 305.5C428.868 328.265 427.9 351.515 419.67 373.312C415.313 385.905 406.114 399.468 395.463 407.218C379.487 418.358 364.964 424.655 344.63 424.17C340.757 424.17 337.368 423.686 333.495 422.233C307.353 414.483 292.345 393.655 279.758 369.437C266.686 345.703 261.361 318.578 258.94 291.453C257.488 277.891 257.004 262.391 256.52 248.829C255.551 225.579 257.004 202.814 261.845 177.627C265.718 161.643 266.686 154.377 272.012 142.268C279.758 124.346 289.924 111.268 305.9 102.065C320.908 93.8309 331.559 90.4403 356.733 89.4716C379.971 89.4716 391.106 94.7996 403.694 106.909C409.503 112.237 414.344 119.502 417.733 127.737C423.059 139.846 426.932 152.924 427.9 166.486C428.384 177.142 429.352 211.533 428.868 226.064C428.868 242.048 427.9 243.501 412.892 243.501C391.106 243.017 369.805 243.501 346.083 242.048C343.178 241.563 339.305 241.079 335.916 241.563ZM334.948 166.002C333.011 174.236 332.043 181.986 331.559 190.22C331.559 195.548 333.011 196.033 336.4 197.001C342.694 197.97 348.987 198.939 355.281 198.455C358.186 198.455 361.575 198.939 364.479 198.455C373.678 198.939 373.194 197.486 372.71 188.767C372.71 177.627 371.741 171.814 371.257 163.58C370.289 154.861 366.416 147.596 360.122 141.783C355.765 137.908 350.924 139.362 347.051 142.752C340.273 149.533 336.884 156.314 334.948 166.002Z" fill="url(#paint0_linear_2035_81)"/>
<path d="M191.533 287.094C187.176 289.516 180.883 291.938 185.24 294.36C201.7 302.11 212.835 314.703 219.613 330.203C228.811 351.031 227.359 371.375 213.803 390.749C205.573 401.89 194.438 412.062 173.137 419.327C151.351 426.108 132.954 425.14 111.169 424.655C95.6765 423.202 92.7718 422.233 89.867 411.577C86.9623 400.437 87.4464 395.109 86.4782 385.421C84.0575 356.359 83.5734 322.453 82.6052 296.297C81.6369 274.016 82.121 252.704 82.121 226.548C82.121 194.096 82.121 181.986 84.0575 158.252C85.994 131.128 87.9305 114.175 89.867 101.097C91.8035 89.4719 93.2559 86.5657 107.296 87.0501C120.367 87.5345 139.248 86.5657 151.835 90.4407C165.875 94.8 174.105 97.7062 186.692 106.425C203.152 117.565 211.867 130.159 222.517 146.143C229.779 157.284 236.557 176.658 238.009 189.736C239.462 205.236 239.946 217.83 236.073 233.329C231.716 250.767 217.192 274.016 191.533 287.094ZM167.327 352C169.264 341.828 164.422 330.203 156.676 324.391C152.803 321.485 148.93 319.063 143.605 317.61C142.637 317.125 141.184 318.094 141.184 319.063C140.7 321.969 140.216 325.36 140.216 326.328C139.248 339.406 140.216 358.297 142.153 366.531C143.605 371.375 145.057 371.859 148.93 371.375C157.645 369.437 163.938 364.593 167.327 352ZM168.779 228.001C174.589 214.923 174.105 196.517 172.168 186.83C171.684 181.502 169.748 173.268 165.391 167.455C160.065 160.19 156.192 156.799 149.899 153.893C146.994 152.924 144.573 153.409 144.573 156.799C144.089 161.643 142.637 174.236 142.637 181.018C141.184 198.939 141.184 210.08 139.732 228.97C139.732 232.845 139.248 236.72 139.732 240.595C140.216 243.501 141.184 243.986 145.057 243.986C154.74 243.017 164.422 238.173 168.779 228.001Z" fill="url(#paint1_linear_2035_81)"/>
<defs>
<linearGradient id="paint0_linear_2035_81" x1="355.622" y1="132.956" x2="919.329" y2="490.96" gradientUnits="userSpaceOnUse">
<stop stop-color="#FF2A78"/>
<stop offset="0.41" stop-color="#FF7643"/>
<stop offset="1" stop-color="#C8B524"/>
</linearGradient>
<linearGradient id="paint1_linear_2035_81" x1="355.622" y1="132.956" x2="919.329" y2="490.96" gradientUnits="userSpaceOnUse">
<stop stop-color="#FF2A78"/>
<stop offset="0.41" stop-color="#FF7643"/>
<stop offset="1" stop-color="#C8B524"/>
</linearGradient>
</defs>
</svg>
