<svg width="515" height="515" viewBox="0 0 515 515" fill="none" xmlns="http://www.w3.org/2000/svg">
<path d="M136.754 340.615L136.125 347.333C134.822 346.794 133.541 346.389 132.305 346.075C131.699 345.94 131.092 345.827 130.508 345.76C129.924 345.67 129.34 345.648 128.756 345.648C127.003 345.648 125.633 345.94 124.644 346.502C123.656 347.063 123.184 347.827 123.184 348.793C123.184 349.467 123.431 350.052 123.925 350.569C124.42 351.085 125.183 351.512 126.217 351.872L127.655 352.321C131.384 353.512 133.855 354.568 135.069 355.512C136.192 356.366 137.023 357.377 137.562 358.545C138.102 359.691 138.371 361.039 138.371 362.545C138.371 366.117 137.181 368.836 134.799 370.746C132.418 372.656 128.958 373.6 124.464 373.6C122.847 373.6 121.229 373.487 119.589 373.263C117.927 373.038 116.309 372.701 114.669 372.229L115.41 364.971C116.938 365.668 118.399 366.207 119.836 366.567C120.533 366.724 121.207 366.859 121.926 366.949C122.622 367.039 123.296 367.084 123.948 367.084C125.655 367.084 126.981 366.769 127.969 366.117C128.98 365.466 129.475 364.612 129.475 363.488C129.475 362.14 127.879 360.904 124.712 359.803L122.937 359.197C119.859 358.096 117.657 356.793 116.332 355.332C115.006 353.849 114.332 351.962 114.332 349.647C114.332 346.412 115.5 343.895 117.837 342.12C120.173 340.345 123.521 339.469 127.879 339.469C129.52 339.469 131.07 339.558 132.508 339.761C133.249 339.851 133.968 339.963 134.664 340.098C135.361 340.233 136.057 340.412 136.776 340.637M158.928 346.816H166.994V372.836H175.666V346.816H183.731V340.3H158.928V346.816ZM221.812 359.759H213.522L217.723 347.558L221.812 359.759ZM200.334 372.836H208.916L211.343 365.938H223.856L226.17 372.836H235.449L223.115 340.277H212.668L200.334 372.836ZM255.579 372.836H263.42V355.647C263.42 355.085 263.42 354.388 263.353 353.579C263.308 352.771 263.263 352.029 263.195 351.355C263.083 350.209 262.993 349.265 262.903 348.569C262.813 347.85 262.679 346.996 262.544 346.007C262.926 347.4 263.285 348.614 263.6 349.58C264.004 350.726 264.431 351.737 264.858 352.613L274.653 372.836H285.437V340.277H277.596V358.725C277.596 359.759 277.664 360.972 277.798 362.342C277.933 363.713 278.135 365.219 278.405 366.836C278.135 366.05 277.888 365.264 277.619 364.477C277.282 363.421 277.057 362.769 276.99 362.545C276.54 361.309 276.158 360.365 275.866 359.803L266.43 340.3H255.602V372.858L255.579 372.836ZM322.17 359.197C323.832 359.197 325.09 359.511 325.922 360.14C326.775 360.77 327.18 361.713 327.18 362.949C327.18 364.185 326.73 365.196 325.809 365.848C324.888 366.499 323.54 366.836 321.788 366.836H318.373V359.197H322.17ZM321.428 346.165C323.091 346.165 324.349 346.457 325.203 347.041C326.057 347.625 326.483 348.501 326.483 349.67C326.483 350.928 326.034 351.894 325.113 352.501C324.214 353.108 322.821 353.422 321.002 353.422H318.373V346.165H321.428ZM309.881 372.836H322.529C327.09 372.836 330.46 372.094 332.617 370.634C334.796 369.173 335.897 366.904 335.897 363.848C335.897 361.781 335.29 360.073 334.077 358.747C332.886 357.399 331.179 356.523 328.955 356.118C330.932 355.557 332.46 354.68 333.471 353.445C334.504 352.209 335.043 350.636 335.043 348.748C335.043 345.962 334.055 343.85 332.055 342.435C330.056 341.019 327.112 340.322 323.181 340.322H309.858V372.881L309.881 372.836ZM359.15 359.242C359.15 364.005 360.318 367.578 362.655 369.982C364.991 372.386 368.451 373.577 373.012 373.577C377.572 373.577 381.145 372.386 383.459 370.005C385.75 367.623 386.918 364.028 386.918 359.219V340.277H378.673V359.219C378.673 361.803 378.179 363.758 377.235 365.084C376.292 366.409 374.876 367.084 373.034 367.084C371.192 367.084 369.889 366.454 369.08 365.196C368.249 363.938 367.844 361.938 367.844 359.197V340.255H359.172V359.197L359.15 359.242ZM411.339 372.836H433.087V366.409H420.011V340.277H411.317V372.836H411.339ZM81.9354 337.401H90.6075V333.065H81.9354V337.401ZM81.9354 372.836H90.6075V340.277H81.9354V372.836ZM40.5521 430.897C42.5741 433.144 43.5626 435.997 43.5626 439.435C43.5626 444.558 41.7428 448.333 38.0808 450.805C34.4187 453.276 28.8021 454.512 21.1859 454.512H0V400.046H22.3092C28.8695 400.046 33.8121 401.237 37.1596 403.596C40.4847 405.956 42.1696 409.483 42.1696 414.157C42.1696 417.325 41.2935 419.954 39.5636 422.021C37.8336 424.089 35.2949 425.594 31.9699 426.515C35.6769 427.189 38.5301 428.672 40.5521 430.919M14.2438 421.999H18.6472C21.7252 421.999 24.0167 421.482 25.522 420.426C27.0497 419.392 27.8136 417.82 27.8136 415.685C27.8136 413.73 27.0946 412.27 25.6568 411.303C24.2189 410.315 22.1296 409.82 19.3437 409.82H14.2438V421.999ZM28.9818 437.93C28.9818 435.863 28.2853 434.29 26.8699 433.234C25.4545 432.178 23.3652 431.638 20.5793 431.638H14.2213V444.423H19.9278C22.8484 444.423 25.0951 443.862 26.6453 442.761C28.1955 441.66 28.9594 440.042 28.9594 437.907M133.294 423.033L122.398 400.024H105.93L125.476 434.245V454.49H139.989V434.087L159.759 400.001H144.123L133.271 423.01L133.294 423.033ZM198.267 431.728C198.267 436.042 197.481 439.323 195.863 441.57C194.245 443.817 191.931 444.918 188.831 444.918C185.731 444.918 183.574 443.862 182.203 441.772C180.833 439.682 180.137 436.334 180.137 431.728V400.024H165.601V431.728C165.601 439.705 167.555 445.704 171.464 449.726C175.374 453.748 181.148 455.771 188.809 455.771C196.47 455.771 202.423 453.771 206.288 449.794C210.129 445.817 212.061 439.795 212.061 431.751V400.046H198.267V431.751V431.728ZM205.074 387.913H191.28V395.17H205.074V387.913ZM186.405 387.913H172.61V395.17H186.405V387.913ZM74.4316 387.913H60.6371V395.17H74.4316V387.913ZM86.2939 431.728C86.2939 436.042 85.4851 439.323 83.89 441.57C82.2948 443.817 79.9583 444.918 76.8579 444.918C73.7576 444.918 71.6008 443.862 70.2304 441.772C68.8599 439.682 68.1634 436.334 68.1634 431.728V400.024H53.6276V431.728C53.6276 439.705 55.5822 445.704 59.4914 449.726C63.4005 453.748 69.1744 455.771 76.8355 455.771C84.4966 455.771 90.4502 453.771 94.3145 449.794C98.1787 445.817 100.088 439.795 100.088 431.751V400.046H86.2939V431.751V431.728ZM93.1012 387.913H79.3068V395.17H93.1012V387.913ZM273.17 400.024H256.927L240.077 423.572V400.024H225.564V454.49H240.077V429.212L257.197 454.49H275.26L253.175 425.055L273.193 400.024H273.17ZM345.063 431.571H367.058V421.212H345.063V410.225H368.361V400.024H330.55V454.49H369.237V443.974H345.063V431.571ZM413.137 420.831H396.175V400.024H381.661V454.49H396.175V431.728H413.137V454.49H427.65V400.024H413.137V420.831ZM441.242 395.193H455.778V387.935H441.242V395.193ZM441.242 454.49H455.778V400.024H441.242V454.49ZM515 454.49H499.858L495.072 439.592C494.308 437.211 493.252 435.57 491.949 434.627C490.624 433.706 488.557 433.234 485.726 433.234H483.614V454.512H469.415V400.046H491.073C498.285 400.046 503.654 401.215 507.114 403.529C510.597 405.866 512.326 409.416 512.326 414.224C512.326 417.73 511.405 420.606 509.585 422.875C507.766 425.145 505.092 426.673 501.587 427.504C504.418 428.56 506.71 431.526 508.485 436.424L514.977 454.512L515 454.49ZM498.128 416.741C498.128 414.292 497.251 412.494 495.499 411.326C493.747 410.18 490.983 409.596 487.209 409.596H483.592V423.572H488.692C491.859 423.572 494.218 423.01 495.769 421.864C497.341 420.741 498.105 419.01 498.105 416.741M314.621 425.482C312.577 423.909 308.443 422.156 302.22 420.134L299.816 419.37C298.108 418.786 296.828 418.067 295.996 417.19C295.165 416.337 294.761 415.348 294.761 414.224C294.761 412.607 295.57 411.348 297.232 410.382C298.895 409.438 301.164 408.967 304.107 408.967C305.073 408.967 306.061 409.034 307.027 409.169C308.016 409.304 309.027 409.483 310.038 409.708C312.105 410.225 314.239 410.921 316.441 411.82L317.497 400.586C316.306 400.226 315.115 399.934 313.97 399.709C312.801 399.484 311.588 399.282 310.352 399.147C307.948 398.81 305.365 398.653 302.602 398.653C295.322 398.653 289.728 400.136 285.819 403.102C281.91 406.068 279.933 410.27 279.933 415.685C279.933 419.55 281.056 422.718 283.28 425.19C285.527 427.661 289.211 429.818 294.356 431.661L297.322 432.694C302.624 434.559 305.297 436.627 305.297 438.873C305.297 440.716 304.466 442.176 302.781 443.255C301.096 444.334 298.85 444.873 296.019 444.873C294.963 444.873 293.817 444.783 292.649 444.648C291.481 444.491 290.312 444.266 289.167 443.997C286.763 443.412 284.291 442.536 281.753 441.345L280.539 453.479C283.258 454.243 286.021 454.827 288.762 455.209C290.312 455.434 291.84 455.568 293.345 455.658L292.761 461.792H306.533L307.23 454.49C309.971 453.703 312.33 452.58 314.217 451.097C318.193 447.861 320.193 443.277 320.193 437.323C320.193 434.784 319.743 432.56 318.822 430.605C317.924 428.65 316.531 426.965 314.644 425.527M106.491 500.148C107.682 501.496 108.311 503.204 108.311 505.248C108.311 508.304 107.233 510.574 105.031 512.057C102.852 513.517 99.4593 514.259 94.921 514.259H82.25V481.678H95.5726C99.5042 481.678 102.47 482.374 104.447 483.812C106.446 485.228 107.435 487.34 107.435 490.126C107.435 492.036 106.918 493.587 105.885 494.822C104.851 496.058 103.324 496.957 101.346 497.519C103.571 497.923 105.278 498.8 106.491 500.148ZM90.7423 494.845H93.3933C95.2356 494.845 96.606 494.53 97.5047 493.924C98.4033 493.317 98.8527 492.351 98.8527 491.093C98.8527 489.924 98.4258 489.048 97.5721 488.464C96.7183 487.879 95.4377 487.565 93.7752 487.565H90.7198V494.845H90.7423ZM99.5491 504.372C99.5491 503.136 99.1223 502.192 98.291 501.563C97.4597 500.934 96.2017 500.62 94.5391 500.62H90.7423V508.259H94.1572C95.932 508.259 97.2576 507.922 98.1787 507.271C99.0998 506.619 99.5491 505.63 99.5491 504.372ZM132.26 500.552H145.403V494.351H132.26V487.789H146.19V481.678H123.566V514.259H146.706V507.967H132.238V500.552H132.26ZM172.183 481.7H163.489V514.281H185.259V507.855H172.183V481.7ZM208.22 500.552H221.363V494.351H208.22V487.789H222.149V481.678H199.548V514.259H222.688V507.967H208.22V500.552ZM267.621 489.744C268.812 492.081 269.441 494.755 269.441 497.788C269.441 501.159 268.812 504.012 267.554 506.349C266.318 508.686 264.386 510.641 261.78 512.169C260.522 512.91 258.859 513.427 256.837 513.787C255.871 513.944 254.703 514.056 253.31 514.146C251.917 514.236 250.412 514.281 248.772 514.281H238.437V481.7H249.85C252.861 481.7 255.354 481.88 257.332 482.262C259.309 482.644 260.949 483.206 262.229 483.992C264.588 485.498 266.386 487.43 267.599 489.744M260.522 497.788C260.522 494.665 259.646 492.261 257.916 490.553C256.163 488.846 253.692 487.992 250.479 487.992H247.177V507.742H250.929C253.984 507.742 256.343 506.889 258.005 505.136C259.668 503.406 260.499 500.957 260.499 497.788M318.957 495.452L312.442 481.7H302.579L314.262 502.17V514.281H322.956V502.08L334.774 481.7H325.427L318.935 495.452H318.957ZM355.533 500.552H368.676V494.351H355.533V487.789H369.462V481.678H346.861V514.259H370.001V507.967H355.533V500.552ZM405.678 496.912C404.465 495.991 401.971 494.912 398.264 493.721L396.826 493.272C395.815 492.913 395.051 492.486 394.535 491.969C394.04 491.474 393.793 490.868 393.793 490.194C393.793 489.228 394.287 488.464 395.253 487.902C396.242 487.34 397.612 487.048 399.365 487.048C399.949 487.048 400.533 487.093 401.117 487.16C401.701 487.228 402.308 487.34 402.914 487.475C404.15 487.79 405.431 488.194 406.734 488.733L407.363 482.015C406.644 481.79 405.947 481.61 405.251 481.476C404.555 481.341 403.836 481.228 403.094 481.139C401.656 480.936 400.106 480.846 398.466 480.846C394.108 480.846 390.76 481.723 388.424 483.498C386.065 485.273 384.896 487.789 384.896 491.025C384.896 493.339 385.57 495.227 386.896 496.71C388.244 498.17 390.446 499.474 393.523 500.575L395.298 501.181C398.466 502.305 400.061 503.541 400.061 504.889C400.061 505.99 399.567 506.866 398.556 507.518C397.567 508.147 396.22 508.484 394.512 508.484C393.861 508.484 393.209 508.439 392.49 508.349C391.794 508.259 391.097 508.124 390.401 507.967C388.963 507.608 387.48 507.091 385.952 506.372L385.233 513.629C386.873 514.079 388.513 514.438 390.154 514.663C391.816 514.888 393.434 515 395.029 515C399.544 515 403.004 514.056 405.386 512.146C407.767 510.236 408.958 507.518 408.958 503.945C408.958 502.44 408.688 501.091 408.149 499.923C407.61 498.755 406.779 497.743 405.655 496.89M283.101 514.259H291.773V481.678H283.101V514.259ZM283.101 478.802H291.773V474.465H283.101V478.802ZM424.123 478.802H432.795V474.465H424.123V478.802ZM424.123 514.259H432.795V481.678H424.123V514.259ZM199.57 199.821V191.485H191.235V199.821H182.9V191.485H174.542V199.821H166.207V191.485H157.85V199.821C157.85 253.321 199.997 296.979 252.883 299.383V257.59C223.048 255.231 199.57 230.267 199.57 199.821ZM348.838 191.485H357.195V199.821C357.195 253.321 315.048 296.979 262.139 299.383V257.59C291.975 255.231 315.452 230.267 315.452 199.821V191.485H323.788V199.821H332.145V191.485H340.48V199.821H348.838V191.485ZM208.826 153.174H158.029C160.815 141.737 171.127 133.244 183.417 133.244C195.706 133.244 206.04 141.737 208.826 153.174ZM306.219 153.174C309.005 141.737 319.317 133.244 331.606 133.244C343.895 133.244 354.207 141.737 356.993 153.174H306.196H306.219ZM208.826 184.609H148.594C151.896 171.038 164.118 160.971 178.721 160.971C193.324 160.971 205.524 171.038 208.849 184.609M336.324 160.949C350.927 160.949 363.149 171.015 366.451 184.587H306.219C309.521 171.015 321.743 160.949 336.324 160.949ZM306.174 200.45V125.559L313.116 118.661V111.696H306.174V83.6538L299.232 41.928L292.267 83.6538V111.696H278.36V83.6089L285.325 76.7107V69.7677H278.36V41.7258L271.418 0L264.453 41.7258V69.7677H250.547V41.7258L243.604 0L236.64 41.7258V69.7677H229.698V76.7107L236.64 83.6089V111.696H222.733V83.6538L215.791 41.928L208.826 83.6538V111.696H201.884V118.661L208.826 125.559V199.798C208.826 226.694 230.619 248.49 257.511 248.49C284.404 248.49 305.837 227.031 306.174 200.45ZM297.12 207.505H270.789L283.954 184.721L297.12 207.505ZM278.383 125.582L285.347 118.684L292.289 125.582V165.78C288.29 161.713 283.595 158.32 278.383 155.848V125.582ZM270.722 161.803L283.887 184.609H257.556L270.722 161.803ZM250.569 83.6089L257.534 76.7107L264.476 83.6089V111.696H250.569V83.6089ZM250.569 125.582L257.534 118.684L264.476 125.582V151.646C262.207 151.332 259.893 151.152 257.534 151.152C255.175 151.152 252.838 151.332 250.569 151.646V125.582ZM244.301 161.803L257.466 184.609H231.136L244.301 161.803ZM222.733 125.582L229.698 118.684L236.64 125.582V155.848C231.428 158.32 226.732 161.713 222.733 165.78V125.582ZM217.925 207.505L231.091 184.721L244.256 207.505H217.925ZM231.136 230.402L244.301 207.595L257.466 230.402H231.136ZM244.346 207.505L257.511 184.721L270.677 207.505H244.346ZM257.579 230.402L270.744 207.595L283.909 230.402H257.579Z" fill="white"/>
</svg>
