<svg width="230" height="285" viewBox="0 0 230 285" fill="none" xmlns="http://www.w3.org/2000/svg">
<g clip-path="url(#clip0_1582_871)">
<path opacity="0.5" d="M228.72 1.96167H210.712V39.67C210.712 45.442 209.315 49.7745 206.521 52.6534C205.731 53.4719 204.842 54.1634 203.896 54.7562C205.942 57.9879 208.186 61.0926 210.614 64.0986C210.642 64.0562 210.684 64.0139 210.712 63.9575V64.2256C212.801 66.8082 215.002 69.3343 217.331 71.7757H228.72V1.96167Z" fill="white"/>
<path d="M18.8542 44.2706C21.2674 53.0203 27.8438 57.3951 38.541 57.3951C45.4278 57.3951 50.6353 55.0666 54.1775 50.4095L68.6992 58.7923C61.8123 68.7556 51.6655 73.7373 38.2587 73.7373C26.7148 73.7373 17.457 70.2515 10.4714 63.2659C3.48576 56.2803 0 47.4741 0 36.8616C0 26.2491 3.44343 17.5699 10.3303 10.542C17.2171 3.51399 26.0656 0 36.8616 0C47.1072 0 55.5464 3.54221 62.2075 10.6125C68.8685 17.6828 72.185 26.4325 72.185 36.8616C72.185 39.1901 71.945 41.6598 71.4934 44.2565H18.8542V44.2706ZM18.5719 30.2993H54.1775C53.1473 25.5576 51.0305 22.0154 47.8269 19.6868C44.6093 17.3583 40.9542 16.201 36.8616 16.201C32.021 16.201 28.0131 17.4288 24.8519 19.8985C21.6908 22.3682 19.588 25.8398 18.5719 30.2993Z" fill="white"/>
<path d="M133.63 10.1892C128.324 3.40109 120.788 0 111.008 0C101.228 0 93.5794 3.55633 86.9184 10.6831C80.2573 17.8099 76.9409 26.5313 76.9409 36.8616C76.9409 47.1919 80.2714 55.9275 86.9184 63.0401C93.5794 70.1669 101.595 73.7232 111.008 73.7232C120.421 73.7232 128.324 70.3221 133.63 63.534V99.7041H151.638V1.96162H133.63V10.2033V10.1892ZM128.183 51.0305C124.556 54.7138 119.941 56.5484 114.353 56.5484C108.764 56.5484 104.136 54.7138 100.452 51.0305C96.7688 47.3471 94.9342 42.6336 94.9342 36.8616C94.9342 31.0896 96.7688 26.362 100.452 22.6927C104.136 19.0235 108.764 17.1748 114.353 17.1748C119.941 17.1748 124.542 19.0094 128.183 22.6927C131.81 26.3761 133.63 31.0896 133.63 36.8616C133.63 42.6336 131.81 47.3612 128.183 51.0305Z" fill="white"/>
<path d="M195.358 56.9718C191.167 56.9718 187.822 55.744 185.31 53.2744C182.798 50.8047 181.542 47.2484 181.542 42.5913V1.96167H163.535V44.8352C163.535 53.8671 166.018 60.9374 171 66.0602C175.982 71.183 182.29 73.7374 189.925 73.7374C199.352 73.7374 206.239 70.5197 210.628 64.0986C208.2 61.0926 205.957 57.9738 203.91 54.7562C201.539 56.2239 198.689 56.9859 195.372 56.9859L195.358 56.9718Z" fill="white"/>
<path d="M210.712 71.7757H217.331C215.003 69.3202 212.801 66.8082 210.712 64.2256V71.7757Z" fill="white"/>
<path opacity="0.5" d="M14.0136 82.727C17.9227 82.727 21.2532 81.344 24.0475 78.5497C26.8417 75.7555 28.2106 72.4814 28.2106 68.6993C28.2106 64.9172 26.8135 61.6007 24.0475 58.7641C21.2673 55.9276 17.9227 54.5022 14.0136 54.5022C10.1044 54.5022 6.94326 55.9276 4.16311 58.7641C1.38297 61.6007 -0.0141602 64.9172 -0.0141602 68.6993C-0.0141602 72.4814 1.36886 75.7696 4.16311 78.5497C6.94326 81.3299 10.2314 82.727 14.0136 82.727Z" fill="white"/>
<path opacity="0.5" d="M25.5576 93.3677H2.66724V182.106H25.5576V93.3677Z" fill="white"/>
<path opacity="0.5" d="M115.439 100.65C109.103 94.144 101.087 90.884 91.3919 90.884C79.3258 90.884 70.5055 95.0331 64.9453 103.303V93.3678H42.0549V182.107H64.9453V134.195C64.9453 126.857 66.7234 121.353 70.2656 117.698C73.822 114.028 78.5496 112.194 84.4627 112.194C89.7831 112.194 94.045 113.76 97.2344 116.893C100.424 120.026 102.033 124.556 102.033 130.469V182.107H124.923V127.619C124.923 116.145 121.762 107.156 115.425 100.65H115.439Z" fill="white"/>
<path opacity="0.5" d="M182.262 90.884C169.123 90.884 158.031 95.4141 148.985 104.46C139.939 113.506 135.408 124.599 135.408 137.737C135.408 150.876 139.939 161.968 148.985 171.014C158.031 180.06 169.123 184.59 182.262 184.59C195.4 184.59 206.521 180.06 215.623 171.014C224.726 161.968 229.284 150.876 229.284 137.737C229.284 124.599 224.726 113.506 215.623 104.46C206.507 95.4141 195.386 90.884 182.262 90.884ZM199.479 155.307C194.864 159.922 189.12 162.222 182.262 162.222C175.403 162.222 169.687 159.922 165.129 155.307C160.571 150.692 158.299 144.836 158.299 137.737C158.299 130.639 160.571 124.782 165.129 120.167C169.687 115.553 175.389 113.252 182.262 113.252C189.134 113.252 194.864 115.553 199.479 120.167C204.094 124.782 206.394 130.639 206.394 137.737C206.394 144.836 204.094 150.692 199.479 155.307Z" fill="white"/>
<path d="M84.6462 273.851C84.8156 274.02 84.9849 274.176 85.1543 274.331L71.437 255.166C74.3159 262.124 78.338 268.517 84.6462 273.851Z" fill="white"/>
<path opacity="0.5" d="M71.437 255.166L58.7076 237.385L64.4091 229.425C62.4898 220.619 60.4152 211.884 56.4497 204.009L45.6113 219.095L27.8015 194.215H1.49596L32.4445 237.441L0.0847168 282.516H26.4044L45.569 255.745L64.7336 282.516H91.0533L85.1825 274.317C85.0132 274.162 84.8297 274.006 84.6745 273.837C78.3662 268.503 74.3442 262.096 71.4653 255.152L71.437 255.166Z" fill="white"/>
<path d="M97.926 282.516H106.139C103.373 281.839 100.607 281.26 97.926 280.554V282.516Z" fill="white"/>
<g opacity="0.75">
<path d="M89.6139 194.215H63.4777L56.4497 204.009C60.4153 211.884 62.4898 220.633 64.4091 229.425L89.6139 194.215Z" fill="white"/>
<path d="M109.216 183.616C113.097 183.616 116.427 182.233 119.193 179.467C121.959 176.701 123.342 173.441 123.342 169.659C123.342 165.877 121.959 162.589 119.193 159.766C116.427 156.944 113.097 155.533 109.216 155.533C105.335 155.533 102.174 156.944 99.4078 159.766C96.6418 162.589 95.2588 165.891 95.2588 169.659C95.2588 173.427 96.6418 176.701 99.4078 179.467C102.174 182.233 105.434 183.616 109.216 183.616Z" fill="white"/>
<path d="M120.703 194.215H97.926V280.555C100.607 281.26 103.388 281.853 106.139 282.516H120.703V194.215Z" fill="white"/>
<path d="M204.235 194.215H227.012V282.516H204.235V272.101C197.405 280.696 187.808 285 175.446 285C163.083 285 153.571 280.498 145.16 271.494C136.735 262.491 132.53 251.455 132.53 238.387C132.53 225.319 136.735 214.283 145.16 205.279C153.571 196.275 163.676 191.773 175.446 191.773C187.808 191.773 197.405 196.078 204.235 204.672V194.257V194.215ZM162.208 256.295C166.795 260.952 172.623 263.267 179.693 263.267C186.764 263.267 192.606 260.938 197.263 256.295C201.906 251.652 204.235 245.669 204.235 238.373C204.235 231.076 201.906 225.093 197.263 220.45C192.606 215.807 186.75 213.478 179.693 213.478C172.637 213.478 166.795 215.807 162.208 220.45C157.622 225.107 155.321 231.076 155.321 238.373C155.321 245.669 157.622 251.652 162.208 256.295Z" fill="white"/>
</g>
</g>
<defs>
<clipPath id="clip0_1582_871">
<rect width="229.284" height="285" fill="white"/>
</clipPath>
</defs>
</svg>
