<svg width="250" height="250" viewBox="0 0 250 250" fill="none" xmlns="http://www.w3.org/2000/svg">
<path d="M66.3853 165.347L66.0799 168.608C65.4474 168.346 64.8257 168.15 64.2259 167.997C63.9314 167.932 63.637 167.877 63.3534 167.845C63.0698 167.801 62.7863 167.79 62.5027 167.79C61.652 167.79 60.9868 167.932 60.5069 168.205C60.0271 168.477 59.798 168.848 59.798 169.317C59.798 169.644 59.918 169.928 60.1579 170.179C60.3979 170.43 60.7687 170.637 61.2703 170.812L61.9683 171.03C63.7787 171.608 64.9784 172.12 65.5673 172.579C66.1126 172.993 66.5162 173.484 66.7779 174.051C67.0397 174.607 67.1705 175.262 67.1705 175.993C67.1705 177.727 66.5925 179.047 65.4365 179.974C64.2804 180.901 62.6009 181.359 60.4197 181.359C59.6344 181.359 58.8492 181.305 58.0531 181.195C57.246 181.086 56.4608 180.923 55.6646 180.694L56.0245 177.171C56.7661 177.509 57.475 177.77 58.173 177.945C58.5111 178.021 58.8383 178.087 59.1873 178.13C59.5254 178.174 59.8526 178.196 60.1688 178.196C60.9977 178.196 61.6411 178.043 62.121 177.727C62.6118 177.411 62.8517 176.996 62.8517 176.451C62.8517 175.796 62.0774 175.196 60.5396 174.662L59.6781 174.367C58.1839 173.833 57.1151 173.2 56.4717 172.491C55.8282 171.771 55.501 170.855 55.501 169.732C55.501 168.161 56.0682 166.939 57.2024 166.078C58.3366 165.216 59.9616 164.791 62.0774 164.791C62.8735 164.791 63.6261 164.834 64.3241 164.932C64.684 164.976 65.0329 165.031 65.371 165.096C65.7091 165.161 66.0472 165.249 66.3962 165.358M77.1496 168.357H81.0649V180.988H85.2746V168.357H89.1899V165.194H77.1496V168.357ZM107.676 174.64H103.651L105.691 168.717L107.676 174.64ZM97.2495 180.988H101.416L102.593 177.64H108.668L109.791 180.988H114.296L108.308 165.183H103.237L97.2495 180.988ZM124.068 180.988H127.874V172.644C127.874 172.371 127.874 172.033 127.841 171.64C127.819 171.248 127.797 170.888 127.765 170.561C127.71 170.004 127.667 169.546 127.623 169.208C127.579 168.859 127.514 168.445 127.448 167.965C127.634 168.641 127.808 169.23 127.961 169.699C128.157 170.255 128.365 170.746 128.572 171.171L133.327 180.988H138.562V165.183H134.756V174.138C134.756 174.64 134.788 175.229 134.854 175.894C134.919 176.56 135.017 177.291 135.148 178.076C135.017 177.694 134.897 177.312 134.766 176.931C134.603 176.418 134.494 176.102 134.461 175.993C134.243 175.393 134.057 174.935 133.916 174.662L129.335 165.194H124.078V180.999L124.068 180.988ZM156.393 174.367C157.2 174.367 157.811 174.52 158.214 174.825C158.629 175.131 158.825 175.589 158.825 176.189C158.825 176.789 158.607 177.28 158.16 177.596C157.713 177.912 157.058 178.076 156.208 178.076H154.55V174.367H156.393ZM156.033 168.041C156.84 168.041 157.451 168.183 157.865 168.466C158.28 168.75 158.487 169.175 158.487 169.743C158.487 170.353 158.269 170.822 157.822 171.117C157.386 171.411 156.709 171.564 155.826 171.564H154.55V168.041H156.033ZM150.428 180.988H156.568C158.782 180.988 160.417 180.628 161.464 179.919C162.522 179.21 163.057 178.109 163.057 176.625C163.057 175.622 162.762 174.793 162.173 174.149C161.595 173.495 160.766 173.069 159.687 172.873C160.647 172.6 161.388 172.175 161.879 171.575C162.381 170.975 162.642 170.212 162.642 169.295C162.642 167.943 162.162 166.918 161.192 166.23C160.221 165.543 158.792 165.205 156.884 165.205H150.417V181.01L150.428 180.988ZM174.345 174.389C174.345 176.702 174.912 178.436 176.046 179.603C177.18 180.77 178.86 181.348 181.074 181.348C183.288 181.348 185.022 180.77 186.145 179.614C187.257 178.458 187.824 176.712 187.824 174.378V165.183H183.822V174.378C183.822 175.633 183.582 176.582 183.124 177.225C182.666 177.869 181.979 178.196 181.085 178.196C180.19 178.196 179.558 177.89 179.165 177.28C178.761 176.669 178.565 175.698 178.565 174.367V165.172H174.355V174.367L174.345 174.389ZM199.679 180.988H210.236V177.869H203.889V165.183H199.668V180.988H199.679ZM39.7745 163.787H43.9842V161.682H39.7745V163.787ZM39.7745 180.988H43.9842V165.183H39.7745V180.988ZM19.6855 209.173C20.667 210.264 21.1469 211.649 21.1469 213.318C21.1469 215.805 20.2635 217.637 18.4858 218.837C16.7081 220.037 13.9816 220.637 10.2844 220.637H0V194.197H10.8297C14.0143 194.197 16.4137 194.775 18.0387 195.921C19.6528 197.066 20.4707 198.778 20.4707 201.047C20.4707 202.585 20.0454 203.861 19.2056 204.865C18.3659 205.868 17.1335 206.599 15.5194 207.046C17.3189 207.373 18.7039 208.093 19.6855 209.184M6.91445 204.854H9.05206C10.5462 204.854 11.6586 204.603 12.3893 204.09C13.1309 203.589 13.5017 202.825 13.5017 201.789C13.5017 200.84 13.1527 200.131 12.4548 199.662C11.7568 199.182 10.7425 198.942 9.39015 198.942H6.91445V204.854ZM14.0688 212.587C14.0688 211.584 13.7307 210.82 13.0437 210.308C12.3566 209.795 11.3423 209.533 9.98997 209.533H6.90356V215.74H9.67368C11.0915 215.74 12.1821 215.467 12.9346 214.932C13.6871 214.398 14.0579 213.613 14.0579 212.576M64.7058 205.356L59.4163 194.186H51.4221L60.9104 210.798V220.626H67.9558V210.722L77.5531 194.175H69.9625L64.6949 205.345L64.7058 205.356ZM96.2461 209.577C96.2461 211.671 95.8644 213.264 95.0792 214.354C94.2939 215.445 93.1706 215.979 91.6656 215.979C90.1606 215.979 89.1136 215.467 88.4483 214.452C87.783 213.438 87.4449 211.813 87.4449 209.577V194.186H80.3887V209.577C80.3887 213.449 81.3375 216.361 83.2352 218.314C85.1328 220.266 87.9357 221.248 91.6547 221.248C95.3736 221.248 98.2638 220.277 100.14 218.346C102.005 216.416 102.942 213.493 102.942 209.588V194.197H96.2461V209.588V209.577ZM99.5507 188.307H92.8543V191.83H99.5507V188.307ZM90.4877 188.307H83.7914V191.83H90.4877V188.307ZM36.1318 188.307H29.4355V191.83H36.1318V188.307ZM41.8902 209.577C41.8902 211.671 41.4976 213.264 40.7233 214.354C39.949 215.445 38.8147 215.979 37.3097 215.979C35.8046 215.979 34.7577 215.467 34.0924 214.452C33.4271 213.438 33.089 211.813 33.089 209.577V194.186H26.0328V209.577C26.0328 213.449 26.9816 216.361 28.8793 218.314C30.777 220.266 33.5798 221.248 37.2988 221.248C41.0178 221.248 43.9079 220.277 45.7837 218.346C47.6596 216.416 48.5866 213.493 48.5866 209.588V194.197H41.8902V209.588V209.577ZM45.1948 188.307H38.4985V191.83H45.1948V188.307ZM132.607 194.186H124.722L116.542 205.617V194.186H109.497V220.626H116.542V208.355L124.853 220.626H133.621L122.901 206.337L132.618 194.186H132.607ZM167.506 209.5H178.183V204.472H167.506V199.138H178.816V194.186H160.461V220.626H179.241V215.521H167.506V209.5ZM200.552 204.287H192.318V194.186H185.272V220.626H192.318V209.577H200.552V220.626H207.597V194.186H200.552V204.287ZM214.195 191.841H221.252V188.318H214.195V191.841ZM214.195 220.626H221.252V194.186H214.195V220.626ZM250 220.626H242.649L240.326 213.394C239.956 212.238 239.443 211.442 238.81 210.984C238.167 210.537 237.164 210.308 235.789 210.308H234.764V220.637H227.872V194.197H238.385C241.886 194.197 244.492 194.764 246.172 195.888C247.862 197.022 248.702 198.746 248.702 201.08C248.702 202.781 248.255 204.178 247.372 205.279C246.488 206.381 245.19 207.123 243.489 207.526C244.863 208.039 245.976 209.479 246.837 211.856L249.989 220.637L250 220.626ZM241.81 202.301C241.81 201.113 241.384 200.24 240.534 199.673C239.683 199.116 238.341 198.833 236.509 198.833H234.753V205.617H237.229C238.767 205.617 239.912 205.345 240.664 204.788C241.428 204.243 241.799 203.403 241.799 202.301M152.729 206.544C151.736 205.781 149.73 204.93 146.709 203.949L145.542 203.578C144.713 203.294 144.091 202.945 143.688 202.52C143.284 202.105 143.088 201.625 143.088 201.08C143.088 200.294 143.48 199.684 144.287 199.215C145.094 198.757 146.196 198.527 147.625 198.527C148.094 198.527 148.573 198.56 149.042 198.626C149.522 198.691 150.013 198.778 150.504 198.887C151.507 199.138 152.543 199.476 153.612 199.913L154.125 194.459C153.547 194.284 152.969 194.143 152.412 194.034C151.845 193.924 151.256 193.826 150.657 193.761C149.49 193.597 148.235 193.521 146.894 193.521C143.36 193.521 140.645 194.241 138.747 195.681C136.849 197.12 135.89 199.16 135.89 201.789C135.89 203.665 136.435 205.203 137.515 206.403C138.605 207.603 140.394 208.65 142.891 209.544L144.331 210.046C146.905 210.951 148.203 211.955 148.203 213.045C148.203 213.94 147.799 214.649 146.981 215.172C146.163 215.696 145.073 215.958 143.698 215.958C143.186 215.958 142.63 215.914 142.063 215.849C141.495 215.772 140.928 215.663 140.372 215.532C139.205 215.249 138.005 214.823 136.773 214.245L136.184 220.135C137.504 220.506 138.845 220.79 140.176 220.975C140.928 221.084 141.67 221.15 142.401 221.193L142.117 224.171H148.803L149.141 220.626C150.471 220.244 151.616 219.699 152.532 218.979C154.463 217.408 155.433 215.183 155.433 212.293C155.433 211.06 155.215 209.98 154.768 209.031C154.332 208.082 153.656 207.264 152.74 206.566M51.6948 242.79C52.2728 243.445 52.5782 244.274 52.5782 245.266C52.5782 246.75 52.0547 247.851 50.9859 248.571C49.928 249.28 48.2812 249.64 46.0782 249.64H39.9272V233.824H46.3945C48.303 233.824 49.7426 234.162 50.7023 234.86C51.673 235.548 52.1529 236.573 52.1529 237.925C52.1529 238.853 51.902 239.605 51.4003 240.205C50.8987 240.805 50.1571 241.241 49.1973 241.514C50.277 241.71 51.1059 242.136 51.6948 242.79ZM44.0497 240.216H45.3366C46.2309 240.216 46.8961 240.063 47.3324 239.769C47.7686 239.474 47.9867 239.005 47.9867 238.394C47.9867 237.827 47.7795 237.402 47.3651 237.118C46.9506 236.835 46.329 236.682 45.522 236.682H44.0387V240.216H44.0497ZM48.3248 244.841C48.3248 244.241 48.1176 243.783 47.7141 243.477C47.3106 243.172 46.6998 243.019 45.8928 243.019H44.0497V246.728H45.7074C46.569 246.728 47.2124 246.564 47.6596 246.248C48.1067 245.931 48.3248 245.452 48.3248 244.841ZM64.2041 242.986H70.5841V239.976H64.2041V236.791H70.9659V233.824H59.9834V249.64H71.2167V246.586H64.1932V242.986H64.2041ZM83.5842 233.835H79.3635V249.651H89.9315V246.531H83.5842V233.835ZM101.078 242.986H107.458V239.976H101.078V236.791H107.839V233.824H96.8678V249.64H108.101V246.586H101.078V242.986ZM129.913 237.74C130.491 238.874 130.797 240.172 130.797 241.645C130.797 243.281 130.491 244.666 129.88 245.801C129.281 246.935 128.343 247.884 127.078 248.626C126.467 248.986 125.66 249.236 124.678 249.411C124.209 249.487 123.642 249.542 122.966 249.585C122.29 249.629 121.559 249.651 120.763 249.651H115.746V233.835H121.286C122.748 233.835 123.958 233.922 124.918 234.108C125.878 234.293 126.674 234.566 127.296 234.948C128.441 235.678 129.313 236.616 129.902 237.74M126.467 241.645C126.467 240.129 126.042 238.962 125.202 238.133C124.351 237.304 123.151 236.889 121.592 236.889H119.989V246.477H121.81C123.293 246.477 124.438 246.062 125.245 245.212C126.052 244.372 126.456 243.183 126.456 241.645M154.834 240.51L151.671 233.835H146.883L152.554 243.772V249.651H156.775V243.728L162.511 233.835H157.975L154.823 240.51H154.834ZM172.589 242.986H178.969V239.976H172.589V236.791H179.35V233.824H168.379V249.64H179.612V246.586H172.589V242.986ZM196.931 241.219C196.342 240.772 195.132 240.249 193.332 239.671L192.634 239.452C192.143 239.278 191.772 239.071 191.522 238.82C191.282 238.58 191.162 238.285 191.162 237.958C191.162 237.489 191.402 237.118 191.871 236.846C192.35 236.573 193.016 236.431 193.866 236.431C194.15 236.431 194.434 236.453 194.717 236.486C195.001 236.518 195.295 236.573 195.59 236.638C196.189 236.791 196.811 236.987 197.444 237.249L197.749 233.988C197.4 233.879 197.062 233.791 196.724 233.726C196.386 233.661 196.037 233.606 195.677 233.562C194.979 233.464 194.226 233.421 193.43 233.421C191.314 233.421 189.689 233.846 188.555 234.708C187.41 235.569 186.843 236.791 186.843 238.362C186.843 239.485 187.17 240.401 187.814 241.121C188.468 241.83 189.537 242.463 191.031 242.997L191.892 243.292C193.43 243.837 194.204 244.437 194.204 245.092C194.204 245.626 193.965 246.051 193.474 246.368C192.994 246.673 192.34 246.837 191.511 246.837C191.194 246.837 190.878 246.815 190.529 246.771C190.191 246.728 189.853 246.662 189.515 246.586C188.817 246.411 188.097 246.161 187.355 245.811L187.007 249.335C187.803 249.553 188.599 249.727 189.395 249.836C190.202 249.945 190.987 250 191.762 250C193.954 250 195.633 249.542 196.789 248.615C197.945 247.688 198.523 246.368 198.523 244.633C198.523 243.903 198.392 243.248 198.131 242.681C197.869 242.114 197.465 241.623 196.92 241.209M137.427 249.64H141.637V233.824H137.427V249.64ZM137.427 232.428H141.637V230.323H137.427V232.428ZM205.885 232.428H210.095V230.323H205.885V232.428ZM205.885 249.64H210.095V233.824H205.885V249.64ZM96.8787 97.0004V92.9537H92.8325V97.0004H88.7864V92.9537H84.7293V97.0004H80.6832V92.9537H76.6261V97.0004C76.6261 122.971 97.0859 144.164 122.759 145.332V125.044C108.276 123.898 96.8787 111.78 96.8787 97.0004ZM169.339 92.9537H173.396V97.0004C173.396 122.971 152.936 144.164 127.252 145.332V125.044C141.735 123.898 153.132 111.78 153.132 97.0004V92.9537H157.178V97.0004H161.235V92.9537H165.282V97.0004H169.339V92.9537ZM101.372 74.3564H76.7133C78.0657 68.8045 83.0716 64.6815 89.0372 64.6815C95.0028 64.6815 100.02 68.8045 101.372 74.3564ZM148.65 74.3564C150.002 68.8045 155.008 64.6815 160.974 64.6815C166.939 64.6815 171.945 68.8045 173.298 74.3564H148.639H148.65ZM101.372 89.616H72.1328C73.736 83.0279 79.6689 78.1413 86.7579 78.1413C93.8468 78.1413 99.7688 83.0279 101.383 89.616M163.264 78.1304C170.353 78.1304 176.286 83.017 177.889 89.6051H148.65C150.253 83.017 156.186 78.1304 163.264 78.1304ZM148.628 97.3058V60.9511L151.998 57.6025V54.2212H148.628V40.6086L145.258 20.3534L141.877 40.6086V54.2212H135.126V40.5868L138.507 37.2382V33.8678H135.126V20.2552L131.756 0L128.375 20.2552V33.8678H121.625V20.2552L118.255 0L114.874 20.2552V33.8678H111.504V37.2382L114.874 40.5868V54.2212H108.123V40.6086L104.753 20.3534L101.372 40.6086V54.2212H98.002V57.6025L101.372 60.9511V96.9895C101.372 110.046 111.951 120.626 125.005 120.626C138.06 120.626 148.464 110.209 148.628 97.3058ZM144.233 100.731H131.451L137.842 89.6706L144.233 100.731ZM135.137 60.962L138.518 57.6134L141.888 60.962V80.4756C139.947 78.5013 137.667 76.8543 135.137 75.6544V60.962ZM131.418 78.5449L137.809 89.616H125.027L131.418 78.5449ZM121.635 40.5868L125.016 37.2382L128.386 40.5868V54.2212H121.635V40.5868ZM121.635 60.962L125.016 57.6134L128.386 60.962V73.6147C127.285 73.462 126.161 73.3748 125.016 73.3748C123.871 73.3748 122.737 73.462 121.635 73.6147V60.962ZM118.593 78.5449L124.984 89.616H112.202L118.593 78.5449ZM108.123 60.962L111.504 57.6134L114.874 60.962V75.6544C112.344 76.8543 110.064 78.5013 108.123 80.4756V60.962ZM105.789 100.731L112.18 89.6706L118.571 100.731H105.789ZM112.202 111.846L118.593 100.774L124.984 111.846H112.202ZM118.614 100.731L125.005 89.6706L131.396 100.731H118.614ZM125.038 111.846L131.429 100.774L137.82 111.846H125.038Z" fill="#00438C"/>
</svg>
