<svg width="250" height="251" viewBox="0 0 250 251" fill="none" xmlns="http://www.w3.org/2000/svg">
<path d="M66.3853 165.932L66.0799 169.193C65.4474 168.932 64.8257 168.735 64.2259 168.583C63.9314 168.517 63.637 168.463 63.3534 168.43C63.0698 168.386 62.7863 168.375 62.5027 168.375C61.652 168.375 60.9868 168.517 60.5069 168.79C60.0271 169.063 59.798 169.433 59.798 169.902C59.798 170.23 59.918 170.513 60.1579 170.764C60.3979 171.015 60.7687 171.222 61.2703 171.397L61.9683 171.615C63.7787 172.193 64.9784 172.706 65.5673 173.164C66.1126 173.578 66.5162 174.069 66.7779 174.636C67.0397 175.193 67.1705 175.847 67.1705 176.578C67.1705 178.312 66.5925 179.632 65.4365 180.559C64.2804 181.486 62.6009 181.944 60.4197 181.944C59.6344 181.944 58.8492 181.89 58.0531 181.781C57.246 181.672 56.4608 181.508 55.6646 181.279L56.0245 177.756C56.7661 178.094 57.475 178.356 58.173 178.53C58.5111 178.607 58.8383 178.672 59.1873 178.716C59.5254 178.759 59.8526 178.781 60.1688 178.781C60.9977 178.781 61.6411 178.628 62.121 178.312C62.6118 177.996 62.8517 177.581 62.8517 177.036C62.8517 176.381 62.0774 175.782 60.5396 175.247L59.6781 174.953C58.1839 174.418 57.1151 173.785 56.4717 173.076C55.8282 172.357 55.501 171.44 55.501 170.317C55.501 168.746 56.0682 167.525 57.2024 166.663C58.3366 165.801 59.9616 165.376 62.0774 165.376C62.8735 165.376 63.6261 165.419 64.3241 165.518C64.684 165.561 65.0329 165.616 65.371 165.681C65.7091 165.747 66.0472 165.834 66.3962 165.943M77.1496 168.943H81.0649V181.573H85.2746V168.943H89.1899V165.779H77.1496V168.943ZM107.676 175.225H103.651L105.691 169.302L107.676 175.225ZM97.2495 181.573H101.416L102.593 178.225H108.668L109.791 181.573H114.296L108.308 165.768H103.237L97.2495 181.573ZM124.068 181.573H127.874V173.229C127.874 172.956 127.874 172.618 127.841 172.226C127.819 171.833 127.797 171.473 127.765 171.146C127.71 170.59 127.667 170.131 127.623 169.793C127.579 169.444 127.514 169.03 127.448 168.55C127.634 169.226 127.808 169.815 127.961 170.284C128.157 170.84 128.365 171.331 128.572 171.757L133.327 181.573H138.562V165.768H134.756V174.724C134.756 175.225 134.788 175.814 134.854 176.48C134.919 177.145 135.017 177.876 135.148 178.661C135.017 178.279 134.897 177.898 134.766 177.516C134.603 177.003 134.494 176.687 134.461 176.578C134.243 175.978 134.057 175.52 133.916 175.247L129.335 165.779H124.078V181.584L124.068 181.573ZM156.393 174.953C157.2 174.953 157.811 175.105 158.214 175.411C158.629 175.716 158.825 176.174 158.825 176.774C158.825 177.374 158.607 177.865 158.16 178.181C157.713 178.497 157.058 178.661 156.208 178.661H154.55V174.953H156.393ZM156.033 168.626C156.84 168.626 157.451 168.768 157.865 169.052C158.28 169.335 158.487 169.761 158.487 170.328C158.487 170.939 158.269 171.408 157.822 171.702C157.386 171.997 156.709 172.149 155.826 172.149H154.55V168.626H156.033ZM150.428 181.573H156.568C158.782 181.573 160.417 181.213 161.464 180.504C162.522 179.796 163.057 178.694 163.057 177.21C163.057 176.207 162.762 175.378 162.173 174.734C161.595 174.08 160.766 173.655 159.687 173.458C160.647 173.186 161.388 172.76 161.879 172.16C162.381 171.56 162.642 170.797 162.642 169.881C162.642 168.528 162.162 167.503 161.192 166.816C160.221 166.128 158.792 165.79 156.884 165.79H150.417V181.595L150.428 181.573ZM174.345 174.974C174.345 177.287 174.912 179.021 176.046 180.188C177.18 181.355 178.86 181.933 181.074 181.933C183.288 181.933 185.022 181.355 186.145 180.199C187.257 179.043 187.824 177.298 187.824 174.963V165.768H183.822V174.963C183.822 176.218 183.582 177.167 183.124 177.81C182.666 178.454 181.979 178.781 181.085 178.781C180.19 178.781 179.558 178.476 179.165 177.865C178.761 177.254 178.565 176.283 178.565 174.953V165.758H174.355V174.953L174.345 174.974ZM199.679 181.573H210.236V178.454H203.889V165.768H199.668V181.573H199.679ZM39.7745 164.372H43.9842V162.267H39.7745V164.372ZM39.7745 181.573H43.9842V165.768H39.7745V181.573ZM19.6855 209.758C20.667 210.849 21.1469 212.234 21.1469 213.903C21.1469 216.39 20.2635 218.223 18.4858 219.422C16.7081 220.622 13.9816 221.222 10.2844 221.222H0V194.782H10.8297C14.0143 194.782 16.4137 195.361 18.0387 196.506C19.6528 197.651 20.4707 199.364 20.4707 201.632C20.4707 203.17 20.0454 204.446 19.2056 205.45C18.3659 206.453 17.1335 207.184 15.5194 207.631C17.3189 207.959 18.7039 208.679 19.6855 209.769M6.91445 205.439H9.05206C10.5462 205.439 11.6586 205.188 12.3893 204.676C13.1309 204.174 13.5017 203.41 13.5017 202.374C13.5017 201.425 13.1527 200.716 12.4548 200.247C11.7568 199.767 10.7425 199.527 9.39015 199.527H6.91445V205.439ZM14.0688 213.172C14.0688 212.169 13.7307 211.405 13.0437 210.893C12.3566 210.38 11.3423 210.118 9.98997 210.118H6.90356V216.325H9.67368C11.0915 216.325 12.1821 216.052 12.9346 215.518C13.6871 214.983 14.0579 214.198 14.0579 213.162M64.7058 205.941L59.4163 194.771H51.4221L60.9104 211.384V221.211H67.9558V211.307L77.5531 194.761H69.9625L64.6949 205.93L64.7058 205.941ZM96.2461 210.162C96.2461 212.256 95.8644 213.849 95.0792 214.939C94.2939 216.03 93.1706 216.565 91.6656 216.565C90.1606 216.565 89.1136 216.052 88.4483 215.038C87.783 214.023 87.4449 212.398 87.4449 210.162V194.771H80.3887V210.162C80.3887 214.034 81.3375 216.946 83.2352 218.899C85.1328 220.851 87.9357 221.833 91.6547 221.833C95.3736 221.833 98.2638 220.862 100.14 218.932C102.005 217.001 102.942 214.078 102.942 210.173V194.782H96.2461V210.173V210.162ZM99.5507 188.892H92.8543V192.415H99.5507V188.892ZM90.4877 188.892H83.7914V192.415H90.4877V188.892ZM36.1318 188.892H29.4355V192.415H36.1318V188.892ZM41.8902 210.162C41.8902 212.256 41.4976 213.849 40.7233 214.939C39.949 216.03 38.8147 216.565 37.3097 216.565C35.8046 216.565 34.7577 216.052 34.0924 215.038C33.4271 214.023 33.089 212.398 33.089 210.162V194.771H26.0328V210.162C26.0328 214.034 26.9816 216.946 28.8793 218.899C30.777 220.851 33.5798 221.833 37.2988 221.833C41.0178 221.833 43.9079 220.862 45.7837 218.932C47.6596 217.001 48.5866 214.078 48.5866 210.173V194.782H41.8902V210.173V210.162ZM45.1948 188.892H38.4985V192.415H45.1948V188.892ZM132.607 194.771H124.722L116.542 206.203V194.771H109.497V221.211H116.542V208.94L124.853 221.211H133.621L122.901 206.922L132.618 194.771H132.607ZM167.506 210.086H178.183V205.057H167.506V199.723H178.816V194.771H160.461V221.211H179.241V216.107H167.506V210.086ZM200.552 204.872H192.318V194.771H185.272V221.211H192.318V210.162H200.552V221.211H207.597V194.771H200.552V204.872ZM214.195 192.426H221.252V188.903H214.195V192.426ZM214.195 221.211H221.252V194.771H214.195V221.211ZM250 221.211H242.649L240.326 213.98C239.956 212.823 239.443 212.027 238.81 211.569C238.167 211.122 237.164 210.893 235.789 210.893H234.764V221.222H227.872V194.782H238.385C241.886 194.782 244.492 195.35 246.172 196.473C247.862 197.607 248.702 199.331 248.702 201.665C248.702 203.367 248.255 204.763 247.372 205.864C246.488 206.966 245.19 207.708 243.489 208.111C244.863 208.624 245.976 210.064 246.837 212.442L249.989 221.222L250 221.211ZM241.81 202.887C241.81 201.698 241.384 200.825 240.534 200.258C239.683 199.702 238.341 199.418 236.509 199.418H234.753V206.203H237.229C238.767 206.203 239.912 205.93 240.664 205.374C241.428 204.828 241.799 203.988 241.799 202.887M152.729 207.13C151.736 206.366 149.73 205.515 146.709 204.534L145.542 204.163C144.713 203.879 144.091 203.53 143.688 203.105C143.284 202.69 143.088 202.21 143.088 201.665C143.088 200.88 143.48 200.269 144.287 199.8C145.094 199.342 146.196 199.113 147.625 199.113C148.094 199.113 148.573 199.145 149.042 199.211C149.522 199.276 150.013 199.364 150.504 199.473C151.507 199.724 152.543 200.062 153.612 200.498L154.125 195.044C153.547 194.87 152.969 194.728 152.412 194.619C151.845 194.51 151.256 194.412 150.657 194.346C149.49 194.182 148.235 194.106 146.894 194.106C143.36 194.106 140.645 194.826 138.747 196.266C136.849 197.706 135.89 199.745 135.89 202.374C135.89 204.25 136.435 205.788 137.515 206.988C138.605 208.188 140.394 209.235 142.891 210.129L144.331 210.631C146.905 211.536 148.203 212.54 148.203 213.631C148.203 214.525 147.799 215.234 146.981 215.758C146.163 216.281 145.073 216.543 143.698 216.543C143.186 216.543 142.63 216.499 142.063 216.434C141.495 216.357 140.928 216.248 140.372 216.117C139.205 215.834 138.005 215.408 136.773 214.83L136.184 220.72C137.504 221.091 138.845 221.375 140.176 221.56C140.928 221.669 141.67 221.735 142.401 221.778L142.117 224.756H148.803L149.141 221.211C150.471 220.83 151.616 220.284 152.532 219.564C154.463 217.994 155.433 215.768 155.433 212.878C155.433 211.645 155.215 210.566 154.768 209.617C154.332 208.668 153.656 207.85 152.74 207.152M51.6948 243.375C52.2728 244.03 52.5782 244.859 52.5782 245.851C52.5782 247.335 52.0547 248.436 50.9859 249.156C49.928 249.865 48.2812 250.225 46.0782 250.225H39.9272V234.409H46.3945C48.303 234.409 49.7426 234.747 50.7023 235.446C51.673 236.133 52.1529 237.158 52.1529 238.511C52.1529 239.438 51.902 240.19 51.4003 240.79C50.8987 241.39 50.1571 241.826 49.1973 242.099C50.277 242.295 51.1059 242.721 51.6948 243.375ZM44.0497 240.801H45.3366C46.2309 240.801 46.8961 240.648 47.3324 240.354C47.7686 240.059 47.9867 239.59 47.9867 238.98C47.9867 238.412 47.7795 237.987 47.3651 237.703C46.9506 237.42 46.329 237.267 45.522 237.267H44.0387V240.801H44.0497ZM48.3248 245.426C48.3248 244.826 48.1176 244.368 47.7141 244.062C47.3106 243.757 46.6998 243.604 45.8928 243.604H44.0497V247.313H45.7074C46.569 247.313 47.2124 247.149 47.6596 246.833C48.1067 246.517 48.3248 246.037 48.3248 245.426ZM64.2041 243.572H70.5841V240.561H64.2041V237.376H70.9659V234.409H59.9834V250.225H71.2167V247.171H64.1932V243.572H64.2041ZM83.5842 234.42H79.3635V250.236H89.9315V247.117H83.5842V234.42ZM101.078 243.572H107.458V240.561H101.078V237.376H107.839V234.409H96.8678V250.225H108.101V247.171H101.078V243.572ZM129.913 238.325C130.491 239.46 130.797 240.758 130.797 242.23C130.797 243.866 130.491 245.251 129.88 246.386C129.281 247.52 128.343 248.469 127.078 249.211C126.467 249.571 125.66 249.822 124.678 249.996C124.209 250.073 123.642 250.127 122.966 250.171C122.29 250.214 121.559 250.236 120.763 250.236H115.746V234.42H121.286C122.748 234.42 123.958 234.508 124.918 234.693C125.878 234.878 126.674 235.151 127.296 235.533C128.441 236.264 129.313 237.202 129.902 238.325M126.467 242.23C126.467 240.714 126.042 239.547 125.202 238.718C124.351 237.889 123.151 237.474 121.592 237.474H119.989V247.062H121.81C123.293 247.062 124.438 246.648 125.245 245.797C126.052 244.957 126.456 243.768 126.456 242.23M154.834 241.096L151.671 234.42H146.883L152.554 244.357V250.236H156.775V244.313L162.511 234.42H157.975L154.823 241.096H154.834ZM172.589 243.572H178.969V240.561H172.589V237.376H179.35V234.409H168.379V250.225H179.612V247.171H172.589V243.572ZM196.931 241.805C196.342 241.357 195.132 240.834 193.332 240.256L192.634 240.038C192.143 239.863 191.772 239.656 191.522 239.405C191.282 239.165 191.162 238.871 191.162 238.543C191.162 238.074 191.402 237.703 191.871 237.431C192.35 237.158 193.016 237.016 193.866 237.016C194.15 237.016 194.434 237.038 194.717 237.071C195.001 237.104 195.295 237.158 195.59 237.224C196.189 237.376 196.811 237.573 197.444 237.834L197.749 234.573C197.4 234.464 197.062 234.377 196.724 234.311C196.386 234.246 196.037 234.191 195.677 234.148C194.979 234.049 194.226 234.006 193.43 234.006C191.314 234.006 189.689 234.431 188.555 235.293C187.41 236.155 186.843 237.376 186.843 238.947C186.843 240.07 187.17 240.987 187.814 241.706C188.468 242.415 189.537 243.048 191.031 243.583L191.892 243.877C193.43 244.422 194.204 245.022 194.204 245.677C194.204 246.211 193.965 246.637 193.474 246.953C192.994 247.258 192.34 247.422 191.511 247.422C191.194 247.422 190.878 247.4 190.529 247.357C190.191 247.313 189.853 247.247 189.515 247.171C188.817 246.997 188.097 246.746 187.355 246.397L187.007 249.92C187.803 250.138 188.599 250.312 189.395 250.422C190.202 250.531 190.987 250.585 191.762 250.585C193.954 250.585 195.633 250.127 196.789 249.2C197.945 248.273 198.523 246.953 198.523 245.219C198.523 244.488 198.392 243.833 198.131 243.266C197.869 242.699 197.465 242.208 196.92 241.794M137.427 250.225H141.637V234.409H137.427V250.225ZM137.427 233.013H141.637V230.908H137.427V233.013ZM205.885 233.013H210.095V230.908H205.885V233.013ZM205.885 250.225H210.095V234.409H205.885V250.225ZM96.8787 97.5856V93.5389H92.8325V97.5856H88.7864V93.5389H84.7293V97.5856H80.6832V93.5389H76.6261V97.5856C76.6261 123.556 97.0859 144.75 122.759 145.917V125.629C108.276 124.484 96.8787 112.365 96.8787 97.5856ZM169.339 93.5389H173.396V97.5856C173.396 123.556 152.936 144.75 127.252 145.917V125.629C141.735 124.484 153.132 112.365 153.132 97.5856V93.5389H157.178V97.5856H161.235V93.5389H165.282V97.5856H169.339V93.5389ZM101.372 74.9417H76.7133C78.0657 69.3897 83.0716 65.2667 89.0372 65.2667C95.0028 65.2667 100.02 69.3897 101.372 74.9417ZM148.65 74.9417C150.002 69.3897 155.008 65.2667 160.974 65.2667C166.939 65.2667 171.945 69.3897 173.298 74.9417H148.639H148.65ZM101.372 90.2012H72.1328C73.736 83.6131 79.6689 78.7266 86.7579 78.7266C93.8468 78.7266 99.7688 83.6131 101.383 90.2012M163.264 78.7157C170.353 78.7157 176.286 83.6022 177.889 90.1903H148.65C150.253 83.6022 156.186 78.7157 163.264 78.7157ZM148.628 97.891V61.5363L151.998 58.1877V54.8064H148.628V41.1938L145.258 20.9386L141.877 41.1938V54.8064H135.126V41.172L138.507 37.8234V34.453H135.126V20.8404L131.756 0.585205L128.375 20.8404V34.453H121.625V20.8404L118.255 0.585205L114.874 20.8404V34.453H111.504V37.8234L114.874 41.172V54.8064H108.123V41.1938L104.753 20.9386L101.372 41.1938V54.8064H98.002V58.1877L101.372 61.5363V97.5747C101.372 110.631 111.951 121.211 125.005 121.211C138.06 121.211 148.464 110.795 148.628 97.891ZM144.233 101.316H131.451L137.842 90.2558L144.233 101.316ZM135.137 61.5472L138.518 58.1986L141.888 61.5472V81.0608C139.947 79.0865 137.667 77.4395 135.137 76.2396V61.5472ZM131.418 79.1301L137.809 90.2012H125.027L131.418 79.1301ZM121.635 41.172L125.016 37.8234L128.386 41.172V54.8064H121.635V41.172ZM121.635 61.5472L125.016 58.1986L128.386 61.5472V74.1999C127.285 74.0472 126.161 73.96 125.016 73.96C123.871 73.96 122.737 74.0472 121.635 74.1999V61.5472ZM118.593 79.1301L124.984 90.2012H112.202L118.593 79.1301ZM108.123 61.5472L111.504 58.1986L114.874 61.5472V76.2396C112.344 77.4395 110.064 79.0865 108.123 81.0608V61.5472ZM105.789 101.316L112.18 90.2558L118.571 101.316H105.789ZM112.202 112.431L118.593 101.36L124.984 112.431H112.202ZM118.614 101.316L125.005 90.2558L131.396 101.316H118.614ZM125.038 112.431L131.429 101.36L137.82 112.431H125.038Z" fill="white"/>
</svg>
