<svg width="424" height="422" viewBox="0 0 424 422" fill="none" xmlns="http://www.w3.org/2000/svg">
<mask id="mask0_1_4904" style="mask-type:luminance" maskUnits="userSpaceOnUse" x="0" y="0" width="424" height="422">
<path d="M424 0H0V421.434H424V0Z" fill="white"/>
</mask>
<g mask="url(#mask0_1_4904)">
<mask id="mask1_1_4904" style="mask-type:luminance" maskUnits="userSpaceOnUse" x="0" y="0" width="424" height="422">
<path d="M424 0H0V421.434H424V0Z" fill="white"/>
</mask>
<g mask="url(#mask1_1_4904)">
<path d="M263.257 72.1734L351.383 47.3117C377.021 40.0808 399.823 65.3815 389.968 90.1323L356.1 175.204C352.188 185.03 353.361 196.154 359.241 204.953L410.117 281.081C424.916 303.227 407.898 332.734 381.319 331.012L289.947 325.089C279.393 324.404 269.176 328.957 262.625 337.264L205.946 409.177C189.458 430.097 156.136 423.031 149.561 397.214L126.957 308.485C124.347 298.235 116.856 289.923 106.933 286.267L21.0267 254.584C-3.96528 245.366 -7.53971 211.494 14.9777 197.263L92.38 148.346C101.323 142.692 106.909 133.006 107.324 122.437L110.908 30.9446C111.95 4.32702 143.063 -9.54132 163.555 7.47695L233.996 65.9749C242.134 72.733 253.074 75.0532 263.257 72.183" fill="#00428B"/>
<path d="M181.948 392.645C180.867 392.645 179.777 392.53 178.687 392.298C172.956 391.068 168.509 386.77 167.076 381.083L140.603 275.958C140.304 274.772 139.445 273.812 138.297 273.387L36.6942 235.598C31.2 233.553 27.4133 228.661 26.8152 222.834C26.217 217.002 28.928 211.445 33.8917 208.324L125.688 150.661C126.72 150.01 127.372 148.895 127.425 147.675L131.969 39.3668C132.215 33.5107 135.697 28.3975 141.057 26.0291C146.416 23.6558 152.542 24.5192 157.043 28.277L240.248 97.7634C241.188 98.5449 242.447 98.815 243.624 98.4918L348.035 69.3417C353.679 67.7644 359.617 69.4961 363.529 73.8616C367.441 78.2271 368.517 84.3195 366.332 89.7608L325.957 190.365C325.503 191.499 325.633 192.782 326.309 193.8L386.297 284.096C389.539 288.978 389.727 295.162 386.784 300.232C383.842 305.301 378.381 308.205 372.53 307.81L264.372 300.502C263.151 300.42 261.974 300.941 261.212 301.901L193.872 386.857C190.925 390.576 186.54 392.655 181.938 392.655M147.294 36.2844C146.614 36.2844 146.054 36.4774 145.741 36.6173C145.109 36.897 143.623 37.775 143.536 39.854L138.992 148.162C138.78 153.189 136.112 157.79 131.848 160.468L40.0516 218.131C38.2861 219.24 38.262 220.963 38.3343 221.652C38.4067 222.342 38.7829 224.026 40.7317 224.749L142.34 262.539C147.057 264.295 150.608 268.255 151.833 273.132L178.306 378.256C178.812 380.277 180.448 380.832 181.123 380.977C181.803 381.121 183.52 381.285 184.813 379.655L252.153 294.699C255.279 290.753 260.146 288.602 265.163 288.944L373.321 296.252C375.4 296.392 376.433 295.012 376.78 294.414C377.127 293.816 377.812 292.234 376.664 290.497L316.676 200.201C313.892 196.009 313.347 190.717 315.219 186.048L355.594 85.4435C356.371 83.5091 355.377 82.1006 354.914 81.5845C354.451 81.0683 353.158 79.9299 351.151 80.4895L246.736 109.64C241.893 110.995 236.688 109.876 232.824 106.649L149.619 37.1623C148.813 36.487 147.988 36.2844 147.294 36.2844Z" fill="#ED1C24"/>
<path d="M408.154 164.973H398.463V140.902C398.463 132.104 391.367 124.969 382.612 124.969H368.213C366.973 124.969 365.772 125.114 364.615 125.384C363.457 125.114 362.256 124.969 361.016 124.969H346.578C343.211 124.969 340.09 126.026 337.524 127.825C334.958 126.026 331.837 124.969 328.47 124.969H314.033C310.55 124.969 307.332 126.103 304.713 128.018C299.682 125.997 293.792 124.969 287.096 124.969H263.301C261.998 124.969 260.73 125.129 259.514 125.432C258.299 125.133 257.035 124.969 255.728 124.969H241.329C237.088 124.969 233.239 126.643 230.398 129.369C227.475 126.571 223.572 124.969 219.467 124.969H205.449C200.635 124.969 196.323 127.13 193.419 130.536C190.467 127.073 186.111 124.969 181.398 124.969H164.423C161.828 124.969 159.344 125.611 157.139 126.764C154.954 125.621 152.475 124.969 149.841 124.969H105.279C102.77 124.969 100.402 125.558 98.2988 126.6C91.8108 124.55 86.0127 124.019 79.901 124.019C74.783 124.019 69.9688 124.786 65.584 126.262C64.7591 121.361 62.4823 116.865 58.9561 113.32C54.4556 108.795 48.4258 106.306 41.9764 106.306C35.527 106.306 29.4973 108.795 24.9968 113.32C20.4962 117.845 18.0216 123.908 18.0216 130.391C18.0216 133.715 18.6776 136.923 19.9173 139.875C19.8932 140.217 19.8787 140.56 19.8787 140.907V194.244C19.8787 203.042 26.9745 210.181 35.7297 210.181H50.1286C53.293 210.181 56.2355 209.245 58.7101 207.639C65.1981 209.964 72.5158 211.17 80.4026 211.17C89.8331 211.17 98.3133 208.753 104.927 204.185C105.621 203.708 106.287 203.201 106.933 202.68C109.736 207.181 114.704 210.176 120.377 210.176H134.776C136.45 210.176 138.061 209.916 139.576 209.434C141.105 209.921 142.716 210.176 144.361 210.176H159.402C164.93 210.176 169.961 207.292 172.817 202.729C175.672 207.292 180.703 210.176 186.231 210.176H201.499C202.169 210.176 202.835 210.133 203.491 210.046C204.142 210.128 204.798 210.176 205.469 210.176H219.868C224.108 210.176 227.957 208.503 230.798 205.777C233.721 208.575 237.624 210.176 241.729 210.176H255.752C257.054 210.176 258.323 210.012 259.538 209.713C260.754 210.012 262.018 210.176 263.325 210.176H288.486C298.23 210.176 306.261 207.967 312.402 203.607C318.943 208.469 327.496 211.17 337.548 211.17C340.095 211.17 342.589 210.997 344.972 210.654C349.323 210.027 353.206 207.615 355.715 204.007C358.614 207.76 363.143 210.181 368.237 210.181H408.173C416.928 210.181 424.019 203.047 424.019 194.244V180.911C424.019 172.107 416.924 164.973 408.173 164.973" fill="#00428B"/>
<path d="M56.872 133.614C56.872 138.081 53.4423 141.51 48.9755 141.51C44.5087 141.51 41.079 138.081 41.079 133.614C41.079 129.147 44.5135 125.717 48.9755 125.717C53.4375 125.717 56.872 129.147 56.872 133.614ZM56.9106 195.469H42.8879V143.802H56.9106V195.469Z" fill="white"/>
<path d="M101.675 159.782C98.2794 157.863 93.1517 155.465 86.7651 155.465C83.0025 155.465 80.1227 156.497 80.1227 158.823C80.1227 161.736 85.3999 162.035 90.6771 163.067L92.3365 163.4C103.002 165.465 108.429 170.597 108.429 178.532C108.429 191.595 97.3918 196.433 86.3936 196.433C77.132 196.433 68.7145 194.219 62.8102 190.013L69.6744 178.571C73.7698 181.046 78.7142 183.887 86.5769 183.887C90.3395 183.887 93.1083 182.855 93.1083 180.308C93.1083 177.616 89.8957 177.134 83.4752 176.029L81.5216 175.696C69.6358 173.665 64.6914 168.538 64.9519 159.382C65.2124 149.489 73.5141 142.885 85.9161 142.885C92.6694 142.885 98.7569 143.584 107.729 148.312L101.675 159.787V159.782Z" fill="white"/>
<path d="M154.037 156.719H139.349V195.469H125.326V156.719H110.638V143.801H154.037V156.719Z" fill="white"/>
<path d="M204.34 195.469H189.468L186.034 185.614H166.734L163.338 195.469H148.688L168.248 143.801H184.784L204.345 195.469H204.34ZM171.085 173.106H181.678L176.401 157.829L171.085 173.106Z" fill="white"/>
<path d="M257.179 195.469H243.523L222.231 166.425V195.469H208.208V143.801H221.86L243.157 172.845V143.801H257.179V195.469Z" fill="white"/>
<path d="M287.733 143.801C301.611 143.801 307.771 149.484 307.771 158.639C307.771 163.656 304.93 167.496 300.907 169.526C305.407 171.224 308.803 175.58 308.803 180.636C308.803 189.786 302.716 195.474 289.06 195.474H264.555V143.806H287.733V143.801ZM278.578 155.243V163.844H287.395C291.269 163.844 293.227 162.407 293.227 159.527C293.227 156.647 291.274 155.243 287.434 155.243H278.578ZM278.578 175.209V184.065L288.283 184.104C292.306 184.104 294.371 182.628 294.371 179.637C294.371 176.646 292.306 175.209 288.283 175.209H278.578Z" fill="white"/>
<path d="M405.631 195.469H366.732V143.801H380.76V182.551H405.631V195.469Z" fill="white"/>
<path d="M359.661 175.996C359.661 175.996 359.68 175.986 359.68 175.976C359.69 175.846 359.728 175.055 359.728 174.399V143.807H345.667V173.994C345.667 179.937 342.271 183 336.844 183C331.417 183 328.026 179.937 328.026 173.994V143.807H313.965V174.399C313.965 188.46 322.011 196.429 336.844 196.429C338.624 196.429 340.308 196.313 341.89 196.087C347.48 187.515 351.335 182.035 353.452 179.647C354.928 177.848 357.012 176.43 359.661 175.996Z" fill="white"/>
<path d="M82.5732 257.098L102.5 245.328L135.582 246.35L122.422 264.111L92.1967 268.607L82.5732 257.098Z" fill="#00428B"/>
<path d="M362.955 229.076C361.797 229.177 360.871 229.491 359.559 230.485C368.705 215.782 368.739 215.005 368.811 213.437C368.884 211.831 368.459 209.4 366.028 206.935C364.026 204.909 361.402 203.935 358.633 204.176C356.959 204.325 355.203 204.996 353.124 206.289C354.591 204.031 356.115 201.701 357.702 199.309C359.091 197.201 360.982 194.355 363.327 190.848L364.378 189.27C366.862 185.556 368.425 183.188 369.154 182.03C370.287 180.235 371.059 178.687 371.136 176.984C371.228 175.026 370.466 173.145 368.99 171.693L368.98 171.683C367.446 170.178 365.333 169.464 363.032 169.667C362.806 169.686 362.584 169.715 362.367 169.744L362.246 169.758C357.948 170.303 354.557 172.059 352.164 174.973C349.709 177.742 345.575 183.549 339.531 192.719C337.616 195.628 335.479 198.918 333.178 202.497L333.125 202.584C331.745 204.827 330.568 206.728 329.594 208.271C328.803 208.131 328.017 208.093 327.235 208.165C322.836 208.556 318.036 210.225 312.971 213.129C310.405 214.6 307.94 216.24 305.586 218.03C305.287 215.743 304.182 213.737 302.378 212.27C300.96 211.122 298.5 209.82 294.834 210.143C291.636 210.427 288.254 211.629 284.646 213.775C284.453 213.539 284.265 213.341 284.101 213.187C282.741 211.894 280.893 211.281 278.906 211.46C273.566 211.932 269.509 213.809 266.87 217.012C265.795 218.3 264.492 220.171 262.886 222.747L262.857 222.791C262.64 223.143 262.268 223.736 261.748 224.556C261.854 222.299 261.053 220.249 259.504 218.777C257.691 217.06 255.1 216.337 251.806 216.631C249.838 216.804 248.236 217.263 246.91 218.03C244.941 217.287 242.669 217.046 239.968 217.282C233.799 217.832 227.364 220.837 220.292 226.476C220.133 226.602 219.983 226.737 219.824 226.867C219.872 226.462 219.916 226.047 219.935 225.627L219.954 225.265C220.027 223.674 219.737 222.178 219.096 220.828L218.932 220.509C216.93 216.925 212.709 215.396 206.385 215.96C201.643 216.385 196.086 218.121 189.386 221.276C186.101 222.825 182.975 224.58 180.086 226.495C178.735 227.393 177.467 228.362 176.285 229.39C175.918 228.237 175.286 227.2 174.399 226.356C172.585 224.638 169.994 223.915 166.7 224.209C164.732 224.383 163.13 224.841 161.804 225.608C159.836 224.865 157.564 224.624 154.862 224.86C148.693 225.41 142.258 228.415 135.186 234.059C132.62 236.109 130.194 238.343 127.936 240.697C127.145 239.582 126.175 238.569 125.037 237.667C124.458 237.209 123.855 236.785 123.223 236.389C124.227 235.747 125.215 235.082 126.19 234.402C136.431 227.219 141.578 220.061 141.93 212.507C142.229 206.019 139.151 200.65 133.257 197.389C128.105 194.538 120.782 193.583 110.874 194.466C104.464 195.035 97.6668 196.665 90.6675 199.304C83.6248 201.962 77.5228 205.261 72.535 209.111C66.568 213.717 63.5579 218.338 63.3312 223.244C63.1479 227.224 64.9086 229.689 66.4136 231.054C67.8752 232.38 70.4897 233.881 74.6381 233.514C75.3472 233.451 76.0322 233.345 76.7027 233.191C75.3762 235.14 73.9387 237.267 72.3661 239.597C61.667 255.477 55.5215 265.356 53.5968 269.765C52.9649 271.178 52.608 272.746 52.526 274.429C52.4054 277.116 53.5148 279.596 55.6566 281.414C56.8915 282.461 58.9946 283.633 62.2024 283.633C62.6028 283.633 63.0176 283.614 63.4566 283.575C68.126 283.16 70.2582 280.507 71.0927 278.988C71.3098 278.602 71.5509 278.177 71.8114 277.719C75.9357 280.247 81.5024 281.168 88.7284 280.522C95.2356 279.943 101.728 278.105 108.028 275.056C111.366 273.44 114.396 271.646 117.102 269.692C117.999 272.316 119.538 274.092 120.946 275.245C122.567 276.595 125.273 278.095 129.306 278.095C129.793 278.095 130.304 278.071 130.83 278.028C134.356 277.714 138.278 275.92 143.169 272.384C144.023 271.767 144.867 271.125 145.692 270.459C146.025 270.99 146.397 271.501 146.807 271.988C148.529 274.034 151.828 276.359 157.771 275.828C160.892 275.548 164.095 274.294 167.486 272.022C168.2 272.495 168.972 272.895 169.826 273.209C169.826 273.272 169.816 273.334 169.816 273.392C169.748 274.868 170.028 276.238 170.622 277.463C168.692 277.917 167.013 279.258 165.619 281.448C164.457 283.276 163.815 285.331 163.714 287.555C163.487 292.393 166.01 294.294 167.539 294.998C168.591 295.48 169.777 295.707 171.384 295.707C172.03 295.707 172.744 295.668 173.545 295.601C178.031 295.2 182.179 293.903 185.879 291.742C189.907 289.383 192.917 285.91 194.818 281.409C195.503 279.779 195.893 278.066 195.975 276.311C196.091 273.86 195.237 271.627 193.559 269.9C197.167 268.279 200.336 266.311 203.047 264.02C203.915 265.636 205.025 266.827 206.057 267.671C207.678 269.027 210.384 270.527 214.417 270.527C214.904 270.527 215.415 270.503 215.941 270.459C219.462 270.146 223.384 268.351 228.28 264.816C229.139 264.198 229.978 263.557 230.803 262.891C231.136 263.421 231.507 263.928 231.917 264.42C233.639 266.465 236.934 268.785 242.882 268.26C245.467 268.028 248.106 267.131 250.86 265.539C251.521 265.636 252.143 265.689 252.737 265.689C253.045 265.689 253.34 265.674 253.634 265.65C256.832 265.365 259.041 262.934 260.431 261.116C264.357 256.099 268.014 251.772 271.313 248.246C273.985 245.385 277.155 242.163 280.758 238.637C280.864 238.786 280.98 238.931 281.096 239.076C282.437 240.706 284.27 241.695 286.378 241.956C285.442 244.348 284.931 246.553 284.834 248.617C284.641 252.746 285.413 255.949 287.188 258.41C288.341 260.011 290.941 262.548 295.803 262.548C296.228 262.548 296.667 262.529 297.125 262.49C301.79 262.076 306.855 259.673 312.551 255.153C313.145 256.427 313.917 257.372 314.635 258.048C317.091 260.373 320.68 261.342 325.296 260.937C328.663 260.638 332.146 259.273 335.677 256.885C338.161 258.598 341.094 259.48 344.287 259.48C344.813 259.48 345.343 259.456 345.879 259.408C349.603 259.075 353.703 257.512 358.406 254.628C363.138 251.724 366.737 248.048 369.096 243.697L369.149 243.601C369.761 242.419 370.085 241.015 370.167 239.177C370.302 236.235 370.133 232.94 367.851 230.779C366.554 229.549 364.783 228.931 362.989 229.095M88.1254 255.892C87.4356 255.235 86.6686 254.806 85.8631 254.526C86.2104 253.991 86.5577 253.456 86.9001 252.93C87.1944 252.939 87.4742 252.93 87.7443 252.906H87.7636C88.7959 252.809 89.3169 252.573 91.478 251.594C91.6757 251.521 93.0504 251.077 98.0527 250.634C103.735 250.127 106.769 250.571 108.313 251.029C107.835 251.536 107.189 252.158 106.325 252.891C101.203 257.305 95.8242 259.808 89.9102 260.522C89.9151 260.45 89.9198 260.382 89.9247 260.32C90.0018 258.656 89.3458 257.04 88.1254 255.882M116.586 217.292C113.527 219.805 110.006 222.197 106.089 224.421C111.622 216.153 111.651 215.555 111.723 214.036C111.723 213.983 111.723 213.93 111.728 213.876C112.297 213.809 112.867 213.746 113.436 213.698C116.947 213.384 119.022 213.519 120.184 213.712C119.625 214.484 118.563 215.671 116.586 217.297M168.393 247.542C168.432 247.677 168.465 247.812 168.509 247.942C168.345 248.096 168.137 248.304 167.819 248.632C168.012 248.26 168.205 247.899 168.393 247.542ZM200.505 240.113C199.458 239.746 197.77 239.264 194.306 238.714C195.286 238.183 196.356 237.662 197.5 237.156C197.533 237.142 197.562 237.127 197.596 237.117C197.982 237.503 198.426 237.836 198.918 238.106C199.482 238.593 200.124 238.989 200.838 239.288C202.217 239.872 203.664 239.886 205.411 239.732C206.226 239.66 207.085 239.471 208.006 239.168C207.167 240.364 206.395 241.589 205.686 242.848C204.32 241.758 202.608 240.851 200.51 240.113" fill="#00428B"/>
<path d="M52.7333 253.904C50.881 255.925 44.6438 263.243 45.3143 273.383C45.4446 275.332 45.8595 280.512 49.8101 285.833C50.6302 286.933 54.6098 292.104 62.1735 294.868C69.7371 297.637 76.7654 296.498 80.8318 295.871C92.3268 294.101 106.369 292.417 125.119 290.647L144.226 288.438L134.332 237.629L52.7285 253.895L52.7333 253.904Z" fill="#00428B"/>
<path d="M88.41 226.206L89.9246 225.729C90.1321 225.709 90.2238 225.888 90.2093 226.264C90.19 226.64 89.5677 227.306 88.3425 228.266C87.1124 229.226 85.6653 229.781 83.9914 229.93C82.3176 230.08 81.0296 229.742 80.1228 228.908C79.2159 228.078 78.7962 226.925 78.8638 225.454C79.0036 222.347 81.2853 219.067 85.699 215.623C90.1128 212.179 95.4816 209.251 101.806 206.844C108.13 204.437 114.154 202.97 119.875 202.459C128.254 201.706 134.424 202.439 138.389 204.654C142.354 206.873 144.24 210.158 144.038 214.509C143.782 220.07 139.47 225.82 131.096 231.754C126.696 234.884 121.974 237.494 116.938 239.578C122.36 239.645 126.624 240.924 129.74 243.413C132.089 245.289 133.194 247.841 133.044 251.082C132.895 254.324 131.115 257.768 127.704 261.41C124.294 265.057 119.832 268.231 114.318 270.923C108.805 273.619 103.224 275.221 97.5703 275.727C91.0534 276.311 86.3261 275.385 83.3836 272.944C82.0619 271.825 81.4204 270.783 81.4686 269.818C81.512 268.853 81.8159 267.806 82.3851 266.683C79.6693 271.227 77.6771 274.651 76.4036 276.948C75.8441 277.975 74.778 278.559 73.2103 278.703C71.6425 278.843 70.4414 278.559 69.6166 277.854C68.7917 277.145 68.401 276.301 68.4444 275.317C68.4878 274.333 68.6856 273.455 69.0281 272.674C70.755 268.675 76.64 259.143 86.6879 244.078C96.731 229.014 102.857 220.259 105.062 217.813C106.224 216.438 108.752 215.575 112.645 215.223C114.198 215.083 114.955 215.338 114.926 215.994C114.902 216.486 112.442 220.374 107.546 227.658C102.645 234.942 100.083 238.758 99.8616 239.105C104.714 237.368 109.697 235.135 114.82 232.41C119.938 229.684 124.434 226.713 128.307 223.495C132.181 220.278 134.168 217.509 134.274 215.189C134.448 211.359 130.16 209.839 121.405 210.625C112.235 211.45 103.306 214.552 94.6134 219.926C92.4572 221.262 90.8074 222.453 89.6594 223.5C88.5113 224.547 87.9325 225.27 87.9132 225.661C87.8939 226.052 88.0578 226.235 88.4051 226.201M96.6442 248.835C96.0219 248.892 95.3659 248.265 94.6713 246.958C91.1692 252.226 87.4838 258.067 83.62 264.473C85.3373 262.201 87.7491 260.923 90.8508 260.648C92.9202 260.46 93.9429 260.614 93.9187 261.106C93.9091 261.304 93.6776 261.502 93.2193 261.704C91.8156 262.317 91.0969 263.118 91.0486 264.097C90.9425 266.451 93.5232 267.392 98.8004 266.919C105.935 266.277 112.505 263.34 118.515 258.106C121.733 255.342 123.382 253.022 123.469 251.16C123.522 250.016 122.321 248.868 119.866 247.72C117.005 246.447 112.577 246.08 106.581 246.616C102.409 246.992 99.7265 247.45 98.5351 248C97.3436 248.545 96.7117 248.825 96.6442 248.83" fill="white"/>
<path d="M173.699 231.445C176.318 231.208 177.592 231.941 177.51 233.644C177.466 234.561 177.211 235.251 176.748 235.718C176.28 236.182 175.257 237.687 173.685 240.224C172.107 242.761 170.347 245.983 168.403 249.891C166.454 253.798 165.166 257.097 164.524 259.794C164.404 260.132 164.331 260.595 164.307 261.183C164.225 262.982 164.703 263.836 165.735 263.745C166.767 263.653 168.012 263.074 169.469 262.018C170.925 260.956 172.228 259.847 173.381 258.684C174.534 257.522 175.657 256.335 176.762 255.129C177.867 253.923 178.523 253.229 178.735 253.045C178.952 252.862 179.266 252.756 179.676 252.717C180.332 252.66 180.703 253.098 180.8 254.034C180.896 254.97 180.92 255.949 180.872 256.962C180.824 257.975 180.689 258.689 180.467 259.099C179.381 261.053 177.081 263.494 173.569 266.417C170.052 269.34 166.907 270.927 164.134 271.178C161.36 271.429 159.353 270.807 158.118 269.326C156.879 267.84 156.309 266.123 156.396 264.179C156.483 262.23 156.908 260.493 157.665 258.955C154.64 262.746 151.22 266.036 147.405 268.824C143.584 271.612 140.507 273.108 138.162 273.32C135.818 273.532 133.937 273.03 132.514 271.824C130.695 270.324 129.851 268.096 129.986 265.134C130.121 262.172 130.956 259.133 132.49 256.012C134.023 252.891 135.982 249.997 138.375 247.32C140.762 244.642 143.362 242.173 146.179 239.896C152.098 235.13 157.467 232.525 162.296 232.091C164.158 231.922 165.663 232.081 166.806 232.564C167.949 233.046 168.658 233.717 168.928 234.575C169.811 233.321 170.544 232.515 171.123 232.154C171.707 231.792 172.565 231.56 173.704 231.459M166.574 237.513C160.68 238.043 154.438 241.7 147.844 248.482C145.499 250.909 143.319 253.764 141.298 257.04C139.277 260.32 138.239 262.529 138.186 263.672C138.133 264.82 138.452 265.361 139.142 265.298C140.106 265.211 142.875 263.161 147.458 259.148C152.035 255.134 155.089 252.211 156.613 250.383C158.287 248.342 161.606 244.054 166.574 237.513Z" fill="white"/>
<path d="M181.803 258.091L181.716 258.882C181.678 259.702 181.972 260.373 182.604 260.904C183.231 261.434 183.819 261.675 184.374 261.622C188.508 261.251 192.198 260.329 195.445 258.868C198.686 257.401 200.336 256.085 200.389 254.903C200.413 254.348 199.858 253.919 198.725 253.61C197.586 253.306 195.662 252.973 192.951 252.611C190.24 252.254 188.267 251.955 187.042 251.724C185.816 251.492 184.847 251.261 184.138 251.034C183.429 250.803 182.705 250.46 181.972 250.007C180.399 249.071 179.666 247.537 179.763 245.39C179.859 243.248 180.795 241.044 182.56 238.782C184.331 236.519 186.506 234.522 189.092 232.791C191.677 231.059 194.446 229.491 197.393 228.083C203.221 225.309 208.078 223.751 211.976 223.399C215.801 223.056 218.126 223.625 218.951 225.116C219.202 225.647 219.313 226.254 219.279 226.944L219.264 227.287C219.187 229.023 218.734 230.412 217.914 231.464C217.094 232.516 215.83 233.509 214.122 234.445C212.415 235.381 211.069 235.892 210.085 235.984C209.101 236.071 208.483 236.061 208.232 235.955C207.982 235.849 207.774 235.694 207.61 235.497C207.446 235.299 207.239 235.164 206.988 235.087C206.732 235.009 206.617 234.778 206.636 234.387C206.655 233.996 206.843 233.577 207.21 233.138C207.572 232.699 207.832 232.245 207.991 231.773C205.714 232.077 203.312 232.791 200.789 233.91C198.267 235.034 196.091 236.23 194.268 237.503C192.439 238.777 190.92 239.973 189.7 241.092C188.479 242.211 187.862 243.012 187.838 243.485C187.813 243.958 188.59 244.271 190.163 244.425C197.234 245.125 201.87 245.868 204.065 246.644C206.26 247.426 207.76 248.4 208.565 249.563C209.371 250.73 209.752 251.82 209.704 252.833C209.598 255.158 208.411 257.445 206.144 259.702C201.976 263.759 196.245 266.721 188.952 268.583C187.968 269.813 187.466 270.672 187.442 271.164C187.418 271.656 187.867 272.008 188.783 272.215C189.7 272.427 190.722 272.596 191.851 272.722C192.98 272.847 193.988 273.262 194.885 273.966C195.782 274.671 196.202 275.568 196.154 276.663C196.106 277.758 195.864 278.814 195.44 279.832C194.051 283.151 191.909 285.664 189.019 287.376C186.125 289.084 182.903 290.102 179.353 290.42C177.766 290.565 176.738 290.526 176.27 290.304C175.797 290.087 175.595 289.354 175.648 288.11C175.706 286.865 176.048 285.741 176.675 284.743C177.302 283.739 177.867 283.218 178.368 283.175C178.865 283.131 179.155 283.228 179.232 283.464C179.304 283.701 179.415 283.816 179.55 283.802C184.186 283.059 187.297 282.176 188.889 281.154C189.56 280.734 189.907 280.329 189.921 279.938C189.941 279.547 189.651 279.219 189.063 278.964C188.474 278.708 187.76 278.496 186.931 278.327C186.096 278.158 185.257 277.946 184.408 277.7C182.411 277.029 181.451 275.905 181.523 274.318C181.596 272.731 182.237 271.115 183.443 269.475C180.346 269.659 178.108 269.229 176.728 268.197C175.354 267.165 174.698 265.848 174.775 264.242C174.847 262.64 175.358 261.101 176.299 259.63C177.24 258.159 178.402 257.363 179.782 257.237C181.161 257.112 181.837 257.397 181.803 258.082" fill="white"/>
<path d="M255.761 224.064C258.38 223.828 259.654 224.561 259.572 226.264C259.529 227.18 259.278 227.87 258.81 228.338C258.342 228.801 257.319 230.306 255.747 232.839C254.169 235.376 252.409 238.598 250.465 242.505C248.516 246.413 247.228 249.712 246.586 252.409C246.466 252.746 246.393 253.209 246.369 253.798C246.287 255.597 246.765 256.451 247.797 256.359C248.834 256.268 250.074 255.689 251.531 254.632C252.988 253.571 254.29 252.462 255.443 251.299C256.596 250.137 257.72 248.95 258.824 247.744C259.929 246.538 260.585 245.844 260.797 245.66C261.009 245.477 261.328 245.371 261.738 245.332C262.394 245.274 262.765 245.713 262.862 246.649C262.953 247.585 262.982 248.564 262.934 249.577C262.886 250.59 262.751 251.304 262.529 251.714C261.444 253.668 259.143 256.109 255.631 259.032C252.114 261.955 248.969 263.542 246.196 263.793C243.422 264.044 241.415 263.421 240.18 261.94C238.941 260.455 238.371 258.737 238.458 256.794C238.545 254.845 238.97 253.103 239.727 251.569C236.702 255.361 233.282 258.651 229.467 261.439C225.646 264.227 222.569 265.722 220.224 265.935C217.88 266.147 215.999 265.645 214.576 264.439C212.757 262.939 211.913 260.71 212.048 257.749C212.183 254.787 213.018 251.748 214.552 248.627C216.086 245.506 218.044 242.612 220.432 239.934C222.82 237.262 225.42 234.787 228.237 232.511C234.155 227.74 239.524 225.14 244.353 224.706C246.215 224.537 247.72 224.696 248.863 225.179C250.006 225.661 250.716 226.331 250.986 227.19C251.868 225.936 252.597 225.13 253.18 224.768C253.764 224.407 254.623 224.175 255.761 224.074M248.632 230.132C242.737 230.663 236.495 234.32 229.901 241.102C227.557 243.528 225.376 246.379 223.355 249.659C221.334 252.934 220.297 255.149 220.244 256.292C220.191 257.44 220.509 257.98 221.199 257.917C222.164 257.831 224.937 255.781 229.515 251.767C234.093 247.754 237.146 244.831 238.671 243.002C240.344 240.962 243.663 236.674 248.632 230.132Z" fill="white"/>
<path d="M275.857 232.771C284.395 223.269 291.525 218.262 297.246 217.745C298.659 217.62 299.802 217.914 300.68 218.633C301.558 219.352 301.963 220.35 301.906 221.629C301.848 222.907 300.791 225.126 298.741 228.295C296.691 231.459 294.81 234.146 293.093 236.356C292.181 237.479 291.187 238.092 290.097 238.189C289.012 238.285 288.182 237.986 287.613 237.286C287.044 236.587 286.783 235.733 286.831 234.715C286.933 232.458 288.327 229.79 291.009 226.713L290.907 226.621C289.764 226.824 286.851 229.202 282.162 233.76C277.473 238.319 273.474 242.385 270.17 245.96C266.866 249.534 263.262 253.842 259.36 258.883C258.226 260.388 257.29 261.169 256.548 261.237C255.805 261.304 254.835 261.169 253.629 260.841C252.428 260.508 251.7 260.257 251.449 260.084C251.198 259.91 251.087 259.596 251.106 259.138C251.126 258.68 251.29 258.135 251.594 257.503C251.897 256.876 252.447 255.969 253.239 254.792C254.03 253.615 255.231 251.714 256.847 249.09C258.458 246.471 260.966 242.496 264.367 237.171C267.768 231.845 269.803 228.633 270.474 227.528C271.882 225.251 273.021 223.582 273.894 222.526C275.529 220.519 278.192 219.352 281.882 219.024C282.712 218.951 283.102 219.405 283.054 220.384C282.982 221.923 281.351 224.952 278.158 229.477L275.843 232.767L275.857 232.771Z" fill="white"/>
<path d="M364.532 178.75C364.17 178.393 363.664 178.243 363.008 178.301C362.815 178.32 362.632 178.349 362.444 178.374C359.66 178.731 357.543 179.801 356.11 181.61C353.949 184.046 350.017 189.637 344.316 198.383C342.468 201.209 340.442 204.369 338.228 207.856C335.334 212.613 333.351 215.792 332.28 217.383C330.857 216.24 329.594 215.719 328.489 215.821C325.006 216.134 321.152 217.514 316.922 219.964C312.691 222.415 308.803 225.338 305.267 228.734C301.731 232.13 298.736 235.863 296.285 239.93C293.835 243.996 292.542 247.411 292.417 250.175C292.291 252.939 292.721 255.014 293.705 256.388C294.689 257.768 296.281 258.357 298.49 258.159C302.455 257.802 307.226 255.158 312.807 250.224C315.812 247.542 318.793 244.358 321.74 240.673C319.483 245.048 318.292 248.526 318.171 251.111C317.978 255.269 320.472 257.112 325.643 256.649C328.677 256.374 331.952 254.768 335.469 251.83C338.986 248.892 341.282 246.461 342.367 244.536C342.594 244.126 342.734 243.292 342.791 242.028C342.849 240.769 342.806 239.795 342.666 239.105C342.526 238.415 342.164 238.102 341.576 238.155C341.195 238.188 340.881 238.314 340.63 238.531C340.38 238.748 339.67 239.471 338.498 240.702C337.326 241.932 336.164 243.118 335.015 244.266C333.863 245.414 332.536 246.509 331.031 247.556C329.521 248.603 328.253 249.172 327.22 249.269C326.188 249.36 325.701 248.738 325.764 247.397L325.783 247.006C325.865 245.27 328.315 240.031 333.144 231.286C337.973 222.54 344.576 211.778 352.955 199C354.282 196.96 356.1 194.196 358.396 190.722C358.589 190.428 358.782 190.134 358.985 189.83C359.13 189.613 359.269 189.396 359.409 189.188C361.744 185.653 363.259 183.342 363.939 182.247C364.662 181.089 365.034 180.308 365.053 179.898C365.072 179.488 364.899 179.107 364.537 178.745M317.732 235.849C309.16 245.352 303.839 250.2 301.775 250.383C301.293 250.426 301.075 249.91 301.124 248.83C301.172 247.749 302.349 245.289 304.655 241.449C306.96 237.609 310.323 233.828 314.751 230.104C319.179 226.385 323.897 223.775 328.909 222.28C325.725 226.64 321.996 231.165 317.732 235.849Z" fill="white"/>
<path d="M364.074 240.48C364.031 241.464 363.891 242.178 363.669 242.617C361.831 246.042 359.019 248.926 355.242 251.271C351.46 253.615 348.209 254.908 345.483 255.154C342.758 255.4 340.457 254.744 338.571 253.186C336.685 251.628 335.783 249.949 335.865 248.15C335.947 246.35 337.013 243.649 339.068 240.041C341.118 236.433 343.163 233.09 345.189 230.007C347.22 226.925 348.238 225.261 348.252 225.015C348.262 224.769 347.934 224.32 347.259 223.664C346.583 223.008 346.255 222.507 346.27 222.164C346.284 221.822 347.041 220.857 348.537 219.27C350.032 217.683 351.841 216.086 353.959 214.48C356.076 212.873 357.678 212.02 358.763 211.923C359.849 211.827 360.804 212.198 361.624 213.037C362.444 213.877 362.835 214.673 362.801 215.425C362.767 216.178 358.339 223.63 349.521 237.783C349.41 237.991 349.106 238.449 348.609 239.163C348.112 239.877 347.726 240.465 347.447 240.928C347.167 241.392 346.839 241.951 346.467 242.607C345.72 243.977 345.324 245.106 345.281 245.989C345.228 247.103 346 247.585 347.582 247.445C349.169 247.301 350.838 246.64 352.589 245.458C354.345 244.271 355.869 243.008 357.167 241.647C360.558 238.049 362.478 236.23 362.926 236.192C363.823 236.11 364.204 237.542 364.069 240.49" fill="white"/>
</g>
</g>
</svg>
