<svg width="222" height="363" viewBox="0 0 222 363" fill="none" xmlns="http://www.w3.org/2000/svg">
<g clip-path="url(#clip0_1572_44)">
<path d="M214.189 343.338C214.189 343.338 212.343 334.452 212.343 334.213C212.343 333.974 202.071 334.213 202.071 334.213L198.691 344.731C198.691 344.731 204.948 351.219 208.394 350.733C211.848 350.238 214.181 343.346 214.181 343.346L214.189 343.338Z" fill="#FFA982"/>
<path d="M175.28 354.106C176.467 352.63 182.064 353.19 184.117 352.498C186.161 351.806 195.864 341.609 199.137 341.716C201.717 341.798 202.096 341.815 202.138 341.815C202.138 341.815 205.237 342.293 206.301 342.763C207.372 343.241 205.55 347.643 208.032 348.607C210.505 349.563 211.074 346.316 211.395 344.56C211.717 342.812 214.198 343.331 214.198 343.331C214.107 344.024 218.072 347.354 218.485 349.448C218.897 351.542 219.276 352.556 219.276 352.556C219.276 352.556 220.966 354.872 222.227 358.186C223.488 361.5 216.622 362.786 213.637 362.942C210.653 363.099 210.595 360.709 208.419 361.079C206.243 361.45 207.817 363.14 205.921 363.198C204.025 363.264 183.969 362.555 180.605 361.821C177.242 361.088 174.085 355.573 175.28 354.097V354.106Z" fill="#EAE6E4"/>
<path d="M203.491 343.982C203.491 343.982 198.314 342.498 197.481 343.034C196.657 343.57 192.048 346.777 191.933 347.296C191.818 347.815 196.574 349.95 197.613 349.126C198.652 348.302 203.491 343.982 203.491 343.982Z" fill="white"/>
<path d="M127.467 343.338C127.467 343.338 125.62 334.452 125.62 334.213C125.62 333.974 115.349 334.213 115.349 334.213L111.969 344.731C111.969 344.731 118.226 351.219 121.671 350.733C125.126 350.238 127.458 343.346 127.458 343.346L127.467 343.338Z" fill="#FFA982"/>
<path d="M130.871 65.517C130.871 65.517 125.826 65.3027 122.438 68.328C115.406 74.593 112.677 86.2905 108.976 95.8363C107.435 99.8179 105.951 102.81 104.797 104.879C103.395 107.402 102.925 104.319 102.299 104.137C101.425 103.89 99.5042 106.446 99.5042 106.446L67.5108 83.43C67.5108 83.43 64.8729 82.0204 57.8493 88.5409C54.3953 91.7476 55.2443 96.6442 55.2443 96.6442C55.2443 96.6442 73.9573 131.209 98.1358 134.646C131.127 139.329 133.905 80.652 130.879 65.5088L130.871 65.517Z" fill="#4B9956"/>
<path d="M129.528 24.895C129.528 24.895 129.017 22.3807 132.809 22.084C136.61 21.779 140.814 25.9913 141.482 30.6242C142.141 35.257 144.606 35.7103 146.972 37.0128C149.338 38.3153 151.564 42.9646 150.748 45.0254C149.931 47.0945 149.503 48.7185 151.053 49.7077C152.602 50.6969 153.921 50.4826 154.54 53.2853C155.158 56.0881 155.438 57.6131 153.163 58.5199C150.888 59.4267 148.868 57.8852 147.096 59.2948C145.323 60.6962 141.91 63.9688 139.701 64.8096C137.492 65.6505 130.773 65.4526 127.715 66.3841C124.657 67.3074 123.09 67.5629 121.359 66.7633C119.628 65.9719 115.432 48.636 116.743 43.08C118.053 37.5239 129.52 24.9115 129.52 24.9115L129.528 24.895Z" fill="#82664B"/>
<path d="M144.943 69.8222C140.302 73.2927 131.778 72.93 129.841 72.2952C129.503 72.1881 129.231 71.9325 129.008 71.5781C128.324 70.5147 128.39 69.1215 129.099 68.0746C130.344 66.2363 131.119 64.5959 131.143 60.8863C131.185 54.3658 137.911 47.3589 137.911 47.3589C137.911 47.3589 138.389 53.2777 139.939 56.1793C141.349 58.8172 145.339 62.9637 147.705 63.9034C147.606 65.6593 148.076 67.4728 144.943 69.814V69.8222Z" fill="#FFA982"/>
<path d="M132.033 63.7867C131.597 63.9598 131.201 64.1082 130.838 64.2236C131.036 63.3168 131.143 62.2451 131.151 60.8932C131.151 59.8381 131.341 58.7747 131.638 57.7277L137.466 54.249C137.466 54.249 135.389 62.4265 132.033 63.7867Z" fill="#2E2E47"/>
<path d="M138.721 45.7676C138.721 45.7676 140.007 45.3307 140.584 43.8139C141.046 42.6022 139.842 40.0549 138.622 39.6675C137.41 39.2801 136.363 39.8241 136.099 39.8818C135.827 39.9313 133.387 34.4577 130.692 32.4875C127.996 30.5173 126.669 29.594 122.506 32.0094C118.335 34.4247 117.329 37.8457 116.818 40.3764C116.298 42.9072 118.038 46.7321 118.771 48.5951C119.505 50.4582 119.34 51.2001 119.489 52.3294C119.818 54.9261 120.296 56.649 122.209 58.8417C124.121 61.0345 128.004 62.2215 132.167 60.1112C136.33 58.0009 140.502 53.129 138.729 45.7841L138.721 45.7676Z" fill="#FFA982"/>
<path d="M125.942 52.5081C125.554 52.5081 125.175 52.3844 124.846 52.1454C124.112 51.6178 123.733 50.6368 123.832 49.524C123.947 48.1885 123.518 45.0972 122.307 44.1822C121.952 43.9184 121.565 43.869 121.111 44.0421C119.916 44.5367 118.514 45.2786 118.366 45.5918C118.292 45.7485 118.094 45.8144 117.937 45.7402C117.781 45.666 117.715 45.4682 117.789 45.3116C118.119 44.6439 120.229 43.7206 120.872 43.4486C121.532 43.193 122.158 43.2754 122.686 43.6794C124.12 44.7675 124.598 48.0566 124.458 49.5899C124.384 50.4637 124.672 51.2468 125.208 51.6343C125.579 51.9063 126.016 51.9475 126.445 51.7662C127.78 51.1891 127.78 50.406 127.673 49.8702C127.64 49.6971 127.747 49.524 127.92 49.491C128.094 49.458 128.267 49.5652 128.3 49.7383C128.473 50.5379 128.333 51.6508 126.7 52.3515C126.445 52.4586 126.189 52.5163 125.934 52.5163L125.942 52.5081Z" fill="#2E2E47"/>
<path d="M117.377 87.3881C117.377 87.3881 113.733 116.224 112.612 126C111.491 135.777 104.534 151.481 103.445 168.677C102.357 185.872 99.5049 242.95 99.5049 242.95L182.658 241.524L117.385 87.3799L117.377 87.3881Z" fill="#4B9956"/>
<path d="M125.447 41.8153C125.331 41.8153 125.216 41.7493 125.158 41.6339C125.076 41.4773 125.142 41.2795 125.298 41.2053C127.277 40.2161 130.113 40.3232 130.228 40.3232C130.401 40.3232 130.541 40.4798 130.533 40.653C130.533 40.8261 130.368 40.9662 130.203 40.958C130.179 40.958 127.417 40.859 125.587 41.7741C125.537 41.7988 125.496 41.807 125.447 41.807V41.8153Z" fill="#2E2E47"/>
<path d="M120.164 48.8095C120.164 48.8095 120.254 49.7822 120.897 50.3345C121.54 50.8869 122.002 50.1532 122.076 49.7575C122.15 49.3618 121.911 48.3561 121.73 48.3067C121.549 48.2654 120.765 48.2819 120.164 48.8095Z" fill="#2E2E47"/>
<path d="M127.724 45.9717C127.724 45.9717 127.741 47.2906 128.532 47.777C129.323 48.2716 129.925 47.6451 130.082 47.2165C130.238 46.7878 129.612 45.2545 129.373 45.2298C129.134 45.2051 128.079 45.2875 127.724 45.9717Z" fill="#2E2E47"/>
<path d="M127.146 46.5657C127.08 46.5657 127.023 46.5492 126.965 46.508C126.817 46.4091 126.784 46.2112 126.882 46.0629C128.655 43.4827 131.878 45.0572 131.911 45.0737C132.068 45.1561 132.134 45.3457 132.051 45.5023C131.969 45.6589 131.779 45.7249 131.623 45.6425C131.507 45.5848 128.869 44.307 127.41 46.4173C127.344 46.508 127.245 46.5575 127.146 46.5575V46.5657Z" fill="#2E2E47"/>
<path d="M120.304 49.2944C120.131 49.2944 119.991 49.1543 119.982 48.9812C119.982 48.9482 119.982 48.0744 121.062 47.6952C122.019 47.3655 123.173 47.6787 123.214 47.6952C123.387 47.7447 123.486 47.9178 123.436 48.0909C123.387 48.264 123.214 48.3629 123.041 48.3135C123.033 48.3135 122.035 48.0414 121.268 48.3052C120.65 48.5195 120.617 48.9317 120.617 48.9812C120.617 49.1543 120.469 49.2944 120.296 49.2944H120.304Z" fill="#2E2E47"/>
<path d="M140.468 47.0581C140.369 47.0581 140.278 47.0169 140.212 46.9262L138.704 44.9148C138.596 44.7747 138.629 44.5686 138.77 44.4697C138.91 44.3625 139.116 44.3955 139.215 44.5356L140.723 46.547C140.83 46.6872 140.797 46.8933 140.657 46.9922C140.6 47.0334 140.534 47.0581 140.468 47.0581Z" fill="#2E2E47"/>
<path d="M130.228 48.2964C130.228 48.2964 133.195 46.8044 134.284 47.6287C135.38 48.453 132.074 50.11 130.285 50.2254C128.497 50.3408 129.461 48.6344 130.219 48.2964H130.228Z" fill="#F2836D"/>
<path d="M119.463 52.2452C119.463 52.2452 122.035 50.1431 123.28 50.7119C124.525 51.2807 121.664 53.6136 119.941 54.1164C118.218 54.6193 118.795 52.7398 119.463 52.2534V52.2452Z" fill="#F2836D"/>
<path d="M130.467 30.5492C130.467 30.5492 126.453 35.3057 125.348 36.4762C124.243 37.6468 122.57 40.1611 121.152 40.7299C119.734 41.2987 118.679 43.1452 119.281 45.3132C119.882 47.4812 121.218 48.6848 120.542 49.9625C119.866 51.2485 119.544 51.1083 120.047 52.6828C120.55 54.2573 121.572 56.1368 121.366 57.5712C121.16 59.0055 123.229 63.6136 122.883 65.6332C122.537 67.6529 121.21 69.0213 119.668 68.8894C118.118 68.7575 114.796 68.3618 113.675 69.1697C110.32 71.5767 107.764 69.5901 107.336 69.0213C106.907 68.4525 108.646 62.7068 108.152 61.7423C107.657 60.7779 106.627 60.003 105.951 58.3708C105.275 56.7386 104.929 54.4304 106.701 52.9961C107.542 52.3119 103.404 48.5034 109.397 46.6074C111.144 46.0551 107.08 43.4749 106.66 42.7825C105.654 41.1008 107.616 39.7159 108.02 38.8339C108.424 37.9436 110.831 36.196 110.567 35.7179C110.303 35.2397 108.094 32.8574 108.82 31.4725C109.545 30.0876 113.016 29.9227 113.766 29.5353C114.516 29.1478 114.738 24.919 118.753 24.3337C122.768 23.7484 122.026 23.361 123.732 22.9405C125.439 22.5201 125.999 21.432 128.777 22.3717C131.555 23.3115 130.335 30.0299 130.467 30.541V30.5492Z" fill="#82664B"/>
<path d="M126.618 33.9268C126.618 33.9268 129.346 33.1931 129.725 34.7346C130.22 36.779 130.789 37.4714 131.506 37.9166C132.355 38.4524 133.344 37.422 134.482 39.5818C134.96 40.4968 135.76 40.2989 137.557 39.5323C139.346 38.7656 134.944 33.9185 133.641 32.1132C132.339 30.3161 129.791 27.8431 128.489 28.7911C127.186 29.7391 126.065 32.0143 126.626 33.9268H126.618Z" fill="#82664B"/>
<path d="M126.864 55.7812C126.708 55.7812 126.551 55.773 126.394 55.7482C126.221 55.7235 126.098 55.5587 126.122 55.3855C126.147 55.2124 126.312 55.0888 126.485 55.1135C128.389 55.3773 129.782 53.506 129.791 53.4813C129.898 53.3412 130.096 53.3082 130.236 53.4071C130.376 53.5143 130.409 53.7121 130.31 53.8523C130.252 53.9347 128.892 55.773 126.864 55.773V55.7812Z" fill="#2E2E47"/>
<path d="M155.176 98.7821C158.135 99.0294 159.751 99.5652 160.633 100.093C160.418 106.778 160.344 115.088 161.16 117.758C162.603 122.465 164.664 126.208 164.664 126.208L118.64 127.346C118.64 127.346 123.034 116.497 122.02 108.114C121.649 105.031 120.824 102.088 120.124 100.192C122.391 99.0788 126.966 99.0459 131.657 98.5348C137.608 97.8918 148.523 98.2298 155.167 98.7821H155.176Z" fill="#FFA982"/>
<path d="M161.16 117.756C161.16 117.756 165.183 127.566 166.914 130.764C168.645 133.962 177.969 145.141 181.786 162.666C185.603 180.192 222.427 334.03 215.931 335.712C209.443 337.394 188.175 339.685 182.602 338.779C177.021 337.872 168.843 335.753 167.821 333.412C166.807 331.071 139.694 167.249 139.735 165.461C139.735 165.461 109.498 150.754 112.869 141.035C116.233 131.316 120.223 122.034 120.899 119.841C120.899 119.841 134.402 120.93 141.252 120.361C155.546 119.174 161.152 117.764 161.152 117.764L161.16 117.756Z" fill="#FFAB01"/>
<path d="M125.508 68.1826C127.626 66.163 129.539 64.8358 130.882 63.9785C130.61 65.2068 130.256 66.7318 130.899 67.2841C132.309 68.4794 136.867 69.889 141.954 68.5866C145.391 67.7045 147.015 65.3387 147.708 63.9043C147.881 63.995 148.054 64.0774 148.227 64.1516C149.266 64.5885 149.497 64.5555 149.999 64.6709C149.686 66.2619 149.835 68.9245 149.942 71.0101C150.098 74.0849 155.819 88.5439 157.724 90.6295C158.837 91.8495 160.081 92.5007 160.939 92.8387C160.856 94.5286 160.733 97.15 160.634 100.085C159.752 99.5653 158.136 99.0213 155.176 98.774C148.532 98.2217 137.618 97.8837 131.666 98.5267C126.975 99.0378 122.392 99.0707 120.133 100.184C119.646 98.8646 119.267 98.0486 119.267 98.0486C119.267 98.0486 117.577 93.0943 116.563 88.5521C115.541 84.01 119.053 74.3487 125.524 68.1826H125.508Z" fill="white"/>
<path d="M117.725 93.0944C118.03 94.1743 118.336 95.1635 118.583 95.9714C124.724 95.1635 145.844 92.7482 160.807 95.5922C160.856 94.5288 160.897 93.5973 160.938 92.8471C160.691 92.7482 160.403 92.6163 160.098 92.4597C144.245 89.7723 123.216 92.3443 117.717 93.1027L117.725 93.0944Z" fill="#FFAB01"/>
<path d="M154.927 85.3683C154.482 84.3709 154.028 83.2992 153.583 82.2111C139.948 80.5954 123.824 82.2111 116.866 83.0767C116.603 84.1648 116.446 85.1952 116.396 86.1267C122.925 85.2941 140.872 83.3899 154.927 85.3683Z" fill="#FFAB01"/>
<path d="M121.804 72.5014C121.07 73.5318 120.411 74.5952 119.817 75.6751C128.053 74.8838 140.558 74.1583 151.102 75.5102C150.706 74.3232 150.393 73.2598 150.187 72.4107C140.542 71.3226 129.718 71.809 121.804 72.5014Z" fill="#FFAB01"/>
<path d="M112.596 142.388C100.412 190.324 98.359 338.079 101.813 339.934C105.267 341.788 133.988 337.073 138.242 338.054C142.487 339.035 148.043 340.956 148.802 335.301C149.56 329.646 141.646 156.089 141.646 156.089C141.646 156.089 115.605 130.551 112.596 142.388Z" fill="#FFAB01"/>
<path d="M148.232 64.1479C148.232 64.1479 149.625 111.16 155.371 127.128C161.116 143.095 172.352 170.01 174.051 180.372C175.749 190.742 182.649 241.522 182.649 241.522L204.173 233.963C204.173 233.963 188.395 170.026 184.949 160.332C181.495 150.646 157.275 67.6597 157.275 67.6597C157.275 67.6597 152.098 64.2551 148.232 64.1479Z" fill="#4B9956"/>
<path d="M152.446 65.6577C151.028 64.9818 150.418 64.7757 150.005 64.6768C149.692 66.2677 149.214 69.0788 149.321 71.1643C149.478 74.2391 155.825 88.5415 157.721 90.6353C158.834 91.8553 160.079 92.5066 160.937 92.8445C161.002 91.5998 161.044 90.8579 161.044 90.8579L181.941 106.026C181.941 106.026 182.362 108.507 183.062 109.076C183.862 109.727 186.797 109.546 186.797 109.546C186.797 109.546 166.254 149.955 168.718 153.813C169.551 155.115 174.728 160.342 178.561 158.413C191.248 152.032 212.335 124.804 208.65 105.869C204.652 85.3183 155.562 67.1333 152.446 65.6495V65.6577Z" fill="#4B9956"/>
<path d="M173.664 154.289C173.664 154.289 163.632 143.647 160.631 144.001C157.63 144.356 152.198 148.7 152.165 150.316C152.132 151.932 155.479 149.145 155.479 149.145C155.479 149.145 152.041 153.069 152.725 153.704C153.41 154.339 154.918 153.366 154.918 153.366C154.918 153.366 154.341 154.644 155.141 154.866C155.94 155.089 159.576 151.8 159.576 151.8C159.576 151.8 156.658 155.039 157.177 156.399C157.696 157.76 161.546 153.16 161.546 153.16C161.546 153.16 163.145 156.053 164.382 156.985C165.618 157.916 170.639 162.17 173.672 159.425C176.706 156.68 173.672 154.289 173.672 154.289H173.664Z" fill="#FFA982"/>
<path d="M88.5585 354.106C89.7456 352.63 95.3429 353.19 97.3956 352.498C99.44 351.806 109.143 341.609 112.415 341.716C114.996 341.798 115.375 341.815 115.416 341.815C115.416 341.815 118.516 342.293 119.579 342.763C120.651 343.241 118.829 347.643 121.31 348.607C123.783 349.563 124.352 346.316 124.674 344.56C124.995 342.812 127.476 343.331 127.476 343.331C127.386 344.024 131.351 347.354 131.763 349.448C132.175 351.542 132.555 352.556 132.555 352.556C132.555 352.556 134.244 354.872 135.506 358.186C136.767 361.5 129.9 362.786 126.916 362.942C123.94 363.099 123.874 360.709 121.698 361.079C119.521 361.45 121.096 363.14 119.2 363.198C117.304 363.264 97.2472 362.555 93.8838 361.821C90.5204 361.088 87.3714 355.573 88.5585 354.097V354.106Z" fill="#EAE6E4"/>
<path d="M116.768 343.982C116.768 343.982 111.591 342.498 110.759 343.034C109.934 343.57 105.326 346.777 105.211 347.296C105.095 347.815 109.852 349.95 110.89 349.126C111.929 348.31 116.768 343.982 116.768 343.982Z" fill="white"/>
<path d="M66.5475 87.7739C66.5475 87.7739 61.2964 80.4455 60.6286 79.786C56.6305 75.8374 50.9094 76.2331 49.5822 75.2439C48.2467 74.2547 47.3152 74.6009 47.6614 75.5901C48.0076 76.5793 50.0273 77.6592 50.0273 77.6592C50.0273 77.6592 39.0304 77.0657 37.5466 77.4119C36.0627 77.7582 41.6931 79.0853 41.6931 79.0853C41.6931 79.0853 37.1096 78.5907 36.1204 79.5799C35.1311 80.5692 40.5637 81.2121 40.5637 81.2121C40.5637 81.2121 38.4451 81.1627 37.8516 82.0035C37.258 82.8443 43.7705 83.2895 43.7705 83.2895C43.7705 83.2895 42.1959 83.4873 41.8992 84.1798C41.6024 84.8722 55.4187 85.6141 55.4187 85.6141C55.4187 85.6141 57.0921 93.0662 59.5157 93.3547C61.9311 93.6515 68.3941 89.5545 66.5722 87.7821L66.5475 87.7739Z" fill="#FFA982"/>
<path d="M142.718 184.759C142.561 184.759 142.429 184.643 142.405 184.487C142.363 184.239 138.604 159.987 135.826 155.931C133.873 153.071 129.198 150.458 125.786 148.545C124.277 147.696 122.975 146.971 122.15 146.369C122.01 146.262 121.977 146.064 122.084 145.924C122.191 145.784 122.389 145.751 122.529 145.858C123.312 146.435 124.607 147.16 126.099 147.993C129.569 149.938 134.318 152.593 136.354 155.577C139.214 159.748 142.883 183.398 143.039 184.396C143.064 184.569 142.949 184.734 142.776 184.759C142.759 184.759 142.743 184.759 142.726 184.759H142.718Z" fill="white"/>
<path d="M132.529 157.598H117.459C117.286 157.598 117.138 157.458 117.138 157.277C117.138 157.095 117.278 156.955 117.459 156.955H132.529C132.702 156.955 132.85 157.095 132.85 157.277C132.85 157.458 132.71 157.598 132.529 157.598Z" fill="white"/>
<path d="M129.348 334.09C129.348 334.09 129.331 334.09 129.323 334.09C129.15 334.074 129.018 333.925 129.026 333.744L132.217 291.299C132.233 291.125 132.382 290.985 132.563 291.002C132.736 291.018 132.868 291.167 132.86 291.348L129.67 333.793C129.653 333.958 129.513 334.09 129.348 334.09Z" fill="white"/>
<path d="M138.498 329.771C138.325 329.771 138.176 329.631 138.176 329.449V277.342C138.176 277.169 138.316 277.021 138.498 277.021C138.679 277.021 138.819 277.161 138.819 277.342V329.449C138.819 329.622 138.679 329.771 138.498 329.771Z" fill="white"/>
<path d="M186.796 109.868C186.664 109.868 186.541 109.785 186.491 109.653C186.434 109.489 186.524 109.307 186.689 109.25C187.085 109.109 196.474 105.911 200.456 106.686C200.629 106.719 200.744 106.884 200.712 107.065C200.679 107.238 200.514 107.354 200.332 107.321C196.515 106.579 186.994 109.827 186.895 109.86C186.862 109.868 186.829 109.876 186.788 109.876L186.796 109.868Z" fill="white"/>
<path d="M182.214 105.566C182.131 105.566 182.057 105.533 181.991 105.475C181.859 105.351 181.859 105.154 181.983 105.022C182.172 104.824 186.64 100.183 193.153 99.8695C193.326 99.8613 193.483 99.9932 193.491 100.175C193.499 100.348 193.367 100.504 193.186 100.512C186.929 100.817 182.494 105.417 182.444 105.467C182.379 105.533 182.296 105.566 182.214 105.566Z" fill="white"/>
<path d="M106.95 123.747C106.95 123.747 106.9 123.747 106.867 123.739C106.694 123.698 106.595 123.516 106.637 123.351C108.45 116.312 103.809 106.032 103.76 105.925C103.685 105.76 103.76 105.57 103.916 105.496C104.081 105.422 104.271 105.496 104.345 105.653C104.353 105.678 105.557 108.315 106.513 111.811C107.395 115.05 108.244 119.7 107.263 123.508C107.222 123.657 107.098 123.747 106.95 123.747Z" fill="white"/>
<path d="M97.4187 122.619C97.3775 122.619 97.3362 122.611 97.295 122.594C97.1301 122.528 97.0559 122.339 97.1219 122.174C99.3724 116.898 99.1828 106.569 99.1745 106.462C99.1745 106.289 99.3147 106.141 99.4878 106.132C99.6691 106.132 99.8093 106.272 99.8175 106.446C99.8258 106.874 100.015 117.014 97.7072 122.421C97.6577 122.545 97.5341 122.619 97.4104 122.619H97.4187Z" fill="white"/>
</g>
<defs>
<clipPath id="clip0_1572_44">
<rect width="222" height="363" fill="white"/>
</clipPath>
</defs>
</svg>
